<svg xmlns="http://www.w3.org/2000/svg" viewBox="0 0 5286 264.04"><defs><style>.cls-1{fill:#fff;}.cls-2{opacity:0.5;}.cls-3{fill:none;stroke:#000;stroke-miterlimit:10;stroke-width:2px;}</style></defs><g id="Capa_2" data-name="Capa 2"><g id="Capa_1-2" data-name="Capa 1"><g id="Capa_2-2" data-name="Capa 2"><rect class="cls-1" x="1" y="1" width="5284" height="263.04"/><rect x="1" y="236.5" width="5284" height="27.54"/><g class="cls-2"><polygon class="cls-3" points="3545.28 1 3296.74 236.5 3338.55 236.5 3587.1 1 3545.28 1"/><polygon class="cls-3" points="3587.1 1 3338.55 236.5 3380.37 236.5 3628.91 1 3587.1 1"/><polygon class="cls-3" points="3628.91 1 3380.37 236.5 3422.19 236.5 3670.73 1 3628.91 1"/><polygon class="cls-3" points="3461.64 1 3213.1 236.5 3254.92 236.5 3503.45 1 3461.64 1"/><polygon class="cls-3" points="3503.45 1 3254.92 236.5 3296.74 236.5 3545.28 1 3503.45 1"/><polygon class="cls-3" points="3336.18 1 3087.64 236.5 3129.46 236.5 3378 1 3336.18 1"/><polygon class="cls-3" points="3419.81 1 3171.28 236.5 3213.1 236.5 3461.64 1 3419.81 1"/><polygon class="cls-3" points="3670.73 1 3422.19 236.5 3464.01 236.5 3712.55 1 3670.73 1"/><polygon class="cls-3" points="3378 1 3129.46 236.5 3171.28 236.5 3419.81 1 3378 1"/><polygon class="cls-3" points="3963.46 1 3714.93 236.5 3756.75 236.5 4005.28 1 3963.46 1"/><polygon class="cls-3" points="3921.65 1 3673.11 236.5 3714.93 236.5 3963.46 1 3921.65 1"/><polygon class="cls-3" points="3879.83 1 3631.29 236.5 3673.11 236.5 3921.65 1 3879.83 1"/><polygon class="cls-3" points="4005.28 1 3756.75 236.5 3798.56 236.5 4047.1 1 4005.28 1"/><polygon class="cls-3" points="3754.37 1 3505.83 236.5 3547.65 236.5 3796.19 1 3754.37 1"/><polygon class="cls-3" points="3712.55 1 3464.01 236.5 3505.83 236.5 3754.37 1 3712.55 1"/><polygon class="cls-3" points="3838.01 1 3589.47 236.5 3631.29 236.5 3879.83 1 3838.01 1"/><polygon class="cls-3" points="3796.19 1 3547.65 236.5 3589.47 236.5 3838.01 1 3796.19 1"/><polygon class="cls-3" points="4047.1 1 3798.56 236.5 3840.38 236.5 4088.92 1 4047.1 1"/><polygon class="cls-3" points="3294.36 1 3045.82 236.5 3087.64 236.5 3336.18 1 3294.36 1"/><polygon class="cls-3" points="2917.99 1 2669.45 236.5 2711.27 236.5 2959.8 1 2917.99 1"/><polygon class="cls-3" points="2876.59 1 2628.05 236.5 2669.87 236.5 2918.41 1 2876.59 1"/><polygon class="cls-3" points="3127.08 1 2878.54 236.5 2920.36 236.5 3168.9 1 3127.08 1"/><polygon class="cls-3" points="2959.8 1 2711.27 236.5 2753.09 236.5 3001.63 1 2959.8 1"/><polygon class="cls-3" points="3210.72 1 2962.18 236.5 3004 236.5 3252.54 1 3210.72 1"/><polygon class="cls-3" points="3252.54 1 3004 236.5 3045.82 236.5 3294.36 1 3252.54 1"/><polygon class="cls-3" points="3168.9 1 2920.36 236.5 2962.18 236.5 3210.72 1 3168.9 1"/><polygon class="cls-3" points="3001.63 1 2753.09 236.5 2794.91 236.5 3043.45 1 3001.63 1"/><polygon class="cls-3" points="3043.45 1 2794.91 236.5 2836.73 236.5 3085.27 1 3043.45 1"/><polygon class="cls-3" points="3085.27 1 2836.73 236.5 2878.54 236.5 3127.08 1 3085.27 1"/><polygon class="cls-3" points="4381.66 1 4133.12 236.5 4174.94 236.5 4423.48 1 4381.66 1"/><polygon class="cls-3" points="5092.58 1 4844.04 236.5 4885.87 236.5 5134.4 1 5092.58 1"/><polygon class="cls-3" points="5134.4 1 4885.87 236.5 4927.69 236.5 5176.23 1 5134.4 1"/><polygon class="cls-3" points="5050.76 1 4802.22 236.5 4844.04 236.5 5092.58 1 5050.76 1"/><polygon class="cls-3" points="5176.23 1 4927.69 236.5 4969.49 236.5 5218.03 1 5176.23 1"/><polygon class="cls-3" points="5218.03 1 4969.49 236.5 5011.31 236.5 5259.85 1 5218.03 1"/><polygon class="cls-3" points="5008.94 1 4760.4 236.5 4802.22 236.5 5050.76 1 5008.94 1"/><polygon class="cls-3" points="4925.31 1 4676.77 236.5 4718.58 236.5 4967.13 1 4925.31 1"/><polygon class="cls-3" points="4967.13 1 4718.58 236.5 4760.4 236.5 5008.94 1 4967.13 1"/><polygon class="cls-3" points="5285 135.69 5178.6 236.5 5220.41 236.5 5285 175.3 5285 135.69"/><polygon class="cls-3" points="4088.92 1 3840.38 236.5 3882.2 236.5 4130.75 1 4088.92 1"/><polygon class="cls-3" points="5262.23 236.5 5285 236.5 5285 214.93 5262.23 236.5"/><polygon class="cls-3" points="5285 1 5259.85 1 5011.31 236.5 5053.14 236.5 5285 16.8 5285 1"/><polygon class="cls-3" points="4883.49 1 4634.95 236.5 4676.77 236.5 4925.31 1 4883.49 1"/><polygon class="cls-3" points="5285 96.06 5136.78 236.5 5178.6 236.5 5285 135.69 5285 96.06"/><polygon class="cls-3" points="5285 16.8 5053.14 236.5 5094.96 236.5 5285 56.43 5285 16.8"/><polygon class="cls-3" points="5285 56.43 5094.96 236.5 5136.78 236.5 5285 96.06 5285 56.43"/><polygon class="cls-3" points="5285 175.3 5220.41 236.5 5262.23 236.5 5285 214.93 5285 175.3"/><polygon class="cls-3" points="4298.02 1 4049.48 236.5 4091.3 236.5 4339.84 1 4298.02 1"/><polygon class="cls-3" points="4465.3 1 4216.75 236.5 4258.57 236.5 4507.11 1 4465.3 1"/><polygon class="cls-3" points="4339.84 1 4091.3 236.5 4133.12 236.5 4381.66 1 4339.84 1"/><polygon class="cls-3" points="4423.48 1 4174.94 236.5 4216.75 236.5 4465.3 1 4423.48 1"/><polygon class="cls-3" points="4256.19 1 4007.66 236.5 4049.48 236.5 4298.02 1 4256.19 1"/><polygon class="cls-3" points="4214.39 1 3965.84 236.5 4007.66 236.5 4256.19 1 4214.39 1"/><polygon class="cls-3" points="4130.75 1 3882.2 236.5 3924.02 236.5 4172.57 1 4130.75 1"/><polygon class="cls-3" points="4172.57 1 3924.02 236.5 3965.84 236.5 4214.39 1 4172.57 1"/><polygon class="cls-3" points="4507.11 1 4258.57 236.5 4300.39 236.5 4548.93 1 4507.11 1"/><polygon class="cls-3" points="4841.67 1 4593.13 236.5 4634.95 236.5 4883.49 1 4841.67 1"/><polygon class="cls-3" points="4674.4 1 4425.86 236.5 4467.66 236.5 4716.22 1 4674.4 1"/><polygon class="cls-3" points="4758.02 1 4509.48 236.5 4551.31 236.5 4799.85 1 4758.02 1"/><polygon class="cls-3" points="4799.85 1 4551.31 236.5 4593.13 236.5 4841.67 1 4799.85 1"/><polygon class="cls-3" points="4716.22 1 4467.66 236.5 4509.48 236.5 4758.02 1 4716.22 1"/><polygon class="cls-3" points="4548.93 1 4300.39 236.5 4342.21 236.5 4590.75 1 4548.93 1"/><polygon class="cls-3" points="4632.57 1 4384.04 236.5 4425.86 236.5 4674.4 1 4632.57 1"/><polygon class="cls-3" points="4590.75 1 4342.21 236.5 4384.04 236.5 4632.57 1 4590.75 1"/><polygon class="cls-3" points="910.79 1 662.25 236.5 704.07 236.5 952.61 1 910.79 1"/><polygon class="cls-3" points="952.61 1 704.07 236.5 745.88 236.5 994.42 1 952.61 1"/><polygon class="cls-3" points="994.42 1 745.88 236.5 787.71 236.5 1036.24 1 994.42 1"/><polygon class="cls-3" points="827.15 1 578.61 236.5 620.43 236.5 868.97 1 827.15 1"/><polygon class="cls-3" points="868.97 1 620.43 236.5 662.25 236.5 910.79 1 868.97 1"/><polygon class="cls-3" points="701.69 1 453.15 236.5 494.97 236.5 743.51 1 701.69 1"/><polygon class="cls-3" points="785.33 1 536.79 236.5 578.61 236.5 827.15 1 785.33 1"/><polygon class="cls-3" points="1036.24 1 787.71 236.5 829.53 236.5 1078.06 1 1036.24 1"/><polygon class="cls-3" points="743.51 1 494.97 236.5 536.79 236.5 785.33 1 743.51 1"/><polygon class="cls-3" points="1328.98 1 1080.44 236.5 1122.26 236.5 1370.8 1 1328.98 1"/><polygon class="cls-3" points="1287.16 1 1038.62 236.5 1080.44 236.5 1328.98 1 1287.16 1"/><polygon class="cls-3" points="1245.34 1 996.8 236.5 1038.62 236.5 1287.16 1 1245.34 1"/><polygon class="cls-3" points="1370.8 1 1122.26 236.5 1164.07 236.5 1412.61 1 1370.8 1"/><polygon class="cls-3" points="1119.88 1 871.34 236.5 913.16 236.5 1161.7 1 1119.88 1"/><polygon class="cls-3" points="1078.06 1 829.53 236.5 871.34 236.5 1119.88 1 1078.06 1"/><polygon class="cls-3" points="1203.52 1 954.98 236.5 996.8 236.5 1245.34 1 1203.52 1"/><polygon class="cls-3" points="1161.7 1 913.16 236.5 954.98 236.5 1203.52 1 1161.7 1"/><polygon class="cls-3" points="158.04 1 1 149.8 1 189.43 199.87 1 158.04 1"/><polygon class="cls-3" points="1412.61 1 1164.07 236.5 1205.89 236.5 1454.43 1 1412.61 1"/><polygon class="cls-3" points="199.87 1 1 189.43 1 229.06 241.68 1 199.87 1"/><polygon class="cls-3" points="241.68 1 1 229.06 1 236.5 34.96 236.5 283.5 1 241.68 1"/><polygon class="cls-3" points="116.22 1 1 110.18 1 149.8 158.04 1 116.22 1"/><polygon class="cls-3" points="32.58 1 1 30.93 1 70.56 74.4 1 32.58 1"/><polygon class="cls-3" points="74.4 1 1 70.56 1 110.18 116.22 1 74.4 1"/><polygon class="cls-3" points="1 1 1 30.93 32.58 1 1 1"/><polygon class="cls-3" points="659.87 1 411.33 236.5 453.15 236.5 701.69 1 659.87 1"/><polygon class="cls-3" points="283.5 1 34.96 236.5 76.78 236.5 325.32 1 283.5 1"/><polygon class="cls-3" points="492.59 1 244.06 236.5 285.88 236.5 534.41 1 492.59 1"/><polygon class="cls-3" points="325.32 1 76.78 236.5 118.6 236.5 367.14 1 325.32 1"/><polygon class="cls-3" points="576.23 1 327.7 236.5 369.51 236.5 618.05 1 576.23 1"/><polygon class="cls-3" points="618.05 1 369.51 236.5 411.33 236.5 659.87 1 618.05 1"/><polygon class="cls-3" points="534.41 1 285.88 236.5 327.7 236.5 576.23 1 534.41 1"/><polygon class="cls-3" points="367.14 1 118.6 236.5 160.42 236.5 408.96 1 367.14 1"/><polygon class="cls-3" points="408.96 1 160.42 236.5 202.24 236.5 450.78 1 408.96 1"/><polygon class="cls-3" points="450.78 1 202.24 236.5 244.06 236.5 492.59 1 450.78 1"/><polygon class="cls-3" points="1747.17 1 1498.63 236.5 1540.45 236.5 1788.99 1 1747.17 1"/><polygon class="cls-3" points="2458.09 1 2209.55 236.5 2251.38 236.5 2499.92 1 2458.09 1"/><polygon class="cls-3" points="2499.92 1 2251.38 236.5 2293.2 236.5 2541.74 1 2499.92 1"/><polygon class="cls-3" points="2416.27 1 2167.73 236.5 2209.55 236.5 2458.09 1 2416.27 1"/><polygon class="cls-3" points="2541.74 1 2293.2 236.5 2335.01 236.5 2583.54 1 2541.74 1"/><polygon class="cls-3" points="2583.54 1 2335.01 236.5 2376.83 236.5 2625.36 1 2583.54 1"/><polygon class="cls-3" points="2374.45 1 2125.91 236.5 2167.73 236.5 2416.27 1 2374.45 1"/><polygon class="cls-3" points="2290.82 1 2042.28 236.5 2084.09 236.5 2332.64 1 2290.82 1"/><polygon class="cls-3" points="2332.64 1 2084.09 236.5 2125.91 236.5 2374.45 1 2332.64 1"/><polygon class="cls-3" points="2792.66 1 2544.11 236.5 2585.92 236.5 2834.48 1 2792.66 1"/><polygon class="cls-3" points="1454.43 1 1205.89 236.5 1247.71 236.5 1496.26 1 1454.43 1"/><polygon class="cls-3" points="2650.51 1 2625.36 1 2376.83 236.5 2418.65 236.5 2667.18 1 2650.51 1"/><polygon class="cls-3" points="2249 1 2000.46 236.5 2042.28 236.5 2290.82 1 2249 1"/><polygon class="cls-3" points="2750.83 1 2502.29 236.5 2544.11 236.5 2792.66 1 2750.83 1"/><polygon class="cls-3" points="2667.18 1 2418.65 236.5 2460.47 236.5 2709.01 1 2667.18 1"/><polygon class="cls-3" points="2709.01 1 2460.47 236.5 2502.29 236.5 2750.83 1 2709.01 1"/><polygon class="cls-3" points="2834.48 1 2585.92 236.5 2627.74 236.5 2876.17 1 2834.48 1"/><polygon class="cls-3" points="1663.53 1 1414.99 236.5 1456.81 236.5 1705.35 1 1663.53 1"/><polygon class="cls-3" points="1830.81 1 1582.26 236.5 1624.08 236.5 1872.62 1 1830.81 1"/><polygon class="cls-3" points="1705.35 1 1456.81 236.5 1498.63 236.5 1747.17 1 1705.35 1"/><polygon class="cls-3" points="1788.99 1 1540.45 236.5 1582.26 236.5 1830.81 1 1788.99 1"/><polygon class="cls-3" points="1621.7 1 1373.17 236.5 1414.99 236.5 1663.53 1 1621.7 1"/><polygon class="cls-3" points="1579.9 1 1331.36 236.5 1373.17 236.5 1621.7 1 1579.9 1"/><polygon class="cls-3" points="1496.26 1 1247.71 236.5 1289.54 236.5 1538.08 1 1496.26 1"/><polygon class="cls-3" points="1538.08 1 1289.54 236.5 1331.36 236.5 1579.9 1 1538.08 1"/><polygon class="cls-3" points="1872.62 1 1624.08 236.5 1665.9 236.5 1914.44 1 1872.62 1"/><polygon class="cls-3" points="2207.18 1 1958.64 236.5 2000.46 236.5 2249 1 2207.18 1"/><polygon class="cls-3" points="2039.91 1 1791.37 236.5 1833.18 236.5 2081.73 1 2039.91 1"/><polygon class="cls-3" points="2123.53 1 1875 236.5 1916.82 236.5 2165.36 1 2123.53 1"/><polygon class="cls-3" points="2165.36 1 1916.82 236.5 1958.64 236.5 2207.18 1 2165.36 1"/><polygon class="cls-3" points="2081.73 1 1833.18 236.5 1875 236.5 2123.53 1 2081.73 1"/><polygon class="cls-3" points="1914.44 1 1665.9 236.5 1707.72 236.5 1956.26 1 1914.44 1"/><polygon class="cls-3" points="1998.09 1 1749.55 236.5 1791.37 236.5 2039.91 1 1998.09 1"/><polygon class="cls-3" points="1956.26 1 1707.72 236.5 1749.55 236.5 1998.09 1 1956.26 1"/></g></g><path d="M5273,13V252H13V13H5273m12-12H1V264H5285V1Z"/></g></g></svg>