<svg xmlns="http://www.w3.org/2000/svg" viewBox="0 0 95.37 99.56"><defs><style>.cls-1{fill:#ffe979;}.cls-2{fill:none;}.cls-3{fill:#253041;}.cls-4{fill:#fd7da5;}</style></defs><g id="Capa_2" data-name="Capa 2"><g id="Capa_12" data-name="Capa 12"><path d="M94.08,90,22.27,99.55A1.1,1.1,0,0,1,21,98.44V26.62a1.52,1.52,0,0,1,1.28-1.45l71.81-9.54a1.1,1.1,0,0,1,1.29,1.11V88.55A1.53,1.53,0,0,1,94.08,90Z"/><path class="cls-1" d="M87.06,84.47,15.24,94A1.1,1.1,0,0,1,14,92.9V21.09a1.5,1.5,0,0,1,1.28-1.45L87.06,10.1a1.09,1.09,0,0,1,1.28,1.11V83A1.51,1.51,0,0,1,87.06,84.47Z"/><path d="M85.19,86,17.11,95a3.76,3.76,0,0,1-4.38-3.8V23.12a5.17,5.17,0,0,1,4.38-5l68.08-9a3.75,3.75,0,0,1,4.38,3.79V81A5.17,5.17,0,0,1,85.19,86ZM17.11,20.62a2.27,2.27,0,0,0-1.92,2.18V90.87a1.65,1.65,0,0,0,1.92,1.67l68.08-9.05a2.26,2.26,0,0,0,1.92-2.17V13.24a1.65,1.65,0,0,0-1.92-1.67Z"/><path d="M32.87,23.47a2.1,2.1,0,0,1-2.46-2.13V7.84a2.9,2.9,0,0,1,2.46-2.78,2.1,2.1,0,0,1,2.46,2.13v13.5A2.89,2.89,0,0,1,32.87,23.47Z"/><path d="M70.78,15.69a2.1,2.1,0,0,1-2.46-2.13V2.81A2.9,2.9,0,0,1,70.78,0a2.1,2.1,0,0,1,2.46,2.13V12.9A2.9,2.9,0,0,1,70.78,15.69Z"/><line class="cls-2" y1="86.14" x2="79.9" y2="75.52"/><polygon class="cls-3" points="84.32 28.64 17.9 37.46 17.9 35 84.32 26.18 84.32 28.64"/><polygon class="cls-4" points="39.09 51.72 26.65 53.37 26.65 40.93 39.09 39.28 39.09 51.72"/><polygon class="cls-4" points="57.33 49.29 44.89 50.94 44.89 38.51 57.33 36.85 57.33 49.29"/><polygon class="cls-4" points="57.37 65.72 44.93 67.37 44.93 54.94 57.37 53.28 57.37 65.72"/></g></g></svg>