<svg xmlns="http://www.w3.org/2000/svg" viewBox="0 0 46.54 31.23"><defs><style>.cls-1{fill:#e94367;}.cls-2{fill:#ffe97a;}</style></defs><g id="Capa_2" data-name="Capa 2"><g id="Capa_1-2" data-name="Capa 1"><rect class="cls-1" x="1" y="1" width="44.54" height="29.23"/><path d="M46.54,31.23H0V0H46.54ZM2,29.23H44.54V2H2Z"/><path class="cls-2" d="M12.69,20.63a4,4,0,0,1-1.22-.2,3.18,3.18,0,0,1-1.1-.6A2.93,2.93,0,0,1,9.3,17.42v-.07l2-.38a1.81,1.81,0,0,0,.16.72,1.57,1.57,0,0,0,.36.51,1.61,1.61,0,0,0,.48.32,1.65,1.65,0,0,0,.58.1,2.6,2.6,0,0,0,.61-.07,1.93,1.93,0,0,0,.55-.23,1.81,1.81,0,0,0,.45-.42,1.43,1.43,0,0,0,.22-.64l.66-4.69H13l.28-1.94h4.39l-.95,6.77a3.64,3.64,0,0,1-.5,1.42,3.78,3.78,0,0,1-1,1,4,4,0,0,1-1.22.61A4.88,4.88,0,0,1,12.69,20.63Zm7.67-3.16a1,1,0,0,0,.43.83,1.59,1.59,0,0,0,.56.25,2.39,2.39,0,0,0,.66.09,2.52,2.52,0,0,0,.67-.09,2,2,0,0,0,.6-.25,1.76,1.76,0,0,0,.47-.43,1.31,1.31,0,0,0,.24-.61l.93-6.63H27l-.93,6.63a3.53,3.53,0,0,1-.56,1.49,3.92,3.92,0,0,1-1,1,4.46,4.46,0,0,1-1.32.63,5.14,5.14,0,0,1-1.45.21,4.64,4.64,0,0,1-1.39-.21,3.34,3.34,0,0,1-1.14-.64,2.6,2.6,0,0,1-.72-1.05,2.74,2.74,0,0,1-.17-1,2.89,2.89,0,0,1,0-.5l.93-6.63H21.3l-.93,6.63A1.48,1.48,0,0,0,20.36,17.47Zm9.79-2.91H34.4l-.28,2H29.88l-.27,1.95h4.62l-.28,2H27.27l1.38-9.87h6.68l-.28,2H30.43Z"/></g></g></svg>