<svg xmlns="http://www.w3.org/2000/svg" viewBox="0 0 46.54 31.23"><defs><style>.cls-1{fill:#e94367;}.cls-2{fill:#ffe97a;}</style></defs><g id="Capa_2" data-name="Capa 2"><g id="Capa_1-2" data-name="Capa 1"><rect class="cls-1" x="1" y="1" width="44.54" height="29.23"/><path d="M46.54,31.23H0V0H46.54ZM2,29.23H44.54V2H2Z"/><path class="cls-2" d="M13.75,19.19H12.22L11.3,16,11,14.67h-.14l0,1.91-.55,3.91h-2l1.38-9.86h2.14l1.6,5.67,3.22-5.67h2.14l-1.38,9.86H15.29l.55-3.93.51-1.91H16.2L15.53,16Zm7.38,1.3H19.08l1.38-9.86h2.05ZM28.22,10H26.16l1.53-2.08h2.52Zm-2.46,4.6H30l-.27,2H25.48l-.26,1.95h4.62l-.28,2H22.88l1.38-9.87h6.68l-.28,2H26Zm10.51-3.93a4.79,4.79,0,0,1,1.35.18,2.4,2.4,0,0,1,1,.56,2.14,2.14,0,0,1,.6,1,3,3,0,0,1,.12.89,5.21,5.21,0,0,1,0,.55,3.63,3.63,0,0,1-.87,2.06,3.32,3.32,0,0,1-1.79.9l2.43,3.75H36.59l-2.3-3.61h-.72l-.5,3.61H31l1.37-9.86ZM35.65,15a2.09,2.09,0,0,0,1.12-.28,1.33,1.33,0,0,0,.53-1,1.48,1.48,0,0,0,0-.21,1,1,0,0,0,0-.3.68.68,0,0,0-.27-.35,1.1,1.1,0,0,0-.44-.18,2.68,2.68,0,0,0-.59-.06H34.15L33.83,15Z"/></g></g></svg>