<svg xmlns="http://www.w3.org/2000/svg" viewBox="0 0 46.54 31.23"><defs><style>.cls-1{fill:#e94367;}.cls-2{fill:#ffe97a;}</style></defs><g id="Capa_2" data-name="Capa 2"><g id="Capa_1-2" data-name="Capa 1"><rect class="cls-1" x="1" y="1" width="44.54" height="29.23"/><path d="M46.54,31.23H0V0H46.54ZM2,29.23H44.54V2H2Z"/><path class="cls-2" d="M14.49,18.65a1.82,1.82,0,0,0,1-.25,1.14,1.14,0,0,0,.5-.77,1.23,1.23,0,0,0,0-.19.72.72,0,0,0-.07-.32.91.91,0,0,0-.38-.34,1.72,1.72,0,0,0-.58-.2l-.71-.13a4.61,4.61,0,0,1-1.1-.31,3.08,3.08,0,0,1-.92-.61,2.41,2.41,0,0,1-.58-.95,1.88,1.88,0,0,1-.13-.72,2.48,2.48,0,0,1,.06-.54A3.11,3.11,0,0,1,12.09,12a3.54,3.54,0,0,1,.89-.88,3.74,3.74,0,0,1,1.16-.5,5.23,5.23,0,0,1,1.31-.17,4,4,0,0,1,1.77.39,3.68,3.68,0,0,1,1.42,1.32L17,13.28a1.8,1.8,0,0,0-.74-.62,2.11,2.11,0,0,0-.9-.19,3.48,3.48,0,0,0-.57,0,1.87,1.87,0,0,0-.49.15,1.17,1.17,0,0,0-.38.28,1,1,0,0,0-.19.46,1.21,1.21,0,0,0,0,.18.55.55,0,0,0,.08.31.73.73,0,0,0,.33.29,1.87,1.87,0,0,0,.52.18l.63.14a9,9,0,0,1,1.19.32,2.53,2.53,0,0,1,1,.56,2.07,2.07,0,0,1,.6,1,2.44,2.44,0,0,1,.11.76,4.4,4.4,0,0,1-.07.77,3.07,3.07,0,0,1-.5,1.31,2.79,2.79,0,0,1-.91.83,4.11,4.11,0,0,1-1.22.45,7.1,7.1,0,0,1-1.41.14,4,4,0,0,1-1-.13,3.43,3.43,0,0,1-.9-.35,3.74,3.74,0,0,1-.79-.58,3.16,3.16,0,0,1-.62-.82l1.66-1.23a2.14,2.14,0,0,0,.4.49,2.63,2.63,0,0,0,.52.35,4.58,4.58,0,0,0,.58.22A2.49,2.49,0,0,0,14.49,18.65ZM24.34,10H22.28l1.53-2.08h2.52Zm2.5,10.53H24.7l-.56-2.26H21.2l-1.12,2.26H17.89l4.83-9.86h2ZM22,16.35h1.9l-.32-2.14-.09-1.41h-.15l-.47,1.42Zm13.5.7v.17a4.81,4.81,0,0,1-.12.76,3.76,3.76,0,0,1-.43,1,3.07,3.07,0,0,1-.74.79,3.91,3.91,0,0,1-1.1.55,4.83,4.83,0,0,1-1.49.21h-4L29,10.62h3.9a3.68,3.68,0,0,1,1.17.18,2.19,2.19,0,0,1,.9.56,2.05,2.05,0,0,1,.54.9,2.27,2.27,0,0,1,.12.75,2.92,2.92,0,0,1,0,.5,2.24,2.24,0,0,1-.12.46,2.69,2.69,0,0,1-.24.48,2.33,2.33,0,0,1-.35.44,1.65,1.65,0,0,1-.47.35,1.85,1.85,0,0,1,1,1.22A2.27,2.27,0,0,1,35.48,17.05Zm-3.12-2.56a1.21,1.21,0,0,0,.84-.29,1.14,1.14,0,0,0,.4-.65.77.77,0,0,0,0-.15.83.83,0,0,0-.17-.49,1,1,0,0,0-.82-.29H30.78l-.27,1.87Zm-.55,4a1.9,1.9,0,0,0,.82-.17,1.45,1.45,0,0,0,.54-.42,1.19,1.19,0,0,0,.24-.54.66.66,0,0,0,0-.14.87.87,0,0,0-.09-.4,1,1,0,0,0-.44-.42,1.56,1.56,0,0,0-.78-.17H30.26L30,18.5Z"/></g></g></svg>