<svg xmlns="http://www.w3.org/2000/svg" viewBox="0 0 46.54 31.23"><defs><style>.cls-1{fill:#e94367;}.cls-2{fill:#ffe97a;}</style></defs><g id="Capa_2" data-name="Capa 2"><g id="Capa_1-2" data-name="Capa 1"><rect class="cls-1" x="1" y="1" width="44.54" height="29.23"/><path d="M46.54,31.23H0V0H46.54ZM2,29.23H44.54V2H2Z"/><path class="cls-2" d="M13.23,10.63a4.75,4.75,0,0,1,1.38.2,2.9,2.9,0,0,1,1.12.57,2.34,2.34,0,0,1,.69,1,2.45,2.45,0,0,1,.17.93,3.08,3.08,0,0,1,0,.51l-.5,3.51a3.3,3.3,0,0,1-.52,1.43,3.48,3.48,0,0,1-1,1,4.48,4.48,0,0,1-1.28.56,5.7,5.7,0,0,1-1.42.18H8.24l1.38-9.86Zm-1.09,7.8a3.39,3.39,0,0,0,.64-.06,2.38,2.38,0,0,0,.57-.18,1.35,1.35,0,0,0,.43-.35,1,1,0,0,0,.21-.5l.5-3.51a.86.86,0,0,0,0-.16,1,1,0,0,0-.08-.37,1,1,0,0,0-.34-.34,1.3,1.3,0,0,0-.51-.2,3.12,3.12,0,0,0-.63-.07H11.37l-.81,5.74Zm10.1-7.92h.09a5.28,5.28,0,0,1,1.44.22,3.3,3.3,0,0,1,1.17.63,2.48,2.48,0,0,1,.76,1,2.63,2.63,0,0,1,.17,1,4,4,0,0,1,0,.47l-.49,3.55a3.12,3.12,0,0,1-.55,1.45,4,4,0,0,1-1.07,1,5,5,0,0,1-1.4.61,6,6,0,0,1-1.51.2,4.92,4.92,0,0,1-1.44-.21,3.64,3.64,0,0,1-1.19-.62,2.52,2.52,0,0,1-.76-1,2.42,2.42,0,0,1-.18-1,4.09,4.09,0,0,1,0-.47l.49-3.55a3.13,3.13,0,0,1,.54-1.45,4,4,0,0,1,1.09-1,5.06,5.06,0,0,1,1.4-.62A5.86,5.86,0,0,1,22.24,10.51Zm-3,7a.77.77,0,0,0,.11.4,1.06,1.06,0,0,0,.38.38,2.59,2.59,0,0,0,.61.24,4.18,4.18,0,0,0,.72.07,4.42,4.42,0,0,0,.74-.07,3.19,3.19,0,0,0,.68-.24,1.91,1.91,0,0,0,.52-.39,1,1,0,0,0,.25-.54l.54-3.66a1,1,0,0,0,0-.16.77.77,0,0,0-.11-.4,1,1,0,0,0-.39-.39,1.78,1.78,0,0,0-.6-.22,2.76,2.76,0,0,0-.71-.09,3.2,3.2,0,0,0-.75.09,2.24,2.24,0,0,0-.69.23,2,2,0,0,0-.51.39,1,1,0,0,0-.25.55l-.54,3.66A.77.77,0,0,0,19.27,17.55Zm12.64,1.64H30.38L29.46,16l-.29-1.35H29l0,1.91-.55,3.91h-2l1.38-9.86h2.14l1.6,5.67,3.22-5.67h2.14L35.5,20.49h-2L34,16.56l.51-1.91h-.15L33.69,16Z"/></g></g></svg>