<svg xmlns="http://www.w3.org/2000/svg" viewBox="0 0 47.93 31.23"><defs><style>.cls-1{fill:#e94367;}.cls-2{fill:#ffe97a;}</style></defs><g id="Capa_2" data-name="Capa 2"><g id="Capa_1-2" data-name="Capa 1"><rect class="cls-1" x="1" y="1" width="45.93" height="29.23"/><path d="M47.93,31.23H0V0H47.93ZM2,29.23H45.93V2H2Z"/><path class="cls-2" d="M11,10.63h2L12,18.43h4.26l-.28,2.06H9.63Zm8.22,6.84a1.06,1.06,0,0,0,.08.4,1.15,1.15,0,0,0,.35.43,1.59,1.59,0,0,0,.56.25,2.39,2.39,0,0,0,.66.09,2.52,2.52,0,0,0,.67-.09,1.81,1.81,0,0,0,.6-.25,1.76,1.76,0,0,0,.47-.43,1.31,1.31,0,0,0,.24-.61l.93-6.63h2.06l-.93,6.63a3.53,3.53,0,0,1-.56,1.49,3.78,3.78,0,0,1-1,1,4.35,4.35,0,0,1-1.32.63,5.14,5.14,0,0,1-1.45.21,4.64,4.64,0,0,1-1.39-.21A3.54,3.54,0,0,1,18,19.78a2.7,2.7,0,0,1-.72-1.05,2.74,2.74,0,0,1-.17-1,2.89,2.89,0,0,1,0-.5l.94-6.63h2.06l-.94,6.63A1.48,1.48,0,0,0,19.23,17.47Zm14-6.84h2l-1.38,9.86H31.68L29.4,15.31,29,14h-.05l-.06,1.71-.67,4.81H26.14l1.38-9.86h2L31.91,16l.48,1.76h0l.05-2.09Z"/></g></g></svg>