<svg xmlns="http://www.w3.org/2000/svg" viewBox="0 0 47.93 31.23"><defs><style>.cls-1{fill:#e94367;}.cls-2{fill:#ffe97a;}</style></defs><g id="Capa_2" data-name="Capa 2"><g id="Capa_1-2" data-name="Capa 1"><rect class="cls-1" x="1" y="1" width="45.93" height="29.23"/><path d="M47.93,31.23H0V0H47.93ZM2,29.23H45.93V2H2Z"/><path class="cls-2" d="M13.75,19.19H12.22L11.3,16,11,14.67h-.14l0,1.91-.55,3.91h-2l1.38-9.86h2.14l1.6,5.67,3.22-5.67h2.14l-1.38,9.86h-2l.54-3.93.51-1.91H16.2L15.53,16Zm13.37,1.3H25l-.55-2.26H21.48l-1.13,2.26H18.17L23,10.63h2Zm-4.86-4.14h1.89l-.32-2.14-.08-1.41H23.6l-.48,1.42Zm10.91-5.72a4.79,4.79,0,0,1,1.35.18,2.4,2.4,0,0,1,1,.56,2.06,2.06,0,0,1,.6,1,3,3,0,0,1,.12.89,5.21,5.21,0,0,1,0,.55,3.63,3.63,0,0,1-.87,2.06,3.33,3.33,0,0,1-1.78.9L36,20.49H33.49l-2.3-3.61h-.72L30,20.49H27.91l1.37-9.86ZM32.56,15a2.07,2.07,0,0,0,1.11-.28,1.33,1.33,0,0,0,.53-1,1.48,1.48,0,0,0,0-.21,1,1,0,0,0,0-.3.72.72,0,0,0-.26-.35,1.15,1.15,0,0,0-.45-.18,2.65,2.65,0,0,0-.58-.06H31.05L30.73,15Z"/></g></g></svg>