<svg id="Capa_1" data-name="Capa 1" xmlns="http://www.w3.org/2000/svg" viewBox="0 0 72.9 75.6"><defs><style>.cls-1{fill:#87cff4;}.cls-1,.cls-2{stroke:#000;stroke-miterlimit:10;stroke-width:3px;}.cls-2{fill:#ed4367;}.cls-3{fill:#ffe979;}</style></defs><path class="cls-1" d="M106.8,327.8a32.7,32.7,0,1,1,32.7-32.7A32.65,32.65,0,0,1,106.8,327.8Z" transform="translate(-68.1 -253.7)"/><path class="cls-2" d="M101.7,320.6c-17.7,0-32.1-14.6-32.1-32.7s14.4-32.7,32.1-32.7,32.1,14.6,32.1,32.7S119.4,320.6,101.7,320.6Z" transform="translate(-68.1 -253.7)"/><path class="cls-3" d="M111.05,292.08l1.28-8.42h-8v-5.5c0-2.28,1.1-4.57,4.67-4.57h3.66v-7.14a45,45,0,0,0-6.41-.55c-6.59,0-10.8,4-10.8,11.35v6.41H88.17v8.42h7.32v20.31a27.37,27.37,0,0,0,9,0V292.08Z" transform="translate(-68.1 -253.7)"/></svg>