<svg id="Capa_1" data-name="Capa 1" xmlns="http://www.w3.org/2000/svg" viewBox="0 0 72.7 76.3"><defs><style>.cls-1{fill:#88cff4;}.cls-1,.cls-2{stroke:#000;stroke-miterlimit:10;stroke-width:3px;}.cls-2{fill:#ed4367;}.cls-3{fill:#ffe979;}</style></defs><path class="cls-1" d="M107.3,150.9c-17.7,0-32.1-14.7-32.1-32.9s14.4-32.9,32.1-32.9,32.1,14.7,32.1,32.9S125,150.9,107.3,150.9Z" transform="translate(-68.2 -76.1)"/><path class="cls-2" d="M101.8,143.4c-17.7,0-32.1-14.7-32.1-32.9s14.4-32.9,32.1-32.9,32.1,14.7,32.1,32.9S119.6,143.4,101.8,143.4Z" transform="translate(-68.2 -76.1)"/><path class="cls-3" d="M101.8,95.7c4.7,0,5.3,0,7.1.1a12,12,0,0,1,3.3.6,5.33,5.33,0,0,1,2,1.3,5,5,0,0,1,1.3,2.1,12,12,0,0,1,.6,3.3c.1,1.9.1,2.5.1,7.3s0,5.4-.1,7.3a11.24,11.24,0,0,1-.6,3.3,6.66,6.66,0,0,1-1.3,2.1,5.33,5.33,0,0,1-2,1.3,12,12,0,0,1-3.3.6c-1.9.1-2.4.1-7.1.1s-5.3,0-7.1-.1a12,12,0,0,1-3.3-.6,5.33,5.33,0,0,1-2-1.3,5,5,0,0,1-1.3-2.1,12,12,0,0,1-.6-3.3c-.1-1.9-.1-2.5-.1-7.3s0-5.4.1-7.3a11.24,11.24,0,0,1,.6-3.3,6.66,6.66,0,0,1,1.3-2.1,5.33,5.33,0,0,1,2-1.3,12,12,0,0,1,3.3-.6C96.5,95.8,97.1,95.7,101.8,95.7Zm0-3.2c-4.8,0-5.4,0-7.3.1a14.31,14.31,0,0,0-4.3.8,9,9,0,0,0-3.1,2.1,7.83,7.83,0,0,0-2,3.2,15.07,15.07,0,0,0-.8,4.4c-.1,1.9-.1,2.5-.1,7.4s0,5.5.1,7.4a15.76,15.76,0,0,0,.8,4.4,10.74,10.74,0,0,0,2,3.2,10,10,0,0,0,3.1,2.1,11.75,11.75,0,0,0,4.3.8c1.9.1,2.5.1,7.3.1s5.4,0,7.3-.1a14.31,14.31,0,0,0,4.3-.8,9,9,0,0,0,3.1-2.1,7.83,7.83,0,0,0,2-3.2,15.07,15.07,0,0,0,.8-4.4c.1-1.9.1-2.5.1-7.4s0-5.5-.1-7.4a15.76,15.76,0,0,0-.8-4.4,10.74,10.74,0,0,0-2-3.2,10,10,0,0,0-3.1-2.1,11.75,11.75,0,0,0-4.3-.8C107.2,92.5,106.6,92.5,101.8,92.5Z" transform="translate(-68.2 -76.1)"/><path class="cls-3" d="M101.8,101.3a9.3,9.3,0,1,0,9,9.3A9.09,9.09,0,0,0,101.8,101.3Zm0,15.2a6,6,0,0,1-5.9-6,5.93,5.93,0,0,1,5.9-6,6,6,0,0,1,0,12Z" transform="translate(-68.2 -76.1)"/><path class="cls-3" d="M113.3,100.9a2.1,2.1,0,1,1-2.1-2.2A2.14,2.14,0,0,1,113.3,100.9Z" transform="translate(-68.2 -76.1)"/></svg>