<svg id="Capa_1" data-name="Capa 1" xmlns="http://www.w3.org/2000/svg" viewBox="0 0 72.9 75.6"><defs><style>.cls-1{fill:#87cff4;}.cls-1,.cls-2{stroke:#000;stroke-miterlimit:10;stroke-width:3px;}.cls-2,.cls-4{fill:#ed4367;}.cls-3{fill:#ffe979;}</style></defs><path class="cls-1" d="M106.8,416.4a32.7,32.7,0,1,1,32.7-32.7A32.65,32.65,0,0,1,106.8,416.4Z" transform="translate(-68.1 -342.3)"/><path class="cls-2" d="M101.7,409.2c-17.7,0-32.1-14.6-32.1-32.7s14.4-32.7,32.1-32.7,32.1,14.6,32.1,32.7S119.4,409.2,101.7,409.2Z" transform="translate(-68.1 -342.3)"/><path class="cls-3" d="M85.9,390.4V367.1l2.2-5.6h29.8v20.1l-8.8,8.9h-6.6l-3.9,4.3H93.9v-4.3h-8Z" transform="translate(-68.1 -342.3)"/><path class="cls-4" d="M91,385V364h24.3v16.1l-5,5h-8.1l-4.3,4.5V385Z" transform="translate(-68.1 -342.3)"/><rect class="cls-3" x="39.6" y="26.8" width="2.6" height="10.2"/><rect class="cls-3" x="30.6" y="26.8" width="2.6" height="10.2"/></svg>