<svg id="Capa_1" data-name="Capa 1" xmlns="http://www.w3.org/2000/svg" viewBox="0 0 72.9 75.6"><defs><style>.cls-1{fill:#87cff4;}.cls-1,.cls-2{stroke:#000;stroke-miterlimit:10;stroke-width:3px;}.cls-2{fill:#ed4367;}.cls-3{fill:#ffe979;}</style></defs><path class="cls-1" d="M106.8,239.2a32.7,32.7,0,1,1,32.7-32.7A32.65,32.65,0,0,1,106.8,239.2Z" transform="translate(-68.1 -165.1)"/><path class="cls-2" d="M101.7,232c-17.7,0-32.1-14.6-32.1-32.7s14.4-32.7,32.1-32.7,32.1,14.6,32.1,32.7S119.4,232,101.7,232Z" transform="translate(-68.1 -165.1)"/><path class="cls-3" d="M84.4,212.3a20.2,20.2,0,0,0,10.9,3.2c13.2,0,20.6-11.2,20.2-21.3a13.67,13.67,0,0,0,3.5-3.7,11.33,11.33,0,0,1-4.1,1.1,6.91,6.91,0,0,0,3.1-4,14.43,14.43,0,0,1-4.5,1.7,7,7,0,0,0-5.2-2.3,7.15,7.15,0,0,0-6.9,8.8,20.16,20.16,0,0,1-14.6-7.5,7.2,7.2,0,0,0,2.2,9.6,6.65,6.65,0,0,1-3.2-.9,7.16,7.16,0,0,0,5.7,7.1,6.89,6.89,0,0,1-3.2.1,7.22,7.22,0,0,0,6.6,5A13.85,13.85,0,0,1,84.4,212.3Z" transform="translate(-68.1 -165.1)"/></svg>