<svg xmlns="http://www.w3.org/2000/svg" viewBox="0 0 78.63 98.08"><defs><style>.cls-1{fill:#ed4466;}.cls-2{fill:#ffe979;}.cls-3{fill:#b72548;}</style></defs><g id="Capa_2" data-name="Capa 2"><g id="Capa_12" data-name="Capa 12"><path d="M67.22,77.61,16.84,83V13.48L67.72,6.72a6,6,0,0,1,7,6.06V69.32A8.59,8.59,0,0,1,67.22,77.61Z"/><path d="M67.42,80l-.26,0L14.38,85.75V11.35L67.72,4.26a8.11,8.11,0,0,1,9.45,8.2V69a11,11,0,0,1-3,7.38A11.2,11.2,0,0,1,67.42,80Zm-48.13.27,48-5.17a5.39,5.39,0,0,0,3.5-1.83,5.52,5.52,0,0,0,1.46-3.67V13.11a3.88,3.88,0,0,0-4.53-3.93L19.29,15.61Z"/><path d="M67.41,79.05l-.22,0h0L16.8,84.5a1.25,1.25,0,0,1-1.43-1.27V18.88A7.86,7.86,0,0,1,22,11.33L67.72,5.26a7.23,7.23,0,0,1,8.45,7.33V68.87a10,10,0,0,1-1.53,5.43A10.32,10.32,0,0,1,67.41,79.05Zm-.15-2.91a6.87,6.87,0,0,0,6-6.63V13a4.74,4.74,0,0,0-5.53-4.8L18.3,14.75V81.41Z"/><path d="M67.41,81.51l-.3,0L16.74,87a3.35,3.35,0,0,1-3.83-3.42V19.2A10.77,10.77,0,0,1,22,8.87L67.72,2.8a9.35,9.35,0,0,1,10.91,9.46V68.54a12.7,12.7,0,0,1-2,6.91A13.17,13.17,0,0,1,67.41,81.51Zm0-2.92,0,.46v-.47Zm-.06-4.91a3.91,3.91,0,0,0,2.45-1.29,3.79,3.79,0,0,0,1-2.55V13.3a2.63,2.63,0,0,0-3.07-2.66l-47,6.24V78.69Z"/><path d="M57.63,88.62l-39.85-8.3L7.91,28.16,22.7,14.8,64.09,9.3A5.51,5.51,0,0,1,70.46,15V71.53C70.46,75.36,61.37,88.22,57.63,88.62Z"/><path d="M57.67,91.08h-.1l-.73,0L15.63,82.47l-10.4-55,16.63-15L64.09,6.84a7.63,7.63,0,0,1,8.83,7.81V71.2c0,3.88-5.13,11.37-8.6,15.21C61.71,89.3,59.53,90.83,57.67,91.08ZM19.94,78.18l37.93,7.9C60.61,84.8,68,74.54,68,71.86V15.3a3.42,3.42,0,0,0-3.91-3.55l-40.56,5.4L10.6,28.83Z"/><path d="M56.92,88.89l-49,5.28V26.52l49.5-6.58a5.82,5.82,0,0,1,6.8,5.9v55A8.35,8.35,0,0,1,56.92,88.89Z"/><path d="M57.11,91.33l-.25,0L5.46,96.89V24.39l52-6.91a7.93,7.93,0,0,1,9.25,8v55a10.83,10.83,0,0,1-2.88,7.23A11,11,0,0,1,57.11,91.33ZM57,86.43a5.18,5.18,0,0,0,3.36-1.76,5.3,5.3,0,0,0,1.4-3.52v-55a3.72,3.72,0,0,0-4.34-3.76l-47,6.25v62.8Z"/><path d="M57.11,90.3l-.22,0h0l-49,5.28a1.22,1.22,0,0,1-1.39-1.24V26.71a1.69,1.69,0,0,1,1.42-1.62l49.5-6.57a7,7,0,0,1,8.22,7.13v55a9.62,9.62,0,0,1-2.57,6.44A9.82,9.82,0,0,1,57.11,90.3ZM57,87.47a6.57,6.57,0,0,0,4.11-2.16A6.47,6.47,0,0,0,62.78,81V26a4.61,4.61,0,0,0-5.37-4.67L9.34,27.75V92.59Z"/><path d="M57.11,92.75l-.3,0-49,5.27A3.3,3.3,0,0,1,4,94.68V27a4.57,4.57,0,0,1,3.88-4.39l49.5-6.58a9.15,9.15,0,0,1,10.68,9.26v55a12.45,12.45,0,0,1-3.32,8.31A12.63,12.63,0,0,1,57.11,92.75Zm0-2.84,0,.39v-.39ZM57,85a3.8,3.8,0,0,0,2.33-1.22,3.66,3.66,0,0,0,1-2.44v-55a2.5,2.5,0,0,0-2.92-2.53L11.8,29.88v60Z"/><path d="M10,30.77a3.27,3.27,0,0,1-2.41-.57,3.6,3.6,0,0,1-.38-5.15l9-11.66c1.33-1.72,3.42-1.74,5.87-2.06,2-.27,1.05,4.41-.28,6.13l-9,11.66A4.32,4.32,0,0,1,10,30.77Z"/><path d="M10,33.23a5.51,5.51,0,0,1-4-1c-2.57-1.87-2.86-5.72-.65-8.58l9-11.66c1.91-2.46,4.51-2.75,6.83-3l.9-.11a3,3,0,0,1,3.19,1.65c1.14,2.32-.19,6.46-1.61,8.29l-9,11.67A7.17,7.17,0,0,1,10,33.23ZM20.33,14c-1.3.17-2,.34-2.29.74L9,26.41a1.19,1.19,0,0,0,.13,1.71,1.07,1.07,0,0,0,.8.19,1.35,1.35,0,0,0,.93-.55l9-11.66A5.82,5.82,0,0,0,20.68,14ZM22,13.79h0Z"/><path class="cls-1" d="M63.42,74.91,13,80.33V10.78L63.91,4a6,6,0,0,1,7,6.06V66.61A8.59,8.59,0,0,1,63.42,74.91Z"/><path d="M63.61,77.34l-.26,0h0L10.57,83.05V8.65L63.91,1.56a8.1,8.1,0,0,1,9.45,8.19V66.29a11,11,0,0,1-3,7.37A11.16,11.16,0,0,1,63.61,77.34Zm-.13-4.9a5.72,5.72,0,0,0,5-5.5V10.41a3.89,3.89,0,0,0-4.54-3.93L15.49,12.91v64.7Z"/><path class="cls-1" d="M63.61,76.35l-.23,0h0L13,81.8a1.25,1.25,0,0,1-1.42-1.28V16.17a7.85,7.85,0,0,1,6.66-7.55L63.91,2.55a7.24,7.24,0,0,1,8.46,7.33V66.16a10,10,0,0,1-1.54,5.44A10.32,10.32,0,0,1,63.61,76.35Zm-.16-2.91a6.87,6.87,0,0,0,6-6.63V10.27a4.74,4.74,0,0,0-5.53-4.79L14.49,12.05V78.71Z"/><path d="M63.61,78.81l-.31,0L12.93,84.26a3.33,3.33,0,0,1-3.82-3.41V16.5A10.76,10.76,0,0,1,18.23,6.17L63.91.1A9.35,9.35,0,0,1,74.82,9.56V65.84a12.72,12.72,0,0,1-2,6.91A13.18,13.18,0,0,1,63.61,78.81Zm0-2.93,0,.47v-.47ZM63.52,71A3.74,3.74,0,0,0,66,69.69a3.83,3.83,0,0,0,1-2.56V10.6a2.63,2.63,0,0,0-3.07-2.66L17,14.18V76Z"/><path class="cls-2" d="M53.82,85.92,14,77.62,4.11,25.46,18.89,12.09l41.4-5.5a5.52,5.52,0,0,1,6.36,5.68V68.83C66.65,72.66,57.56,85.52,53.82,85.92Z"/><path d="M53.87,88.37l-.11,0-.73,0L11.82,79.77l-10.4-55,16.63-15L60.29,4.13a7.63,7.63,0,0,1,8.82,7.81V68.5c0,3.88-5.13,11.37-8.6,15.21C57.9,86.6,55.73,88.13,53.87,88.37ZM16.13,75.47l37.93,7.9C56.8,82.1,64.18,71.83,64.19,69.16V12.6a3.41,3.41,0,0,0-3.9-3.55L19.73,14.44,6.8,26.13Z"/><path class="cls-1" d="M53.12,86.19l-49,5.27V23.81L53.6,17.24a5.82,5.82,0,0,1,6.8,5.89v55A8.36,8.36,0,0,1,53.12,86.19Z"/><path d="M53.31,88.62l-.26,0L1.65,94.19V21.68l52-6.9a7.94,7.94,0,0,1,9.26,8v55A10.84,10.84,0,0,1,60,85,11,11,0,0,1,53.31,88.62Zm-46.75.12,46.62-5A5,5,0,0,0,56.54,82a5.28,5.28,0,0,0,1.4-3.51v-55a3.73,3.73,0,0,0-4.34-3.77l-47,6.25Z"/><path class="cls-1" d="M53.3,87.59l-.22,0h0l-49,5.27a1.21,1.21,0,0,1-1.39-1.24V24a1.68,1.68,0,0,1,1.43-1.61L53.6,15.81a7.05,7.05,0,0,1,8.22,7.13v55a10,10,0,0,1-8.52,9.66Zm-.15-2.83A6.68,6.68,0,0,0,59,78.31v-55a4.62,4.62,0,0,0-5.38-4.66L5.53,25.05V89.89Z"/><path d="M53.3,90.05l-.15,0L4,95.36A3.3,3.3,0,0,1,.23,92V24.33a4.59,4.59,0,0,1,3.88-4.4L53.6,13.36a9.15,9.15,0,0,1,10.68,9.26v55A12.48,12.48,0,0,1,61,85.91,12.64,12.64,0,0,1,53.3,90.05Zm0-2.84,0,.38V87.2Zm-.06-4.91a3.47,3.47,0,0,0,2.33-1.23,3.65,3.65,0,0,0,1-2.43v-55a2.5,2.5,0,0,0-2.92-2.53L8,27.18v60L53.22,82.3Z"/><path class="cls-1" d="M6.14,28.07a3.34,3.34,0,0,1-2.4-.57,3.59,3.59,0,0,1-.39-5.15l9-11.67C13.69,9,15.78,9,18.23,8.62c2-.27,1.05,4.41-.28,6.13l-9,11.67A4.27,4.27,0,0,1,6.14,28.07Z"/><path d="M6.14,30.53a5.56,5.56,0,0,1-4-1C-.44,27.7-.72,23.85,1.49,21l9-11.66c1.9-2.47,4.51-2.77,6.82-3l.9-.11a3,3,0,0,1,3.2,1.64c1.13,2.33-.2,6.47-1.62,8.3l-9,11.66A7.12,7.12,0,0,1,6.14,30.53ZM16.48,11.3c-1.18.15-1.93.32-2.25.74l-9,11.66a1.21,1.21,0,0,0,.13,1.72,1.07,1.07,0,0,0,.8.19,1.39,1.39,0,0,0,.93-.55l9-11.66a6.08,6.08,0,0,0,.79-2.15Zm1.73-.21h0Z"/><path class="cls-3" d="M63.42,74.91,13,80.33V10.78L63.91,4a6,6,0,0,1,7,6.06V66.61A8.59,8.59,0,0,1,63.42,74.91Z"/><path class="cls-3" d="M63.61,76.35l-.23,0h0L13,81.8a1.25,1.25,0,0,1-1.42-1.28V16.17a7.85,7.85,0,0,1,6.66-7.55L63.91,2.55a7.24,7.24,0,0,1,8.46,7.33V66.16a10,10,0,0,1-1.54,5.44A10.32,10.32,0,0,1,63.61,76.35Zm-.16-2.91a6.87,6.87,0,0,0,6-6.63V10.27a4.74,4.74,0,0,0-5.53-4.79L14.49,12.05V78.71Z"/><path class="cls-2" d="M53.82,85.92,14,77.62,4.11,25.46,18.89,13.09l41.4-5.5a5.52,5.52,0,0,1,6.36,5.68V68.83C66.65,72.66,57.56,85.52,53.82,85.92Z"/><path class="cls-3" d="M6.14,28.07a3.34,3.34,0,0,1-2.4-.57,3.59,3.59,0,0,1-.39-5.15l9-11.67C13.69,9,15.78,9,18.23,8.62c2-.27,3.78.89,2.45,2.61L8.93,26.42A4.27,4.27,0,0,1,6.14,28.07Z"/><path class="cls-1" d="M53.12,86.19l-49,5.27V23.81L53.6,17.24a5.82,5.82,0,0,1,6.8,5.89v55A8.36,8.36,0,0,1,53.12,86.19Z"/><path class="cls-1" d="M53.3,87.59l-.22,0h0l-49,5.27a1.21,1.21,0,0,1-1.39-1.24V24a1.68,1.68,0,0,1,1.43-1.61L53.6,15.81a7.05,7.05,0,0,1,8.22,7.13v55a10,10,0,0,1-8.52,9.66Zm-.15-2.83A6.68,6.68,0,0,0,59,78.31v-55a4.62,4.62,0,0,0-5.38-4.66L5.53,25.05V89.89Z"/></g></g></svg>