<svg xmlns="http://www.w3.org/2000/svg" viewBox="0 0 103.9 86.76"><defs><style>.cls-1{fill:#030303;}.cls-2{fill:#ed4466;}</style></defs><g id="Capa_2" data-name="Capa 2"><g id="Capa_4" data-name="Capa 4"><path class="cls-1" d="M80.45,6.55A23.44,23.44,0,0,0,57.34,26a23.45,23.45,0,0,0-46.56,4C10.78,58.26,57,86.53,57,86.53,51.66,89.53,103.9,62.4,103.9,30A23.45,23.45,0,0,0,80.45,6.55Z"/><path class="cls-2" d="M72.17,2.5A23.45,23.45,0,0,0,49.06,22,23.45,23.45,0,0,0,2.5,26c0,28.26,46.22,56.53,46.22,56.53S95.62,56,95.62,26A23.45,23.45,0,0,0,72.17,2.5Z"/><path d="M72.17,2.5A23.45,23.45,0,0,1,95.62,26c0,30.08-46.9,56.53-46.9,56.53S2.5,54.21,2.5,26a23.45,23.45,0,0,1,46.56-4A23.45,23.45,0,0,1,72.17,2.5m0-2.5A25.88,25.88,0,0,0,49.06,14.11,26,26,0,0,0,0,26C0,55.28,45.48,83.43,47.41,84.61l1.25.77,1.28-.72c2-1.11,48.18-27.53,48.18-58.71A26,26,0,0,0,72.17,0Z"/></g></g></svg>