<svg xmlns="http://www.w3.org/2000/svg" viewBox="0 0 77.42 97.78"><defs><style>.cls-1{fill:#ed4466;}.cls-2{fill:#fff;}</style></defs><g id="Capa_2" data-name="Capa 2"><g id="Capa_12" data-name="Capa 12"><path d="M75.71,67.74C73.5,61.86,62.79,58.34,49,58.83,60.47,54,68.91,42.28,68.91,29.7c0-15.23-12.35-25.94-27.58-23.91S13.76,21.8,13.76,37c0,12.57,8.43,22,20,23.82C19.88,64.05,9.17,70.41,7,76.88l-.45.06V96.39l69.65-9.26-.45-19.39Z"/><path d="M76.93,67.55l-.07-.37c-2.1-5.61-10.89-9.2-23-9.6,9.75-6,16.23-17,16.23-28,0-15.88-12.92-27.08-28.81-25s-28.8,16.75-28.8,32.63c0,11.09,6.48,20.27,16.23,23.73-11.5,3.44-20,9-22.62,14.84l-.86.11V97.78l72.14-9.59ZM7.73,95V78l.39-.86c2-5.94,12.35-12,25.71-15.08l6.4-1.47-6.18-1C22.83,57.89,15,48.53,15,36.86,15,22.34,26.81,9,41.33,7s26.35,8.31,26.35,22.84c0,11.67-7.84,23.11-19.06,27.83l-6.18,2.6,6.4-.22c13.22-.47,23.47,2.77,25.64,8.07l.43,17.93Z"/><path d="M19.76,36.34,58,36S52.83,54.72,35.24,54.19C19.76,53.72,19.76,36.34,19.76,36.34Z"/><path class="cls-1" d="M71.71,64.14c-2.2-5.89-13.37-9.34-27.2-8.86C56,50.44,64.46,38.73,64.46,26.15c0-15.22-12.35-25.93-27.58-23.9S9.31,18.25,9.31,33.48c0,12.58,8.43,22.05,20,23.83-13.84,3.19-24.55,9.55-26.75,16h0L2.05,92.85l69.66-9.26V64.14Z"/><path class="cls-2" d="M18,36.68l37.74-6.16S53.52,49.81,36.05,52C20.68,53.86,18,36.68,18,36.68Z"/><path d="M40.55,2C54,2,64.46,12.17,64.46,26.15c0,12.58-8.44,24.29-19.95,29.13.86,0,1.71,0,2.55,0,12.64,0,22.59,3.38,24.65,8.9V83.59L2.05,92.85l.46-19.51c2.2-6.48,12.91-12.84,26.75-16-11.52-1.78-20-11.25-20-23.83,0-15.23,12.35-29.21,27.57-31.23A27.16,27.16,0,0,1,40.55,2m0-2h0a30.75,30.75,0,0,0-3.93.26C20.46,2.41,7.31,17.31,7.31,33.48c0,10.68,5.81,19.66,14.75,23.76C10.8,60.94,2.66,66.7.62,72.69L.52,73v.31L.05,92.8l0,2.34,2.32-.31L72,85.57l1.74-.23V63.78l-.13-.34c-2.07-5.54-10.19-9.23-21.67-10,8.82-6.33,14.55-16.71,14.55-27.25C66.46,11.24,55.32,0,40.55,0Z"/></g></g></svg>