<svg xmlns="http://www.w3.org/2000/svg" viewBox="0 0 162.04 233.73"><defs><style>.cls-1{fill:#1d1d1b;}.cls-2{fill:#a8a4a4;}.cls-3{fill:#100d0c;}.cls-4{fill:#f7b068;}.cls-5{fill:#d7822a;}.cls-6{fill:#fbdec0;}</style></defs><g id="Capa_2" data-name="Capa 2"><g id="Capa_1-2" data-name="Capa 1"><path class="cls-1" d="M8.25,197.54H8v-4.17h.24A36.26,36.26,0,0,0,8.25,197.54Z"/><path class="cls-1" d="M36.15,233.71a.38.38,0,0,0,0-.15h2.4v.17Z"/><path class="cls-1" d="M161.89,124.67a.38.38,0,0,0,.15,0v1.77h-.14C161.9,125.86,161.9,125.27,161.89,124.67Z"/><path class="cls-1" d="M133.06,8a.2.2,0,0,0,0,.15h-1.14a.12.12,0,0,0,0-.14Z"/><path class="cls-1" d="M161.72,124.06a8.27,8.27,0,0,0-2.5-3.75,5.54,5.54,0,0,0-1.53-1,12.46,12.46,0,0,0-5.46-1c-1.09,0-2.19.07-3.28.14a38.42,38.42,0,0,0-4,.4,30.7,30.7,0,0,0-6.68,2.11,74.38,74.38,0,0,0-9.28,4.64,54.45,54.45,0,0,0-6.19,4.11c-.85.64-1.76,1.22-2.64,2a1.33,1.33,0,0,1,.25-.77c1-2.05,2-4.06,2.87-6.16a19.08,19.08,0,0,0,1.42-4.49c.09-.56,0-1.13.09-1.68a42.59,42.59,0,0,0,.74-7.89,66.11,66.11,0,0,0-.84-14,71.09,71.09,0,0,0-2.26-9.32,11.84,11.84,0,0,0-2-3.88,3.83,3.83,0,0,0-1.83-1.23,5.66,5.66,0,0,0-2.62-.08c-1.26.16-2.52.44-3.79.56-1.75.16-3.49.47-5.24.62-1,.1-2,.5-3,.64a.83.83,0,0,1,0-.58,62.67,62.67,0,0,1,2.5-9.43,46.83,46.83,0,0,1,3.25-7.73,10,10,0,0,1,2-2.56,72.76,72.76,0,0,0,8.5-8.7c3.06-3.65,5.94-7.42,8.8-11.22A110.93,110.93,0,0,0,139.3,28.1,24.36,24.36,0,0,0,142,21.43,11,11,0,0,0,141.8,16a12.28,12.28,0,0,0-6.13-7.08,5.94,5.94,0,0,0-2.6-.73h-1.14a7.6,7.6,0,0,0-3.24,1,1.74,1.74,0,0,0-1,1.61.84.84,0,0,1-.28.55c-1.13,1.35-2.26,2.67-3.36,4q-4.1,4.94-8.52,9.59c-3.45,3.61-7.15,7.21-10.65,10.54s-7,6.69-10.24,10.27c-2.89,3.18-5.62,6.51-8.43,9.76-3.33,3.84-6.6,7.72-9.85,11.61a62.85,62.85,0,0,0-5.55,7.72,1.87,1.87,0,0,1-1.18,1,30,30,0,0,0-4.38,1.74c-3.06,1.38-6.15,2.66-9.3,3.81A31,31,0,0,0,50.38,84a35.88,35.88,0,0,0-10.3,9.83A92.51,92.51,0,0,0,32.48,107q-3.25,6.5-6.2,13.16c-2.1,4.77-4.08,9.57-5.8,14.48-2,5.79-3.87,11.63-5.42,17.57q-1.87,7.16-3.5,14.38c-.85,3.88-1.44,7.8-2,11.74-.36,2.54-.7,5.2-.89,7.64s-.29,5-.44,7.44a41.63,41.63,0,0,0,0,4.18c.09,1.77.33,3.51.59,5.25a40.51,40.51,0,0,0,2.53,9.56,40,40,0,0,0,8.43,12.71,35.55,35.55,0,0,0,5.75,4.7,21.8,21.8,0,0,0,5.2,2.76,23.07,23.07,0,0,0,5.4,1h2.4a3.57,3.57,0,0,1,.47-.11,16.77,16.77,0,0,0,6.58-2.48c2.5-1.61,4.88-3.36,7.2-5.19l2.42-1.88a19.86,19.86,0,0,1,2.13-1.26l5.31-3.21q5.28-3.24,10.48-6.58l.42-.27c6.8-4.36,13.42-9,20.07-13.6,3.25-2.25,6.52-4.47,9.67-6.85a64.33,64.33,0,0,0,8.45-7.36,67.1,67.1,0,0,0,5-6.19c1.85-2.54,3.67-5.12,5.33-7.79,2-3.23,3.51-6.72,5.25-10.08,1.21-2.32,2.3-4.69,3.71-6.9a13.29,13.29,0,0,1,1.63-2.37c1.54-1.52,3.14-3,4.78-4.4a75.39,75.39,0,0,1,14-9.45,25.75,25.75,0,0,0,3.94-2.59c1.51-1.19,2.94-2.47,4.36-3.78a6.77,6.77,0,0,0,2.21-4.72v-1.79A6.18,6.18,0,0,0,161.72,124.06Z"/><path class="cls-1" d="M106.4,68.35l-.11-.06c0-.05,0-.05,0-.05a.28.28,0,0,1,.11.05A.06.06,0,0,0,106.4,68.35Z"/><path class="cls-1" d="M106.05,68.42a.27.27,0,0,1,.3,0,.13.13,0,0,1,0,.14.17.17,0,0,0-.07-.1.32.32,0,0,0-.3,0L105,69H105l0,0c.07-.27.31-.4.49-.59l.6-.61c-.19.2-.36.41-.56.6s-.41.32-.48.59Z"/><path class="cls-1" d="M116.94,167.63a3.65,3.65,0,0,1-.6,2.27,19.13,19.13,0,0,1-1.47,1.89c-.56.71-1.21,1.36-1.76,2s-1.16,1.27-1.82,2a2.68,2.68,0,0,1,.07-1.51,49.07,49.07,0,0,1,.93-6.15,4.7,4.7,0,0,1,.51-1.25,2.31,2.31,0,0,1,2.57-1.17A2.25,2.25,0,0,1,116.94,167.63Z"/><path class="cls-1" d="M98.51,140a.22.22,0,0,0,0-.14A.34.34,0,0,1,98.51,140Z"/><path class="cls-1" d="M98.45,140.14a.39.39,0,0,0,0-.14.47.47,0,0,1,0,.17.63.63,0,0,0-.06.2A.37.37,0,0,1,98.45,140.14Z"/><path class="cls-1" d="M98.36,139.58a12.67,12.67,0,0,1-.74-1.16c.24.4.49.8.76,1.18l0,0Z"/><path class="cls-1" d="M98.43,132.79a1.66,1.66,0,0,1-.4,1A21.92,21.92,0,0,1,97.4,131a48.32,48.32,0,0,1-.75-7,5.23,5.23,0,0,1,0-.56,15.91,15.91,0,0,1,0-3.65c.26,0,.36.16.48.31a14.54,14.54,0,0,0,1.78,1.34,4.83,4.83,0,0,0,2.59.7,1.44,1.44,0,0,0,1.19-.61,31.23,31.23,0,0,1-5.3-4h-.06a.58.58,0,0,1-.4-.7c.16-1.07.24-2.07.47-3.07h0a25.67,25.67,0,0,1,.47-3.49,1.27,1.27,0,0,0,1.45.64,15.73,15.73,0,0,0,5.39-1.71.46.46,0,0,1,.42-.11c.13.61.26,1.25.41,1.88a13.42,13.42,0,0,0,2.13,5.22c.25.25.2.41,0,.62a48.33,48.33,0,0,0-4.89,6.42A35.25,35.25,0,0,0,99.7,129a16.57,16.57,0,0,0-.9,2.13A8.23,8.23,0,0,0,98.43,132.79Z"/><path class="cls-1" d="M97.56,138.32c-.1-.18-.18-.37-.28-.56C97.38,138,97.46,138.14,97.56,138.32Z"/><path class="cls-1" d="M104.05,85.73c2.09-.17,4.18-.39,6.27-.6l3.81-.35a17.94,17.94,0,0,1,3-.44,1.77,1.77,0,0,1,1.67.75,11.5,11.5,0,0,1,1.61,3.37,74.5,74.5,0,0,1,2.1,9.19,56.61,56.61,0,0,1,.73,9c.05,3.82-.21,7.63-.21,11.44a5.09,5.09,0,0,1-.48,3,65,65,0,0,1-2.86,6.44,45.78,45.78,0,0,1-2.61,4.95,3.31,3.31,0,0,1-.75.79c-.64.5-1.35,1-1.25,2,0,.27-.17.37-.35.48a20.67,20.67,0,0,1-5.13,2.39,30.43,30.43,0,0,1-7.69,1.36c-.51,0-1,.07-1.51.12a.47.47,0,0,1-.56-.32c-.41-1-.83-2.12-1.16-3.12.17-.29.42-.14.6-.21a1,1,0,0,0,.72-.87,5.89,5.89,0,0,1,.41-1.6c.18-.65.24-1.37.48-2s.62-1.18.91-1.78a57.81,57.81,0,0,1,6.52-10.33,9.37,9.37,0,0,1,1.27-1.54,9.56,9.56,0,0,1,.82-1.18c.48-.81.29-1.26-.62-1.52l-.8.23c-.28-1.13-.54-2.25-.84-3.35-.59-2.16-1-4.35-1.49-6.54a7.45,7.45,0,0,0-.27-.92.71.71,0,0,0-.69-.57.77.77,0,0,0-.73.64,3.84,3.84,0,0,0-.11,1.43c0,.51.13,1,.13,1.51,0,.31-.09.42-.4.42a16.39,16.39,0,0,0-5.45,1.1,10,10,0,0,0-1.14.55,47.53,47.53,0,0,1,1.17-5.52c.33-1.95.88-3.81,1.38-5.75l1.5-5.81a1.08,1.08,0,0,1,.13-.29h0a8.52,8.52,0,0,1,.31-1.66c.28-1.46.62-2.91.93-4.36A.56.56,0,0,1,104.05,85.73Z"/><path class="cls-1" d="M105.5,70.85a74.4,74.4,0,0,0-4.18,14c-.88,4.53-2.13,9-3.32,13.44-.21.74-.41,1.49-.6,2.24.18-.74.37-1.47.57-2.2,1.19-4.44,2.44-8.91,3.33-13.44a73.63,73.63,0,0,1,4.17-14c.29-.69.57-1.38.85-2.07l0-.06v0C106.07,69.47,105.79,70.16,105.5,70.85Z"/><path class="cls-1" d="M129,12.35a21.43,21.43,0,0,0,1.29-1.92.83.83,0,0,1,.61-.46,5.67,5.67,0,0,1,4.64,1.19,6.4,6.4,0,0,1,1.9,1.65A8.35,8.35,0,0,1,140,18.33a10.24,10.24,0,0,1-1,5.28,83.5,83.5,0,0,1-7.52,12.9c-3.94,5.44-8,10.78-12.18,16-2.54,3.14-5.1,6.26-7.73,9.32a2.25,2.25,0,0,1-.85.71,2.16,2.16,0,0,0-.87.8l-2,2.62c-.13.17-.24.37-.45.45-.21.25-.45.47-.67.71.21-.23.42-.46.62-.7a5.78,5.78,0,0,1,1-2.51,39.44,39.44,0,0,1,3.87-5.47c1.66-2,3.42-3.89,5.14-5.82,1.91-2.14,3.7-4.4,5.45-6.68,1.66-2.11,3.21-4.26,4.66-6.5A44.76,44.76,0,0,0,131,32.56c1.74-4.1,3-8.39,4.35-12.61a67.53,67.53,0,0,0,1.92-6.85,1.48,1.48,0,0,1,.12-.29,6.4,6.4,0,0,0-1.9-1.65,45.31,45.31,0,0,1-3.73,5.49,17.41,17.41,0,0,1-4.08,4,6,6,0,0,1-2.36.94,3.48,3.48,0,0,1-3-.94,1.6,1.6,0,0,1,.35-.51C124.87,17.6,127,15,129,12.35Z"/><path class="cls-1" d="M63.63,80.56c-1.16.55-2.32,1.07-3.5,1.58h0C61.32,81.63,62.48,81.11,63.63,80.56Z"/><path class="cls-1" d="M41.58,95.64c0-.11,0-.18.15-.18a.55.55,0,0,1,.15-.36,32.9,32.9,0,0,1,9.61-9.23A33.43,33.43,0,0,1,57,83.33a13.93,13.93,0,0,1,2.16-.78,1,1,0,0,1,.81-.32l.16-.09h0a.16.16,0,0,1-.18.09.85.85,0,0,1-.81.33c-.08.27-.33.32-.55.42A40.58,40.58,0,0,0,49,88.85a68.75,68.75,0,0,0-6.5,6c-.2.22-.36.52-.75.52v0a.15.15,0,0,1-.15.15c0,.16,0,.29-.21.3A.31.31,0,0,1,41.58,95.64Z"/><path class="cls-1" d="M41.38,95.92a.21.21,0,0,1-.13.17C41.26,96,41.3,95.93,41.38,95.92Z"/><path class="cls-1" d="M33.69,109.66q2.69-5.5,5.74-10.82c.13-.24.28-.46.42-.69-.14.24-.29.47-.42.71-2,3.53-4,7.14-5.74,10.81-2.84,5.88-5.54,11.83-8,17.88-.92,2.3-1.79,4.62-2.63,7,.83-2.34,1.7-4.66,2.63-7C28.13,121.48,30.83,115.54,33.69,109.66Z"/><path class="cls-1" d="M159.73,126.62a5.19,5.19,0,0,1-1.64,3.11,48.75,48.75,0,0,1-6,4.92c-1,.64-2.07,1.15-3.07,1.73-1.29.73-2.6,1.44-3.91,2.16-1.37.92-2.78,1.76-4.11,2.76a50,50,0,0,0-4.73,3.85,49.92,49.92,0,0,1,4.71-3.87c1.34-1,2.74-1.84,4.12-2.76a4.18,4.18,0,0,1-2.43-3.67,8.31,8.31,0,0,1,2.43-6.61,12.68,12.68,0,0,1,7.55-4,6,6,0,0,1,3.08.16,2.54,2.54,0,0,1,1.72,1.55s0,0,0,.06a.61.61,0,0,0,.75.43,3.62,3.62,0,0,1,1.5.16,3.25,3.25,0,0,0,0-1.75,6,6,0,0,0-1.59-2.76,6.08,6.08,0,0,1,1.61,2.79A3.21,3.21,0,0,1,159.73,126.62Z"/><path class="cls-1" d="M109.58,117.85a10.79,10.79,0,0,1,.82-1.18c.48-.8.3-1.26-.62-1.52v-.24a14.55,14.55,0,0,0-1.08-6.49.86.86,0,0,1,0-.63c.53-2.69,1-5.39,1.64-8.05,1.18-5,2.5-10,3.86-15a17.94,17.94,0,0,1,3-.44,1.73,1.73,0,0,1,1.66.74,11.19,11.19,0,0,1,1.61,3.38,75.81,75.81,0,0,1,2.11,9.18,56.61,56.61,0,0,1,.73,9c0,3.81-.22,7.62-.22,11.44a1.73,1.73,0,0,0-.71.34c-2.14,1.34-4.3,2.67-6.35,4.15a45.28,45.28,0,0,0-3.79,2.81,19.13,19.13,0,0,1-4.65,2.75.22.22,0,0,1-.31-.05h0c-.1-.33.11-.65.23-1a33.65,33.65,0,0,0,1.75-6.3A12.11,12.11,0,0,0,109.58,117.85Z"/><path class="cls-1" d="M109.58,117.85a12,12,0,0,1-.36,2.92,33.65,33.65,0,0,1-1.75,6.3,1.57,1.57,0,0,0-.23,1c.11.14.21.1.31.05a18.64,18.64,0,0,0,4.65-2.75,45.17,45.17,0,0,1,3.79-2.8c2.05-1.48,4.21-2.81,6.35-4.16a1.87,1.87,0,0,1,.71-.34,4.94,4.94,0,0,1-.48,3,69.62,69.62,0,0,1-2.85,6.44,46.51,46.51,0,0,1-2.61,5,3.56,3.56,0,0,1-.76.79c-.63.5-1.35,1-1.24,2,0,.27-.17.37-.35.48a21,21,0,0,1-5.13,2.39,30.43,30.43,0,0,1-7.69,1.36c-.51,0-1,.07-1.52.12a.47.47,0,0,1-.56-.33c-.4-1-.82-2.07-1.15-3.11.16-.28.41-.14.6-.21a1,1,0,0,0,.69-.9,6.37,6.37,0,0,1,.37-1.55c.19-.66.24-1.35.49-2s.61-1.18.9-1.78a58.43,58.43,0,0,1,6.53-10.33A9,9,0,0,1,109.58,117.85Z"/><path class="cls-1" d="M114.16,84.73c-1.36,5-2.67,10-3.85,15-.63,2.66-1.12,5.36-1.65,8a1,1,0,0,0,0,.63,14.7,14.7,0,0,1,1.09,6.49v.24l-.81.23c-.28-1.13-.53-2.24-.83-3.34-.59-2.16-1-4.35-1.49-6.54a7.45,7.45,0,0,0-.27-.92.75.75,0,0,0-.69-.58.78.78,0,0,0-.73.64,3.63,3.63,0,0,0-.11,1.43c0,.5.07,1,.12,1.52,0,.31-.08.42-.4.42a16.14,16.14,0,0,0-5.45,1.1,11.7,11.7,0,0,0-1.13.54,47.52,47.52,0,0,1,1.2-5.54,11.52,11.52,0,0,0,.76-2.42c.49-2.13,1.07-4.22,1.68-6.31a12.86,12.86,0,0,0,.56-3.13,8.36,8.36,0,0,1,.34-1.71c.29-1.46.63-2.91.93-4.37.08-.38.25-.49.64-.53,2.1-.17,4.18-.39,6.27-.59Z"/><path class="cls-1" d="M145.11,138.54a4.13,4.13,0,0,1-2.43-3.67,8.23,8.23,0,0,1,2.43-6.61,12.68,12.68,0,0,1,7.55-4,6,6,0,0,1,3.08.16,2.54,2.54,0,0,1,1.72,1.55.6.6,0,0,0,.69.5l.07,0a3.79,3.79,0,0,1,1.5.16,5.24,5.24,0,0,1-1.64,3.12,48.67,48.67,0,0,1-6,4.91c-1,.64-2,1.16-3.06,1.73Z"/><path class="cls-1" d="M107.38,66.42a5.73,5.73,0,0,1,1-2.51,38.68,38.68,0,0,1,3.88-5.47c1.66-2,3.41-3.89,5.13-5.82,1.92-2.14,3.7-4.4,5.45-6.68,1.63-2.11,3.21-4.26,4.66-6.5a42.23,42.23,0,0,0,3.55-6.88c1.74-4.11,3-8.39,4.35-12.61a67.53,67.53,0,0,0,1.92-6.85,1.48,1.48,0,0,1,.12-.29A8.32,8.32,0,0,1,140,18.33a10.34,10.34,0,0,1-1,5.28,85.09,85.09,0,0,1-7.52,12.93c-4,5.43-8,10.77-12.19,16-2.53,3.14-5.09,6.26-7.73,9.32a2.3,2.3,0,0,1-.84.71,2.12,2.12,0,0,0-.88.8l-2,2.62A1.13,1.13,0,0,1,107.38,66.42Z"/><path class="cls-1" d="M97.12,120a15.26,15.26,0,0,0,1.78,1.33,4.75,4.75,0,0,0,2.59.71,1.45,1.45,0,0,0,1.19-.62,30.84,30.84,0,0,1-5.3-4v-3.79a24.7,24.7,0,0,1,.52-3.52,1.28,1.28,0,0,0,1.45.63,15.31,15.31,0,0,0,5.39-1.71.5.5,0,0,1,.42-.11c.14.61.26,1.25.41,1.89a13.42,13.42,0,0,0,2.13,5.22.42.42,0,0,1,0,.61,47.78,47.78,0,0,0-4.89,6.43,34.5,34.5,0,0,0-3.07,5.79,16.57,16.57,0,0,0-.9,2.13,8.22,8.22,0,0,0-.39,1.7,1.67,1.67,0,0,1-.4,1,22.47,22.47,0,0,1-.63-2.79,48.32,48.32,0,0,1-.75-7,5,5,0,0,1,0-.55C96.81,122.26,97,121.15,97.12,120Z"/><path class="cls-1" d="M135.51,11.16a48.59,48.59,0,0,1-3.71,5.5,17.26,17.26,0,0,1-4.09,4,6,6,0,0,1-2.36.94,3.45,3.45,0,0,1-3-1,1.58,1.58,0,0,1,.35-.53C124.86,17.53,127,15,129,12.28q.69-.93,1.29-1.92a.83.83,0,0,1,.61-.46A5.67,5.67,0,0,1,135.51,11.16Z"/><path class="cls-1" d="M59.19,82.58c-.08.27-.34.33-.55.42a40.41,40.41,0,0,0-9.58,5.87,66.16,66.16,0,0,0-6.57,6.07c-.21.22-.36.55-.75.51a.46.46,0,0,1,.14-.36,33.15,33.15,0,0,1,9.64-9.2A33.39,33.39,0,0,1,57,83.36,14,14,0,0,1,59.19,82.58Z"/><path class="cls-1" d="M102.17,92.28a12.86,12.86,0,0,1-.56,3.13c-.61,2.09-1.19,4.18-1.68,6.31a11.52,11.52,0,0,1-.76,2.42c.32-2,.88-3.85,1.37-5.76l1.5-5.81A1.08,1.08,0,0,1,102.17,92.28Z"/><path class="cls-1" d="M97.12,120c-.15,1.11-.31,2.22-.47,3.34a17.22,17.22,0,0,1,0-3.66C96.9,119.68,97,119.88,97.12,120Z"/><path class="cls-1" d="M97.39,113.71v3.78a.57.57,0,0,1-.47-.65s0,0,0-.06C97.08,115.75,97.16,114.72,97.39,113.71Z"/><path class="cls-1" d="M60,82.26a.87.87,0,0,1-.81.33A1,1,0,0,1,60,82.26Z"/><path class="cls-1" d="M41.59,95.62c0,.16,0,.28-.2.31A.29.29,0,0,1,41.59,95.62Z"/><path class="cls-1" d="M106.39,68.35l-.11-.06v-.05a.15.15,0,0,1,.11.05Z"/><path class="cls-1" d="M41.4,95.91a.22.22,0,0,1-.15.21C41.25,96,41.29,95.93,41.4,95.91Z"/><path class="cls-1" d="M41.74,95.45a.16.16,0,0,1-.15.18C41.49,95.65,41.63,95.45,41.74,95.45Z"/><path class="cls-1" d="M51.84,225.81a.15.15,0,0,1-.19.12C51.56,225.91,51.74,225.8,51.84,225.81Z"/><path class="cls-1" d="M60.16,82.17a.15.15,0,0,1-.18.09h0Z"/><path class="cls-1" d="M111.29,175.79a2.63,2.63,0,0,1,.07-1.52,51,51,0,0,1,.92-6.15,4.7,4.7,0,0,1,.51-1.25,2.32,2.32,0,0,1,2.58-1.17,2.25,2.25,0,0,1,1.57,1.92,3.6,3.6,0,0,1-.61,2.27,15,15,0,0,1-1.47,1.89c-.56.68-1.2,1.28-1.75,2A26,26,0,0,1,111.29,175.79Z"/><path class="cls-1" d="M105,69h-.12v0L105,69Z"/><path class="cls-2" d="M.25,189.54H0v-4.17H.24A36.26,36.26,0,0,0,.25,189.54Z"/><path class="cls-2" d="M153.89,116.67a.38.38,0,0,0,.15,0v1.77h-.14C153.9,117.86,153.9,117.27,153.89,116.67Z"/><path class="cls-2" d="M125.06,0a.19.19,0,0,0,0,.15h-1.14a.12.12,0,0,0,0-.14Z"/><path class="cls-3" d="M123.93.15h1.14a5.94,5.94,0,0,1,2.6.73A12.28,12.28,0,0,1,133.8,8a11,11,0,0,1,.21,5.47,24.36,24.36,0,0,1-2.71,6.67A110.93,110.93,0,0,1,121,35.81c-2.86,3.8-5.74,7.57-8.8,11.22a72.76,72.76,0,0,1-8.5,8.7,10,10,0,0,0-2,2.56A46.83,46.83,0,0,0,98.45,66,62.67,62.67,0,0,0,96,75.45.83.83,0,0,0,96,76c1-.14,2-.54,3-.64,1.75-.15,3.49-.46,5.24-.62,1.27-.12,2.53-.4,3.79-.56a5.66,5.66,0,0,1,2.62.08,3.83,3.83,0,0,1,1.83,1.23,11.84,11.84,0,0,1,2,3.88,71.09,71.09,0,0,1,2.26,9.32,66.11,66.11,0,0,1,.84,14,42.59,42.59,0,0,1-.74,7.89c-.12.55,0,1.12-.09,1.68a19.08,19.08,0,0,1-1.42,4.49c-.85,2.1-1.89,4.11-2.87,6.16a1.33,1.33,0,0,0-.25.77c.88-.78,1.79-1.36,2.64-2a54.45,54.45,0,0,1,6.19-4.11,74.38,74.38,0,0,1,9.28-4.64A30.7,30.7,0,0,1,137,110.9a38.42,38.42,0,0,1,4-.4c1.09-.07,2.19-.11,3.28-.14a12.46,12.46,0,0,1,5.46,1,5.54,5.54,0,0,1,1.53,1,8.27,8.27,0,0,1,2.5,3.75,6.18,6.18,0,0,1,.12.62v1.79a6.77,6.77,0,0,1-2.21,4.72c-1.42,1.31-2.85,2.59-4.36,3.78a25.75,25.75,0,0,1-3.94,2.59,75.39,75.39,0,0,0-14,9.45c-1.64,1.42-3.24,2.88-4.78,4.4a13.29,13.29,0,0,0-1.63,2.37c-1.41,2.21-2.5,4.58-3.71,6.9-1.74,3.36-3.24,6.85-5.25,10.08-1.66,2.67-3.48,5.25-5.33,7.79a67.1,67.1,0,0,1-5,6.19,65.22,65.22,0,0,1-8.39,7.36c-3.15,2.38-6.42,4.6-9.67,6.85-6.65,4.59-13.27,9.24-20.07,13.6q-4,2.59-8.16,5.13c-1.75,1.08-3.5,2.15-5.27,3.22l-2.65,1.59c-.76.46-1.35,1-2.1,1.56-3.3,2.27-6.47,4.72-9.84,6.89A16.77,16.77,0,0,1,31,225.42a3.57,3.57,0,0,0-.47.11h-2.4a23.07,23.07,0,0,1-5.4-1,21.8,21.8,0,0,1-5.2-2.76,35.55,35.55,0,0,1-5.75-4.7,40,40,0,0,1-8.43-12.71A40.51,40.51,0,0,1,.82,194.8c-.26-1.74-.5-3.48-.59-5.25a41.63,41.63,0,0,1,0-4.18c.15-2.48.25-5,.44-7.44s.53-5.1.89-7.64c.56-3.94,1.15-7.86,2-11.74q1.64-7.23,3.5-14.38c1.55-5.94,3.39-11.78,5.42-17.57,1.72-4.91,3.7-9.71,5.8-14.48q2.94-6.66,6.2-13.16a92.51,92.51,0,0,1,7.6-13.16A35.88,35.88,0,0,1,42.38,76,31,31,0,0,1,48,73.37c3.15-1.15,6.24-2.43,9.3-3.81a30,30,0,0,1,4.38-1.74,1.87,1.87,0,0,0,1.18-1,62.85,62.85,0,0,1,5.55-7.72c3.25-3.89,6.52-7.77,9.85-11.61,2.81-3.25,5.54-6.58,8.43-9.76,3.25-3.58,6.74-6.94,10.24-10.27s7.2-6.93,10.65-10.54q4.43-4.65,8.52-9.59c1.1-1.33,2.23-2.65,3.36-4a.84.84,0,0,0,.28-.55,1.74,1.74,0,0,1,1-1.61A7.6,7.6,0,0,1,123.93.15ZM33.4,87.91c-.11,0-.15.1-.16.21a21.41,21.41,0,0,0-1.81,2.72q-3.06,5.31-5.74,10.82c-2.86,5.88-5.56,11.82-8,17.88-2.66,6.55-4.89,13.26-6.89,20C9.1,145.3,7.72,151.14,6.36,157a26.4,26.4,0,0,0-.84,4.12.73.73,0,0,0-.14.37q-.81,4.32-1.4,8.69c-.24,1.77-.52,3.53-.7,5.31-.14,1.44-.2,2.88-.32,4.31-.2,2.21-.27,4.43-.38,6.64a26.49,26.49,0,0,0,.07,3.45c.14,1.54.34,3.07.57,4.6a41.14,41.14,0,0,0,1.22,5.71,36.69,36.69,0,0,0,9.17,15.31,35.63,35.63,0,0,0,7,5.4,13,13,0,0,0,2.65,1.29,19.43,19.43,0,0,0,6.46,1,2.83,2.83,0,0,0,1.45-.38l6.42-3.91c.21-.12.43-.22.64-.35,5.17-3.1,10.35-6.19,15.47-9.38,3.69-2.3,7.41-4.56,11.06-6.93,5-3.25,9.9-6.61,14.8-10,5.39-3.74,10.87-7.36,16.09-11.36a49.27,49.27,0,0,0,9.32-9.21c1.24-1.64,2.47-3.28,3.66-5a73,73,0,0,0,5.2-8.08c1.36-2.6,2.8-5.17,4-7.83a28.86,28.86,0,0,1,1.84-3.25A49.58,49.58,0,0,1,133,133.3c1.33-1,2.74-1.84,4.11-2.76,1.31-.72,2.62-1.43,3.91-2.16,1-.58,2.08-1.09,3.07-1.73a48.75,48.75,0,0,0,6-4.92,5.19,5.19,0,0,0,1.64-3.11,3.21,3.21,0,0,0,0-1.74,6,6,0,0,0-3.19-3.91,22.75,22.75,0,0,0-3.34-1.06,4.31,4.31,0,0,0-2.36-.11c-1.25.3-2.49.62-3.74.87a34.26,34.26,0,0,0-5.45,1.56,81.56,81.56,0,0,0-11.4,5.44,68.08,68.08,0,0,0-8,5.47c-1.48,1.15-3,2.28-4.5,3.34a25.58,25.58,0,0,1-9.2,4.13,30.84,30.84,0,0,1-8.36.39,12.1,12.1,0,0,1-1.34-.23c-.34-.07-.58-.23-.38-.6a.46.46,0,0,0-.09-.57A14.08,14.08,0,0,1,88,126.1a37.69,37.69,0,0,1-1-10.26c0-1.44.11-2.88,0-4.32a48.84,48.84,0,0,1,.33-8.8A94.18,94.18,0,0,1,90,90.29c1.19-4.46,2.44-8.91,3.32-13.44a74.4,74.4,0,0,1,4.18-14c.29-.69.57-1.38.85-2.07,0-.13.11-.27,0-.36a.27.27,0,0,0-.3,0l-1,.58h0c.07-.27.31-.41.48-.59a25.28,25.28,0,0,0,1.87-2c.21-.08.32-.28.45-.45l2-2.62a2.16,2.16,0,0,1,.87-.8,2.25,2.25,0,0,0,.85-.71c2.63-3.06,5.19-6.18,7.73-9.32,4.2-5.22,8.24-10.56,12.18-16A83.5,83.5,0,0,0,131,15.61a10.24,10.24,0,0,0,1-5.28,8.35,8.35,0,0,0-2.58-5.52,6.4,6.4,0,0,0-1.9-1.65A5.67,5.67,0,0,0,122.88,2a.83.83,0,0,0-.61.46A21.43,21.43,0,0,1,121,4.35c-2,2.67-4.11,5.25-6.28,7.79a1.54,1.54,0,0,0-.35.52c-.19.08-.27.25-.4.39-1.58,1.77-3.12,3.59-4.76,5.31-3.58,3.74-7.23,7.42-11,11A183.52,183.52,0,0,0,84,44.42c-2.89,3.47-5.88,6.85-8.82,10.28q-5.5,6.4-11.33,12.4c-.11.11-.28.22-.31.36a2.79,2.79,0,0,1-1.48,1.64c-1,.62-2,1.17-3,1.72-2.25,1.21-4.55,2.31-6.92,3.31l-.18.1h0a1,1,0,0,0-.81.32h0a13.93,13.93,0,0,0-2.16.78,33.43,33.43,0,0,0-5.5,2.54,32.9,32.9,0,0,0-9.61,9.23.55.55,0,0,0-.15.36h0c-.12,0-.15.07-.15.18h0a.29.29,0,0,0-.2.31Zm56,17.8c-.23,1-.31,2-.47,3.07a.58.58,0,0,0,.4.7h.06a31.23,31.23,0,0,0,5.3,4,1.44,1.44,0,0,1-1.19.61,4.83,4.83,0,0,1-2.59-.7,14.54,14.54,0,0,1-1.78-1.34c-.12-.15-.22-.35-.48-.31a15.91,15.91,0,0,0,0,3.65,5.23,5.23,0,0,0,0,.56,48.32,48.32,0,0,0,.75,7,21.92,21.92,0,0,0,.63,2.78,1.66,1.66,0,0,0,.4-.95,8.23,8.23,0,0,1,.37-1.69,16.57,16.57,0,0,1,.9-2.13,34.14,34.14,0,0,1,3.07-5.87,48.33,48.33,0,0,1,4.89-6.42c.2-.21.25-.37,0-.62a13.42,13.42,0,0,1-2.13-5.22c-.15-.63-.28-1.27-.41-1.88a.46.46,0,0,0-.42.11,15.73,15.73,0,0,1-5.39,1.71,1.27,1.27,0,0,1-1.45-.64,25.28,25.28,0,0,0-.47,3.57Zm4.78-21.43a1.08,1.08,0,0,0-.13.29l-1.5,5.81c-.5,1.94-1,3.8-1.38,5.75A47.53,47.53,0,0,0,90,101.65a10,10,0,0,1,1.14-.55,16.39,16.39,0,0,1,5.45-1.1c.31,0,.43-.11.4-.42,0-.51-.08-1-.13-1.51A3.84,3.84,0,0,1,97,96.64.77.77,0,0,1,97.7,96a.71.71,0,0,1,.69.57,7.45,7.45,0,0,1,.27.92c.46,2.19.9,4.38,1.49,6.54.3,1.1.56,2.22.84,3.35l.8-.23c.91.26,1.1.71.62,1.52a9.56,9.56,0,0,0-.82,1.18,9.37,9.37,0,0,0-1.27,1.54,57.81,57.81,0,0,0-6.52,10.33c-.29.6-.67,1.15-.91,1.78s-.3,1.35-.48,2a5.89,5.89,0,0,0-.41,1.6,1,1,0,0,1-.72.87c-.18.07-.43-.08-.6.21.33,1,.75,2.08,1.16,3.12a.47.47,0,0,0,.56.32c.5-.05,1-.11,1.51-.12a30.43,30.43,0,0,0,7.69-1.36,20.67,20.67,0,0,0,5.13-2.39c.18-.11.38-.21.35-.48-.1-1,.61-1.5,1.25-2a3.31,3.31,0,0,0,.75-.79,45.78,45.78,0,0,0,2.61-5,65,65,0,0,0,2.86-6.44,5.09,5.09,0,0,0,.48-3c0-3.81.26-7.62.21-11.44a56.61,56.61,0,0,0-.73-9,74.5,74.5,0,0,0-2.1-9.19,11.5,11.5,0,0,0-1.61-3.37,1.77,1.77,0,0,0-1.67-.75,17.94,17.94,0,0,0-3,.44l-3.81.35c-2.09.21-4.18.43-6.27.6a.56.56,0,0,0-.64.53c-.31,1.45-.65,2.9-.93,4.36a8.52,8.52,0,0,0-.31,1.66ZM98.4,60.35a.06.06,0,0,1,0-.06.28.28,0,0,0-.11,0s0,0,0,0Z"/><path class="cls-4" d="M127.51,3.16a6.4,6.4,0,0,1,1.9,1.65,1.48,1.48,0,0,0-.12.29A67.53,67.53,0,0,1,127.37,12c-1.39,4.22-2.61,8.51-4.35,12.61a44.76,44.76,0,0,1-3.55,6.88c-1.45,2.24-3,4.39-4.66,6.5-1.75,2.28-3.54,4.54-5.45,6.68-1.72,1.93-3.48,3.83-5.14,5.82a39.44,39.44,0,0,0-3.87,5.47,5.78,5.78,0,0,0-1,2.51,23.42,23.42,0,0,1-1.86,2c-.18.19-.42.32-.49.59a.39.39,0,0,1-.1.08V61H97l1-.58a.32.32,0,0,1,.3,0c.14.1.08.24,0,.36-.28.69-.56,1.38-.85,2.07a73.63,73.63,0,0,0-4.17,14c-.89,4.53-2.14,9-3.33,13.44a96.18,96.18,0,0,0-2.58,12.45,48.84,48.84,0,0,0-.33,8.8c.07,1.45,0,2.89,0,4.33A37.57,37.57,0,0,0,88,126.1a14.17,14.17,0,0,0,2.36,5.48c.13.17.23.32.09.56s0,.54.38.6a8.73,8.73,0,0,0,1.34.23,30.05,30.05,0,0,0,8.36-.38,25.75,25.75,0,0,0,9.2-4.13c1.54-1.07,3-2.2,4.5-3.35a68,68,0,0,1,8-5.46,79.93,79.93,0,0,1,11.4-5.44,34.26,34.26,0,0,1,5.45-1.56c1.25-.25,2.49-.57,3.74-.87a4.13,4.13,0,0,1,2.36.11,22.75,22.75,0,0,1,3.34,1.06,6.08,6.08,0,0,1,3.19,3.9,3.25,3.25,0,0,1,0,1.75,3.62,3.62,0,0,0-1.5-.16.61.61,0,0,1-.75-.43s0,0,0-.06a2.54,2.54,0,0,0-1.72-1.55,6,6,0,0,0-3.08-.16,12.68,12.68,0,0,0-7.55,4,8.31,8.31,0,0,0-2.43,6.61,4.18,4.18,0,0,0,2.43,3.67c-1.38.92-2.78,1.79-4.12,2.76a49.74,49.74,0,0,0-13.25,14.21,33.41,33.41,0,0,0-1.83,3.25c-1.23,2.66-2.66,5.23-4,7.83a71.14,71.14,0,0,1-5.19,8.08c-1.19,1.68-2.42,3.33-3.66,5a49,49,0,0,1-9.33,9.21c-5.21,4-10.69,7.62-16.09,11.36-4.89,3.39-9.81,6.75-14.8,10-3.65,2.37-7.36,4.63-11,6.93-5.12,3.19-10.3,6.28-15.48,9.39-.2.12-.42.22-.63.33a20.78,20.78,0,0,1-3.19-2.65,90.93,90.93,0,0,1-7.58-8.12q-3.66-4.4-6.9-9.12a107.83,107.83,0,0,1-6-9.88,66.43,66.43,0,0,1-4.31-9.63,69.78,69.78,0,0,1-2.88-10.14c-.36-1.91-.7-3.81-.94-5.74a10.47,10.47,0,0,0-.36-2.49A25.5,25.5,0,0,1,6.32,157c1.36-5.84,2.74-11.68,4.43-17.44a210.76,210.76,0,0,1,6.9-20c2.46-6,5.16-12,8-17.88,1.79-3.67,3.69-7.28,5.74-10.81a19.87,19.87,0,0,1,1.84-2.8.21.21,0,0,0,.16-.21h0c.18,0,.22-.14.21-.3h0a.15.15,0,0,0,.15-.15v0h0c.39,0,.55-.3.75-.52a68.75,68.75,0,0,1,6.5-6A40.58,40.58,0,0,1,50.58,75c.22-.1.47-.15.55-.42h0a.85.85,0,0,0,.81-.33h0a.16.16,0,0,0,.18-.09h0c2.35-1,4.66-2.09,6.92-3.31,1-.55,2-1.1,3-1.72a2.8,2.8,0,0,0,1.49-1.69c0-.14.2-.25.3-.36q5.83-6,11.29-12.38c2.94-3.43,5.92-6.81,8.81-10.28A182.89,182.89,0,0,1,98.19,29.33q5.63-5.35,11-11c1.64-1.72,3.17-3.54,4.76-5.31.12-.14.21-.31.39-.38a3.47,3.47,0,0,0,3,.95,6,6,0,0,0,2.36-.94,17.41,17.41,0,0,0,4.08-4A45.31,45.31,0,0,0,127.51,3.16ZM103.29,167.79c.66-.73,1.27-1.36,1.82-2s1.2-1.29,1.76-2a19.13,19.13,0,0,0,1.47-1.89,3.65,3.65,0,0,0,.6-2.27,2.25,2.25,0,0,0-1.57-1.92,2.31,2.31,0,0,0-2.57,1.17,4.7,4.7,0,0,0-.51,1.25,49.07,49.07,0,0,0-.93,6.15A2.68,2.68,0,0,0,103.29,167.79Z"/><path class="cls-5" d="M5.52,161.1a9.86,9.86,0,0,1,.32,2.53c.24,1.93.58,3.83.94,5.74a71.43,71.43,0,0,0,2.88,10.14A68.86,68.86,0,0,0,14,189.1,111.69,111.69,0,0,0,20,199c2.15,3.15,4.45,6.18,6.9,9.12a89.66,89.66,0,0,0,7.52,8.07,23.2,23.2,0,0,0,3.19,2.66l-6.42,3.91a2.83,2.83,0,0,1-1.45.38,19.43,19.43,0,0,1-6.46-1,13,13,0,0,1-2.65-1.29,36.32,36.32,0,0,1-7-5.4,36.69,36.69,0,0,1-9.17-15.31,41.14,41.14,0,0,1-1.22-5.71c-.23-1.53-.43-3.06-.57-4.6a26.49,26.49,0,0,1-.07-3.45c.1-2.21.18-4.43.38-6.64.12-1.43.18-2.87.32-4.31.18-1.78.46-3.54.7-5.31q.58-4.37,1.4-8.69A1,1,0,0,1,5.52,161.1Z"/><path class="cls-4" d="M101.58,109.85a10.79,10.79,0,0,1,.82-1.18c.48-.8.3-1.26-.62-1.52v-.24a14.55,14.55,0,0,0-1.08-6.49.86.86,0,0,1,0-.63c.53-2.69,1-5.39,1.64-8.05,1.18-5,2.5-10,3.86-15a17.94,17.94,0,0,1,3-.44,1.73,1.73,0,0,1,1.66.74,11.19,11.19,0,0,1,1.61,3.38,75.81,75.81,0,0,1,2.11,9.18,56.61,56.61,0,0,1,.73,9c0,3.81-.22,7.62-.22,11.44a1.73,1.73,0,0,0-.71.34c-2.14,1.34-4.3,2.67-6.35,4.15a45.28,45.28,0,0,0-3.79,2.81,18.91,18.91,0,0,1-4.69,2.76.22.22,0,0,1-.31,0h0c-.1-.33.11-.65.23-1a33.65,33.65,0,0,0,1.75-6.3A12.3,12.3,0,0,0,101.58,109.85Z"/><path class="cls-5" d="M101.58,109.85a12,12,0,0,1-.36,2.92,33.65,33.65,0,0,1-1.75,6.3,1.57,1.57,0,0,0-.23,1c.11.14.21.1.31.05a18.64,18.64,0,0,0,4.65-2.75,45.17,45.17,0,0,1,3.79-2.8c2.05-1.48,4.21-2.81,6.35-4.16a1.87,1.87,0,0,1,.71-.34,4.94,4.94,0,0,1-.48,3,69.62,69.62,0,0,1-2.85,6.44,46.51,46.51,0,0,1-2.61,5,3.56,3.56,0,0,1-.76.79c-.63.5-1.35,1-1.24,2,0,.27-.17.37-.35.48a21,21,0,0,1-5.13,2.39,30.43,30.43,0,0,1-7.69,1.36c-.51,0-1,.07-1.52.12a.47.47,0,0,1-.56-.33c-.4-1-.82-2.07-1.15-3.11.16-.28.41-.14.6-.21a1,1,0,0,0,.69-.9,6.37,6.37,0,0,1,.37-1.55c.19-.66.24-1.35.49-2s.61-1.18.9-1.78a58.43,58.43,0,0,1,6.53-10.33A9,9,0,0,1,101.58,109.85Z"/><path class="cls-5" d="M106.16,76.73c-1.36,5-2.67,10-3.85,15-.63,2.66-1.12,5.36-1.65,8a1,1,0,0,0,0,.63,14.7,14.7,0,0,1,1.09,6.49v.24l-.81.23c-.28-1.13-.53-2.24-.83-3.34-.59-2.16-1-4.35-1.49-6.54a7.45,7.45,0,0,0-.27-.92.75.75,0,0,0-.69-.58.78.78,0,0,0-.73.64,3.63,3.63,0,0,0-.11,1.43c0,.5.07,1,.12,1.52,0,.31-.08.42-.4.42a16.14,16.14,0,0,0-5.45,1.1,11.7,11.7,0,0,0-1.13.54,47.52,47.52,0,0,1,1.2-5.54,11.52,11.52,0,0,0,.76-2.42c.49-2.13,1.07-4.22,1.68-6.31a12.86,12.86,0,0,0,.56-3.13,8.36,8.36,0,0,1,.34-1.71c.29-1.46.63-2.91.93-4.37.08-.38.25-.49.64-.53,2.1-.17,4.18-.39,6.27-.59Z"/><path class="cls-6" d="M137.11,130.54a4.13,4.13,0,0,1-2.43-3.67,8.23,8.23,0,0,1,2.43-6.61,12.68,12.68,0,0,1,7.55-4,6,6,0,0,1,3.08.16,2.54,2.54,0,0,1,1.72,1.55.6.6,0,0,0,.69.5l.07,0a3.79,3.79,0,0,1,1.5.16,5.24,5.24,0,0,1-1.64,3.12,48.67,48.67,0,0,1-6,4.91c-1,.64-2,1.16-3.06,1.73Z"/><path class="cls-5" d="M99.38,58.42a5.73,5.73,0,0,1,1-2.51,38.68,38.68,0,0,1,3.88-5.47c1.66-2,3.41-3.89,5.13-5.82,1.92-2.14,3.7-4.4,5.45-6.68,1.63-2.11,3.21-4.26,4.66-6.5a42.23,42.23,0,0,0,3.55-6.88c1.74-4.11,3-8.39,4.35-12.61a67.53,67.53,0,0,0,1.92-6.85,1.48,1.48,0,0,1,.12-.29A8.32,8.32,0,0,1,132,10.33a10.34,10.34,0,0,1-1,5.28,85.09,85.09,0,0,1-7.52,12.93c-4,5.43-8,10.77-12.19,16-2.53,3.14-5.09,6.26-7.73,9.32a2.3,2.3,0,0,1-.84.71,2.12,2.12,0,0,0-.88.8l-2,2.62A1.13,1.13,0,0,1,99.38,58.42Z"/><path class="cls-5" d="M89.12,112a15.26,15.26,0,0,0,1.78,1.33,4.75,4.75,0,0,0,2.59.71,1.45,1.45,0,0,0,1.19-.62,30.84,30.84,0,0,1-5.3-4v-3.79a24.7,24.7,0,0,1,.52-3.52,1.28,1.28,0,0,0,1.45.63,15.31,15.31,0,0,0,5.4-1.68.5.5,0,0,1,.42-.11c.14.61.26,1.25.41,1.89a13.42,13.42,0,0,0,2.13,5.22.42.42,0,0,1,0,.61,47.78,47.78,0,0,0-4.89,6.43,34.5,34.5,0,0,0-3.07,5.79,16.57,16.57,0,0,0-.9,2.13,8.22,8.22,0,0,0-.39,1.7,1.67,1.67,0,0,1-.4,1,22.47,22.47,0,0,1-.63-2.79,48.32,48.32,0,0,1-.75-7,5,5,0,0,1,0-.55C88.81,114.26,89,113.15,89.12,112Z"/><path class="cls-6" d="M127.51,3.16a48.59,48.59,0,0,1-3.71,5.5,17.26,17.26,0,0,1-4.09,4,6,6,0,0,1-2.36.94,3.45,3.45,0,0,1-3-1,1.58,1.58,0,0,1,.35-.53C116.86,9.53,119,7,121,4.28q.69-.93,1.29-1.92a.83.83,0,0,1,.61-.46A5.67,5.67,0,0,1,127.51,3.16Z"/><path class="cls-5" d="M51.19,74.58c-.08.27-.34.33-.55.42a40.41,40.41,0,0,0-9.58,5.87,66.16,66.16,0,0,0-6.57,6.07c-.21.22-.36.55-.75.51a.46.46,0,0,1,.14-.36,33.15,33.15,0,0,1,9.64-9.2A33.39,33.39,0,0,1,49,75.36,14,14,0,0,1,51.19,74.58Z"/><path class="cls-4" d="M94.17,84.28a12.86,12.86,0,0,1-.56,3.13c-.61,2.09-1.19,4.18-1.68,6.31a11.52,11.52,0,0,1-.76,2.42c.32-2,.88-3.85,1.37-5.76L94,84.57A1.08,1.08,0,0,1,94.17,84.28Z"/><path class="cls-4" d="M89.12,112c-.15,1.11-.31,2.22-.47,3.34a17.22,17.22,0,0,1,0-3.66C88.9,111.68,89,111.88,89.12,112Z"/><path class="cls-4" d="M89.39,105.71v3.78a.57.57,0,0,1-.47-.65s0,0,0-.06C89.08,107.75,89.16,106.72,89.39,105.71Z"/><path class="cls-5" d="M52,74.26a.87.87,0,0,1-.81.33A1,1,0,0,1,52,74.26Z"/><path class="cls-5" d="M33.59,87.62c0,.16,0,.28-.2.31A.29.29,0,0,1,33.59,87.62Z"/><path class="cls-4" d="M98.39,60.35l-.11-.06v0a.15.15,0,0,1,.11,0Z"/><path class="cls-5" d="M33.4,87.91a.22.22,0,0,1-.15.21C33.25,88,33.29,87.93,33.4,87.91Z"/><path class="cls-5" d="M33.74,87.45a.16.16,0,0,1-.15.18C33.49,87.65,33.63,87.45,33.74,87.45Z"/><path class="cls-5" d="M52.16,74.17a.15.15,0,0,1-.18.09h0Z"/><path class="cls-5" d="M103.29,167.79a2.63,2.63,0,0,1,.07-1.52,51,51,0,0,1,.92-6.15,4.7,4.7,0,0,1,.51-1.25,2.32,2.32,0,0,1,2.58-1.17,2.25,2.25,0,0,1,1.57,1.92,3.6,3.6,0,0,1-.61,2.27,15,15,0,0,1-1.47,1.89c-.56.68-1.2,1.28-1.75,2A26,26,0,0,1,103.29,167.79Z"/><path class="cls-3" d="M97,61h-.12v0L97,61Z"/></g></g></svg>