<svg xmlns="http://www.w3.org/2000/svg" viewBox="0 0 146.31 209.02"><defs><style>.cls-1{fill:#0d0b0a;}.cls-2{fill:#979495;}.cls-3{fill:#f7b068;}.cls-4{fill:#d7822a;}.cls-5{fill:#fde0c2;}</style></defs><g id="Capa_2" data-name="Capa 2"><g id="Capa_1-2" data-name="Capa 1"><g id="Capa_2-2" data-name="Capa 2"><g id="Capa_1-2-2" data-name="Capa 1-2"><path class="cls-1" d="M110.05,208.89a46.38,46.38,0,0,1-5.25-.5c-4-.45-8-1.35-12-2.15-3.32-.67-6.58-1.62-9.83-2.58-2.25-.67-4.53-1.24-6.78-1.9A79.41,79.41,0,0,1,66,197.9l-5.69-2.56c-3.21-1.47-6.43-3-9.52-4.65a55.47,55.47,0,0,1-8.93-5.83,47.89,47.89,0,0,1-6.87-6.71,105.38,105.38,0,0,1-9.78-13.75c-1.16-2-2.14-4.12-3.14-6.22-2.1-4.44-4.11-8.92-5.85-13.51-2.07-5.43-4.2-10.84-5.83-16.43A66.77,66.77,0,0,1,8.15,119a15.53,15.53,0,0,1-.06-5,4.64,4.64,0,0,1,2.66-3.72,7.61,7.61,0,0,1,3.12-.64,8.75,8.75,0,0,1,2.38.42A7.46,7.46,0,0,0,16.2,109,41.17,41.17,0,0,1,16,103.4a40.51,40.51,0,0,1,1.53-11,15,15,0,0,1,1.95-4.26,9.67,9.67,0,0,1,1.66-1.84,5,5,0,0,1,6.12-.54c.08,0,.14.14.3.08-.08-.71-.17-1.43-.25-2.16a21.44,21.44,0,0,1,.52-8.55,16.72,16.72,0,0,1,6.16-9,8.33,8.33,0,0,1,5.17-1.74h.27c.1-.18-.05-.28-.12-.39C34.61,57.67,30,51.27,25.07,45.17c-2.14-2.64-4.34-5.24-6.46-7.9q-5.23-6.59-9.84-13.62c-1.42-2.17-2.89-4.3-4.22-6.52A35.79,35.79,0,0,1,.62,8.84,18.31,18.31,0,0,1,0,6.2,15.7,15.7,0,0,1,0,4.26.6.6,0,0,1,.1,3.92,4,4,0,0,1,3.19.41,11.51,11.51,0,0,1,5.86,0h1.4A28.58,28.58,0,0,1,20.41,4.22c.2.13.36.24.63.07s.46,0,.68.08a6.61,6.61,0,0,1,1.7,1,91.87,91.87,0,0,1,7.33,6.33c3,2.84,5.87,5.76,8.94,8.5q3.77,3.38,7.41,6.89c2.13,2,4.12,4.22,6.07,6.43,4.93,5.6,9.59,11.41,14.38,17.13Q74,58.38,80.86,65.81c1.15,1.26,2.28,2.55,3.42,3.82,0,.14.12.29.25.26s.08-.17,0-.26A95.23,95.23,0,0,1,81.44,58.9,56,56,0,0,1,80,48.75a40.41,40.41,0,0,1,.29-6.12,31.62,31.62,0,0,1,1.22-6,32.66,32.66,0,0,1,3.07-6.79,19.93,19.93,0,0,1,2.71-3.74A8.82,8.82,0,0,1,90.1,24a6,6,0,0,1,6.44.76,13.25,13.25,0,0,1,5,8c.69,3.21,1.17,6.45,1.78,9.67A88.64,88.64,0,0,0,106,53.22a89.15,89.15,0,0,0,3.21,8.52q2.18,5,4.42,10,1.92,4.28,4.18,8.41,2.42,4.5,4.75,9c1.83,3.52,3.69,7,5.49,10.55,2.09,4.1,3.92,8.32,5.72,12.56C135,115.12,136.08,118,137,121a75.52,75.52,0,0,1,2.42,11.34c.37,2.33.63,4.66.82,7a1.14,1.14,0,0,0,.37.81c.27.23.49.51.75.75a10.66,10.66,0,0,1,2.61,4.35,31.13,31.13,0,0,1,1.88,9c.1,1.13.23,2.26.32,3.4.06.86.1,1.71.12,2.57v3.87a12.29,12.29,0,0,1-.06,1.49,40.29,40.29,0,0,0-.27,4.91,19.9,19.9,0,0,1-.35,4,39.58,39.58,0,0,1-3.14,9.72c-1,2.08-2.05,4.12-3,6.19a30.88,30.88,0,0,1-3.81,6.08,52.53,52.53,0,0,1-5.12,5.63,23.63,23.63,0,0,1-4.69,3.57,26.35,26.35,0,0,1-6.37,2.4,25.54,25.54,0,0,1-4.83.82c-.39,0-.79-.12-1.14.14h-2.15A2.32,2.32,0,0,0,110.05,208.89ZM35,174.13h0a1.06,1.06,0,0,0,.3.48,48.88,48.88,0,0,0,14.57,12.7c3,1.69,6.06,3.25,9.21,4.66,2.81,1.27,5.62,2.56,8.44,3.8a73.67,73.67,0,0,0,8.39,3.16c2.66.81,5.35,1.5,8,2.26,1.53.43,3,.88,4.59,1.28,4,1,8,1.77,12,2.54,2.1.4,4.22.64,6.34.9,1.39.18,2.8.2,4.19.34a21.71,21.71,0,0,0,4.34-.13,26.39,26.39,0,0,0,5.61-1.29,17.54,17.54,0,0,0,5.24-2.67,40,40,0,0,0,5.73-5.53,32.17,32.17,0,0,0,4.55-6.54c1.16-2.36,2.36-4.71,3.47-7.11a30.51,30.51,0,0,0,3.16-14.14,16.34,16.34,0,0,1,.1-1.71c.13-1.68.35-3.35.33-5,0-1.39-.14-2.75-.25-4.13-.18-2.44-.4-4.87-.79-7.29a22.79,22.79,0,0,0-1.85-5.87.19.19,0,0,0-.25-.19,39.33,39.33,0,0,1-1.42,8.69,25.67,25.67,0,0,0-.73,2.6L137,159.68h-.2c.08-.46.15-.92.23-1.39.33-2.09.55-4.19.73-6.29a66.8,66.8,0,0,0-.24-12c-.25-2.72-.64-5.43-1.06-8.13a68.09,68.09,0,0,0-3.2-13.12c-1.69-4.57-3.66-9-5.69-13.44-1.94-4.23-4.15-8.33-6.28-12.47-2-3.85-4-7.67-6-11.49s-3.86-7.79-5.56-11.79l-3-7a91.09,91.09,0,0,1-3.93-11c-.76-2.65-1.33-5.34-1.91-8a5.23,5.23,0,0,0-.11-.78c-.43-2.43-.85-4.86-1.29-7.29a24.71,24.71,0,0,0-.83-3.6,9.15,9.15,0,0,0-2-3.35,6.06,6.06,0,0,0-2-1.9,3.53,3.53,0,0,0-4.2.13,9.54,9.54,0,0,0-2.16,2.14c-.57.77-1.08,1.57-1.57,2.38a27.71,27.71,0,0,0-3.5,8.9,41.15,41.15,0,0,0-.33,13.47,2.69,2.69,0,0,0,.17,1,11.45,11.45,0,0,0,.35,2.25c.78,4,1.86,8,2.87,12a27.56,27.56,0,0,1,.77,3.47,2.58,2.58,0,0,0,.59,1.4,24.52,24.52,0,0,1,2.07,2.89,3.35,3.35,0,0,1,.4,1.64c0,.28-.2.2-.35.22a5,5,0,0,1-1.37-.86c-1.75-1.55-3.39-3.2-5-4.87Q74.4,63.47,66,53.54c-1.66-2-3.26-4-4.9-5.94-2.7-3.26-5.41-6.5-8.12-9.75-1.76-2.12-3.59-4.19-5.46-6.21-2.23-2.4-4.62-4.65-7-6.88S35.41,20.08,33,17.6s-4.95-5-7.43-7.49c-.25-.26-.46-.59-.95-.41-.22.08-.5-.11-.71-.27s-.52-.42-.76-.64A24.37,24.37,0,0,0,17.5,5.06,27.64,27.64,0,0,0,8.8,2.48a13.13,13.13,0,0,0-4.88.13A2,2,0,0,0,2.21,4.52,8.76,8.76,0,0,0,2.61,8a29,29,0,0,0,3.65,7.58c2,3.26,4.3,6.39,6.49,9.55a138.55,138.55,0,0,0,8.62,11.25c4.46,5.31,8.93,10.62,13,16.21,3.52,4.78,7.1,9.51,10.5,14.38,2.19,3.13,4.43,6.23,6.63,9.37,4.18,6,8.27,12,12.71,17.81a47,47,0,0,1,2.73,4,2.68,2.68,0,0,1,.46,1,.66.66,0,0,1-1,.74,2.7,2.7,0,0,1-.53-.35,10.43,10.43,0,0,1-1.71-1.61L61,94.28c0-.18-.17-.28-.27-.4-1.24-1.53-2.48-3.07-3.64-4.67C53,83.48,48.94,77.61,44.82,71.83c-1.17-1.64-2.33-3.3-3.5-5-.14-.2-.25-.44-.58-.44a11.2,11.2,0,0,0-3,.29,8.26,8.26,0,0,0-4.16,2.85,9.5,9.5,0,0,0-1.73,2.16A16,16,0,0,0,29.47,81a38.27,38.27,0,0,0,.93,6.91,62.76,62.76,0,0,0,2.36,7.93,112.41,112.41,0,0,0,5.45,12.6c1.2,2.37,2.44,4.73,3.55,7.15a26.27,26.27,0,0,1,1.73,4.81,2.78,2.78,0,0,1,.07,1.59c-.4-.65-.75-1.26-1.14-1.84-1.41-2.06-2.82-4.12-4.08-6.27A100.58,100.58,0,0,1,32.85,103v-.07a84.75,84.75,0,0,1-4.66-13.79.61.61,0,0,0-.31-.45,6.57,6.57,0,0,1-1.21-.88,3.15,3.15,0,0,0-4.11.24,7.94,7.94,0,0,0-2.19,3.11,19.78,19.78,0,0,0-.76,2.07,39.21,39.21,0,0,0-1.35,10.28,44.56,44.56,0,0,0,2.43,15.19,126.37,126.37,0,0,0,5,12.11c.8,1.75,1.71,3.44,2.54,5.18a12.17,12.17,0,0,1,1,3,.92.92,0,0,1-.47,1.14c-.35.14-.66,0-1-.46a18.91,18.91,0,0,1-1.25-1.82A82.8,82.8,0,0,1,21.15,127c-.71-1.76-1.4-3.52-2.1-5.28a1.31,1.31,0,0,0-.11-.42c-.39-1.22-.82-2.42-1.14-3.66a54.32,54.32,0,0,1-1.23-5.34c0-.21-.06-.44-.33-.48a7.1,7.1,0,0,0-3.93.15,2.26,2.26,0,0,0-1.84,1.47,4.68,4.68,0,0,0-.3,1.17,14.45,14.45,0,0,0,.22,4.4,78.92,78.92,0,0,0,3.16,11.89c1.43,4.25,3.07,8.43,4.71,12.6,1.79,4.53,3.83,8.94,5.87,13.36a74.07,74.07,0,0,0,6.58,11.64c1.3,1.84,2.7,3.61,4.08,5.4C34.85,174,34.9,174.11,35,174.13Z"/><path class="cls-2" d="M84.48,69.65c.07.1.14.23,0,.27s-.21-.13-.25-.26Z"/><path class="cls-3" d="M83.09,54.67c-.22-.31-.13-.69-.17-1a40.88,40.88,0,0,1,.33-13.47,27.71,27.71,0,0,1,3.5-8.9,27,27,0,0,1,1.57-2.37,9.38,9.38,0,0,1,2.16-2.15,3.51,3.51,0,0,1,4.2-.13,6.37,6.37,0,0,1,2,1.9,1.88,1.88,0,0,0-.54.65A5.79,5.79,0,0,0,95.39,32a15.52,15.52,0,0,0,1.15,6.87,10.22,10.22,0,0,0,2.85,3.93,2.82,2.82,0,0,0,1.48.79c.58,2.69,1.15,5.38,1.91,8a91.09,91.09,0,0,0,3.93,11l3,7c1.7,4,3.54,7.94,5.56,11.79s4,7.64,6,11.49c2.12,4.15,4.34,8.24,6.28,12.47,2,4.43,4,8.87,5.69,13.45a67.68,67.68,0,0,1,3.23,13.07c.42,2.7.81,5.4,1.06,8.12a66.8,66.8,0,0,1,.24,12c-.18,2.11-.4,4.21-.73,6.3-.08.46-.15.93-.23,1.39a1.49,1.49,0,0,0-.13.83,1.22,1.22,0,0,0,.33-.81c.42-1.25.85-2.5,1.27-3.74a4.22,4.22,0,0,1-.17,1.54,49.52,49.52,0,0,1-2,7.27,48.23,48.23,0,0,1-2.89,6.49q-1.59,3-3.43,5.91a63.15,63.15,0,0,1-4.26,5.87c-.78,1-1.58,1.89-2.37,2.83s-1.64,1.65-2.35,2.58a2.68,2.68,0,0,1-1.76,1.08c-.65.11-1.29.31-1.94.46-1.89.42-3.8.74-5.72,1-1.4.23-2.8.46-4.21.6-1.17.11-2.34.3-3.52.37l-2.84.2c-1.58.13-3.17.18-4.75.22a78.35,78.35,0,0,1-8.39-.22c-1.56-.12-3.12-.18-4.68-.3-2-.15-3.89-.48-5.83-.77-2.67-.41-5.31-1-7.93-1.62a88.86,88.86,0,0,1-11.38-3.58c-2.54-1-5.06-2-7.54-3.18-1.87-.86-3.73-1.78-5.54-2.77-1.25-.68-2.48-1.39-3.71-2.11-1.89-1.1-3.7-2.31-5.52-3.53-.17-.11-.33-.28-.57-.24h0c0-.12-.06-.16-.16-.17-1.38-1.78-2.78-3.55-4.08-5.4a72.42,72.42,0,0,1-6.58-11.63c-2.05-4.42-4.09-8.84-5.87-13.37-1.65-4.17-3.28-8.35-4.71-12.6A80.16,80.16,0,0,1,10.41,119a15,15,0,0,1-.22-4.39,4.79,4.79,0,0,1,.3-1.17A2.3,2.3,0,0,1,12.34,112a1.5,1.5,0,0,0,.15.55,34.85,34.85,0,0,0,3,5.58c1,1.68,2,3.38,2.9,5.15a1.31,1.31,0,0,0,.46.67,4,4,0,0,0,.09-1.09,2.46,2.46,0,0,1,.16-1.11c.7,1.76,1.39,3.52,2.11,5.28a80.91,80.91,0,0,0,5.35,10.85c.38.63.81,1.23,1.25,1.82s.68.59,1,.46a.92.92,0,0,0,.47-1.14,12.17,12.17,0,0,0-1-3c-.83-1.74-1.75-3.43-2.55-5.18a126.37,126.37,0,0,1-5-12.11,44.55,44.55,0,0,1-2.42-15.19,38.88,38.88,0,0,1,1.31-10.29,16.51,16.51,0,0,1,.76-2.07.84.84,0,0,1,.27.32c.41.67.81,1.34,1.23,2,1.21,1.87,2.5,3.68,3.82,5.48.91,1.23,1.77,2.51,2.76,3.7,1.24,1.49,2.43,3,3.71,4.48A10.58,10.58,0,0,0,33.9,109h0l-.06-.07a5.23,5.23,0,0,0,0-.56c-.3-1.33-.62-2.66-.89-4-.09-.47-.38-.93-.13-1.44a98.79,98.79,0,0,0,5.49,10.87C39.57,116,41,118,42.39,120.08c.39.58.74,1.19,1.14,1.84a2.78,2.78,0,0,0-.07-1.59,26.27,26.27,0,0,0-1.73-4.81c-1.11-2.42-2.34-4.78-3.55-7.15a112.41,112.41,0,0,1-5.45-12.6,61.42,61.42,0,0,1-2.35-7.84A38.27,38.27,0,0,1,29.45,81a16,16,0,0,1,2.38-9.31,9.5,9.5,0,0,1,1.73-2.16c.65.69,1.45,1.21,2.12,1.9,1.5,1.55,3.07,3,4.52,4.64.88,1,1.79,1.9,2.65,2.88.62.69,1.27,1.35,1.86,2s1.45,1.58,2.2,2.34c1,1,2.08,1.94,3.13,2.9a32.65,32.65,0,0,0,3.41,2.79c2.36,1.67,4.77,3.29,7.1,5a.65.65,0,0,0,.51.2l3.12,3.61a11.85,11.85,0,0,0,1.71,1.61,2.7,2.7,0,0,0,.53.35.67.67,0,0,0,.92-.18.65.65,0,0,0,.08-.56,2.47,2.47,0,0,0-.46-1c-.86-1.37-1.75-2.71-2.73-4-4.44-5.79-8.53-11.83-12.71-17.81-2.2-3.13-4.44-6.23-6.63-9.37-3.39-4.87-7-9.6-10.5-14.38-4.12-5.59-8.59-10.9-13-16.21q-4.56-5.43-8.62-11.25C10.55,22,8.26,18.84,6.26,15.58A29.51,29.51,0,0,1,2.6,8a8.76,8.76,0,0,1-.4-3.45A2,2,0,0,1,3.91,2.61a13.13,13.13,0,0,1,4.88-.13,27.9,27.9,0,0,1,8.7,2.58,24.25,24.25,0,0,1,5.63,3.78c.24.22.5.44.76.64s.49.35.71.27c.49-.18.7.15.95.41Q29.26,13.84,33,17.6c2.43,2.48,5,4.8,7.55,7.16s4.79,4.48,7,6.88c1.87,2,3.7,4.09,5.46,6.21,2.71,3.25,5.42,6.49,8.12,9.75,1.64,2,3.24,4,4.9,5.94q8.37,9.91,17.39,19.26c1.61,1.67,3.25,3.32,5,4.87a5,5,0,0,0,1.37.86,50.86,50.86,0,0,0,4.1,3.94c.4.37.78.76,1.22,1.1,3.22,2.53,6.46,5,9.75,7.49a.93.93,0,0,0,.63.29v.06h0v-.06a.79.79,0,0,0-.16-.39c-1.23-2.09-2.46-4.18-3.67-6.27-.84-1.43-1.64-2.89-2.49-4.31-1-1.67-2.07-3.3-3.06-5C93.61,71.22,91,67.17,88.35,63.1q-1.78-2.76-3.49-5.54A32.85,32.85,0,0,0,83.09,54.67ZM20.61,15.48a7.6,7.6,0,0,0-1.27-4A14.26,14.26,0,0,0,14.26,7,18.33,18.33,0,0,0,8.43,5c-.95-.17-1.9-.37-2.86-.55-.65-.12-.76,0-.71.64S5,6.66,5.12,7.43a20.26,20.26,0,0,0,2,7.15,15.08,15.08,0,0,0,1.8,2.81,10.74,10.74,0,0,0,2.45,2.16,6.84,6.84,0,0,0,4.89,1.16A5.33,5.33,0,0,0,20.61,15.48ZM39.42,35.72a5.34,5.34,0,0,0-.8,0,7.49,7.49,0,0,0-1.22.38,4.55,4.55,0,0,0-2.67,5.51,4.1,4.1,0,0,0,4.88,2.76,4.44,4.44,0,0,0,3-2.25,5.49,5.49,0,0,0-.07-4.87A2.35,2.35,0,0,0,41.29,36,3.45,3.45,0,0,0,39.42,35.72ZM53.53,150.25a4.23,4.23,0,0,0-3.17,1.35,3.31,3.31,0,0,0,.15,4.44A4.84,4.84,0,0,0,55,157.78a11.45,11.45,0,0,0,3.16-.79c1-.4,2-1,3-1.41.26-.12.29-.29.1-.5l-.24-.26a19.64,19.64,0,0,0-4.62-3.75A5.66,5.66,0,0,0,53.53,150.25ZM89.7,113.6c-1.81,0-2.68.69-3.13,1.57a2.92,2.92,0,0,0,.41,3.25,4.61,4.61,0,0,0,2.89,1.81,12.79,12.79,0,0,0,2.95.35,7.63,7.63,0,0,1,1.91.09c.44.11.61,0,.46-.48a13.65,13.65,0,0,0-2.09-4.63,4.66,4.66,0,0,0-3.4-2ZM73.32,140.5a.44.44,0,0,0-.25-.31,7.4,7.4,0,0,1-1.62-1.59,4.87,4.87,0,0,0-3.88-1.9,1.71,1.71,0,0,0-1.76,1,1.85,1.85,0,0,0,.47,2.09A4.7,4.7,0,0,0,70,141.14c.66-.06,1.31-.17,2-.29A3,3,0,0,0,73.32,140.5Z"/><path class="cls-4" d="M35,174.13a1,1,0,0,1,.57.24c1.82,1.22,3.63,2.43,5.52,3.53,1.23.71,2.46,1.43,3.71,2.11,1.82,1,3.67,1.92,5.54,2.77,2.48,1.14,5,2.17,7.54,3.18a89.14,89.14,0,0,0,11.4,3.58c2.62.65,5.26,1.2,7.93,1.62,1.93.29,3.87.62,5.83.77,1.56.12,3.12.18,4.68.3a81,81,0,0,0,8.39.22c1.58,0,3.17-.09,4.75-.22l2.84-.2c1.18-.08,2.35-.26,3.52-.37,1.41-.14,2.81-.37,4.21-.6,1.92-.31,3.83-.63,5.72-1.05.65-.15,1.29-.35,1.94-.46a2.68,2.68,0,0,0,1.76-1.08c.71-.93,1.6-1.69,2.35-2.58s1.59-1.88,2.37-2.83a63.15,63.15,0,0,0,4.26-5.87c1.22-1.92,2.37-3.89,3.43-5.91a46.6,46.6,0,0,0,2.89-6.5,49.05,49.05,0,0,0,2-7.26,4.22,4.22,0,0,0,.17-1.54c.16-.89.48-1.74.72-2.61a39.33,39.33,0,0,0,1.42-8.69c.19-.05.22.11.26.19a23,23,0,0,1,1.85,5.82c.38,2.42.61,4.85.79,7.29.1,1.37.23,2.74.25,4.13,0,1.69-.21,3.36-.34,5a16.32,16.32,0,0,0-.09,1.71A30.54,30.54,0,0,1,140,182.93c-1.1,2.39-2.3,4.74-3.47,7.11a31.39,31.39,0,0,1-4.55,6.54,39.88,39.88,0,0,1-5.72,5.53,17.59,17.59,0,0,1-5.25,2.67,25.8,25.8,0,0,1-5.61,1.29,21.63,21.63,0,0,1-4.33.13c-1.39-.14-2.8-.16-4.19-.34-2.13-.27-4.24-.5-6.34-.9-4-.77-8-1.5-12-2.54-1.54-.41-3.07-.85-4.6-1.28-2.67-.76-5.35-1.45-8-2.26a73.67,73.67,0,0,1-8.39-3.16c-2.83-1.25-5.63-2.53-8.45-3.8q-4.71-2.11-9.21-4.66a49.13,49.13,0,0,1-14.6-12.66A1,1,0,0,1,35,174.13Z"/><path class="cls-4" d="M83.09,54.67c.68.92,1.2,1.93,1.8,2.9,1.14,1.86,2.31,3.7,3.49,5.53,2.61,4.08,5.26,8.13,7.73,12.29,1,1.67,2.06,3.3,3.06,5,.85,1.42,1.65,2.88,2.49,4.31q1.83,3.14,3.67,6.27a.79.79,0,0,1,.16.39,1,1,0,0,1-.63-.29c-3.29-2.45-6.53-5-9.75-7.5-.43-.34-.81-.73-1.22-1.1a50.86,50.86,0,0,1-4.1-3.94c.15,0,.37.06.35-.21a3.49,3.49,0,0,0-.4-1.64,22.79,22.79,0,0,0-2.07-2.9,2.48,2.48,0,0,1-.59-1.39,27.56,27.56,0,0,0-.77-3.47c-1-4-2.09-7.94-2.87-12A12.25,12.25,0,0,1,83.09,54.67Z"/><path class="cls-4" d="M61.1,94.33a.72.72,0,0,1-.52-.2c-2.33-1.71-4.73-3.33-7.09-5a35.26,35.26,0,0,1-3.42-2.79c-1-1-2.13-1.89-3.13-2.9-.75-.77-1.51-1.52-2.19-2.34s-1.25-1.36-1.86-2c-.87-1-1.78-1.92-2.65-2.89-1.46-1.59-3-3.09-4.53-4.63-.66-.69-1.46-1.21-2.12-1.9a8.26,8.26,0,0,1,4.16-2.85,11.2,11.2,0,0,1,3-.29c.33,0,.44.23.59.44,1.17,1.65,2.32,3.31,3.49,5C49,77.71,53,83.58,57.15,89.31c1.16,1.6,2.39,3.14,3.63,4.67C60.93,94.05,61.08,94.14,61.1,94.33Z"/><path class="cls-4" d="M33.9,109a9.9,9.9,0,0,1-1.74-1.86c-1.27-1.46-2.46-3-3.7-4.49-1-1.18-1.85-2.46-2.77-3.7-1.32-1.79-2.6-3.61-3.81-5.48-.42-.66-.82-1.33-1.23-2a.79.79,0,0,0-.28-.32,7.74,7.74,0,0,1,2.19-3.11,3.15,3.15,0,0,1,4.11-.24,6.92,6.92,0,0,0,1.21.88.62.62,0,0,1,.31.44,83.91,83.91,0,0,0,4.66,13.8V103a1.84,1.84,0,0,0,.13,1.44c.27,1.33.59,2.66.89,4A5.44,5.44,0,0,1,33.9,109Z"/><path class="cls-5" d="M100.86,43.54a2.82,2.82,0,0,1-1.48-.79,10.22,10.22,0,0,1-2.85-3.93A15.52,15.52,0,0,1,95.38,32a5.79,5.79,0,0,1,.75-2.78,1.88,1.88,0,0,1,.54-.65,9.15,9.15,0,0,1,2,3.35,26.08,26.08,0,0,1,.83,3.6c.44,2.43.86,4.86,1.29,7.29A4.92,4.92,0,0,0,100.86,43.54Z"/><path class="cls-4" d="M19.09,121.78a2.61,2.61,0,0,0-.17,1.11,3.63,3.63,0,0,1-.08,1.09,1.17,1.17,0,0,1-.46-.67c-.88-1.77-1.87-3.47-2.9-5.15a34.85,34.85,0,0,1-3-5.58,1.73,1.73,0,0,1-.15-.55,7.2,7.2,0,0,1,3.93-.19c.27,0,.3.27.33.48a54.32,54.32,0,0,0,1.23,5.34c.32,1.24.75,2.45,1.14,3.67A3.56,3.56,0,0,1,19.09,121.78Z"/><path class="cls-4" d="M137,159.72a1.19,1.19,0,0,1-.34.82,1.5,1.5,0,0,1,.14-.83Z"/><path class="cls-4" d="M34.83,174c.1,0,.17,0,.16.16A.19.19,0,0,1,34.83,174Z"/><path class="cls-5" d="M20.61,15.48a5.34,5.34,0,0,1-4.35,5.23,6.81,6.81,0,0,1-4.92-1.15A10.31,10.31,0,0,1,8.89,17.4a14.28,14.28,0,0,1-1.8-2.81,20.26,20.26,0,0,1-2-7.15C5,6.67,4.88,5.9,4.83,5.12s0-.76.71-.64c1,.18,1.9.38,2.86.55a18.19,18.19,0,0,1,5.82,2,14.21,14.21,0,0,1,5.14,4.51A7.9,7.9,0,0,1,20.61,15.48Z"/><path class="cls-4" d="M39.42,35.72a3.44,3.44,0,0,1,1.92.32,2.35,2.35,0,0,1,1.24,1.22,5.42,5.42,0,0,1,.07,4.87,4.44,4.44,0,0,1-3,2.25,4.1,4.1,0,0,1-4.87-2.76,4.55,4.55,0,0,1,2.67-5.51,8.66,8.66,0,0,1,1.22-.39A4.69,4.69,0,0,1,39.42,35.72Z"/><path class="cls-4" d="M53.53,150.25a5.59,5.59,0,0,1,2.76.82,19.39,19.39,0,0,1,4.62,3.75l.24.25c.19.21.16.38-.1.5-1,.47-1.93,1-3,1.42a11.45,11.45,0,0,1-3.16.79A4.87,4.87,0,0,1,50.45,156a3.31,3.31,0,0,1-.15-4.44A4.32,4.32,0,0,1,53.53,150.25Z"/><path class="cls-4" d="M89.7,113.6a4.74,4.74,0,0,1,3.4,2,14,14,0,0,1,2.09,4.63c.15.44,0,.6-.46.49a6.44,6.44,0,0,0-1.91-.1,11.78,11.78,0,0,1-2.95-.35,4.64,4.64,0,0,1-2.89-1.8,2.94,2.94,0,0,1-.41-3.26C87,114.28,87.89,113.57,89.7,113.6Z"/><path class="cls-4" d="M73.32,140.5a2.88,2.88,0,0,1-1.32.31c-.65.12-1.3.22-2,.28a4.72,4.72,0,0,1-3.76-1.34,1.88,1.88,0,0,1-.47-2.1,1.73,1.73,0,0,1,1.76-1,4.9,4.9,0,0,1,3.88,1.9A7.19,7.19,0,0,0,73,140.14.53.53,0,0,1,73.32,140.5Z"/><path class="cls-4" d="M105.49,91.33v.07h0Z"/><path class="cls-4" d="M33.9,109l.06.06h0Z"/></g></g></g></g></svg>