<svg xmlns="http://www.w3.org/2000/svg" viewBox="0 0 427.06 283.18"><defs><style>.cls-1{isolation:isolate;}.cls-2{mix-blend-mode:multiply;}.cls-3,.cls-6{fill:#1d1d1b;}.cls-4{fill:none;stroke:#1d1d1b;stroke-miterlimit:10;stroke-width:9px;}.cls-5{fill:#fff;}.cls-6{font-size:36px;font-family:UniSansHeavyItalic, Uni Sans  ;}.cls-7{letter-spacing:-0.07em;}.cls-8{letter-spacing:-0.03em;}.cls-9{letter-spacing:-0.01em;}.cls-10{letter-spacing:-0.03em;}.cls-11{fill:#0d0b0a;}.cls-12{fill:#979495;}.cls-13{fill:#f7b068;}.cls-14{fill:#d7822a;}.cls-15{fill:#fde0c2;}</style></defs><g class="cls-1"><g id="Capa_2" data-name="Capa 2"><g id="Capa_1-2" data-name="Capa 1"><g class="cls-2"><rect class="cls-3" x="12.5" y="12.5" width="340.46" height="98.39"/><rect class="cls-4" x="12.5" y="12.5" width="340.46" height="98.39"/></g><rect class="cls-5" x="4.5" y="4.5" width="340.46" height="98.39"/><rect class="cls-4" x="4.5" y="4.5" width="340.46" height="98.39"/><text class="cls-6" transform="translate(32.61 63.69)">NUE<tspan class="cls-7" x="69.48" y="0">V</tspan><tspan class="cls-8" x="90.32" y="0">A</tspan><tspan x="112.54" y="0" xml:space="preserve"> HIS</tspan><tspan class="cls-9" x="174.45" y="0">T</tspan><tspan x="195.41" y="0">ORI</tspan><tspan class="cls-10" x="252.93" y="0">A</tspan></text><path class="cls-11" d="M390.79,283.05c-1.76,0-3.5-.3-5.25-.5-4-.45-8-1.35-12-2.15-3.32-.67-6.58-1.62-9.83-2.58-2.25-.67-4.53-1.24-6.78-1.9a78,78,0,0,1-10.24-3.86L341,269.5c-3.21-1.47-6.43-2.95-9.52-4.65a55.92,55.92,0,0,1-8.93-5.83,47.38,47.38,0,0,1-6.87-6.71,105.1,105.1,0,0,1-9.78-13.75c-1.16-2-2.14-4.12-3.14-6.22-2.1-4.44-4.11-8.92-5.85-13.51-2.07-5.43-4.2-10.84-5.83-16.43a67.11,67.11,0,0,1-2.19-9.27,15.78,15.78,0,0,1-.06-5,4.65,4.65,0,0,1,2.66-3.72,7.71,7.71,0,0,1,3.12-.64,8.52,8.52,0,0,1,2.38.42c0-.39,0-.74-.05-1.08a41.17,41.17,0,0,1-.25-5.55,40.69,40.69,0,0,1,1.53-11,15,15,0,0,1,1.95-4.26,9.38,9.38,0,0,1,1.66-1.84,5,5,0,0,1,6.12-.54c.08.05.14.14.3.08-.08-.71-.17-1.43-.25-2.16a21.43,21.43,0,0,1,.52-8.55,16.69,16.69,0,0,1,6.16-9,8.35,8.35,0,0,1,5.17-1.74h.27c.1-.18-.05-.28-.12-.39-4.65-6.33-9.23-12.73-14.19-18.83-2.14-2.64-4.34-5.24-6.46-7.9q-5.24-6.59-9.84-13.62c-1.42-2.17-2.89-4.3-4.22-6.52A35.77,35.77,0,0,1,281.36,83a18.61,18.61,0,0,1-.59-2.64,15.71,15.71,0,0,1,0-1.94c0-.11,0-.23.07-.34a4,4,0,0,1,3.09-3.51,11.51,11.51,0,0,1,2.67-.41H288a28.58,28.58,0,0,1,13.15,4.22c.2.13.36.24.63.07s.46,0,.68.08a6.68,6.68,0,0,1,1.7,1,90.14,90.14,0,0,1,7.33,6.33c3,2.84,5.87,5.76,8.94,8.5q3.76,3.38,7.41,6.89c2.13,2,4.12,4.22,6.07,6.43,4.93,5.6,9.59,11.41,14.38,17.13q6.48,7.72,13.31,15.16c1.15,1.26,2.28,2.55,3.42,3.82,0,.14.12.29.25.26s.08-.17,0-.26a95.23,95.23,0,0,1-3.09-10.73,56,56,0,0,1-1.4-10.15,40.34,40.34,0,0,1,.29-6.12,31.62,31.62,0,0,1,1.22-6,32.15,32.15,0,0,1,3.07-6.79,19.93,19.93,0,0,1,2.71-3.74,8.86,8.86,0,0,1,2.77-2.08,6,6,0,0,1,6.44.76,13.23,13.23,0,0,1,5,8c.69,3.21,1.17,6.45,1.78,9.67a88.64,88.64,0,0,0,2.66,10.77c.92,2.9,2,5.73,3.21,8.52q2.18,5,4.42,10,1.92,4.28,4.18,8.41c1.61,3,3.19,6,4.75,9,1.83,3.52,3.69,7,5.49,10.55,2.09,4.1,3.92,8.32,5.72,12.56,1.21,2.86,2.33,5.76,3.27,8.72a75.78,75.78,0,0,1,2.42,11.34c.37,2.33.63,4.66.82,7a1.12,1.12,0,0,0,.37.81c.27.23.49.51.75.75a10.73,10.73,0,0,1,2.61,4.35,31.33,31.33,0,0,1,1.88,9c.1,1.13.23,2.26.32,3.4.06.86.1,1.71.12,2.57,0,1.29,0,2.58,0,3.87,0,.5,0,1-.06,1.49a40.4,40.4,0,0,0-.27,4.91,19.61,19.61,0,0,1-.35,4,39.72,39.72,0,0,1-3.14,9.72c-1,2.08-2.05,4.12-3,6.19a31.48,31.48,0,0,1-3.81,6.08,52.53,52.53,0,0,1-5.12,5.63,23.63,23.63,0,0,1-4.69,3.57,26.35,26.35,0,0,1-6.37,2.4,25.54,25.54,0,0,1-4.83.82c-.39,0-.79-.12-1.14.14h-2.15A2.32,2.32,0,0,0,390.79,283.05Zm-75.06-34.76h0a1.06,1.06,0,0,0,.3.48,48.83,48.83,0,0,0,14.57,12.7c3,1.69,6.06,3.25,9.21,4.66,2.81,1.27,5.62,2.56,8.44,3.8a73.67,73.67,0,0,0,8.39,3.16c2.66.81,5.35,1.5,8,2.26,1.53.43,3.05.88,4.59,1.28,3.95,1,8,1.77,12,2.54,2.1.4,4.22.64,6.34.9,1.39.18,2.8.2,4.19.34a21.69,21.69,0,0,0,4.34-.13,26.39,26.39,0,0,0,5.61-1.29,17.55,17.55,0,0,0,5.24-2.67,40,40,0,0,0,5.73-5.53,32.17,32.17,0,0,0,4.55-6.54c1.16-2.36,2.36-4.71,3.47-7.11A30.51,30.51,0,0,0,423.86,243a16.34,16.34,0,0,1,.1-1.71c.13-1.68.35-3.35.33-5,0-1.39-.14-2.75-.25-4.13-.18-2.44-.4-4.87-.79-7.29A22.83,22.83,0,0,0,421.4,219c0-.08-.06-.24-.25-.19a39.42,39.42,0,0,1-1.42,8.69,26.42,26.42,0,0,0-.73,2.6l-1.26,3.74-.2,0c.08-.46.15-.92.23-1.39.33-2.09.55-4.19.73-6.29a66.22,66.22,0,0,0-.24-12c-.25-2.72-.64-5.43-1.06-8.13A67.91,67.91,0,0,0,414,192.91c-1.69-4.57-3.66-9-5.69-13.44-1.94-4.23-4.15-8.33-6.28-12.47-2-3.85-4-7.67-6-11.49s-3.86-7.79-5.56-11.79c-1-2.34-2-4.67-3-7a91,91,0,0,1-3.93-11c-.76-2.65-1.33-5.34-1.91-8,0-.26-.07-.52-.11-.78-.43-2.43-.85-4.86-1.29-7.29a24.71,24.71,0,0,0-.83-3.6,9.14,9.14,0,0,0-2-3.35,6.12,6.12,0,0,0-2-1.9,3.53,3.53,0,0,0-4.2.13,9.54,9.54,0,0,0-2.16,2.14c-.57.77-1.08,1.57-1.57,2.38a27.8,27.8,0,0,0-3.5,8.9,41.15,41.15,0,0,0-.33,13.47c.05.34,0,.72.17,1a11.34,11.34,0,0,0,.35,2.25c.78,4,1.86,8,2.87,12a28,28,0,0,1,.77,3.47,2.55,2.55,0,0,0,.59,1.4,23.41,23.41,0,0,1,2.07,2.89,3.37,3.37,0,0,1,.4,1.64c0,.28-.2.2-.35.22a5.17,5.17,0,0,1-1.37-.86c-1.75-1.55-3.39-3.2-5-4.87q-9-9.33-17.39-19.26c-1.66-2-3.26-4-4.9-5.94-2.7-3.26-5.41-6.5-8.12-9.75-1.76-2.12-3.59-4.19-5.46-6.21-2.23-2.4-4.62-4.65-7-6.88s-5.12-4.68-7.55-7.16-4.95-5-7.43-7.49c-.25-.26-.46-.59-.95-.41-.22.08-.5-.11-.71-.27s-.52-.42-.76-.64a24.37,24.37,0,0,0-5.63-3.73,27.56,27.56,0,0,0-8.7-2.58,13.14,13.14,0,0,0-4.88.13,2,2,0,0,0-1.71,1.91,8.78,8.78,0,0,0,.4,3.45A29.19,29.19,0,0,0,287,89.71c2,3.26,4.3,6.39,6.49,9.55q4,5.82,8.62,11.25c4.46,5.31,8.93,10.62,13,16.21,3.52,4.78,7.1,9.51,10.5,14.38,2.19,3.13,4.43,6.23,6.63,9.37,4.18,6,8.27,12,12.71,17.81,1,1.28,1.87,2.63,2.73,4a2.72,2.72,0,0,1,.46,1,.66.66,0,0,1-1,.74,2.7,2.7,0,0,1-.53-.35,10.87,10.87,0,0,1-1.71-1.61l-3.12-3.62c0-.18-.17-.28-.27-.4-1.24-1.53-2.48-3.07-3.64-4.67-4.18-5.73-8.19-11.6-12.31-17.38-1.17-1.64-2.33-3.3-3.5-5-.14-.2-.25-.44-.58-.44a11.5,11.5,0,0,0-3,.29,8.26,8.26,0,0,0-4.16,2.85,9.5,9.5,0,0,0-1.73,2.16,16.05,16.05,0,0,0-2.38,9.31,38.27,38.27,0,0,0,.93,6.91A61.9,61.9,0,0,0,313.5,170a111.37,111.37,0,0,0,5.45,12.6c1.2,2.37,2.44,4.73,3.55,7.15a26.54,26.54,0,0,1,1.73,4.81,2.75,2.75,0,0,1,.07,1.59c-.4-.65-.75-1.26-1.14-1.84-1.41-2.06-2.82-4.12-4.08-6.27a99.67,99.67,0,0,1-5.49-10.87s0,0,0-.07a84.75,84.75,0,0,1-4.66-13.79.62.62,0,0,0-.31-.45,6.57,6.57,0,0,1-1.21-.88,3.15,3.15,0,0,0-4.11.24,7.91,7.91,0,0,0-2.19,3.11,19.78,19.78,0,0,0-.76,2.07A39.3,39.3,0,0,0,299,177.68a44.6,44.6,0,0,0,2.43,15.19,126.15,126.15,0,0,0,5,12.11c.8,1.75,1.71,3.44,2.54,5.18a12.29,12.29,0,0,1,1,3,.92.92,0,0,1-.47,1.14c-.35.14-.66,0-1-.46a20.24,20.24,0,0,1-1.25-1.82,81.57,81.57,0,0,1-5.36-10.85c-.71-1.76-1.4-3.52-2.1-5.28,0-.14-.06-.28-.11-.42-.39-1.22-.82-2.42-1.14-3.66a51.6,51.6,0,0,1-1.23-5.34c0-.21-.06-.44-.33-.48a7.1,7.1,0,0,0-3.93.15,2.26,2.26,0,0,0-1.84,1.47,4.38,4.38,0,0,0-.3,1.17,14.45,14.45,0,0,0,.22,4.4,78.92,78.92,0,0,0,3.16,11.89c1.43,4.25,3.07,8.43,4.71,12.6,1.79,4.53,3.83,8.94,5.87,13.36a74.07,74.07,0,0,0,6.58,11.64c1.3,1.84,2.7,3.61,4.08,5.4C315.59,248.2,315.64,248.27,315.73,248.29Z"/><path class="cls-12" d="M365.22,143.81c.07.1.14.23,0,.27s-.21-.13-.25-.26Z"/><path class="cls-13" d="M363.83,128.83c-.22-.31-.13-.69-.17-1a40.88,40.88,0,0,1,.33-13.47,27.8,27.8,0,0,1,3.5-8.9,27,27,0,0,1,1.57-2.37,9.38,9.38,0,0,1,2.16-2.15,3.51,3.51,0,0,1,4.2-.13,6.23,6.23,0,0,1,2,1.9,1.88,1.88,0,0,0-.54.65,5.85,5.85,0,0,0-.75,2.78,15.55,15.55,0,0,0,1.15,6.87,10.12,10.12,0,0,0,2.85,3.93,2.86,2.86,0,0,0,1.48.79c.58,2.69,1.15,5.38,1.91,8a91,91,0,0,0,3.93,11c1,2.33,2,4.67,3,7,1.7,4,3.54,7.94,5.56,11.79s4,7.64,6,11.49c2.12,4.15,4.34,8.24,6.28,12.47,2,4.43,4,8.87,5.69,13.45A67.73,67.73,0,0,1,417.21,206c.42,2.7.81,5.4,1.06,8.12a66.24,66.24,0,0,1,.24,12c-.18,2.11-.4,4.21-.73,6.3-.08.46-.15.93-.23,1.39a1.48,1.48,0,0,0-.13.83,1.22,1.22,0,0,0,.33-.81c.42-1.25.85-2.5,1.27-3.74a4.2,4.2,0,0,1-.17,1.54,49.48,49.48,0,0,1-2,7.27,48.1,48.1,0,0,1-2.89,6.49q-1.59,3-3.43,5.91a62.65,62.65,0,0,1-4.26,5.87c-.78.95-1.58,1.89-2.37,2.83s-1.64,1.65-2.35,2.58a2.67,2.67,0,0,1-1.76,1.08c-.65.11-1.29.31-1.94.46-1.89.42-3.8.74-5.72,1.05-1.4.23-2.8.46-4.21.6-1.17.11-2.34.3-3.52.37l-2.84.2c-1.58.13-3.17.18-4.75.22-2.8.08-5.59,0-8.39-.22-1.56-.12-3.12-.18-4.68-.3-2-.15-3.89-.48-5.83-.77-2.67-.41-5.31-1-7.93-1.62a88.86,88.86,0,0,1-11.38-3.58c-2.54-1-5.06-2-7.54-3.18-1.87-.86-3.73-1.78-5.54-2.77-1.25-.68-2.48-1.39-3.71-2.11-1.89-1.1-3.7-2.31-5.52-3.53-.17-.11-.33-.28-.57-.24h0c0-.12-.06-.16-.16-.17-1.38-1.78-2.78-3.55-4.08-5.4a72.75,72.75,0,0,1-6.58-11.63c-2.05-4.42-4.09-8.84-5.87-13.37-1.65-4.17-3.28-8.35-4.71-12.6a79.83,79.83,0,0,1-3.17-11.89,15,15,0,0,1-.22-4.39,4.57,4.57,0,0,1,.3-1.17,2.3,2.3,0,0,1,1.85-1.48,1.5,1.5,0,0,0,.15.55,35.12,35.12,0,0,0,3,5.58c1,1.68,2,3.38,2.9,5.15a1.26,1.26,0,0,0,.46.67,3.77,3.77,0,0,0,.09-1.09,2.48,2.48,0,0,1,.16-1.11c.7,1.76,1.39,3.52,2.11,5.28a80.91,80.91,0,0,0,5.35,10.85c.38.63.81,1.23,1.25,1.82s.68.59,1,.46a.91.91,0,0,0,.47-1.14,12.27,12.27,0,0,0-1-3c-.83-1.74-1.75-3.43-2.55-5.18a126.15,126.15,0,0,1-5-12.11,44.59,44.59,0,0,1-2.42-15.19,38.88,38.88,0,0,1,1.31-10.29,16.1,16.1,0,0,1,.76-2.07.92.92,0,0,1,.27.32c.41.67.81,1.34,1.23,2,1.21,1.87,2.5,3.68,3.82,5.48.91,1.23,1.77,2.51,2.76,3.7,1.24,1.49,2.43,3,3.71,4.48a10.25,10.25,0,0,0,1.73,1.87s0,0,0,0,0,0,0,0l-.06-.07a3.51,3.51,0,0,0,0-.56c-.3-1.33-.62-2.66-.89-4-.09-.47-.38-.93-.13-1.44a97.91,97.91,0,0,0,5.49,10.87c1.26,2.15,2.67,4.21,4.08,6.27.39.58.74,1.19,1.14,1.84a2.75,2.75,0,0,0-.07-1.59,26.54,26.54,0,0,0-1.73-4.81c-1.11-2.42-2.34-4.78-3.55-7.15a111.37,111.37,0,0,1-5.45-12.6,61.42,61.42,0,0,1-2.35-7.84,38.27,38.27,0,0,1-.93-6.91,16.05,16.05,0,0,1,2.38-9.31,9.5,9.5,0,0,1,1.73-2.16c.65.69,1.45,1.21,2.12,1.9,1.5,1.55,3.07,3,4.52,4.64.88,1,1.79,1.9,2.65,2.88.62.69,1.27,1.35,1.86,2.05s1.45,1.58,2.2,2.34c1,1,2.08,1.94,3.13,2.9a33.72,33.72,0,0,0,3.41,2.79c2.36,1.67,4.77,3.29,7.1,5a.65.65,0,0,0,.51.2l3.12,3.61a11.36,11.36,0,0,0,1.71,1.61,2.7,2.7,0,0,0,.53.35.66.66,0,0,0,1-.74,2.46,2.46,0,0,0-.46-1c-.86-1.37-1.75-2.71-2.73-4-4.44-5.79-8.53-11.83-12.71-17.81-2.2-3.13-4.44-6.23-6.63-9.37-3.39-4.87-7-9.6-10.5-14.38-4.12-5.59-8.59-10.9-13.05-16.21q-4.56-5.43-8.62-11.25C291.29,96.13,289,93,287,89.74a29.36,29.36,0,0,1-3.66-7.61,8.76,8.76,0,0,1-.4-3.45,2,2,0,0,1,1.71-1.91,13.14,13.14,0,0,1,4.88-.13,27.82,27.82,0,0,1,8.7,2.58A24.37,24.37,0,0,1,303.86,83c.24.22.5.44.76.64s.49.35.71.27c.49-.18.7.15.95.41Q310,88,313.71,91.76c2.43,2.48,5,4.8,7.55,7.16s4.79,4.48,7,6.88c1.87,2,3.7,4.09,5.46,6.21,2.71,3.25,5.42,6.49,8.12,9.75,1.64,2,3.24,4,4.9,5.94q8.37,9.92,17.39,19.26c1.61,1.67,3.25,3.32,5,4.87a5.17,5.17,0,0,0,1.37.86,52.57,52.57,0,0,0,4.1,3.94c.4.37.78.76,1.22,1.1,3.22,2.53,6.46,5,9.75,7.49a.93.93,0,0,0,.63.29.13.13,0,0,0,0,.06h0l0-.06a.76.76,0,0,0-.16-.39q-1.85-3.13-3.67-6.27c-.84-1.43-1.64-2.89-2.49-4.31-1-1.67-2.07-3.3-3.06-5-2.47-4.16-5.12-8.21-7.73-12.28q-1.78-2.76-3.49-5.54A33.27,33.27,0,0,0,363.83,128.83ZM301.35,89.64a7.7,7.7,0,0,0-1.27-4A14.18,14.18,0,0,0,295,81.18a18.23,18.23,0,0,0-5.83-2c-.95-.17-1.9-.37-2.86-.55-.65-.12-.76,0-.71.64s.17,1.55.26,2.32a20.45,20.45,0,0,0,2,7.15,14.76,14.76,0,0,0,1.8,2.81,10.51,10.51,0,0,0,2.45,2.16A6.83,6.83,0,0,0,297,94.87,5.33,5.33,0,0,0,301.35,89.64Zm18.81,20.24a4.35,4.35,0,0,0-.8,0,7.81,7.81,0,0,0-1.22.38,4.55,4.55,0,0,0-2.67,5.51,4.1,4.1,0,0,0,4.88,2.76,4.43,4.43,0,0,0,3-2.25,5.49,5.49,0,0,0-.07-4.87,2.35,2.35,0,0,0-1.25-1.21A3.4,3.4,0,0,0,320.16,109.88Zm14.11,114.53a4.24,4.24,0,0,0-3.17,1.35,3.31,3.31,0,0,0,.15,4.44,4.85,4.85,0,0,0,4.44,1.74,11.28,11.28,0,0,0,3.16-.79c1-.4,2-1,2.95-1.41.26-.12.29-.29.1-.5l-.24-.26a19.64,19.64,0,0,0-4.62-3.75A5.66,5.66,0,0,0,334.27,224.41Zm36.17-36.65c-1.81,0-2.68.69-3.13,1.57a2.91,2.91,0,0,0,.41,3.25,4.62,4.62,0,0,0,2.89,1.81,12.66,12.66,0,0,0,2.95.35,7.21,7.21,0,0,1,1.91.09c.44.11.61,0,.46-.48a13.76,13.76,0,0,0-2.09-4.63A4.68,4.68,0,0,0,370.44,187.76Zm-16.38,26.9a.45.45,0,0,0-.25-.31,7.41,7.41,0,0,1-1.62-1.59,4.87,4.87,0,0,0-3.88-1.9,1.71,1.71,0,0,0-1.76,1,1.85,1.85,0,0,0,.47,2.09,4.7,4.7,0,0,0,3.76,1.35c.66-.06,1.31-.17,2-.29A3,3,0,0,0,354.06,214.66Z"/><path class="cls-14" d="M315.72,248.29c.24,0,.4.12.57.24,1.82,1.22,3.63,2.43,5.52,3.53,1.23.71,2.46,1.43,3.71,2.11q2.73,1.49,5.54,2.77c2.48,1.14,5,2.17,7.54,3.18A88.86,88.86,0,0,0,350,263.7c2.62.65,5.26,1.2,7.93,1.62,1.93.29,3.87.62,5.83.77,1.56.12,3.12.18,4.68.3a81,81,0,0,0,8.39.22c1.58,0,3.17-.09,4.75-.22l2.84-.2c1.18-.08,2.35-.26,3.52-.37,1.41-.14,2.81-.37,4.21-.6,1.92-.31,3.83-.63,5.72-1.05.65-.15,1.29-.35,1.94-.46a2.67,2.67,0,0,0,1.76-1.08c.71-.93,1.6-1.69,2.35-2.58s1.59-1.88,2.37-2.83a62.65,62.65,0,0,0,4.26-5.87c1.22-1.92,2.37-3.89,3.43-5.91a46.6,46.6,0,0,0,2.89-6.5,48.69,48.69,0,0,0,2-7.26,4.2,4.2,0,0,0,.17-1.54c.16-.89.48-1.74.72-2.61a39.42,39.42,0,0,0,1.42-8.69c.19-.05.22.11.26.19a22.83,22.83,0,0,1,1.85,5.82c.38,2.42.61,4.85.79,7.29.1,1.37.23,2.74.25,4.13,0,1.69-.21,3.36-.34,5a14,14,0,0,0-.09,1.71,30.51,30.51,0,0,1-3.19,14.11c-1.1,2.39-2.3,4.74-3.47,7.11a31.39,31.39,0,0,1-4.55,6.54,39.88,39.88,0,0,1-5.72,5.53,17.6,17.6,0,0,1-5.25,2.67,25.67,25.67,0,0,1-5.61,1.29,21.59,21.59,0,0,1-4.33.13c-1.39-.14-2.8-.16-4.19-.34-2.13-.27-4.24-.5-6.34-.9-4-.77-8-1.5-12-2.54-1.54-.41-3.07-.85-4.6-1.28-2.67-.76-5.35-1.45-8-2.26a73.67,73.67,0,0,1-8.39-3.16c-2.83-1.25-5.63-2.53-8.45-3.8q-4.71-2.12-9.21-4.66A49.15,49.15,0,0,1,316,248.76,1,1,0,0,1,315.72,248.29Z"/><path class="cls-14" d="M363.83,128.83c.68.92,1.2,1.93,1.8,2.9,1.14,1.86,2.31,3.7,3.49,5.53,2.61,4.08,5.26,8.13,7.73,12.29,1,1.67,2.06,3.3,3.06,5,.85,1.42,1.65,2.88,2.49,4.31q1.83,3.13,3.67,6.27a.76.76,0,0,1,.16.39,1,1,0,0,1-.63-.29c-3.29-2.45-6.53-5-9.75-7.5-.43-.34-.81-.73-1.22-1.1a52.57,52.57,0,0,1-4.1-3.94c.15,0,.37.06.35-.21a3.46,3.46,0,0,0-.4-1.64,22.79,22.79,0,0,0-2.07-2.9,2.49,2.49,0,0,1-.59-1.39,27.18,27.18,0,0,0-.77-3.47c-1-4-2.09-7.94-2.87-12A12.12,12.12,0,0,1,363.83,128.83Z"/><path class="cls-14" d="M341.84,168.49a.72.72,0,0,1-.52-.2c-2.33-1.71-4.73-3.33-7.09-5a35,35,0,0,1-3.42-2.79c-1-1-2.13-1.89-3.13-2.9-.75-.77-1.51-1.52-2.19-2.34s-1.25-1.36-1.86-2c-.87-1-1.78-1.92-2.65-2.89-1.46-1.59-3-3.09-4.53-4.63-.66-.69-1.46-1.21-2.12-1.9a8.26,8.26,0,0,1,4.16-2.85,11.5,11.5,0,0,1,3-.29c.33,0,.44.23.59.44,1.17,1.65,2.32,3.31,3.49,4.95,4.13,5.78,8.13,11.65,12.32,17.38,1.16,1.6,2.39,3.14,3.63,4.67C341.67,168.21,341.82,168.3,341.84,168.49Z"/><path class="cls-14" d="M314.64,183.18a9.9,9.9,0,0,1-1.74-1.86c-1.27-1.46-2.46-3-3.7-4.49-1-1.18-1.85-2.46-2.77-3.7-1.32-1.79-2.6-3.61-3.81-5.48-.42-.66-.82-1.33-1.23-2a.8.8,0,0,0-.28-.32,7.77,7.77,0,0,1,2.19-3.11,3.15,3.15,0,0,1,4.11-.24,7.07,7.07,0,0,0,1.21.88.62.62,0,0,1,.31.44,84.86,84.86,0,0,0,4.66,13.8s0,0,0,.07c-.26.5,0,1,.13,1.44.27,1.33.59,2.66.89,4A5.43,5.43,0,0,1,314.64,183.18Z"/><path class="cls-15" d="M381.6,117.7a2.86,2.86,0,0,1-1.48-.79,10.12,10.12,0,0,1-2.85-3.93,15.55,15.55,0,0,1-1.15-6.87,5.82,5.82,0,0,1,.75-2.78,1.88,1.88,0,0,1,.54-.65,9.14,9.14,0,0,1,2,3.35,26.42,26.42,0,0,1,.83,3.6c.44,2.43.86,4.86,1.29,7.29C381.53,117.19,381.56,117.45,381.6,117.7Z"/><path class="cls-14" d="M299.83,195.94a2.64,2.64,0,0,0-.17,1.11,3.77,3.77,0,0,1-.08,1.09,1.2,1.2,0,0,1-.46-.67c-.88-1.77-1.87-3.47-2.9-5.15a35.12,35.12,0,0,1-3-5.58,1.56,1.56,0,0,1-.15-.55A7.19,7.19,0,0,1,297,186c.27.05.3.27.33.48a51.6,51.6,0,0,0,1.23,5.34c.32,1.24.75,2.45,1.14,3.67C299.77,195.66,299.79,195.8,299.83,195.94Z"/><path class="cls-14" d="M417.75,233.88a1.19,1.19,0,0,1-.34.82,1.48,1.48,0,0,1,.14-.83Z"/><path class="cls-14" d="M315.57,248.12c.1,0,.17,0,.16.16A.19.19,0,0,1,315.57,248.12Z"/><path class="cls-15" d="M301.35,89.64A5.34,5.34,0,0,1,297,94.87a6.8,6.8,0,0,1-4.92-1.15,10.31,10.31,0,0,1-2.45-2.16,14.28,14.28,0,0,1-1.8-2.81,20.24,20.24,0,0,1-2-7.15c-.09-.77-.21-1.54-.26-2.32s.05-.76.71-.64c1,.18,1.9.38,2.86.55a18.17,18.17,0,0,1,5.82,2,14.21,14.21,0,0,1,5.14,4.51A7.82,7.82,0,0,1,301.35,89.64Z"/><path class="cls-14" d="M320.16,109.88a3.52,3.52,0,0,1,1.92.32,2.35,2.35,0,0,1,1.24,1.22,5.42,5.42,0,0,1,.07,4.87,4.44,4.44,0,0,1-3,2.25,4.1,4.1,0,0,1-4.87-2.76,4.55,4.55,0,0,1,2.67-5.51,8.26,8.26,0,0,1,1.22-.39A5.16,5.16,0,0,1,320.16,109.88Z"/><path class="cls-14" d="M334.27,224.41a5.69,5.69,0,0,1,2.76.82,19.39,19.39,0,0,1,4.62,3.75l.24.25c.19.21.16.38-.1.5-1,.47-1.93,1-3,1.42a11.54,11.54,0,0,1-3.16.79,4.86,4.86,0,0,1-4.44-1.75,3.31,3.31,0,0,1-.15-4.44A4.3,4.3,0,0,1,334.27,224.41Z"/><path class="cls-14" d="M370.44,187.76a4.73,4.73,0,0,1,3.4,2,13.94,13.94,0,0,1,2.09,4.63c.15.44,0,.6-.46.49a6.46,6.46,0,0,0-1.91-.1,12.09,12.09,0,0,1-2.95-.35,4.65,4.65,0,0,1-2.89-1.8,2.93,2.93,0,0,1-.41-3.26C367.76,188.44,368.63,187.73,370.44,187.76Z"/><path class="cls-14" d="M354.06,214.66a2.84,2.84,0,0,1-1.32.31c-.65.12-1.3.22-2,.28a4.72,4.72,0,0,1-3.76-1.34,1.88,1.88,0,0,1-.47-2.1,1.73,1.73,0,0,1,1.76-1,4.9,4.9,0,0,1,3.88,1.9,7,7,0,0,0,1.62,1.59A.53.53,0,0,1,354.06,214.66Z"/><path class="cls-14" d="M386.23,165.49l0,.07,0,0A.43.43,0,0,1,386.23,165.49Z"/><path class="cls-14" d="M314.64,183.18l.06.06h0s0,0,0,0Z"/></g></g></g></svg>