<svg xmlns="http://www.w3.org/2000/svg" viewBox="0 0 255 69"><defs><style>.cls-1{fill:#fff;}.cls-2{fill:#ffe97a;stroke:#000;stroke-width:3px;}</style></defs><g id="Capa_2" data-name="Capa 2"><g id="Capa_1-2" data-name="Capa 1"><path d="M15.76,7H255l-6.1,62H6Z"/><path class="cls-1" d="M19.68,12h231l-5.89,52.66H10.25Z"/><path class="cls-2" d="M1.75,60.5l9.3-59h236.3l-5.81,59Z"/><path d="M47.66,42.3a10.49,10.49,0,0,1-3-.45,8.93,8.93,0,0,1-2.7-1.32A6.67,6.67,0,0,1,40,38.34a6.35,6.35,0,0,1-.72-3.09V27.51A6.51,6.51,0,0,1,40,24.45a6.67,6.67,0,0,1,1.89-2.19,8.2,8.2,0,0,1,2.67-1.35,10.7,10.7,0,0,1,3.09-.45,8.76,8.76,0,0,1,2.13.27,8,8,0,0,1,2.07.84A7.71,7.71,0,0,1,53.66,23,6.9,6.9,0,0,1,55,25L51.5,26.94a3.79,3.79,0,0,0-1.8-1.74,5,5,0,0,0-2.25-.54h-.12a4.52,4.52,0,0,0-1.38.21,4.35,4.35,0,0,0-1.14.57,2.69,2.69,0,0,0-.81.9,2.26,2.26,0,0,0-.3,1.17v7.74A2.46,2.46,0,0,0,44,36.42a2.94,2.94,0,0,0,.78.87,4.35,4.35,0,0,0,1.14.57,5.11,5.11,0,0,0,1.35.18h.12a5.1,5.1,0,0,0,2.25-.54,3.77,3.77,0,0,0,1.8-1.77l3.81,2.13a9.16,9.16,0,0,1-3.42,3.36A8.64,8.64,0,0,1,47.66,42.3Zm9.06-10.59a5.06,5.06,0,0,1,.54-2.4,5.25,5.25,0,0,1,1.41-1.74,6.27,6.27,0,0,1,2-1.05A7.63,7.63,0,0,1,63,26.16a7.35,7.35,0,0,1,2.28.36,6.27,6.27,0,0,1,2,1.05,5.25,5.25,0,0,1,1.41,1.74,5.06,5.06,0,0,1,.54,2.4v5.07a5,5,0,0,1-2,4.17,6.63,6.63,0,0,1-2,1A8,8,0,0,1,63,42.3,8.27,8.27,0,0,1,60.65,42a6.63,6.63,0,0,1-2-1,5,5,0,0,1-2-4.17ZM63,29.91a2.73,2.73,0,0,0-1.41.39,1.25,1.25,0,0,0-.66,1.14v5.43a1.46,1.46,0,0,0,.66,1.23,2.46,2.46,0,0,0,1.41.45,2.41,2.41,0,0,0,1.38-.45A1.46,1.46,0,0,0,65,36.87V31.44a1.25,1.25,0,0,0-.66-1.14A2.67,2.67,0,0,0,63,29.91ZM76.82,38.7A1.26,1.26,0,0,0,78.08,38a1.61,1.61,0,0,0,.12-.6,1.37,1.37,0,0,0-.18-.66A2,2,0,0,0,76.58,36a7.28,7.28,0,0,1-2.28-.72,6,6,0,0,1-1.56-1.2,5,5,0,0,1-1-1.5,4.72,4.72,0,0,1-.3-1.65,5,5,0,0,1,.33-1.77,4.66,4.66,0,0,1,1-1.53,4.86,4.86,0,0,1,1.68-1.08,5.8,5.8,0,0,1,2.28-.42,10.24,10.24,0,0,1,2.4.33,6.56,6.56,0,0,1,2.55,1.29l-2.07,2.85A3.08,3.08,0,0,0,78.56,30a3.65,3.65,0,0,0-1.41-.3,1.56,1.56,0,0,0-.93.3,1.18,1.18,0,0,0-.48,1,1,1,0,0,0,.18.66,3.56,3.56,0,0,0,.57.51,4.52,4.52,0,0,0,.69.36,2.85,2.85,0,0,0,.63.18,9.8,9.8,0,0,1,1.53.51,5.88,5.88,0,0,1,1.44.87,4,4,0,0,1,1.08,1.29,3.94,3.94,0,0,1,.42,1.89,4.9,4.9,0,0,1-.48,2.22A4.71,4.71,0,0,1,80.57,41a5.56,5.56,0,0,1-1.8,1,7.4,7.4,0,0,1-2.1.3,8.24,8.24,0,0,1-3.06-.57,6.26,6.26,0,0,1-2.52-2.07l2-2.7A6.49,6.49,0,0,0,75,38.25,4.82,4.82,0,0,0,76.82,38.7Zm12.57,3.54H89a4.7,4.7,0,0,1-2.34-.75,4.45,4.45,0,0,1-1.56-1.89,7.76,7.76,0,0,1-.54-3.06V23h3.84l.3,3.45h2.76v3.81H88.73v6.24a1.85,1.85,0,0,0,.75,1.77,2.48,2.48,0,0,0,1.17.24,6.73,6.73,0,0,0,1.29-.15v3.42A8.07,8.07,0,0,1,89.39,42.24Zm4.06-4.86a5.41,5.41,0,0,1,.45-2.31,4.59,4.59,0,0,1,1.23-1.56,4.79,4.79,0,0,1,1.77-.9,7.3,7.3,0,0,1,2.07-.3,8.36,8.36,0,0,1,2.76.48V31.68A1.82,1.82,0,0,0,101,30a3,3,0,0,0-1.68-.48,4.36,4.36,0,0,0-1.8.42,4.8,4.8,0,0,0-1.47,1l-2-2.19a7.33,7.33,0,0,1,2.58-2,8,8,0,0,1,3-.63,7.66,7.66,0,0,1,2.25.33,5.51,5.51,0,0,1,2,1,4.94,4.94,0,0,1,1.38,1.74,5.13,5.13,0,0,1,.54,2.43v9.48a21.4,21.4,0,0,1-2.91.84,15,15,0,0,1-2.94.3A7.56,7.56,0,0,1,95,41,4.52,4.52,0,0,1,93.45,37.38Zm6.27-2a2.5,2.5,0,0,0-1.77.54,1.77,1.77,0,0,0-.54,1.35A1.72,1.72,0,0,0,98,38.61a3,3,0,0,0,1.86.48,7,7,0,0,0,1.77-.21V35.73a4.16,4.16,0,0,0-.87-.24A4.44,4.44,0,0,0,99.72,35.37Zm22,2.67a3.94,3.94,0,0,0,2.07-.54,1.9,1.9,0,0,0,1-1.77,1.58,1.58,0,0,0-.3-1,2.32,2.32,0,0,0-.9-.72,4.44,4.44,0,0,0-1.32-.45q-.75-.15-1.56-.27a13.68,13.68,0,0,1-2.49-.6A7.13,7.13,0,0,1,116,31.5a5.77,5.77,0,0,1-1.5-2,6.19,6.19,0,0,1-.57-2.79v-.18a5.67,5.67,0,0,1,.78-2.64A6.18,6.18,0,0,1,116.45,22a7.82,7.82,0,0,1,2.43-1.17,10,10,0,0,1,2.79-.39,9.16,9.16,0,0,1,3.93.87,7.9,7.9,0,0,1,3.24,2.88l-3.63,2.43a4.43,4.43,0,0,0-1.59-1.53,4.08,4.08,0,0,0-2-.48,5.81,5.81,0,0,0-1.2.12,3.28,3.28,0,0,0-1,.39,1.91,1.91,0,0,0-.72.66,1.77,1.77,0,0,0-.3.93v0a1.68,1.68,0,0,0,.3,1.05,2.8,2.8,0,0,0,.84.66,5.73,5.73,0,0,0,1.17.39l1.35.27a22.69,22.69,0,0,1,2.67.69A6.92,6.92,0,0,1,127.07,31a5.27,5.27,0,0,1,1.59,2,6.15,6.15,0,0,1,.51,2.64v.48a6,6,0,0,1-.87,2.64,6.54,6.54,0,0,1-1.86,1.92,8.63,8.63,0,0,1-2.52,1.2,10.32,10.32,0,0,1-2.82.39,9,9,0,0,1-4-1,8.83,8.83,0,0,1-3.33-3.06l3.33-2.55a4.65,4.65,0,0,0,2,1.74,6.39,6.39,0,0,0,2.49.6ZM139,24.72h-4.08l2.85-4.26h5.1ZM130.8,37.38a5.41,5.41,0,0,1,.45-2.31,4.59,4.59,0,0,1,1.23-1.56,4.79,4.79,0,0,1,1.77-.9,7.3,7.3,0,0,1,2.07-.3,8.36,8.36,0,0,1,2.76.48V31.68a1.82,1.82,0,0,0-.72-1.68,3,3,0,0,0-1.68-.48,4.36,4.36,0,0,0-1.8.42,4.8,4.8,0,0,0-1.47,1l-2-2.19a7.33,7.33,0,0,1,2.58-2,8,8,0,0,1,3-.63,7.66,7.66,0,0,1,2.25.33,5.51,5.51,0,0,1,2,1,4.94,4.94,0,0,1,1.38,1.74,5.13,5.13,0,0,1,.54,2.43v9.48a21.4,21.4,0,0,1-2.91.84,15,15,0,0,1-2.94.3A7.56,7.56,0,0,1,132.36,41,4.52,4.52,0,0,1,130.8,37.38Zm6.27-2a2.5,2.5,0,0,0-1.77.54,1.77,1.77,0,0,0-.54,1.35,1.72,1.72,0,0,0,.57,1.35,3,3,0,0,0,1.86.48,7,7,0,0,0,1.77-.21V35.73a4.16,4.16,0,0,0-.87-.24A4.44,4.44,0,0,0,137.07,35.37Zm14.71,6.93a6.92,6.92,0,0,1-2.61-.45,5.05,5.05,0,0,1-1.8-1.23,5.34,5.34,0,0,1-1.05-1.83,7.46,7.46,0,0,1-.33-2.25V20.76h4.17V36.54a2.1,2.1,0,0,0,.6,1.5,2.51,2.51,0,0,0,1.89.63v3.57l-.45,0Zm8.05-16.14H160a7.53,7.53,0,0,1,2.37.45,3.36,3.36,0,0,1,1.8,1.47A4.85,4.85,0,0,1,166,26.67a5.08,5.08,0,0,1,2.19-.51,6.78,6.78,0,0,1,2.1.33,5.54,5.54,0,0,1,1.86,1,5.12,5.12,0,0,1,1.32,1.65,5,5,0,0,1,.51,2.31V42h-4.14V31.29a1.1,1.1,0,0,0-.57-1,2.31,2.31,0,0,0-1.26-.36,2.63,2.63,0,0,0-1.29.33,1.1,1.1,0,0,0-.57,1V42h-4V31.38a1.2,1.2,0,0,0-.69-1.08,2.78,2.78,0,0,0-1.44-.39,3.16,3.16,0,0,0-.84.18,1.44,1.44,0,0,0-.66.42V42h-4.08V28.08A8,8,0,0,1,157,26.67,8.41,8.41,0,0,1,159.83,26.16Zm16.83,5.55a5.06,5.06,0,0,1,.54-2.4,5.25,5.25,0,0,1,1.41-1.74,6.27,6.27,0,0,1,2-1.05,7.63,7.63,0,0,1,2.31-.36,7.35,7.35,0,0,1,2.28.36,6.27,6.27,0,0,1,2,1.05,5.25,5.25,0,0,1,1.41,1.74,5.06,5.06,0,0,1,.54,2.4v5.07a5,5,0,0,1-2,4.17,6.63,6.63,0,0,1-2,1,8,8,0,0,1-2.28.33,8.27,8.27,0,0,1-2.31-.33,6.63,6.63,0,0,1-2-1,5,5,0,0,1-2-4.17Zm6.24-1.8a2.73,2.73,0,0,0-1.41.39,1.25,1.25,0,0,0-.66,1.14v5.43a1.46,1.46,0,0,0,.66,1.23,2.46,2.46,0,0,0,1.41.45,2.41,2.41,0,0,0,1.38-.45,1.46,1.46,0,0,0,.66-1.23V31.44a1.25,1.25,0,0,0-.66-1.14A2.67,2.67,0,0,0,182.9,29.91Zm14.59-3.75a9.46,9.46,0,0,1,2.52.33,5.82,5.82,0,0,1,2.15,1,4.8,4.8,0,0,1,1.54,1.74,5.53,5.53,0,0,1,.57,2.61V42h-4.14V32a1.71,1.71,0,0,0-.75-1.56,2.76,2.76,0,0,0-1.62-.51,3.44,3.44,0,0,0-1.71.42V42h-4.17V27.51a14,14,0,0,1,2.72-1A11.92,11.92,0,0,1,197.49,26.16Z"/></g></g></svg>