<svg xmlns="http://www.w3.org/2000/svg" viewBox="0 0 113.12 95.85"><defs><style>.cls-1{fill:#010200;}.cls-2{fill:#b72548;}.cls-3{fill:#ffe979;}.cls-4{fill:#ed4466;}</style></defs><g id="Capa_2" data-name="Capa 2"><g id="Capa_4" data-name="Capa 4"><path class="cls-1" d="M24.82,80.42,26,86.57l-1.51.51a1.42,1.42,0,0,0-.92,1.6l.88,4.75a1.23,1.23,0,0,0,1.41,1l9.78-2.2-1.88,3.6L48,93.22l1.57-3.53,43-9.86c2.23-.5,4.46-4.56,4.46-4.56l15.57-26.94a4.71,4.71,0,0,0,.54-3.15l-2.23-12.54c-.4-2.22-2-4.74-4.14-4.26L94.26,31.2l2.93-6.36a7.47,7.47,0,0,0,.74-4.73L95.75,7.2A2.7,2.7,0,0,0,92.55,5L33.41,18.35a10.13,10.13,0,0,0-6,4L6.67,51.16a1.77,1.77,0,0,0-.3,1.4L7.11,57a1.07,1.07,0,0,0,1.27.87l1.5-.33,1,6.19a2.76,2.76,0,0,0-1.77,1.25A4.69,4.69,0,0,0,9,68l.35,1.5a1.54,1.54,0,0,0,1.81,1.19L27.73,67l-5.4,7.5a3.64,3.64,0,0,0-.6,2.69l.13,2.14a1.48,1.48,0,0,0,1.59,1.25Z"/><path class="cls-2" d="M90.35,74.47,20,90.19a.27.27,0,0,1-.32-.23L19,85.75a.32.32,0,0,1,.23-.36L89.55,69.67a.27.27,0,0,1,.32.23l.71,4.21A.33.33,0,0,1,90.35,74.47Z"/><polygon class="cls-3" points="87.43 70.14 21.58 84.86 19.95 75.17 85.8 60.45 87.43 70.14"/><path class="cls-2" d="M104.67,29.33,40.49,44a.27.27,0,0,1-.32-.23l-.73-4.21a.33.33,0,0,1,.23-.36l64.17-14.66a.28.28,0,0,1,.33.23l.72,4.21A.31.31,0,0,1,104.67,29.33Z"/><path class="cls-2" d="M107.05,42.92l-4,.9a.27.27,0,0,1-.32-.24l-3-17.66a.34.34,0,0,1,.23-.37l4-.89a.27.27,0,0,1,.33.24l3,17.66A.31.31,0,0,1,107.05,42.92Z"/><polygon class="cls-2" points="102.38 27.51 85.4 58.05 90.53 74.34 107.14 42.78 102.38 27.51"/><path class="cls-2" d="M87.92,60,17.58,75.7a.27.27,0,0,1-.32-.23l-.71-4.22a.31.31,0,0,1,.23-.35L87.12,55.17a.27.27,0,0,1,.32.24l.71,4.21A.31.31,0,0,1,87.92,60Z"/><path class="cls-2" d="M90.35,74.47l-4,.89a.27.27,0,0,1-.33-.23l-3.14-18.7a.32.32,0,0,1,.23-.36l4-.9a.28.28,0,0,1,.33.24l3.14,18.7A.33.33,0,0,1,90.35,74.47Z"/><polygon class="cls-4" points="103.88 24.68 87.12 55.17 16.71 71.02 39.66 39.17 103.88 24.68"/><polygon class="cls-4" points="38.95 76.1 31.27 90.8 41.05 88.62 47.45 74.2 38.95 76.1"/><path class="cls-2" d="M75.33,50.93,5,66.65a.26.26,0,0,1-.32-.23L4,62.21a.3.3,0,0,1,.22-.36L74.52,46.13a.28.28,0,0,1,.33.23l.7,4.21A.31.31,0,0,1,75.33,50.93Z"/><polygon class="cls-3" points="72.4 46.6 6.55 61.32 4.93 51.63 70.78 36.91 72.4 46.6"/><path class="cls-2" d="M89.64,5.79,25.47,20.45a.28.28,0,0,1-.33-.23L24.42,16a.31.31,0,0,1,.22-.36L88.82,1a.27.27,0,0,1,.32.23l.73,4.21A.33.33,0,0,1,89.64,5.79Z"/><path class="cls-2" d="M92,19.38l-4,.9a.28.28,0,0,1-.33-.24l-3-17.66A.32.32,0,0,1,85,2l4-.89a.28.28,0,0,1,.33.24l3,17.66A.31.31,0,0,1,92,19.38Z"/><polygon class="cls-2" points="87.36 3.97 70.37 34.51 75.5 50.8 92.11 19.24 87.36 3.97"/><path class="cls-2" d="M72.9,36.43,2.56,52.16a.27.27,0,0,1-.32-.23l-.71-4.22a.3.3,0,0,1,.22-.35L72.09,31.63a.28.28,0,0,1,.33.24l.7,4.21A.3.3,0,0,1,72.9,36.43Z"/><path class="cls-2" d="M75.32,50.93l-4,.89a.28.28,0,0,1-.33-.23l-3.13-18.7a.31.31,0,0,1,.23-.36l4-.89a.28.28,0,0,1,.33.23l3.13,18.7A.31.31,0,0,1,75.32,50.93Z"/><polygon class="cls-4" points="88.86 1.14 72.09 31.63 1.68 47.48 24.64 15.63 88.86 1.14"/><path class="cls-1" d="M88.58,2a.8.8,0,0,1,.73.69l2.22,13.19A5.59,5.59,0,0,1,91,19.44l0,0,0,0-3,6.5-1.7,3.68,4-.9,12.68-2.88H103c.49,0,1.44,1.19,1.72,2.76L107,41.48a2.77,2.77,0,0,1-.31,1.86L90.74,70.89c-.87,1.58-2.43,3.49-3.24,3.67L43.65,84.62l-1,.23-.4.91L41.1,88.4l-9.42,1.74v0l2-3.82-4.21.95-9.16,2.05-.68-3.65,1.07-.36,1.65-.56L22,83l-1.2-6.28-.35-1.81-1.83.2-.86.09-.09-1.53v-.1l0-.11A1.66,1.66,0,0,1,18,72.23l5.5-7.66,3.07-4.27L21.4,61.45,5,65.12,4.7,64a2.85,2.85,0,0,1,0-1.77A1.18,1.18,0,0,1,5.08,62L7,61.6l-.32-1.91L5.59,53.37l-.35-2.08-2.06.46-.58.13L2,48.34,23.15,19a8.42,8.42,0,0,1,4.93-3.29L88.46,2h.12m0-2A2.74,2.74,0,0,0,88,.06L27.64,13.74a10.38,10.38,0,0,0-6.11,4.07L.34,47.23A1.85,1.85,0,0,0,0,48.66l.75,4.5a1.1,1.1,0,0,0,1.07.91.82.82,0,0,0,.22,0l1.54-.34L4.68,60a2.8,2.8,0,0,0-1.8,1.27,4.77,4.77,0,0,0-.13,3.13L3.11,66a1.59,1.59,0,0,0,1.52,1.25,1.12,1.12,0,0,0,.32,0L21.84,63.4l-5.51,7.66a3.67,3.67,0,0,0-.62,2.74L15.85,76a1.52,1.52,0,0,0,1.47,1.29h.15l1.41-.15,1.19,6.27-1.54.52a1.47,1.47,0,0,0-.94,1.64l.9,4.85a1.26,1.26,0,0,0,1.21,1.06l.23,0,10-2.24L28,92.86l14.5-2.69,1.6-3.6L87.94,76.51c2.28-.51,4.56-4.66,4.56-4.66l15.89-27.51a4.75,4.75,0,0,0,.55-3.21l-2.28-12.8c-.37-2.08-1.79-4.41-3.69-4.41a2.46,2.46,0,0,0-.53.06L89.76,26.86l3-6.49a7.65,7.65,0,0,0,.76-4.83L91.28,2.36A2.78,2.78,0,0,0,88.58,0Z"/></g></g></svg>