<svg xmlns="http://www.w3.org/2000/svg" viewBox="0 0 90.08 93.81"><defs><style>.cls-1{fill:#030303;}.cls-2{fill:#fd7da5;}</style></defs><g id="Capa_2" data-name="Capa 2"><g id="Capa_12" data-name="Capa 12"><path class="cls-1" d="M38.07,82.94a32,32,0,0,1-4.77-1.32L26.15,89.7l-13.07-12,6.19-7a30.93,30.93,0,0,1-4.34-9.3L6,62.36V43.59l9.06-1a37.41,37.41,0,0,1,1.74-4.92L10,31.51,22.88,17l5.79,5.32a37,37,0,0,1,9.4-5.4V7.55L56.39,5.62v9.46a29.51,29.51,0,0,1,9.16,3.37l5.81-6.55,13.07,12-6.79,7.66a32.25,32.25,0,0,1,1.67,4.31l9.25-1V53.67l-9,.94A38.18,38.18,0,0,1,75.2,65.07l6.16,5.66L68.52,85.23l-7.14-6.55a35.88,35.88,0,0,1-5,2.41v9.07L38.06,92.09V82.94Zm10.6-46.65a11.1,11.1,0,0,0-1.28.07A14.41,14.41,0,0,0,34.88,50.47c0,6.41,4.69,11.25,10.91,11.25a11.1,11.1,0,0,0,1.28-.07,14.41,14.41,0,0,0,12.5-14.11C59.57,41.14,54.88,36.29,48.67,36.29Z"/><path class="cls-1" d="M54.85,7.36v9.07a28.17,28.17,0,0,1,11,4l5.61-6.34L82.24,24,75.79,31.3a29.08,29.08,0,0,1,2.4,6.26L87,36.63v15.6l-8.68.91A36.76,36.76,0,0,1,73.2,65.33l6,5.51L68.42,83l-6.83-6.28A34.8,34.8,0,0,1,54.86,80v8.74L39.62,90.34V81.6a29,29,0,0,1-6.73-1.84l-6.83,7.72-10.78-9.9,6-6.76a29.26,29.26,0,0,1-5.16-11.11l-8.55.91V45l8.72-.93a36.94,36.94,0,0,1,2.4-6.76l-6.45-5.93L23,19.21l5.61,5.16a36,36,0,0,1,11-6.35V9ZM45.79,63.3a13.83,13.83,0,0,0,1.43-.07A16,16,0,0,0,61.1,47.55c0-7.35-5.45-12.82-12.45-12.82a13.83,13.83,0,0,0-1.43.07A16,16,0,0,0,33.35,50.48C33.35,57.83,38.79,63.3,45.79,63.3ZM57.92,3.88l-3.39.35L39.29,5.84l-2.75.29v9.74a38,38,0,0,0-7.77,4.43L25,16.89l-2.27-2.1-2.05,2.32L9.94,29.28,7.86,31.62l2.29,2.1,4.79,4.41c-.4,1-.75,2-1.07,3l-6.66.7-2.75.29V64.09l3.39-.36,6-.63a32,32,0,0,0,3.48,7.47L13,75.46,10.9,77.8l2.29,2.11L24,89.8l2.27,2.09,2.05-2.32,5.44-6.15c.92.3,1.84.55,2.77.78v9.61l3.39-.36,15.24-1.6,2.75-.29V82.13c1.11-.47,2.19-1,3.26-1.57l5.19,4.77,2.27,2.08,2-2.31L81.45,72.92l2.07-2.33-2.29-2.11-4.08-3.74A39.63,39.63,0,0,0,80.78,56l6.54-.69,2.76-.29V33.16l-3.39.35-6.34.68c-.28-.79-.58-1.57-.91-2.33l5.06-5.72,2.08-2.33-2.3-2.11L73.5,11.8,71.23,9.72l-2,2.31-4,4.49a30.22,30.22,0,0,0-7.29-2.68v-10ZM45.79,60.15a9.31,9.31,0,0,1-9.37-9.67A12.8,12.8,0,0,1,47.54,37.94a10.84,10.84,0,0,1,1.13-.06,9.24,9.24,0,0,1,6.67,2.73,9.84,9.84,0,0,1,2.71,6.94A12.81,12.81,0,0,1,46.92,60.09,10.84,10.84,0,0,1,45.79,60.15Z"/><path class="cls-2" d="M33.31,79.72a30.25,30.25,0,0,1-4.09-1.15L22,86.78,8.11,74.09,14.37,67a31.09,31.09,0,0,1-4-8.69l-9.07,1V39.46l9.17-1a41.32,41.32,0,0,1,1.51-4.29L5.07,27.89,18.6,12.62,24.46,18a37.5,37.5,0,0,1,8.86-5.08V3.42l19.34-2V11a30,30,0,0,1,8.55,3.15l5.88-6.64,13.82,12.7L74,28a32.84,32.84,0,0,1,1.42,3.65l9.41-1V50.48l-9.08,1a38.65,38.65,0,0,1-4.14,9.88L77.86,67,64.32,82.32l-7.24-6.66a36.66,36.66,0,0,1-4.42,2.14V87L33.31,89Zm11.1-46.55c-.4,0-.81,0-1.22.06a13.89,13.89,0,0,0-12,13.59,10.33,10.33,0,0,0,10.4,10.72q.62,0,1.23-.06a13.89,13.89,0,0,0,12-13.59A10.33,10.33,0,0,0,44.41,33.17Z"/><path d="M32.06,90.41V80.72q-1.23-.3-2.46-.69L22,88.56,6.36,74.18,12.8,66.9a32.14,32.14,0,0,1-3.37-7.22L0,60.67V38.33l9.46-1c.29-1,.62-1.88,1-2.8L3.32,28,18.51,10.84l6,5.54a38.2,38.2,0,0,1,7.53-4.29V2.3L53.91,0V10a31.42,31.42,0,0,1,7,2.58L67,5.73,82.66,20.12l-7.18,8.1c.3.7.57,1.39.82,2.08l9.79-1V51.6l-9.35,1a40.09,40.09,0,0,1-3.53,8.48l6.4,5.88L64.41,84.1,56.9,77.19c-1,.52-2,1-3,1.44v9.48Zm-3.22-13.3.79.29a29.2,29.2,0,0,0,3.93,1.09l1,.21v8.93l16.85-1.77V77l.78-.31a34.36,34.36,0,0,0,4.27-2.07l.8-.45,7,6.42L76.11,67.12,70,61.54l.52-.87a37.47,37.47,0,0,0,4-9.56l.22-.83,8.82-.93V32l-9,1-.31-1a30.21,30.21,0,0,0-1.37-3.51l-.34-.74,6.63-7.48-12-11-5.7,6.44-.88-.49a28.67,28.67,0,0,0-8.19-3l-1-.21V2.78L34.57,4.55v9.22l-.78.31A36.15,36.15,0,0,0,25.21,19l-.83.64L18.69,14.4,6.82,27.8l6.6,6.08-.34.81a37.79,37.79,0,0,0-1.46,4.15l-.24.81-8.88.93V57.89L11.23,57l.29,1a29.86,29.86,0,0,0,3.89,8.34l.53.81L9.86,74l12,11Zm12.7-18.32c-6.64,0-11.65-5.15-11.65-12A15.17,15.17,0,0,1,43.05,32a12.39,12.39,0,0,1,1.36-.07,11.47,11.47,0,0,1,8.21,3.33,12.12,12.12,0,0,1,3.44,8.64A15.17,15.17,0,0,1,42.9,58.72,12.65,12.65,0,0,1,41.54,58.79Zm2.87-24.37c-.35,0-.73,0-1.1,0A12.62,12.62,0,0,0,32.39,46.82a9.11,9.11,0,0,0,9.15,9.47c.36,0,.73,0,1.1,0A12.62,12.62,0,0,0,53.56,43.89,9.6,9.6,0,0,0,50.85,37,9,9,0,0,0,44.41,34.42Z"/></g></g></svg>