<svg xmlns="http://www.w3.org/2000/svg" viewBox="0 0 120.06 66.91"><defs><style>.cls-1{fill:#fd7da5;}.cls-2{fill:#ffe979;}.cls-3{fill:#ed4466;}</style></defs><g id="Capa_2" data-name="Capa 2"><g id="Capa_12" data-name="Capa 12"><path d="M78.49,25.23c0,13.92-15.88,27.32-35.47,29.92-8.65,1.15-17.81-.49-20.46-1.46S.26,68.25,18,51.48a24.65,24.65,0,0,1-3.09-2.42c-2.8-2.63-7.5-9.39-7.37-14.41C7.91,21.33,26.33,7,43,4.73,62.61,2.13,78.49,11.3,78.49,25.23Z"/><path d="M43,56.38c-8.74,1.16-18-.41-21-1.51-.78.11-4.35,2.13-6.29,3.26-3.94,2.31-5.28,3.09-6.05,1.93-.68-1-.56-1.69,6.42-8.33A22.56,22.56,0,0,1,14,50c-2.48-2.32-7.85-9.39-7.7-15.23C6.72,20.1,26.72,5.67,43,3.5c20.23-2.69,36.69,7,36.69,21.56S63.26,53.69,43,56.38ZM22.09,52.45a2.06,2.06,0,0,1,1,.07c2.75,1,11.7,2.49,19.93,1.4C61.9,51.41,77.26,38.61,77.26,25.39S61.9,3.45,43,6c-17,2.25-33.92,16.4-34.24,28.56-.12,4.38,4.08,10.81,7,13.58a24.71,24.71,0,0,0,2.95,2.31L20,51.2l-1.2,1.13c-1.43,1.35-2.57,2.45-3.47,3.34C18.66,53.73,20.73,52.63,22.09,52.45Z"/><path d="M118.83,35.61c0,10.1-12.75,20.27-14.74,22-.39.34,8,6.34,6.67,7.27C109,66.09,100,60.69,98.87,61.14c-3.15,1.32-11,3.91-15.5,4.4C73.17,66.65,47.9,60.48,47.9,45c0-13.92,15.88-27.32,35.47-29.92S118.83,21.69,118.83,35.61Z"/><path d="M110.29,66.26c-1.57.21-3.94-.73-7.84-2.47A29.82,29.82,0,0,0,99,62.37c-3.33,1.37-11.06,3.88-15.64,4.4C72.14,68,46.67,61.1,46.67,45.2c0-14.58,16.47-28.62,36.7-31.31s36.69,7,36.69,21.56c0,4.57-2.48,12.09-14.2,22.15.37.33.83.73,1.24,1.07,3.93,3.35,5.2,4.68,5,6a1.78,1.78,0,0,1-.78,1.22A2.52,2.52,0,0,1,110.29,66.26ZM99,59.89c.84-.11,2,.39,4.73,1.61,1.22.54,3.3,1.47,4.85,2-1-1-2.34-2.12-3.15-2.82-2.19-1.86-2.58-2.2-2.53-3l0-.57.89-.78c11.43-9.62,13.82-16.49,13.82-20.56,0-13.23-15.35-21.94-34.23-19.44S49.13,31.65,49.13,44.88c0,14.17,24.1,20.53,34.27,19.42,4.31-.41,12.16-3,15.13-4.29A1.45,1.45,0,0,1,99,59.89Z"/><path class="cls-1" d="M72.16,22.18C72.16,36.1,56.28,49.5,36.7,52.1c-8.66,1.15-17.81-.49-20.47-1.46S-6.06,65.2,11.69,48.43A24.65,24.65,0,0,1,8.6,46C5.8,43.38,1.1,36.62,1.23,31.6,1.58,18.28,20,3.9,36.7,1.68,56.28-.92,72.16,8.25,72.16,22.18Z"/><path d="M36.7,53.33c-8.73,1.16-16.49,0-19.51-1.06A36.44,36.44,0,0,0,9.4,55.08C5.45,57.39,4.12,58.17,3.34,57c-.68-1-.56-1.68,6.42-8.33A22.32,22.32,0,0,1,7.7,47C5.22,44.63-.15,37.57,0,31.73.39,17.05,20.4,2.62,36.7.45,56.93-2.24,73.39,7.43,73.39,22S56.93,50.64,36.7,53.33ZM17.13,49.71a2.06,2.06,0,0,1,1,.07c2.75,1,10.34,2.18,18.56,1.09,18.88-2.51,34.23-15.31,34.23-28.53S55.58.4,36.7,2.91c-17,2.25-33.92,16.4-34.24,28.56-.12,4.37,4.09,10.8,7,13.58a23,23,0,0,0,2.95,2.31l1.22.79-1.2,1.13C11,50.63,9.9,51.73,9,52.62A24.1,24.1,0,0,1,17.13,49.71Z"/><path class="cls-2" d="M112.51,32.56c0,10.09-12.75,20.27-14.75,22-.39.34,8,6.34,6.68,7.27-1.82,1.23-10.81-4.17-11.9-3.72-3.15,1.32-11,3.91-15.5,4.39C66.85,63.6,41.57,57.43,41.57,42c0-13.93,15.88-27.32,35.47-29.93S112.51,18.64,112.51,32.56Z"/><path d="M104,63.21c-1.57.2-3.94-.73-7.84-2.48a31.28,31.28,0,0,0-3.47-1.41c-3.32,1.37-11.07,3.86-15.64,4.4-11.2,1.22-36.66-5.67-36.66-21.57,0-14.58,16.46-28.63,36.69-31.31s36.69,7,36.69,21.56c0,4.56-2.48,12.09-14.2,22.15.37.33.83.72,1.24,1.07,3.93,3.35,5.21,4.68,5,6a1.78,1.78,0,0,1-.78,1.22A2.52,2.52,0,0,1,104,63.21ZM92.62,56.84c.84-.11,2,.39,4.74,1.6,1.21.55,3.3,1.48,4.84,2-1-1-2.34-2.12-3.15-2.82-2.19-1.86-2.58-2.2-2.53-3l0-.57.88-.78c11.43-9.62,13.83-16.5,13.83-20.57,0-13.22-15.36-21.94-34.24-19.43S42.8,28.6,42.8,41.82C42.8,56,66.9,62.36,77.07,61.25c4.32-.42,12.16-3,15.13-4.29A1.45,1.45,0,0,1,92.62,56.84Z"/><path class="cls-3" d="M57.41,38.89a5.39,5.39,0,0,1,1.36-3.61,5.26,5.26,0,0,1,3.39-1.83,4.16,4.16,0,0,1,3.43.93A4.08,4.08,0,0,1,67,37.62a5.29,5.29,0,0,1-1.39,3.61,5.36,5.36,0,0,1-3.43,1.84,4,4,0,0,1-3.39-.93A4.13,4.13,0,0,1,57.41,38.89Z"/><path class="cls-3" d="M72.38,36.9a5.38,5.38,0,0,1,1.35-3.61,5.28,5.28,0,0,1,3.4-1.83,4.17,4.17,0,0,1,3.43.93,4.07,4.07,0,0,1,1.38,3.24,5.32,5.32,0,0,1-1.38,3.62,5.48,5.48,0,0,1-3.43,1.84,4,4,0,0,1-3.4-.94A4.12,4.12,0,0,1,72.38,36.9Z"/><path class="cls-3" d="M87.35,34.92a5.35,5.35,0,0,1,1.35-3.61,5.22,5.22,0,0,1,3.4-1.84,4.14,4.14,0,0,1,3.42.93,4.05,4.05,0,0,1,1.39,3.24,5.28,5.28,0,0,1-1.39,3.62A5.39,5.39,0,0,1,92.1,39.1a4,4,0,0,1-3.4-.94A4.12,4.12,0,0,1,87.35,34.92Z"/></g></g></svg>