<svg xmlns="http://www.w3.org/2000/svg" viewBox="0 0 100.48 74.91"><defs><style>.cls-1{fill:#ed4466;}.cls-2{fill:#fff;}</style></defs><g id="Capa_2" data-name="Capa 2"><g id="Capa_12" data-name="Capa 12"><path d="M92.93,49,69,41.56a37.25,37.25,0,0,0,1.58-10.67C70.53,11.45,54.71-2.27,35.27.31S0,20.82,0,40.26,15.82,73.43,35.27,70.84a40.86,40.86,0,0,0,25.3-14.09l25.76,8a7.77,7.77,0,0,0,3.3.26,9.65,9.65,0,0,0,7.43-5.82C98.88,54.87,97,50.3,92.93,49ZM35.27,57.39c-12,1.6-21.82-6.88-21.82-18.91s9.79-23.12,21.82-24.72,21.81,6.89,21.81,18.92S47.3,55.8,35.27,57.39Zm57.22.4A3.73,3.73,0,0,1,89.63,60a3,3,0,0,1-1.27-.1L63.9,52.31l.38-.57,24.34,7.57,2-4.83L66.84,47.06l.28-.6,23.78,7.4A2.81,2.81,0,0,1,92.49,57.79Z"/><path d="M97.13,57.72,71,49.59A34.93,34.93,0,0,0,73.25,37.5c0-18.07-14.7-30.82-32.77-28.41S7.71,28.14,7.71,46.21,22.41,77,40.48,74.62A38.17,38.17,0,0,0,65.2,60a4.78,4.78,0,0,0,.74.3l26.62,8.29a5.34,5.34,0,0,0,2.28.18,6.66,6.66,0,0,0,5.15-4C101.26,61.76,100,58.6,97.13,57.72Z"/><ellipse class="cls-1" cx="35.27" cy="35.58" rx="30.5" ry="26.71" transform="translate(-14.81 37.02) rotate(-46.9)"/><ellipse class="cls-2" cx="35.27" cy="35.58" rx="30.5" ry="26.71" transform="translate(-14.81 37.02) rotate(-46.9)"/><path class="cls-1" d="M35.27,68.34C17.2,70.74,2.5,58,2.5,39.93S17.2,5.21,35.27,2.81,68,13.16,68,31.22,53.33,65.94,35.27,68.34Zm0-57.08C21.86,13,11,25.4,11,38.81S21.86,61.68,35.27,59.89,59.58,45.76,59.58,32.35,48.67,9.48,35.27,11.26Z"/><ellipse cx="35.27" cy="35.58" rx="13.78" ry="12.06" transform="translate(-14.81 37.02) rotate(-46.9)"/><line class="cls-1" x1="63.01" y1="48.61" x2="89.63" y2="56.9"/><path class="cls-1" d="M89.63,62.53a5.38,5.38,0,0,1-2.29-.18L60.72,54.06C57.88,53.17,56.6,50,57.86,47a6.37,6.37,0,0,1,7.44-3.85l26.62,8.29c2.84.89,4.12,4.05,2.86,7.06A6.68,6.68,0,0,1,89.63,62.53Z"/><ellipse class="cls-2" cx="41.87" cy="38.29" rx="7.7" ry="6.75" transform="translate(-14.7 42.7) rotate(-46.9)"/></g></g></svg>