<?xml version="1.0" encoding="utf-8"?>
<!-- Generator: Adobe Illustrator 23.0.5, SVG Export Plug-In . SVG Version: 6.00 Build 0)  -->
<svg version="1.1" id="Capa_1" xmlns="http://www.w3.org/2000/svg" xmlns:xlink="http://www.w3.org/1999/xlink" x="0px" y="0px"
	 viewBox="0 0 92 133" style="enable-background:new 0 0 92 133;" xml:space="preserve">
<style type="text/css">
	.st0{fill:#010202;}
	.st1{fill:#E94466;}
	.st2{fill:#FFE97A;}
	.st3{fill:#B72648;}
	.st4{fill:#FFFFFF;}
	.st5{fill:#EF7DA4;}
</style>
<path class="st0" d="M64.95,89.67l-46.26,4.96V30.83l46.72-6.24c3.58-0.46,6.43,2.02,6.43,5.6v51.86
	C71.83,85.81,68.71,89.3,64.95,89.67z"/>
<path class="st0" d="M65.13,91.87c-0.09,0-0.18,0-0.28,0L16.39,97.1V28.9l48.92-6.52c4.77-0.64,8.63,2.75,8.63,7.53v51.86
	c0,2.48-0.92,4.86-2.66,6.79C69.72,90.4,67.52,91.59,65.13,91.87z M20.98,92.14l44.06-4.77c1.19-0.09,2.39-0.73,3.21-1.65
	c0.83-0.92,1.38-2.11,1.38-3.4V30.46c0-2.29-1.84-3.95-4.13-3.58l-44.42,5.87v59.39H20.98z"/>
<path class="st0" d="M65.13,91.04c-0.09,0-0.18,0-0.18,0L18.69,96c-0.73,0.09-1.29-0.46-1.29-1.19V35.79c0-3.4,2.75-6.52,6.15-6.88
	l41.95-5.6c4.31-0.55,7.8,2.48,7.8,6.7v51.68c0,1.74-0.46,3.49-1.38,4.96C70.18,89.12,67.79,90.68,65.13,91.04z M65.04,88.29
	c1.47-0.18,2.85-0.92,3.86-2.02c1.01-1.19,1.65-2.57,1.65-4.04V30.37c0-2.75-2.29-4.77-5.05-4.41l-45.34,6.06v61.22L65.04,88.29z"/>
<path class="st0" d="M65.13,93.25h-0.28l-46.26,5.05c-1.93,0.18-3.49-1.19-3.49-3.12V36.06c0-4.59,3.76-8.9,8.35-9.45l41.95-5.6
	c5.51-0.73,10,3.12,10,8.72v51.68c0,2.29-0.64,4.5-1.84,6.33C71.65,90.77,68.53,92.79,65.13,93.25z M65.13,90.58v0.46V90.58z
	 M65.04,86.09c0.92-0.09,1.65-0.46,2.29-1.19c0.64-0.64,0.92-1.47,0.92-2.39V30.65c0-1.56-1.29-2.66-2.85-2.48l-43.14,5.69v56.72
	L65.04,86.09z"/>
<path class="st0" d="M56.13,99.76L19.6,92.15l-9.09-47.82l13.58-12.3l38-5.05c3.21-0.46,5.87,1.93,5.87,5.23v51.95
	C67.97,87.65,59.62,99.4,56.13,99.76z"/>
<path class="st0" d="M56.23,102.06h-0.09h-0.64l-37.82-7.89L8.13,43.68l15.24-13.77l38.73-5.14c4.5-0.55,8.08,2.66,8.08,7.16v51.95
	c0,3.58-4.68,10.46-7.89,13.95C59.9,100.41,57.88,101.78,56.23,102.06z M21.53,90.22l34.79,7.25c2.57-1.19,9.36-10.65,9.36-13.03
	V32.48c0-2.02-1.65-3.49-3.58-3.21l-37.27,4.96L12.99,44.87L21.53,90.22z"/>
<path class="st0" d="M55.49,100.04l-44.98,4.86V42.76l45.43-6.06c3.49-0.46,6.24,1.93,6.24,5.42V92.6
	C62.19,96.27,59.16,99.67,55.49,100.04z"/>
<path class="st0" d="M55.67,102.24c-0.09,0-0.18,0-0.18,0l-47.18,5.14V40.83l47.64-6.33c4.68-0.64,8.54,2.66,8.54,7.34v50.48
	c0,2.39-0.92,4.77-2.66,6.61C60.17,100.77,57.97,101.96,55.67,102.24z M55.58,97.74c1.19-0.09,2.29-0.73,3.12-1.65
	c0.83-0.92,1.29-2.11,1.29-3.21V42.39c0-2.2-1.74-3.76-3.95-3.49L12.9,44.69v57.64L55.58,97.74z"/>
<path class="st0" d="M55.67,101.32c-0.09,0-0.09,0-0.18,0l-44.98,4.86c-0.73,0.09-1.29-0.46-1.29-1.1V42.95
	c0-0.73,0.55-1.38,1.29-1.47l45.43-6.06c4.13-0.55,7.53,2.39,7.53,6.52v50.48c0,2.11-0.83,4.22-2.39,5.87
	C59.62,100.04,57.69,101.05,55.67,101.32z M55.58,98.75c1.47-0.18,2.75-0.83,3.76-2.02c1.01-1.1,1.56-2.48,1.56-3.95V42.3
	c0-2.75-2.2-4.68-4.96-4.31L11.8,43.96v59.48L55.58,98.75z"/>
<path class="st0" d="M55.67,103.62H55.4l-44.98,4.86c-1.93,0.18-3.49-1.19-3.49-3.12V43.22c0-1.93,1.56-3.76,3.58-4.04l45.43-6.06
	c5.42-0.73,9.82,3.12,9.82,8.54v50.48c0,2.75-1.1,5.42-3.03,7.62C60.81,101.87,58.34,103.25,55.67,103.62z M55.67,100.96v0.37
	V100.96z M55.58,96.46c0.83-0.09,1.56-0.46,2.11-1.1c0.55-0.64,0.92-1.47,0.92-2.2V42.67c0-1.47-1.19-2.48-2.66-2.29l-41.85,5.6
	v55.07L55.58,96.46z"/>
<path class="st0" d="M12.35,46.71c-0.83,0.09-1.56-0.09-2.2-0.55c-1.38-1.01-1.56-3.12-0.28-4.77l8.26-10.74
	c1.19-1.56,3.12-1.56,5.42-1.93c1.84-0.28,1.01,4.04-0.28,5.6l-8.26,10.74C14.28,46.07,13.36,46.53,12.35,46.71z"/>
<path class="st0" d="M12.35,48.91C10.97,49.1,9.69,48.82,8.68,48c-2.39-1.74-2.66-5.23-0.55-7.89l8.26-10.74
	c1.74-2.29,4.13-2.57,6.24-2.75h0.83c1.29-0.18,2.39,0.37,2.94,1.47c1.01,2.11-0.18,5.97-1.47,7.62l-8.26,10.74
	C15.56,47.81,14,48.73,12.35,48.91z M21.9,31.29c-1.19,0.18-1.84,0.28-2.11,0.64l-8.26,10.74c-0.37,0.55-0.37,1.19,0.09,1.56
	c0.28,0.18,0.55,0.18,0.73,0.18c0.18,0,0.55-0.09,0.83-0.55l8.26-10.74c0.28-0.37,0.55-1.29,0.73-2.02
	C22.17,31.29,21.99,31.29,21.9,31.29z"/>
<path class="st1" d="M61.46,87.19L15.2,92.14V28.35l46.72-6.24c3.58-0.46,6.43,2.02,6.43,5.6v51.86
	C68.34,83.33,65.22,86.82,61.46,87.19z"/>
<path class="st0" d="M61.64,89.39c-0.09,0-0.18,0-0.28,0L12.9,94.62V26.33l48.92-6.52c4.77-0.64,8.63,2.75,8.63,7.53V79.2
	c0,2.48-0.92,4.86-2.66,6.79C66.23,87.92,64.03,89.12,61.64,89.39z M61.55,84.89c1.19-0.09,2.39-0.73,3.21-1.65
	c0.83-0.92,1.38-2.11,1.38-3.4V27.99c0-2.29-1.84-3.95-4.13-3.58l-44.42,5.87v59.39L61.55,84.89z"/>
<path class="st1" d="M61.64,88.47c-0.09,0-0.18,0-0.18,0L15.2,93.52c-0.73,0.09-1.29-0.46-1.29-1.19V33.31
	c0-3.4,2.75-6.52,6.15-6.88l41.95-5.6c4.31-0.55,7.8,2.48,7.8,6.7V79.2c0,1.74-0.46,3.49-1.38,4.96
	C66.69,86.64,64.3,88.2,61.64,88.47z M61.55,85.81c1.47-0.18,2.85-0.92,3.86-2.02c1.01-1.19,1.65-2.57,1.65-4.04V27.89
	c0-2.75-2.29-4.77-5.05-4.41l-45.43,5.97v61.22L61.55,85.81z"/>
<path class="st0" d="M61.64,90.77h-0.28l-46.26,4.96c-1.93,0.18-3.49-1.19-3.49-3.12V33.59c0-4.59,3.76-8.9,8.35-9.45l41.95-5.6
	c5.51-0.73,10,3.12,10,8.72v51.68c0,2.29-0.64,4.5-1.84,6.33C68.16,88.29,65.04,90.31,61.64,90.77z M61.64,88.11v0.46V88.11z
	 M61.55,83.61c0.83-0.09,1.65-0.46,2.2-1.19c0.64-0.64,0.92-1.47,0.92-2.39V28.17c0-1.56-1.29-2.66-2.85-2.48l-43.14,5.69V88.2
	L61.55,83.61z"/>
<path class="st2" d="M52.65,97.29l-36.53-7.62L7.03,41.85l13.58-12.3l38-5.05c3.21-0.46,5.87,1.93,5.87,5.23v51.95
	C64.49,85.17,56.13,96.92,52.65,97.29z"/>
<path class="st0" d="M52.74,99.58h-0.09H52l-37.82-7.89L4.64,41.2l15.24-13.77l38.73-5.14c4.5-0.55,8.08,2.66,8.08,7.16v51.95
	c0,3.58-4.68,10.46-7.89,13.95C56.41,97.93,54.39,99.3,52.74,99.58z M18.04,87.74l34.79,7.25c2.48-1.19,9.27-10.56,9.27-13.03V30.01
	c0-2.02-1.65-3.49-3.58-3.21l-37.27,4.96L9.51,42.4L18.04,87.74z"/>
<path class="st1" d="M52,97.56l-44.98,4.86V40.28l45.43-6.06c3.49-0.46,6.24,1.93,6.24,5.42v50.48C58.7,93.8,55.68,97.19,52,97.56z"
	/>
<path class="st0" d="M52.19,99.76c-0.09,0-0.18,0-0.28,0L4.73,104.9V38.36l47.64-6.33c4.68-0.64,8.54,2.66,8.54,7.34v50.48
	c0,2.39-0.92,4.77-2.66,6.61C56.68,98.29,54.48,99.49,52.19,99.76z M9.32,99.85l42.77-4.59c1.19-0.09,2.29-0.73,3.12-1.65
	c0.83-0.92,1.29-2.02,1.29-3.21V39.92c0-2.2-1.74-3.76-3.95-3.49L9.41,42.21v57.64H9.32z"/>
<path class="st1" d="M52.19,98.84c-0.09,0-0.09,0-0.18,0l-44.98,4.86c-0.73,0.09-1.29-0.46-1.29-1.1V40.47
	c0-0.73,0.55-1.38,1.29-1.47l45.43-6.06c4.13-0.55,7.53,2.39,7.53,6.52v50.48c0,2.11-0.83,4.22-2.39,5.87
	C56.13,97.56,54.21,98.57,52.19,98.84z M52.1,96.27c1.47-0.18,2.75-0.83,3.76-2.02c1.01-1.1,1.56-2.48,1.56-3.95V39.83
	c0-2.75-2.2-4.68-4.96-4.31L8.31,41.39v59.48L52.1,96.27z"/>
<path class="st0" d="M52.19,101.14H52L6.94,106c-1.93,0.18-3.49-1.19-3.49-3.12V40.74c0-1.93,1.56-3.76,3.58-4.04l45.43-6.06
	c5.42-0.73,9.82,3.12,9.82,8.54v50.48c0,2.75-1.1,5.42-3.03,7.62C57.33,99.4,54.85,100.77,52.19,101.14z M52.19,98.48v0.37V98.48z
	 M52.1,93.98c0.83-0.09,1.56-0.46,2.11-1.1c0.55-0.64,0.92-1.47,0.92-2.2V40.19c0-1.47-1.19-2.48-2.66-2.29l-41.85,5.51v55.07
	L52.1,93.98z"/>
<path class="st1" d="M8.86,44.23c-0.83,0.09-1.56-0.09-2.2-0.55C5.28,42.67,5.1,40.56,6.29,39l8.26-10.74
	c1.19-1.56,3.12-1.56,5.42-1.93c1.84-0.28,1.01,4.04-0.28,5.6l-8.26,10.74C10.79,43.59,9.87,44.05,8.86,44.23z"/>
<path class="st0" d="M8.86,46.44c-1.38,0.18-2.66-0.09-3.67-0.92c-2.39-1.74-2.66-5.23-0.55-7.89l8.26-10.74
	c1.74-2.29,4.13-2.57,6.24-2.75l0.83-0.09c1.29-0.18,2.39,0.37,2.94,1.47c1.01,2.11-0.18,5.97-1.47,7.62l-8.26,10.74
	C12.08,45.33,10.52,46.25,8.86,46.44z M18.41,28.81c-1.1,0.18-1.74,0.28-2.02,0.64L8.13,40.19c-0.37,0.55-0.37,1.19,0.09,1.56
	c0.28,0.18,0.55,0.18,0.73,0.18c0.18,0,0.55-0.09,0.83-0.55l8.26-10.74c0.28-0.37,0.55-1.29,0.73-2.02
	C18.59,28.81,18.5,28.81,18.41,28.81z"/>
<path class="st0" d="M64.95,89.67l-46.26,4.96V30.83l46.72-6.24c3.58-0.46,6.43,2.02,6.43,5.6v51.86
	C71.83,85.81,68.71,89.3,64.95,89.67z"/>
<path class="st0" d="M65.13,91.04c-0.09,0-0.18,0-0.18,0L18.69,96c-0.73,0.09-1.29-0.46-1.29-1.19V35.79c0-3.4,2.75-6.52,6.15-6.88
	l41.95-5.6c4.31-0.55,7.8,2.48,7.8,6.7v51.68c0,1.74-0.46,3.49-1.38,4.96C70.18,89.12,67.79,90.68,65.13,91.04z M65.04,88.29
	c1.47-0.18,2.85-0.92,3.86-2.02c1.01-1.19,1.65-2.57,1.65-4.04V30.37c0-2.75-2.29-4.77-5.05-4.41l-45.34,6.06v61.22L65.04,88.29z"/>
<path class="st0" d="M56.13,99.76L19.6,92.15l-9.09-47.82l13.58-12.3l38-5.05c3.21-0.46,5.87,1.93,5.87,5.23v51.95
	C67.97,87.65,59.62,99.4,56.13,99.76z"/>
<path class="st0" d="M55.49,100.04l-44.98,4.86V42.76l45.43-6.06c3.49-0.46,6.24,1.93,6.24,5.42V92.6
	C62.19,96.27,59.16,99.67,55.49,100.04z"/>
<path class="st0" d="M55.67,101.32c-0.09,0-0.09,0-0.18,0l-44.98,4.86c-0.73,0.09-1.29-0.46-1.29-1.1V42.95
	c0-0.73,0.55-1.38,1.29-1.47l45.43-6.06c4.13-0.55,7.53,2.39,7.53,6.52v50.48c0,2.11-0.83,4.22-2.39,5.87
	C59.62,100.04,57.69,101.05,55.67,101.32z M55.58,98.75c1.47-0.18,2.75-0.83,3.76-2.02c1.01-1.1,1.56-2.48,1.56-3.95V42.3
	c0-2.75-2.2-4.68-4.96-4.31L11.8,43.96v59.48L55.58,98.75z"/>
<path class="st0" d="M12.35,46.71c-0.83,0.09-1.56-0.09-2.2-0.55c-1.38-1.01-1.56-3.12-0.28-4.77l8.26-10.74
	c1.19-1.56,3.12-1.56,5.42-1.93c1.84-0.28,1.01,4.04-0.28,5.6l-8.26,10.74C14.28,46.07,13.36,46.53,12.35,46.71z"/>
<path class="st3" d="M61.46,87.19L15.2,92.14V28.35l46.72-6.24c3.58-0.46,6.43,2.02,6.43,5.6v51.86
	C68.34,83.33,65.22,86.82,61.46,87.19z"/>
<path class="st3" d="M61.64,88.47c-0.09,0-0.18,0-0.18,0L15.2,93.52c-0.73,0.09-1.29-0.46-1.29-1.19V33.31
	c0-3.4,2.75-6.52,6.15-6.88l41.95-5.6c4.31-0.55,7.8,2.48,7.8,6.7V79.2c0,1.74-0.46,3.49-1.38,4.96
	C66.69,86.64,64.3,88.2,61.64,88.47z M61.55,85.81c1.47-0.18,2.85-0.92,3.86-2.02c1.01-1.19,1.65-2.57,1.65-4.04V27.89
	c0-2.75-2.29-4.77-5.05-4.41l-45.43,5.97v61.22L61.55,85.81z"/>
<path class="st4" d="M52.65,97.29l-36.53-7.62L7.03,41.85l13.58-11.38l38-5.05c3.21-0.46,5.87,1.93,5.87,5.23v51.03
	C64.49,85.17,56.13,96.92,52.65,97.29z"/>
<path class="st3" d="M8.86,44.23c-0.83,0.09-1.56-0.09-2.2-0.55C5.28,42.67,5.1,40.56,6.29,39l8.26-10.74
	c1.19-1.56,3.12-1.56,5.42-1.93c1.84-0.28,3.49,0.83,2.29,2.39L11.43,42.67C10.79,43.59,9.87,44.05,8.86,44.23z"/>
<path class="st1" d="M52,97.56l-44.98,4.86V40.28l45.43-6.06c3.49-0.46,6.24,1.93,6.24,5.42v50.48C58.7,93.8,55.68,97.19,52,97.56z"
	/>
<path class="st1" d="M52.19,98.84c-0.09,0-0.09,0-0.18,0l-44.98,4.86c-0.73,0.09-1.29-0.46-1.29-1.1V40.47
	c0-0.73,0.55-1.38,1.29-1.47l45.43-6.06c4.13-0.55,7.53,2.39,7.53,6.52v50.48c0,2.11-0.83,4.22-2.39,5.87
	C56.13,97.56,54.21,98.57,52.19,98.84z M52.1,96.27c1.47-0.18,2.75-0.83,3.76-2.02c1.01-1.1,1.56-2.48,1.56-3.95V39.83
	c0-2.75-2.2-4.68-4.96-4.31L8.31,41.39v59.48L52.1,96.27z"/>
<path class="st0" d="M48.57,110.85c-12.36,1.5-22.38-6.41-22.38-17.62c0-11.21,10.02-21.61,22.38-23.11
	c12.36-1.5,22.38,6.41,22.38,17.68C70.94,99.06,60.87,109.4,48.57,110.85z M48.57,73.01c-10.59,1.27-19.21,10.17-19.21,19.82
	c0,9.65,8.62,16.46,19.21,15.14c10.59-1.27,19.14-10.17,19.14-19.76C67.71,78.61,59.15,71.74,48.57,73.01z M48.57,105.99
	c-9.38,1.16-16.99-4.91-16.99-13.46s7.61-16.41,16.99-17.56s16.99,4.91,16.99,13.46S57.95,104.84,48.57,105.99z M48.57,77.92
	c-7.61,0.92-13.82,7.34-13.82,14.27c0,6.93,6.15,11.84,13.82,10.92c7.61-0.92,13.82-7.34,13.82-14.27
	C62.39,81.9,56.17,76.99,48.57,77.92z"/>
<path class="st0" d="M82.99,107.5c-0.7,0.12-1.39,0.06-2.09-0.17l-16.86-4.79c-2.6-0.75-3.8-3.35-2.6-5.89
	c1.14-2.48,4.18-3.93,6.78-3.24l16.86,4.85c2.6,0.75,3.8,3.35,2.6,5.89C86.92,105.94,85.02,107.27,82.99,107.5z M66.13,96.23
	c-0.76,0.12-1.52,0.58-1.84,1.27c-0.44,0.98,0,1.96,1.01,2.25l16.86,4.79c0.25,0.06,0.51,0.12,0.82,0.06
	c0.76-0.12,1.52-0.58,1.84-1.27c0.44-0.98,0-1.96-1.01-2.25l-16.86-4.79C66.7,96.17,66.38,96.17,66.13,96.23z"/>
<path class="st0" d="M51.86,113.04c-11.47,1.39-20.79-5.95-20.79-16.41c0-10.46,9.32-20.05,20.79-21.43
	c11.47-1.39,20.79,5.95,20.79,16.41S63.27,111.66,51.86,113.04z M51.86,80.06c-8.49,1.04-15.4,8.15-15.4,15.89
	c0,7.74,6.91,13.23,15.4,12.19c8.49-1.04,15.4-8.15,15.4-15.89C67.27,84.51,60.36,79.08,51.86,80.06z"/>
<path class="st0" d="M86.28,109.7c-0.51,0.06-0.95,0-1.46-0.12l-16.86-4.79c-1.77-0.52-2.6-2.31-1.84-4.1
	c0.82-1.73,2.92-2.72,4.69-2.2l16.86,4.79c1.77,0.52,2.6,2.31,1.84,4.1C89.01,108.66,87.68,109.52,86.28,109.7z"/>
<path class="st4" d="M60.93,101.04c7.3-7.11,7.68-17.58,0.85-23.41s-18.27-4.78-25.57,2.33c-7.3,7.11-7.68,17.58-0.85,23.41
	C42.19,109.18,53.63,108.14,60.93,101.04z"/>
<path class="st5" d="M48.57,109.41c-11.47,1.39-20.79-5.95-20.79-16.41s9.32-20.05,20.79-21.43c11.47-1.39,20.73,6.01,20.73,16.41
	S59.98,108.02,48.57,109.41z M48.57,76.48c-8.49,0.98-15.47,8.15-15.47,15.89c0,7.74,6.91,13.23,15.4,12.19
	c8.49-1.04,15.4-8.15,15.4-15.89C63.91,80.93,57.06,75.44,48.57,76.48z"/>
<path class="st0" d="M54.17,95.27c3.3-3.21,3.47-7.96,0.38-10.6c-3.09-2.64-8.28-2.17-11.58,1.04c-3.3,3.22-3.47,7.96-0.38,10.6
	C45.69,98.95,50.87,98.49,54.17,95.27z"/>
<path class="st5" d="M82.99,106.05c-0.51,0.06-0.95,0-1.46-0.12l-16.86-4.79c-1.77-0.52-2.6-2.31-1.84-4.1
	c0.82-1.73,2.92-2.72,4.69-2.2l16.86,4.79c1.77,0.52,2.6,2.31,1.84,4.1C85.65,105.01,84.38,105.88,82.99,106.05z"/>
<path class="st4" d="M55.85,94.7c1.84-1.79,1.95-4.43,0.23-5.89c-1.71-1.46-4.59-1.19-6.44,0.6c-1.84,1.79-1.95,4.43-0.23,5.89
	C51.13,96.77,54.01,96.5,55.85,94.7z"/>
</svg>
