<svg xmlns="http://www.w3.org/2000/svg" viewBox="0 0 837.7 945.91"><defs><style>.cls-1{fill:#030303;}.cls-2{fill:#fff;}.cls-3{fill:#ffe979;}.cls-4{fill:#090606;}.cls-5{fill:#fd7da5;}</style></defs><g id="Capa_2" data-name="Capa 2"><g id="Capa_14" data-name="Capa 14"><path class="cls-1" d="M172.71,945.91c.21-14.15,2-27.37,3.48-41.12L158,908.44c-5.15,1-10.31,2.12-15.48,3.09-11.48,2.12-22-6.6-21.6-18.11.73-18.84,1.71-37.66,2.62-56.48,1.19-24.42,2.3-48.85,3.68-73.27.53-9.51.2-19,0-28.49-.27-15.31,1.51-30.53,2.49-45.76.57-8.95,1.51-17.86,2.33-27.48-34.78,9.13-65.27,26-95.23,46.25-.17-13.88,3-26.69,2.43-39.71-1.37-1-2.6,0-3.78.4-6.12,2-12.16,4.25-18.3,6.21C7,678.4-2.1,670.31.43,659.83c2.71-11.26,3.68-22.78,5.36-34.17,3.77-25.68,7.31-51.39,10.93-77.1q5.34-38.05,10.64-76.12,5.85-41.58,11.75-83.15,5.36-38.07,10.66-76.12,5.9-41.84,11.87-83.64c.31-2.19.47-4.39.8-6.56a11.8,11.8,0,0,1,6.16-8.85,62.19,62.19,0,0,1,12.13-5.2Q199.86,170.49,319,132L720,2.63c2.26-.73,4.53-1.48,6.82-2.06,5.41-1.4,10.21-.3,13.69,4.25s3.75,9.48.75,14.28c-2.63,4.24-2.78,9-3.81,13.62C736,39,734.83,45.3,733.47,52.05c7.07-.39,13.51-2.5,20.7-3.28-31.64,100.77-53.68,200-60.28,305.15.52,2.27,94.16-25.94,110.72-31,9.93-3,18.61,5.39,17,15.19-1.19,7.18-1.46,14.52-2.1,21.8-.11,1.32-.49,2.7.27,4.31,5.79-1.49,11.63-3,17.69-4.55.76,3.62-.44,6.73-1.06,9.77q-9.49,46.69-14.66,94c-3.33,30.71-7,61.39-9.8,92.16a1527.9,1527.9,0,0,0-6.6,159.22c.22,19.7,1.12,39.38,2.38,59,.65,10.27.11,20.63.11,31.11l-32.9,2c-29.85,1.78-59.57,4.68-89.29,8.12C646,819.72,606.58,825.79,567.34,833q-64.11,11.76-127.29,27.8c-83.64,21.12-165.85,46.76-246.19,78.26A197,197,0,0,1,172.71,945.91ZM688.85,39.62c-2.11-.06-4,.92-5.87,1.54Q631.14,57.83,579.34,74.58L93.11,231.51c-6.65,2.15-6.62,2.15-7.6,9.22q-4.42,31.75-8.9,63.5-5.79,41.08-11.56,82.15-4.86,34.55-9.66,69.06Q50,493.74,44.58,532c-3.25,23-6.56,46-9.69,69.05-1.25,9.23-3.09,18.4-3.57,27.74a75.4,75.4,0,0,0-2.17,14.85c1.59.57,2.62-.23,3.68-.58,31.9-10.47,106.89-35.3,110-36.06,8.61-2.12,16.3,3.35,16.76,12.18.14,2.87.26,37.45-.35,47.3-1,16.77-3.14,33.47-4.25,50.23-1.46,22-2.27,44.1-3.36,66.14-.87,17.63-1.9,35.26-2.62,52.91-.49,12.21-1.74,24.39-1.46,36.63a44.4,44.4,0,0,0-.68,12.22,20.35,20.35,0,0,0,2.68-.24q29.91-6.13,59.8-12.33,83-17.15,165.93-34.3,77.73-16,155.49-32.06l156-32.19q35.14-7.26,70.27-14.48c4-.82,4-.87,4.36-5.23q2.14-25.87,4.31-51.75,2.87-34.25,5.75-68.5,2.73-33,5.42-66c1.89-22.66,3.84-45.32,5.71-68,1.86-22.33,3.62-44.65,5.47-67q2.82-33.75,5.71-67.47c.35-4.17.6-8.35.94-13.08-7.16,2.08-13.91,3.65-20.43,6a79.32,79.32,0,0,0-14.15,4c-33.37,12-68.05,19.42-102.13,28.92-7.06,2-14.23-2.74-15.74-9.94a38.47,38.47,0,0,1-.42-4c1.17-5.64,2.39-11.27,3.53-16.92q14.61-72,29.17-144.08,16.68-82.51,33.33-165c1.24-6.09,2.39-12.21,3.72-19C703.48,34.61,696,36.56,688.85,39.62Z"/><path class="cls-2" d="M147.53,872.42Q193.27,863,239,853.52c16.41-3.36,32.88-6.48,49.29-9.88,24.54-5.07,49.05-10.32,73.57-15.44q32.28-6.75,64.6-13.38,39-8,78.1-15.92c13.6-2.78,27.16-5.78,40.8-8.34,14.47-2.73,28.82-6,43.24-9.06q30.06-6.3,60.1-12.52,43.5-9,87-17.82c4.8-1,5.74-2.5,6.42-7.49,1.51-11.16,1.8-22.44,3.14-33.63.57-4.74.64-9.67,1.05-14.48q.95-11,2-22c.5-5.06,1.39-10.17,1.05-15.34-.19-2.82.65-5.64.83-8.5.57-9.81,1.48-19.61,2.33-29.39.62-7,1.25-14,1.92-21,.49-5.07.9-10.25,1.22-15.37.41-6.79,1.14-13.6,1.68-20.41.41-5.44,1.18-10.81,1.3-16.3.15-6.86,1.38-13.7,1.73-20.56.27-5.46.9-10.9,1.38-16.31.6-6.8,1.06-13.63,1.67-20.43.47-5.44,1.14-10.85,1.3-16.35.19-6.86,1.41-13.7,1.89-20.57.36-5.26,1.41-10.49,1.07-15.8-.14-2.38.56-4.68.83-7,1.09-9.25,1.71-18.55,2.44-27.8s1.56-18.52,2-27.81c.27-5.42.77-10.93,1.3-16.38,6.51-2.39,13.27-4,20.42-6-.33,4.72-.58,8.91-.93,13.08-1.89,22.49-3.84,45-5.71,67.47-1.85,22.32-3.63,44.65-5.47,67-1.89,22.66-3.84,45.31-5.71,68-1.83,22-3.6,44-5.43,66q-2.85,34.26-5.74,68.51-2.16,25.88-4.32,51.75c-.36,4.36-.33,4.41-4.36,5.23q-35.13,7.26-70.26,14.48-78,16.08-156,32.19-77.74,16-155.49,32.06-83,17.12-165.93,34.3l-59.79,12.33c-.81.16-1.65.15-2.68.24A43.88,43.88,0,0,1,147.53,872.42Z"/><path class="cls-2" d="M641.81,377.08a15.45,15.45,0,0,1-11.39.15c-1.87-.73-4.77-4-5.3-5.87-1.43-5.12-1.89-7.83-.64-13.53,3.84-17.34,7.17-34.8,10.76-52.19,3.88-18.87,8-37.73,11.75-56.61,5.85-29,11.53-58.07,17.34-87.08Q675.63,105.51,687,49.06c.63-3.14,1.92-6.15,1.9-9.41,7.14-3.06,14.63-5,22.73-7.6-1.33,6.8-2.5,12.91-3.72,19q-16.67,82.53-33.33,165-14.56,72-29.17,144.09C644.2,365.81,643,371.44,641.81,377.08Z"/><path class="cls-2" d="M31.3,628.82c9.3-3.17,18.48-6.74,27.9-9.42,17.1-4.87,33.71-11.27,50.7-16.44,3.69-1.12,7.17-2.87,11.21-2.69,6.06.27,11.57,4.23,13,9.62a50.91,50.91,0,0,1-5.69,1.76q-47.85,15.68-95.68,31.42c-1.06.35-2.09,1.18-3.68.59A76.86,76.86,0,0,1,31.3,628.82Z"/><path class="cls-3" d="M400.84,209.77a14.17,14.17,0,0,0,.46-2.49c.08-3.47,1.75-5.29,5.06-6.61,12.22-4.88,24.56-9.42,36.83-14.16a5.77,5.77,0,0,1,6.49,1c2.84,2.4,5.58,4.89,8.39,7.31,1.26,1.08,2.13,2.68,3.95,3a13.7,13.7,0,0,0,1.16,1.66c15.09,16.13,29.17,33.11,43.24,50.11.57.7,1.08,1.84,2.85,1.17.62-4.45,1-9.08,0-13.76,2-3.14,1.89-6.71,2.18-10.2,1-12.62,2-25.22,2.92-37.84a79.85,79.85,0,0,0,.12-9.15,6.46,6.46,0,0,1,3.61-6.22c16.79-9.83,33.24-20.2,50.61-29.06,11.6-5.93,23.52-11.13,35.31-16.64,2.85-1.33,5.42-3.34,9.15-3a24.38,24.38,0,0,1-1.67,9.18c-1.22,3.11-1.25,6.58-3.12,9.49-.3.47,0,1.31,0,2a97.78,97.78,0,0,0-5.68,15.91c-11.82,45.31-23.17,90.74-29.76,137.17-4.09,28.89-8.31,57.81-6.21,87.16a5.3,5.3,0,0,1-2.7,5.44c-12.21,8-24.11,16.44-35.83,25.13-1.64,1.22-12.54,9.26-14.44,12.24-.73,1.15-2.26.2-2.79-1-7.33-16.59-16.1-32.44-24.16-48.66-4.74-9.55-10.13-18.78-15.3-28.12-.79-1.44-1.46-3.12-3.24-3.77-.57-1.87-.7-3.95-2.49-5.22A56.89,56.89,0,0,0,450,321.07a3.17,3.17,0,0,0-1.49,2.61c-2.55,15.21-4.77,30.48-6.47,45.81-1.38,12.47-2.54,25-3.86,37.42-.47,4.48-.55,4.51-5.18,5.06a274.15,274.15,0,0,0-37.9,7.65c-7.5,1.92-12,3.56-21.61,7.76-1.51-.61-1.13-1.87-1.05-3,2-26.69,4.8-53.31,8.14-79.87,1.47-11.77,2.87-23.53,4.29-35.3,2.35-13.14,4.25-26.35,7.06-39.43.84-3.92.45-8.11.62-12.18a48.13,48.13,0,0,0,1.52-5.33C396.36,238.14,398.59,224,400.84,209.77Z"/><path class="cls-3" d="M639.85,714.28c-3.56.73-6.49,2.87-9.76,4.26-4.31,1.83-5,1.52-6.77-2.81-7-17.28-14.55-34.34-22.4-51.26-1.33-2.87-1.76-6.25-4.3-8.53-.81-2.41-1.52-4.85-2.44-7.21-6-15.32-12.09-30.57-17.45-46.13-.19-.54-.17-1.41-1.19-1.35-1.09.59-.84,1.67-.84,2.59.14,22.39-.56,44.79.57,67.16.62,12.42,2.37,24.65,7,36.31.41,1,1.16,2.13.21,3.8-20.43.84-55.21,6.58-61.35,8s-14.89,3.74-22.23,5.29c-1.05-7.15,1.05-15.26,1.73-22.3.3-3,.73-6,.21-9.08a54.27,54.27,0,0,0,2.25-10.93C507,653,511.75,624,514.84,594.78c1.29-12.14,2.59-24.3,2.24-36.56,1.34-5.63,1.25-11.37,1.26-17.09,0-9.79.13-19.59.13-29.37,0-5.57,1.24-11.05.79-16.63a2.83,2.83,0,0,1,2.42-3.3c8-2.68,39.05-12.74,41.19-13.7,3.23-1.48,5.55-.9,8,1.77,3.07,3.37,6.06,6.87,9.85,9.52.2,1.63,1.44,2.63,2.43,3.77a391.4,391.4,0,0,1,42.9,60.87c1.49,2.59,3.09,5.11,4.65,7.65a126.06,126.06,0,0,0,1.22-22.92c.78-1.95.59-4,.6-6q.11-24.35.16-48.65c0-1.35-.05-2.72,0-4.06.23-3.41,1.29-6.22,5-7.38,1.6-.49,22.18-9.26,26.91-11.38,7.2-3.23,14.72-5.6,22.1-8.31,9.23-3.38,18.62-6.31,28-9.39a32.28,32.28,0,0,1,4.2-.7c-.37,2.71-6.74,21.93-7.41,24-12.21,38.31-19.26,77.61-22.87,117.55-2.75,30.62-2.77,61.3-1.74,92,.17,5.23-.62,10.48-.82,15.73-.1,2.2-1.1,3.17-3.15,3.93q-11.68,4.32-23.19,9.07C653,708,646.13,710.53,639.85,714.28Z"/><path class="cls-3" d="M107,290.39a16.53,16.53,0,0,1,7.25-11.15c5.78-3.84,20.73-13.45,23.65-15.1,11.93-6.7,24.08-14.6,36.54-18.53s20.21-5.81,27.67-6.54a79.86,79.86,0,0,1,19.11,0c5.68.82,11.42,1,16.7,3.62a58.53,58.53,0,0,1,12.44,9,52.1,52.1,0,0,1,8.74,11.17c6.33,11.39,9.23,23.15,3.49,35.86a240.31,240.31,0,0,1-41.55,63.53c-3.28,3.6-6.85,7-9.4,11.1.36.45,25,17.29,37.34,25,6.33,4,13.07,7.18,19.62,10.73,1.38.76,3.44,1.18,2.63,3.6-1.81,3-3.06,5.11-4.87,8.15-14.78,25-26.77,51.42-38.07,78.14-.84,1.51-2,1.65-3.39.79-7.41-4.64-15.55-8.22-21.78-14.58-6-6.16-13-11.28-18.78-17.71a5.85,5.85,0,0,0-1.73-1,22.06,22.06,0,0,0-1.92-3c-5.8-6.43-11.32-13.1-16.49-20.06-.64-.84-1.21-2.15-3.22-1.6-.75,24.58-.38,49.17,4.76,74-4.05-.61-7.54-1.09-11-1.71-18.05-3.23-54.32-8.35-54.32-8.35S88.55,505,82.68,504c-2.49-.17-3.42-1.47-3.44-4,0-8.63-1.38-17.22-.94-25.88.7-13.51,1.32-27,2.7-40.48,1-9.92,2-19.83,3.28-29.73,1.54-12.07,3.7-24,5.73-36,1.38-8.17,2.95-16.29,4.44-24.44,3-12.62,6.16-25.22,9.11-37.88ZM193.81,310a37.48,37.48,0,0,0-9.17,2.71,158.27,158.27,0,0,0-27.66,17c-1.24.92-2.46,1.81-2.43,3.62.1,7.78-.62,15.6,1,23.32.59,2.76,1.27,3.11,3.84,1.49,4.73-3,9.52-5.91,13.48-9.92,1.07-1.08,3.56-7.5,10.49-11.83s10.42-12,14.65-20.52C199.68,312.52,197.93,310.05,193.81,310Z"/><path class="cls-3" d="M365.66,767.73c-9-1-16.18-5.79-23.3-10.77-1.48-3.63-4.38-6.34-6.19-9.8-3-5.69-5-11.78-7.15-17.77-3.7-15.88-5.95-31.83-4.2-48.22,1-9.09,2.06-18.14,3.79-27.1,1.36-7.14,3-14.23,4.45-21.34,3.65-9.83,6.27-20,10.23-29.72a64.17,64.17,0,0,0,3.54-11.62c1.38-.43,1.46-1.73,1.9-2.79a181.84,181.84,0,0,1,19-34.57,144.35,144.35,0,0,1,29.2-30.7A136.58,136.58,0,0,1,421,508.62a53.48,53.48,0,0,1,16.4-4.39c10.26-.26,20.5-.26,30.21,3.87,4.49,1.63,7.92,4.85,11.68,7.6,6.7,6.6,10.77,14.55,13.22,23.63,2.23,8.19,3.92,16.45,5.75,24.69a128.39,128.39,0,0,1,2.07,44.38c-1.34,10.39-2.91,20.76-5.77,30.92-4.22,15-9,29.7-16.24,43.59a321.23,321.23,0,0,1-22,35.25,138.74,138.74,0,0,1-9.42,11.29c-6.25,7.17-13.37,13.32-20.72,19.28a77.18,77.18,0,0,1-15.51,9.56c-9.5,4.54-19.32,8-30,8.77A148.58,148.58,0,0,1,365.66,767.73ZM435.51,591.5A35.79,35.79,0,0,0,434,580c-1.23-4-2.84-5.14-6.88-5.46-5.33-.42-9.63,1-12.52,5.85-1.92,3.19-4.28,6.13-6.07,9.37A249.58,249.58,0,0,0,393.43,623a116.46,116.46,0,0,0-7.36,48.87c.29,4.27.95,8.43,3.22,12.14,2,3.35,6.51,5.9,9.27,5,3.33-1.11,6.82-2.09,9.24-5a3.92,3.92,0,0,0,2.41-1.75c4-6.09,8.4-12,10.93-18.88,6.19-16.79,13.36-33.3,14.2-51.65A159.32,159.32,0,0,0,435.51,591.5Z"/><path class="cls-3" d="M232.64,794.19c-8-2.81-15.76-6-22.92-10.78-12.31-8.15-20.59-19.44-26.41-32.73-8-18.22-10.42-37.4-9.15-57.1a107.16,107.16,0,0,1,4.33-23.39,214.91,214.91,0,0,1,25.63-55.65c6.62-10.28,15.07-19.08,23.72-27.61a332.82,332.82,0,0,1,58.7-46.52c11.61-7.17,24.09-12.37,37.7-14.45,1.51-.22,3-.73,4.48-.9,3.3-.38,4.25.71,3.82,4-.46,3.51-.81,7-1.21,10.55-2.22,15.07-4.5,30.15-6.66,45.25-1.46,10.23-2.71,20.49-4.11,30.73-.62,4.55-.69,4.45-5,5.58-28.53,7.5-49.42,24.59-63,50.65a48.39,48.39,0,0,0-5.26,28.09c1.82,16.57,13.49,25.15,26.52,24.66,6.42,0,12.83.54,19.25-.62,7.12-1.27,13.09-5.15,19.56-7.85,1.55-.65,3.24-2.3,4.54-2,2.93.64.42,3.09.84,4.71a79.54,79.54,0,0,1,1.93,14,17.65,17.65,0,0,0-.05,5.57q1.5,20.8,3.1,41.59c.33,4.46.41,4.5-3.79,6.5-9.57,4.57-19.78,7-30.12,9A128.39,128.39,0,0,1,232.64,794.19Z"/><path class="cls-3" d="M318.31,470.24a55.49,55.49,0,0,0-16.68,5.56c-3.3,1.8-4.1,1.18-4.13-2.59-.08-12-1.63-23.88-2.93-35.8-.54-5-.75-10.09-1.75-15.07l-.57-3.19c.54-3.77-.73-7.38-.95-11.08-.52-8.43-1.58-16.81-2.36-25.21-1.08-11.77-1.7-23.58-2.79-35.34-.64-6.89-.65-13.83-1.84-20.68-.86-4.92-.34-5.54,4.12-7.91,7-3.76,14.7-6.06,21.87-9.49,9.85-2.18,19.42-5.48,29.35-7.35,7.75-1.46,15.4-3.59,23.38-3.6,3.82,1.47,4.15,1.82,3.44,5.21a20.58,20.58,0,0,0-.68,6.89c-2.4,6.4-2.91,13.2-4,19.85C355.22,369.06,352,408,350.12,447.13A45.11,45.11,0,0,1,348.5,458a6.45,6.45,0,0,1-4.93,5c-3.59,1-7.21,1.9-10.79,2.89C327.93,467.25,322.79,467.64,318.31,470.24Z"/><path class="cls-4" d="M523.47,420s3.1-2.4,4.74-3.6c11.72-8.69,23.6-17.16,35.83-25.13a5.28,5.28,0,0,0,2.69-5.44c-2.09-29.35,2.13-58.27,6.22-87.16,6.59-46.43,17.94-91.86,29.76-137.18a99,99,0,0,1,5.68-15.9c5.09-1.46,9.44-4.57,14.35-6.42,3.92-1.48,7.79-3.1,11.68-4.65,1,1.73.12,2.93-.24,4.15a1306.74,1306.74,0,0,0-32.65,129.09,793,793,0,0,0-11.91,80.47c-1.47,15.89-2.84,31.76-1.36,47.73.25,2.7-.78,4.19-3.06,5.74-15.5,10.69-31.28,21-45.7,33.12-.25.23-.52.43-.79.64-5,3.88-5,3.82-7.88-1.86C528.55,429.24,526.26,424.08,523.47,420Z"/><path class="cls-1" d="M640.09,714.39c6.29-3.74,13.12-6.26,19.85-9q11.52-4.73,23.19-9.07c2-.76,3-1.72,3.14-3.93.2-5.25,1-10.51.82-15.73-1-30.69-1-61.37,1.75-92,3.58-39.93,10-79.35,22.22-117.66.66-2.07,1.52-4.1,2.28-6.16.34-.07,15.52-4.68,22.21-6.49,1.6-.42,3.17-1,4.68-1.44.9,1.22.06,2.08-.29,2.93-12.15,31.49-19.62,64.18-24.74,97.45-6.46,41.93-8.3,84.11-6.87,126.45a215.29,215.29,0,0,1-.49,21.86c-.18,2.66-1,4.11-3.78,5.12-18.19,6.61-36,14.23-53.45,22.52-3.74,1.77-3.74,1.71-5.3-2.13C643.6,722.84,641.84,718.61,640.09,714.39Z"/><path class="cls-4" d="M365.67,767.72c6.4,0,10-.27,15-.63,10.69-.78,20.53-4.23,30-8.77a77.71,77.71,0,0,0,15.52-9.56c7.34-6,14.48-12.1,20.71-19.28a142.59,142.59,0,0,0,9.42-11.29,318.23,318.23,0,0,0,22-35.25c7.28-13.89,12-28.61,16.25-43.59,2.85-10.15,4.42-20.53,5.77-30.92a128.36,128.36,0,0,0-2.08-44.38c-1.81-8.25-3.52-16.53-5.74-24.69-2.46-9.1-6.52-17-13.23-23.62,17,3,27.82,13.14,33.25,29.27,1.5,4.48,2.89,9,4.77,13.34.35,12.26-.95,24.43-2.23,36.57-3.1,29.21-7.86,58.19-11.77,87.29a54.58,54.58,0,0,1-2.26,10.93c-4.5,7.35-8.94,14.74-13.54,22.05-11.6,18.4-25.57,34.66-43.53,47.16-14.84,10.32-31.26,16.17-49.53,16-9-.12-17.55-1.77-25-7.23A16.33,16.33,0,0,1,365.67,767.72Z"/><path class="cls-3" d="M273.84,263.39c3.3-5.85,5.52-12.29,9.68-17.69,3.74-4.86,7.79-9.26,13.15-12.45,4.49-2.68,8.56-6,13.38-8.15a29.6,29.6,0,0,1,11.71-2.87c4-.08,8.12-.56,12.12-.62,7.72-.11,15,2.14,20.9,7.6,1,.9,1.78,2.06,3.11,2.56.37.77.67,1.56,1.1,2.29,6.09,10.43,5.91,21.13.39,31.54-12.27,23.13-31.64,35.45-57.91,36.73-4.88-.55-9.45-2.28-14.1-3.72-.66-.52-1.31-1.05-2-1.56-10.18-7.62-14-17.69-11.63-30.17A25.21,25.21,0,0,0,273.84,263.39Z"/><path class="cls-4" d="M273.86,724.61c-13,.48-24.68-8.09-26.52-24.65a48.54,48.54,0,0,1,5.27-28.1c13.55-26.07,34.44-43.15,63-50.65,4.28-1.12,4.36-1,5-5.58,1.4-10.24,2.65-20.5,4.11-30.73,2.16-15.09,4.44-30.17,6.66-45.25a139.11,139.11,0,0,1,16.75-3.84,21.89,21.89,0,0,1,2.49-.41c3-.19,3.82.52,3.46,3.38-1,7.69-2.09,15.38-3.11,23.07-1.3,9.86-3.25,19.64-4.11,29.57A64.94,64.94,0,0,1,343.28,603c-4,9.72-6.59,19.89-10.24,29.72a5.66,5.66,0,0,0-1,.09c-26.14,8.45-45.73,24.83-57.93,49.4C267.3,696,265.71,710.44,273.86,724.61Z"/><path class="cls-4" d="M318.32,470.25c4.48-2.6,9.61-3,14.47-4.33,3.58-1,7.2-1.89,10.78-2.89,2.57-.71,4.06-2.07,4.94-5a46.55,46.55,0,0,0,1.61-10.89c1.92-39.09,5.11-78.06,11.65-116.69,1.12-6.64,1.63-13.46,4-19.85,6.34-.66,12.59-2.61,19.06-1.36-1.43,11.76-2.82,23.53-4.3,35.29-3.34,26.56-6.12,53.17-8.13,79.87-.1,1.16-.4,2.27.7,2.86a.66.66,0,0,0,.78-.1s-2,22.45-2.37,31.75a32.73,32.73,0,0,1-1.48,9.26c-1,3.07-2.6,4.51-5.36,5.23q-9.06,2.37-18.16,4.66a283.14,283.14,0,0,0-27.14,8.55C319,480.81,318.67,475.53,318.32,470.25Z"/><path class="cls-4" d="M273.83,263.4a22.64,22.64,0,0,1-.09,3.5c-2.36,12.48,1.44,22.55,11.63,30.18.66.5,1.31,1,2,1.55a37.6,37.6,0,0,1-2.92,9.7,236.36,236.36,0,0,1-42,64.46c-3.18,3.47-6.67,6.71-9.14,10.88a16,16,0,0,0,1.84,1.42c8.15,4.57,15.77,10,23.68,14.89,10.93,6.81,21.68,13.92,33.5,19.19l.57,3.19c-.25.19-.49.39-.73.6-6.25-4.65-14-6.72-20.86-10.23.81-2.42-1.25-2.83-2.63-3.6-6.55-3.55-15-7.82-21.33-11.8-12.34-7.75-32.84-21.52-34-22.51a8,8,0,0,1-1.57-1.43c2.56-4.14,6.13-7.51,9.41-11.1a240.69,240.69,0,0,0,41.54-63.53c5.74-12.7,2.84-24.49-3.49-35.86a42.66,42.66,0,0,0-8.74-11.17,26,26,0,0,1-3.19-2.92c.3,0,2.89,1.14,3.14,1A46.9,46.9,0,0,1,273.83,263.4Z"/><path class="cls-4" d="M521.11,719.09c20.33-3.87,41.16-7,61.59-7.85.95-1.66.2-2.76-.21-3.79-4.62-11.67-6.36-23.9-7-36.31-1.11-22.38-.43-44.78-.57-67.17,0-.92-.27-2,.84-2.59,1-.06,1,.81,1.19,1.35,5.38,15.54,11.48,30.81,17.45,46.13.92,2.36,1.63,4.81,2.44,7.21-.94,9.68-.14,19.32.41,29A108.28,108.28,0,0,0,604,717.8c1.31,3.41,1.12,3.63-2.17,3.81a440.9,440.9,0,0,0-80,11.92C521.41,733.64,520.9,719.66,521.11,719.09Z"/><path class="cls-1" d="M395,419.19A270,270,0,0,1,433,412c4.64-.56,4.72-.6,5.19-5.06,1.32-12.46,2.48-25,3.86-37.42,1.7-15.33,3.91-30.59,6.47-45.81a3.21,3.21,0,0,1,1.49-2.62,57.23,57.23,0,0,1,15.83,20.84c-.13,7.09-1.94,14-2.6,21-.75,8-1.94,16-2.83,24-.54,4.87-.5,9.77-1.11,14.59-.84,6.68-2,13.31-1.8,20.06-10.33,1.81-20.78,3-31,5.39-10.55,2.51-21.12,4.95-30.89,9.88a7.78,7.78,0,0,1-1.71.32c-.19-5.52,1.14-10.83.68-16.19C394.69,420.36,394.87,419.77,395,419.19Z"/><path class="cls-1" d="M271.84,411.79c6.87,3.51,14,6.52,20.28,11.16-3.07,7-7.33,13.36-11,20-10.4,18.71-19,38.28-27.77,57.77-1.51,3.36-2.68,6.91-5.08,10.48L228.34,499c11.29-26.71,23.28-53.11,38.06-78.14Q269.15,416.36,271.84,411.79Z"/><path class="cls-4" d="M232.67,794.2a129.4,129.4,0,0,0,56.48,1.3c10.34-2,20.55-4.44,30.12-9,4.2-2,4.12-2.06,3.79-6.5q-1.57-20.78-3.09-41.59a17.07,17.07,0,0,1,0-5.57l9-3.42c2.2,6,4.17,12.08,7.15,17.78,1.81,3.44,4.71,6.16,6.19,9.8-.46,4.08.52,8.1.76,12.14.43,7.28.89,14.54,1.62,21.79.28,2.84-.59,4.33-3.11,5.53-9.42,4.47-19.41,7.06-29.57,9.12-17,3.44-34,3.88-51,.38C250.91,803.84,241.18,800.38,232.67,794.2Z"/><path class="cls-4" d="M301.43,302.34c26.26-1.29,45.63-13.61,57.91-36.74,5.52-10.39,5.69-21.09-.4-31.54-.43-.73-.73-1.52-1.09-2.28,4.52.71,9,1.61,13,3.88,11.8,6.61,16.86,20.11,12.66,33.76a49.53,49.53,0,0,1-7.33,14.41A98.78,98.78,0,0,1,363,298.48c-8,0-15.64,2.14-23.4,3.6-9.93,1.87-19.49,5.16-29.34,7.36C307.19,307.28,303.55,305.76,301.43,302.34Z"/><path class="cls-3" d="M468.49,458.35a5.59,5.59,0,0,1,4.53-.43c4.22,1.07,4.33,1.43,3.87,5.84-.41,3.87-1.62,7.64-1.25,11.59-2,4.06-1.79,8.56-2.49,12.86-.42,2.52-1.19,3.8-3.94,4.23a140.3,140.3,0,0,0-13.89,3c-5.58,1.47-19.62,5.13-31.49,9.09-9,3-16.79,6.59-18.37,7.13-2.87,1-5.72,2.05-8.51,3.24-1.76.74-3,.5-3.57-1.37-1.22-4.09-2.9-8.75,1-11.92S466.28,459.41,468.49,458.35Z"/><path class="cls-4" d="M100.46,505.82c18.23,2.06,36.29,5.14,54.33,8.36,3.46.62,7,1.09,11,1.71-5.14-24.83-5.5-49.43-4.76-74,2-.54,2.59.76,3.22,1.6,5.17,7,10.68,13.62,16.5,20.06a23.34,23.34,0,0,1,1.92,3c-.88,5.72-.4,11.48-.19,17.22.47,13.54,1.58,27,4.55,40.31a8.33,8.33,0,0,1-.08,1.77c-5.49-.09-10.72-1.38-16-2.31-21.35-3.78-42.72-7.28-64.35-9-.34,0-.69,0-1-.09-4.61-.51-4.6-.51-4.95-5.09-.06-.82-.25-1.65-.39-2.47C100.34,506.5,100.4,506.17,100.46,505.82Z"/><path class="cls-4" d="M417.5,506.82c9.2-4.5,28-8.78,37.82-11.37a140.3,140.3,0,0,1,13.89-3c2.73-.43,3.52-1.71,3.93-4.23.72-4.3.49-8.81,2.49-12.86,4.74-2.2,9.52-4.37,14.23-6.64,1.75-.84,3.35-1.43,5.28-.48,4.38,2.16,3.87,1.64,3.24,5.49-1.39,8.34-2.73,16.69-3.86,25.07-.33,2.47-1.33,3.37-3.72,3.82a228.37,228.37,0,0,0-23.19,5.5c-9.71-4.12-20-4.11-30.22-3.87-7.24.45-12.83,3.73-17.54,4.94C419.85,509.16,416.45,507.78,417.5,506.82Z"/><path class="cls-4" d="M632.15,538.91a124.2,124.2,0,0,1-1.22,22.92c-1.55-2.56-3.15-5.06-4.64-7.64a390.87,390.87,0,0,0-42.91-60.88c-1-1.14-2.22-2.14-2.43-3.77,6.41-3.56,10.49-.56,15,4.18A357.5,357.5,0,0,1,632.15,538.91Z"/><path class="cls-4" d="M509.31,237.05a39.79,39.79,0,0,1,0,13.77c-1.79.66-2.28-.49-2.85-1.18-14.07-17-28.16-34-43.25-50.1a13,13,0,0,1-1.15-1.67c4.14-2.64,7.4-1.87,11.21,1.43,12,10.37,22.48,22.06,32.57,34.15C506.87,234.75,507.71,236.29,509.31,237.05Z"/><path class="cls-4" d="M457.43,421.56c-.16-6.75,1-13.38,1.8-20.05.62-4.82.57-9.72,1.11-14.59.89-8,2.08-16,2.83-24,.65-7,2.47-13.92,2.6-21,1.79,1.29,1.93,3.37,2.49,5.22-2.19,8.39-2.83,17-3.87,25.58-1.62,13.3-2.79,26.65-4.18,40-.23,2.36-.57,4.71-.88,7.07C459.2,420.88,458.79,421.74,457.43,421.56Z"/><path class="cls-1" d="M407.83,684c-2.42,2.87-5.91,3.85-9.24,5-2.76.92-7.21-1.64-9.27-5-2.27-3.71-2.93-7.87-3.22-12.15A116.4,116.4,0,0,1,393.46,623a248.88,248.88,0,0,1,15.12-33.25c1.79-3.25,4.15-6.18,6.07-9.37,2.89-4.82,7.19-6.28,12.52-5.85,4,.32,5.64,1.43,6.88,5.46a35.24,35.24,0,0,1,1.49,11.52A46.81,46.81,0,0,0,430,600,235,235,0,0,0,412,641.9,107.28,107.28,0,0,0,407.83,684Z"/><path class="cls-4" d="M422.42,508.14l-.1,0Z"/><path class="cls-5" d="M414.72,487.27s0,0,0,0l0,0Z"/><path class="cls-5" d="M411.64,489.26l0,0,0,.05Z"/><path class="cls-5" d="M439.16,472.92l-.06,0s0,0,0,0Z"/><path class="cls-5" d="M123.16,273.21s0,0-.07,0,0,0,0,0Z"/><path class="cls-5" d="M126.21,271.16h0s0,0,0,0Z"/><path class="cls-5" d="M408.57,491.27h-.05a.13.13,0,0,0,0,.05Z"/><path class="cls-5" d="M396.31,500.43h-.07s0,0,0,.05Z"/><path class="cls-5" d="M760.1,362.11c-33.37,12-68.05,19.43-102.13,28.93-7.06,2-14.23-2.75-15.74-10a38,38,0,0,1-.43-4,15.43,15.43,0,0,1-11.38.14,12.08,12.08,0,0,1-5.3-5.85c-1.43-5.12-1.89-7.85-.64-13.54,3.84-17.35,7.17-34.81,10.75-52.2,3.89-18.87,7.95-37.72,11.76-56.61,5.85-29,11.53-58.06,17.34-87.08Q675.63,105.48,687,49.05c.63-3.14,1.91-6.15,1.9-9.42-2.11-.06-4,.92-5.87,1.54Q631.17,57.84,579.37,74.59,336.19,153,93.1,231.51c-6.64,2.14-6.61,2.14-7.6,9.21q-4.43,31.75-8.89,63.5Q70.82,345.31,65,386.38q-4.85,34.53-9.66,69.05Q50,493.73,44.58,532c-3.25,23-6.57,46-9.69,69.06-1.25,9.22-3.09,18.39-3.57,27.73,9.3-3.17,18.48-6.74,27.9-9.42,17.1-4.87,33.71-11.28,50.7-16.44,3.69-1.13,7.16-2.87,11.21-2.7,6.06.27,11.55,4.24,13,9.63,0,0,5.54-2.11,8.64-2.87,8.61-2.13,16.3,3.34,16.76,12.17.14,2.88-.51,37.42-1.11,47.27-1,16.78-2.38,33.51-3.49,50.27-1.46,22-2.27,44.09-3.36,66.13-.87,17.64-1.9,35.27-2.62,52.91-.49,12.22-1.74,24.39-1.46,36.63q45.73-9.46,91.48-18.9c16.41-3.36,32.88-6.48,49.29-9.88,24.54-5.07,49-10.32,73.57-15.44q32.29-6.75,64.6-13.38,39-8,78.11-15.92c13.59-2.78,27.15-5.77,40.79-8.34,14.47-2.73,28.82-6,43.24-9.06q30.06-6.3,60.1-12.52,43.5-9,87-17.83c4.81-1,5.74-2.49,6.42-7.48,1.51-11.16,1.79-22.44,3.14-33.63.58-4.74.64-9.67,1.05-14.48.64-7.35,1.27-14.71,2-22,.49-5.06,1.37-10.17,1-15.34-.19-2.82.65-5.64.83-8.5.57-9.81,1.47-19.61,2.33-29.39.62-7,1.25-14,1.92-21,.49-5.05.9-10.24,1.22-15.36.41-6.79,1.14-13.61,1.68-20.41.41-5.43,1.18-10.81,1.3-16.3.15-6.86,1.38-13.7,1.73-20.56.27-5.46.91-10.9,1.38-16.3.6-6.81,1.06-13.64,1.67-20.44.47-5.44,1.14-10.85,1.3-16.35.19-6.87,1.41-13.7,1.89-20.56.36-5.27,1.41-10.5,1.07-15.81-.14-2.38.56-4.68.83-7,1.09-9.25,1.71-18.55,2.44-27.8s1.56-18.52,2-27.81c.27-5.42.77-10.92,1.3-16.38A80,80,0,0,0,760.1,362.11ZM98.83,325.36c.24-1,8.2-34.88,8.21-35,1-4.66,2.28-7.82,8.49-12s19.49-12.62,22.41-14.27c11.93-6.71,23.83-13.42,36.55-18.54,1.43-1.89,20.21-5.8,27.66-6.53a79.34,79.34,0,0,1,19.11,0c5.68.83,11.42,1,16.71,3.62,2.39,1.2,8.28,5,9.73,6.59,9.18,2.22,19.61,7.32,26.11,14.12,3.3-5.85,5.52-12.29,9.68-17.7,3.74-4.85,7.79-9.26,13.15-12.45,4.49-2.68,8.56-6,13.39-8.15a29.86,29.86,0,0,1,11.7-2.87c4-.07,8.12-.55,12.12-.61,7.72-.11,15,2.14,20.9,7.59,1,.91,1.78,2.06,3.1,2.57,4.52.71,9,1.62,13,3.88,11.8,6.62,16.86,20.11,12.66,33.76a49.59,49.59,0,0,1-7.33,14.42A99.28,99.28,0,0,1,363,298.47c3.81,1.47,4.15,1.82,3.42,5.21a21.11,21.11,0,0,0-.69,6.89c6.34-.67,12.59-2.62,19.08-1.37,2.35-13.14,4.25-26.35,7.06-39.43.84-3.92,9.36-61.67,9.37-62.51.08-3.47,1.75-5.29,5.06-6.61,12.21-4.88,24.55-9.42,36.83-14.16a5.77,5.77,0,0,1,6.49,1c2.84,2.39,5.58,4.88,8.39,7.31,1.25,1.08,2.13,2.68,4,3,4.14-2.65,7.41-1.87,11.21,1.43,12,10.37,22.48,22.05,32.57,34.15,1.08,1.29,1.9,2.82,3.5,3.6,1.95-3.14,1.89-6.71,2.17-10.2,1-12.62,2-25.22,2.92-37.84a77.64,77.64,0,0,0,.13-9.15,6.46,6.46,0,0,1,3.6-6.22c16.8-9.83,33.25-20.2,50.62-29.06,11.59-5.93,23.52-11.14,35.31-16.64,2.85-1.33,5.42-3.34,9.14-3a24.57,24.57,0,0,1-1.66,9.18c-1.22,3.11-1.25,6.58-3.12,9.48-.31.48,0,1.32,0,2,5.09-1.46,9.44-4.58,14.36-6.42,3.92-1.47,7.79-3.09,11.67-4.65,1,1.73.13,2.94-.24,4.16a1305.28,1305.28,0,0,0-32.64,129.09,790.21,790.21,0,0,0-11.91,80.47c-1.48,15.88-2.84,31.76-1.36,47.72.25,2.7-.78,4.19-3.05,5.74-15.49,10.69-31.28,21-45.7,33.13-.25.22-.52.43-.79.63-5,3.89-5,3.82-7.88-1.85-2.24-4.36-4.53-9.55-7.32-13.6,0,0-7.8,5.67-9.7,8.65-.73,1.14-2.27.19-2.8-1-7.32-16.58-16.09-32.44-24.15-48.66-4.74-9.54-10.14-18.77-15.31-28.11-.79-1.44-1.46-3.12-3.23-3.78-2.19,8.39-2.83,17-3.88,25.6-1.61,13.3-2.78,26.65-4.16,40-.24,2.36-.58,4.71-.89,7.07-.15,1.11-.58,2-1.92,1.79-10.33,1.81-20.78,3-31,5.4-10.55,2.5-21.11,4.94-30.89,9.87a7.23,7.23,0,0,1-1.71.32c-.19-5.52,1.66-12.6,1.2-18-7.25,1.51-14.37,5-21.11,8-1.71,10.19-2,21.43-2.41,31.72a32.66,32.66,0,0,1-1.47,9.26c-1,3.08-2.6,4.52-5.36,5.23q-9.07,2.38-18.16,4.66a282.25,282.25,0,0,0-27.14,8.55c-.38-5.77-.72-11.07-1.07-16.35a55.75,55.75,0,0,0-16.68,5.55c-3.3,1.81-4.09,1.19-4.13-2.58-.08-12-1.63-23.88-2.93-35.8-.54-5-.75-10.09-1.75-15.07-.25.19-.49.4-.72.6-3.07,7-7.33,13.35-11,20-10.4,18.71-19,38.28-27.77,57.76-1.51,3.36-2.68,6.92-5.08,10.49L228.31,499c-.84,1.51-2,1.65-3.4.8-7.41-4.65-15.54-8.23-21.78-14.59-6-6.15-13-11.28-18.78-17.72a6.18,6.18,0,0,0-1.73-1c-.87,5.73-.39,11.48-.19,17.22.48,13.54,1.59,27,4.56,40.31a9.18,9.18,0,0,1-.08,1.78c-5.49-.1-10.73-1.39-16-2.32-21.31-3.74-42.69-7.26-64.31-9-.34,0-.69,0-1-.09-4.62-.51-4.6-.51-4.95-5.09-.06-.82-.06-2.66-.2-3.48-5.16-.53-13.73-1.27-17.79-1.91-2.49-.16-3.42-1.46-3.42-4,0-8.63-1.38-17.22-.94-25.88.7-13.51,1.32-27,2.7-40.48,1-9.93,2-19.84,3.28-29.73,1.54-12.07,3.7-24,5.73-36,1.38-8.17,2.95-16.29,4.44-24.44m375,114.34a17.1,17.1,0,0,1,3.52.18c4.22,1.06,4.33,1.42,3.87,5.83-.41,3.87-1.61,7.65-1.25,11.59,4.74-2.2,9.51-4.37,14.24-6.64,1.75-.84,3.35-1.43,5.29-.48,4.37,2.16,3.86,1.64,3.23,5.49-1.39,8.34-2.73,16.7-3.85,25.07-.33,2.47-1.34,3.38-3.73,3.82a229,229,0,0,0-23.19,5.5c4.49,1.64,7.92,4.85,11.67,7.61,17,3.05,27.83,13.15,33.25,29.27,1.51,4.49,2.89,9,4.77,13.36,1.35-5.64,1.26-11.36,1.27-17.1,0-9.78.13-19.58.13-29.36,0-5.57,1.24-11.05.79-16.64a2.82,2.82,0,0,1,2.42-3.29c-.23-1.4,39-12.74,41.17-13.71,3.23-1.47,5.55-.9,8,1.78,3.08,3.36,6.06,6.87,9.85,9.52,6.41-3.56,10.49-.56,15,4.18a358.75,358.75,0,0,1,36.18,45.19c.78-2,.59-4,.6-6q.1-24.33.16-48.65c0-1.34,0-2.71,0-4.05.23-3.42,1.29-6.22,5-7.38,1.6-.49,22.19-9.26,26.91-11.38,7.21-3.24,14.72-5.6,22.1-8.31,9.23-3.38,18.62-6.31,28-9.39a31.28,31.28,0,0,1,4-.79c.49-.41-5.51,17.88-5.51,17.88,6.86-1.3,15.46-4.72,22.14-6.53,1.6-.43,3.18-1,4.68-1.44.95,1.27.1,2.11-.23,3C727.8,487.3,720.33,520,715.21,553.26c-6.46,41.93-8.3,84.1-6.87,126.44.25,7.33,0,14.59-.49,21.87-.18,2.66-1,4.1-3.77,5.12-18.2,6.61-36,14.22-53.46,22.52-3.74,1.77-3.74,1.71-5.3-2.13-1.72-4.24-3.49-8.47-5.23-12.7-3.55.73-6.49,2.87-9.75,4.27-4.32,1.82-5,1.52-6.78-2.81-7-17.28-14.54-34.35-22.4-51.27-1.33-2.86-1.76-6.24-4.29-8.53-.94,9.67-.14,19.31.41,29A108.28,108.28,0,0,0,604,717.79c1.31,3.41,1.12,3.63-2.18,3.8a440.8,440.8,0,0,0-80,11.93c-.48.11-.29-10.06-.78-14.43-5.55,1.1-22.23,6.42-21.87,2.63-.36-8,.92-12.49,1.6-19.53.3-3.05.73-6.05.21-9.09-4.51,7.36-8.95,14.76-13.55,22.06-11.59,18.39-25.57,34.66-43.53,47.15-14.84,10.33-31.26,16.18-49.53,16-9-.11-17.54-1.76-25-7.23a15.47,15.47,0,0,1-3.79-3.33c-9-1-16.18-5.79-23.3-10.77-.46,4.09.52,8.11.76,12.15.43,7.28.89,14.54,1.62,21.79.28,2.84-.59,4.33-3.11,5.53-9.42,4.47-19.42,7.06-29.57,9.12-17,3.44-34,3.88-51,.38-10.16-2.09-19.89-5.55-28.4-11.73-8-2.81-15.77-6.05-22.92-10.79-12.31-8.15-20.59-19.44-26.41-32.73-8-18.22-10.42-37.4-9.16-57.1a107.18,107.18,0,0,1,4.33-23.38,215,215,0,0,1,25.64-55.66c6.61-10.27,15.07-19.07,23.71-27.6a333.24,333.24,0,0,1,58.7-46.53c11.61-7.17,24.1-12.36,37.71-14.44,1.5-.22,3-.73,4.47-.91,3.3-.38,4.25.72,3.82,4-.46,3.5-.81,7-1.2,10.54a140.6,140.6,0,0,1,16.75-3.84,23.49,23.49,0,0,1,2.49-.41c3-.19,3.82.52,3.45,3.38-1,7.69-2.09,15.38-3.1,23.07-1.3,9.86-3.26,19.64-4.1,29.57,1.37-.41,1.46-1.73,1.91-2.78a181.46,181.46,0,0,1,19-34.56,144.11,144.11,0,0,1,29.2-30.7c7.26-5.61,14-9.41,23-14.15a25.11,25.11,0,0,1-2.35-2.34c-6.26,2.49-8.4,3.55-12.05,4.8-2.87,1-5.73,2-8.52,3.24-1.76.74-3,.51-3.57-1.37-1.22-4.08-2.36-8.21,1-11.9"/><path class="cls-5" d="M398.38,498.4s0,0,0,0,0,0,0,.06Z"/><path class="cls-5" d="M405.5,493.3l-.05,0s0,0,0,.05Z"/><path class="cls-5" d="M403.45,495.31h-.06a.43.43,0,0,1,0,.05Z"/><path class="cls-5" d="M328.62,654.07c1.37-7.13,3-14.22,4.46-21.34a5.77,5.77,0,0,0-1,.09c-26.14,8.46-45.72,24.84-57.92,49.39-6.84,13.79-8.44,28.2-.27,42.38,6.42-.05,12.83.54,19.25-.62,7.13-1.27,13.09-5.16,19.56-7.85,1.56-.65,3.24-2.3,4.54-2,2.93.63.43,3.09.84,4.71a79.42,79.42,0,0,1,1.93,14l9-3.43c-3.7-15.87-5.95-31.82-4.2-48.22C325.78,672.08,326.89,663,328.62,654.07Z"/><path class="cls-5" d="M429.94,600A235.26,235.26,0,0,0,412,641.88a107.18,107.18,0,0,0-4.2,42.15,3.93,3.93,0,0,0,2.41-1.74c4-6.1,8.39-12,10.93-18.89,6.18-16.79,13.35-33.3,14.19-51.65a162.77,162.77,0,0,0,.18-20.24A47.59,47.59,0,0,0,429.94,600Z"/><path class="cls-5" d="M258.77,400c10.93,6.8,21.69,13.92,33.5,19.18.54-3.77-.73-7.38-.95-11.08-.52-8.43-1.58-16.81-2.36-25.21-1.08-11.77-1.7-23.58-2.79-35.34-.64-6.89-.65-13.83-1.84-20.68-.86-4.92-.34-5.53,4.12-7.91,7-3.76,14.7-6.06,21.87-9.49-3.12-2.17-6.77-3.67-8.88-7.11-4.88-.56-9.45-2.29-14.1-3.73a37.22,37.22,0,0,1-2.92,9.7,236.13,236.13,0,0,1-42,64.46c-3.17,3.47-6.66,6.71-9.14,10.88a18.33,18.33,0,0,0,1.84,1.42C243.25,389.64,250.86,395.05,258.77,400Z"/><path class="cls-4" d="M193.81,310a37.48,37.48,0,0,0-9.17,2.71,158.27,158.27,0,0,0-27.66,17c-1.24.92-2.46,1.81-2.43,3.62.1,7.78-.62,15.6,1,23.32.59,2.76,1.27,3.11,3.84,1.49,4.73-3,9.52-5.91,13.48-9.92,1.07-1.08,3.56-7.5,10.49-11.83s10.42-12,14.65-20.52C199.68,312.52,197.93,310.05,193.81,310Z"/></g></g></svg>