<svg xmlns="http://www.w3.org/2000/svg" viewBox="0 0 53.1 56"><defs><style>.cls-1{fill:#e9416a;}.cls-2{fill-rule:evenodd;}.cls-3{fill:#ffe97a;}</style></defs><g id="Capa_2" data-name="Capa 2"><g id="Capa_1-2" data-name="Capa 1"><g id="facebook"><path d="M27.52,56A25.59,25.59,0,1,1,53.1,30.41,25.59,25.59,0,0,1,27.52,56Z"/><path class="cls-1" d="M25.1,51.17A25.34,25.34,0,0,1,0,25.59,25.35,25.35,0,0,1,25.1,0,25.35,25.35,0,0,1,50.21,25.58,25.35,25.35,0,0,1,25.1,51.17Z"/><path class="cls-2" d="M1.68,25.59h0A23.65,23.65,0,0,0,25.1,49.46,23.65,23.65,0,0,0,48.52,25.58,23.64,23.64,0,0,0,25.1,1.72,23.65,23.65,0,0,0,1.68,25.59ZM0,25.59A25.35,25.35,0,0,1,25.1,0,25.35,25.35,0,0,1,50.21,25.58,25.35,25.35,0,0,1,25.1,51.17,25.34,25.34,0,0,1,0,25.59Z"/><path class="cls-3" d="M33.62,31.33l1.09-7.18H27.9V19.48c0-2,1-3.88,4-3.88H35V9.49A37,37,0,0,0,29.51,9c-5.61,0-9.28,3.44-9.28,9.67v5.48H14v7.18h6.23V48.7a24.66,24.66,0,0,0,7.67,0V31.33Z"/></g></g></g></svg>