<svg xmlns="http://www.w3.org/2000/svg" viewBox="0 0 53 56.5"><defs><style>.cls-1{fill:#e9416a;}.cls-2{fill-rule:evenodd;}.cls-3{fill:#ffe97a;}</style></defs><g id="Capa_2" data-name="Capa 2"><g id="Capa_1-2" data-name="Capa 1"><g id="ig"><path d="M27.86,56.5C14,56.5,2.71,45,2.71,30.78S14,5.07,27.86,5.07,53,16.58,53,30.78,41.74,56.5,27.86,56.5Z"/><path class="cls-1" d="M25.14,51.43C11.26,51.43,0,39.92,0,25.72S11.26,0,25.14,0,50.29,11.51,50.29,25.71,39,51.43,25.14,51.43Z"/><path class="cls-2" d="M48.6,25.71h0c0-13.24-10.5-24-23.46-24S1.69,12.47,1.69,25.72s10.5,24,23.45,24S48.6,39,48.6,25.71ZM0,25.72c0,14.2,11.26,25.71,25.14,25.71S50.29,39.92,50.29,25.71,39,0,25.14,0,0,11.51,0,25.72Z"/><path class="cls-3" d="M25.14,14.16c3.69,0,4.12,0,5.57.08a7.46,7.46,0,0,1,2.56.48,4.31,4.31,0,0,1,1.59,1.06,4.36,4.36,0,0,1,1,1.62A8.12,8.12,0,0,1,36.37,20c.06,1.48.08,1.93.08,5.69s0,4.21-.08,5.7A7.91,7.91,0,0,1,35.89,34a4.36,4.36,0,0,1-1,1.62,4.31,4.31,0,0,1-1.59,1.06,7.46,7.46,0,0,1-2.56.48c-1.45.07-1.89.08-5.57.08s-4.11,0-5.57-.08A7.58,7.58,0,0,1,17,36.71a4.36,4.36,0,0,1-1.58-1.06,4.12,4.12,0,0,1-1-1.62,7.85,7.85,0,0,1-.48-2.62c-.07-1.49-.08-1.93-.08-5.7s0-4.21.08-5.69a7.85,7.85,0,0,1,.48-2.62,4.12,4.12,0,0,1,1-1.62A4.36,4.36,0,0,1,17,14.72a7.58,7.58,0,0,1,2.56-.48C21,14.17,21.46,14.16,25.14,14.16Zm0-2.54c-3.74,0-4.21,0-5.68.08a10.22,10.22,0,0,0-3.35.65A7,7,0,0,0,13.67,14a6.81,6.81,0,0,0-1.59,2.5,10.67,10.67,0,0,0-.64,3.42c-.07,1.51-.08,2-.08,5.81s0,4.31.08,5.82A10.67,10.67,0,0,0,12.08,35a6.89,6.89,0,0,0,1.59,2.5,6.64,6.64,0,0,0,2.44,1.62,9.94,9.94,0,0,0,3.35.66c1.47.07,1.94.08,5.68.08s4.22,0,5.69-.08a9.82,9.82,0,0,0,3.34-.66,6.8,6.8,0,0,0,2.45-1.62A7,7,0,0,0,38.21,35a10.67,10.67,0,0,0,.64-3.42c.06-1.51.08-2,.08-5.82s0-4.3-.08-5.81a10.61,10.61,0,0,0-.64-3.42A7.07,7.07,0,0,0,36.62,14a6.83,6.83,0,0,0-2.45-1.63,10.1,10.1,0,0,0-3.34-.65C29.36,11.63,28.89,11.62,25.14,11.62Z"/><path class="cls-3" d="M25.14,18.48a7.24,7.24,0,1,0,7.08,7.24A7.16,7.16,0,0,0,25.14,18.48Zm0,11.94a4.7,4.7,0,1,1,4.6-4.7A4.65,4.65,0,0,1,25.14,30.42Z"/><path class="cls-3" d="M34.16,18.19A1.66,1.66,0,1,1,32.5,16.5,1.68,1.68,0,0,1,34.16,18.19Z"/></g></g></g></svg>