<svg xmlns="http://www.w3.org/2000/svg" viewBox="0 0 53.1 56"><defs><style>.cls-1{fill:#e9416a;}.cls-2{fill-rule:evenodd;}.cls-3{fill:#ffe97a;}</style></defs><g id="Capa_2" data-name="Capa 2"><g id="Capa_1-2" data-name="Capa 1"><g id="twich"><path d="M27.52,56A25.59,25.59,0,1,1,53.1,30.41,25.59,25.59,0,0,1,27.52,56Z"/><path class="cls-1" d="M25.1,51.17A25.34,25.34,0,0,1,0,25.59,25.35,25.35,0,0,1,25.1,0,25.35,25.35,0,0,1,50.21,25.58,25.35,25.35,0,0,1,25.1,51.17Z"/><path class="cls-2" d="M1.68,25.59h0A23.65,23.65,0,0,0,25.1,49.46,23.65,23.65,0,0,0,48.52,25.58,23.64,23.64,0,0,0,25.1,1.72,23.65,23.65,0,0,0,1.68,25.59ZM0,25.59A25.35,25.35,0,0,1,25.1,0,25.35,25.35,0,0,1,50.21,25.58,25.35,25.35,0,0,1,25.1,51.17,25.34,25.34,0,0,1,0,25.59Z"/><path class="cls-3" d="M13,36.67V18.4L14.72,14H38V29.73l-6.88,6.94H26l-3,3.33h-3.7V36.67Z"/><path class="cls-1" d="M17,32.45V16H36V28.58l-3.91,3.87H25.76L22.39,36V32.45Z"/><rect class="cls-3" x="30" y="20" width="2" height="8"/><rect class="cls-3" x="23" y="20" width="2" height="8"/></g></g></g></svg>