<svg xmlns="http://www.w3.org/2000/svg" viewBox="0 0 53.1 56"><defs><style>.cls-1{fill:#e9416a;}.cls-2{fill-rule:evenodd;}.cls-3{fill:#ffe97a;}</style></defs><g id="Capa_2" data-name="Capa 2"><g id="Capa_1-2" data-name="Capa 1"><g id="twitter"><path d="M27.52,56A25.59,25.59,0,1,1,53.1,30.41,25.59,25.59,0,0,1,27.52,56Z"/><path d="M14.48,38.14A16.12,16.12,0,0,0,23,40.55,15.39,15.39,0,0,0,38.75,24.6a11.26,11.26,0,0,0,2.77-2.78,11.38,11.38,0,0,1-3.19.85,5.42,5.42,0,0,0,2.44-3A11.44,11.44,0,0,1,37.25,21a5.66,5.66,0,0,0-4-1.69,5.41,5.41,0,0,0-5.4,6.58,16,16,0,0,1-11.44-5.6,5.27,5.27,0,0,0,1.72,7.16,5.71,5.71,0,0,1-2.51-.67A5.42,5.42,0,0,0,20,32.11a5.86,5.86,0,0,1-2.51.09,5.52,5.52,0,0,0,5.18,3.72A11.38,11.38,0,0,1,14.48,38.14Z"/><path class="cls-1" d="M25.1,51.17A25.34,25.34,0,0,1,0,25.59,25.35,25.35,0,0,1,25.1,0,25.35,25.35,0,0,1,50.21,25.58,25.35,25.35,0,0,1,25.1,51.17Z"/><path class="cls-2" d="M1.68,25.59h0A23.65,23.65,0,0,0,25.1,49.46,23.65,23.65,0,0,0,48.52,25.58,23.64,23.64,0,0,0,25.1,1.72,23.65,23.65,0,0,0,1.68,25.59ZM0,25.59A25.35,25.35,0,0,1,25.1,0,25.35,25.35,0,0,1,50.21,25.58,25.35,25.35,0,0,1,25.1,51.17,25.34,25.34,0,0,1,0,25.59Z"/><path class="cls-3" d="M11.59,34.17a15.55,15.55,0,0,0,8.5,2.52C30.38,36.69,36.2,27.9,35.85,20a11.4,11.4,0,0,0,2.77-2.9,10.7,10.7,0,0,1-3.19.88,5.56,5.56,0,0,0,2.44-3.1,11,11,0,0,1-3.52,1.36,5.5,5.5,0,0,0-4.05-1.77,5.59,5.59,0,0,0-5.4,6.88,15.66,15.66,0,0,1-11.43-5.85A5.64,5.64,0,0,0,15.18,23a5.48,5.48,0,0,1-2.51-.7,5.6,5.6,0,0,0,4.45,5.57,5.52,5.52,0,0,1-2.5.09,5.56,5.56,0,0,0,5.18,3.9A11.06,11.06,0,0,1,11.59,34.17Z"/></g></g></g></svg>