<svg xmlns="http://www.w3.org/2000/svg" viewBox="0 0 64.72 64.66"><defs><style>.cls-1{fill:#e84566;}.cls-2{fill:#fff;}</style></defs><g id="Capa_2" data-name="Capa 2"><g id="Capa_1-2" data-name="Capa 1"><path d="M2.1,64.66,1.88,7.44,64.72,3.73l-.79,57.88ZM6.52,11.59,6.7,60l52.65-2.6.67-49Z"/><path class="cls-1" d="M58.79,57.07,2.13,59.42,1.94,7.9,58.6,2Z"/><path d="M.22,61.3,0,6.3,60.5,0l.22,58.88ZM3.88,9.51l.17,48,52.8-2.2L56.67,4Z"/><path class="cls-2" d="M40.37,59c-7.57.32-16.67.93-24.24,1.25,0-.27,1-5.44,1-5.71,0-1.13,0-1.59-.06-2.72,0-.91-.06-1.82-.1-2.74a4.32,4.32,0,0,0-.37.92c-.49,1.73-1.09,2.08-1.59,3.75-.06.2-.67,1.33-.73,1.5a47.82,47.82,0,0,0-1.46,4.68c-2.49.11-4.49.4-7,.51-.18-.28,1-3,1.52-5,.57-1.69.75-1,1-1.67A79.92,79.92,0,0,0,10.6,46a19.26,19.26,0,0,0,.74-3.53,26.15,26.15,0,0,1,1.45-5.37,4,4,0,0,1,1.92-2.36,17.53,17.53,0,0,1,3.65-1.4,16.55,16.55,0,0,0,3.23-1,.85.85,0,0,0,.3-.19c.25-.48-.26-.58,0-1.15-.44.2,0,0-.35.1a1.45,1.45,0,0,1-.94.08,3.41,3.41,0,0,1-1.17-1,27.53,27.53,0,0,1-2.69-4.57A9,9,0,0,1,16,23.53a41.63,41.63,0,0,1-.45-4.16,7.31,7.31,0,0,1,1.23-5,9.82,9.82,0,0,1,4.5-3.78,15.34,15.34,0,0,1,6.38-.75c2.32,0,3.55,1.16,4.79,3,1.44,2.16,1,1.84,1.27,3a10.43,10.43,0,0,1,.09,5.32,9.89,9.89,0,0,1-2.38,4.9,4,4,0,0,0-1,2c.12.41-.14,2.09.07,2.43s1.39-.49,2-.55a6.47,6.47,0,0,1,3.59-.92,4.92,4.92,0,0,1,3,1.76,15.05,15.05,0,0,1,3,4.08,17.63,17.63,0,0,0,1.35,1.86c.72.9,2.21,2.81,3,3.75,0,.06-.94,1.54-.92,1.55,1.28-2.12,2.89-5.24,4.15-7.35a3.69,3.69,0,0,0,.42-.9c.26-.88.5-1.77.75-2.66a1.12,1.12,0,0,0-.57-1.49l-.09,0a6.78,6.78,0,0,0-.9-.3c.13-.49.18-.53.77-.42a.41.41,0,0,0,.33-.74,1,1,0,0,0-.23-.12c.26-.53.51-1,.73-1.51q2.19-4.86,4.37-9.73c.05-.12.11-.24.18-.37l.8.37c.62.31.65.39.47,1.07s-.07.84.5,1.14l.8.41c-.92,2.15-1.82,4.26-2.73,6.43.53-.42,1-.93,1.64-.68s.57,1,.61,1.62l.37-.07a.61.61,0,0,1,.77.39.47.47,0,0,1,0,.17,1.23,1.23,0,0,0,.58,1.07.75.75,0,0,1,.44.68.32.32,0,0,0,.12.22,1.33,1.33,0,0,1,.36,1.48.83.83,0,0,0,.28,1.14l.07,0A.79.79,0,0,1,60.74,33c-.26.59-.5,1.19-.79,1.77a6.59,6.59,0,0,1-.65,1,.54.54,0,0,1-.76.09l-.09-.09c-.23-.18-.45-.39-.69-.55a.47.47,0,0,0-.33,0l-1,.17a.46.46,0,0,0-.25.1,1.93,1.93,0,0,0-.46.53,32.73,32.73,0,0,0-1.55,3.28c-.62,1.64-1.75,3-2.29,4.62-.75,2.3-2.1,3.89-3.23,6.05A2,2,0,0,1,47,51.14c-1.21.17-2.41-1.28-3.48-2.17-1.7-1.1-2.14-1.83-3.83-3a4.94,4.94,0,0,0-.49-.3l-.19-.12c0,.09-.17.19-.17.28a4.7,4.7,0,0,0,0,.75c.16,1.35.34,2.71.51,4.05C39.52,51.36,40.26,58.3,40.37,59Z"/><path d="M36.75,59.56c-7.57.32-16.67.93-24.24,1.25,0-.28,1-5.5,1-5.77,0-1.15,0-1.61-.06-2.75,0-.93-.06-1.85-.1-2.78a4.48,4.48,0,0,0-.37.94c-.49,1.74-1.09,2.1-1.59,3.79-.06.2-.67,1.35-.73,1.53-.72,1.94-1.42,4.49-1.46,4.74-2.49.11-4.49.41-7,.52-.18-.29,1-3,1.52-5,.57-1.7.75-1,1-1.68A79.83,79.83,0,0,0,7,46.5a19.69,19.69,0,0,0,.74-3.57,27.64,27.64,0,0,1,1.45-5.44,4,4,0,0,1,1.93-2.4,17.66,17.66,0,0,1,3.64-1.4A16.1,16.1,0,0,0,18,32.62a.6.6,0,0,0,.3-.19c.26-.49-.26-.59,0-1.17-.43.2,0,0-.35.11a1.39,1.39,0,0,1-.94.09,3.41,3.41,0,0,1-1.17-1,28.4,28.4,0,0,1-2.69-4.62,9.18,9.18,0,0,1-.76-2.09c-.22-1.4-.37-2.81-.45-4.22a7.45,7.45,0,0,1,1.23-5,10,10,0,0,1,4.5-3.83A15.34,15.34,0,0,1,24,10c2.32,0,3.55,1.17,4.79,3,1.44,2.18,1,1.85,1.27,3a10.66,10.66,0,0,1,.09,5.38,10,10,0,0,1-2.38,5,4,4,0,0,0-.95,2c.12.4-.14,2.11.07,2.46s1.39-.49,2-.55a6.49,6.49,0,0,1,3.59-.94,5,5,0,0,1,3,1.78,14.92,14.92,0,0,1,3,4.14,17.75,17.75,0,0,0,1.35,1.87c.72.91,2.21,2.86,3,3.8,0,.07-.94,1.56-.92,1.57,1.28-2.14,2.89-5.31,4.15-7.43a4,4,0,0,0,.42-.92c.26-.89.5-1.79.75-2.69a1.15,1.15,0,0,0-.59-1.53l-.07,0a5.56,5.56,0,0,0-.9-.29c.13-.49.18-.53.77-.43a.4.4,0,0,0,.5-.23.38.38,0,0,0-.17-.51h0a1,1,0,0,0-.23-.13c.26-.52.51-1,.73-1.52q2.19-4.92,4.37-9.85c0-.12.11-.24.18-.37l.8.38c.62.31.65.39.47,1.06s-.07.86.5,1.16l.8.42c-.92,2.18-1.82,4.31-2.73,6.51.53-.42,1-.94,1.64-.69s.57,1,.61,1.64l.37-.08a.64.64,0,0,1,.78.44.59.59,0,0,1,0,.14,1.26,1.26,0,0,0,.58,1.09.73.73,0,0,1,.44.69.32.32,0,0,0,.12.22A1.35,1.35,0,0,1,56.6,31a.86.86,0,0,0,.3,1.18l.05,0a.79.79,0,0,1,.22,1.06c-.26.61-.5,1.22-.79,1.79a5.91,5.91,0,0,1-.65,1,.52.52,0,0,1-.73.16.4.4,0,0,1-.12-.1c-.23-.19-.45-.4-.69-.57a.47.47,0,0,0-.33,0c-.35.05-.69.12-1,.19-.1,0-.21,0-.26.09a1.88,1.88,0,0,0-.46.55,31.13,31.13,0,0,0-1.55,3.31c-.62,1.67-1.75,3-2.29,4.68-.75,2.33-2.1,3.94-3.23,6.12a2.1,2.1,0,0,1-1.56,1.21c-1.21.18-2.41-1.3-3.48-2.2-1.7-1.11-2.14-1.85-3.83-3-.16-.12-.33-.21-.49-.31l-.19-.12c-.05.09-.17.19-.17.27a5,5,0,0,0,0,.77c.16,1.37.34,2.74.51,4.11C35.89,51.86,36.63,58.85,36.75,59.56Z"/></g></g></svg>