<svg xmlns="http://www.w3.org/2000/svg" viewBox="0 0 64.61 64.5"><defs><style>.cls-1{fill:#e84566;}.cls-2{fill:#fff;}</style></defs><g id="Capa_2" data-name="Capa 2"><g id="Capa_1-2" data-name="Capa 1"><path d="M.36,64.5.14,5.59,64.61,1.77V62.93ZM4.7,9.69,4.89,60l55.2-1.36V6.37Z"/><path class="cls-1" d="M59.34,58.55,1.72,61,1.52,7.72,59.13,1.61Z"/><path d="M.21,62.52,0,6.43,60.61,0l.22,60ZM3,9l.2,50.46,54.59-2.31-.2-53.93Z"/><path class="cls-2" d="M50.12,57.74a34.09,34.09,0,0,0-3.78.11c-6.36,0-10.85,1.07-17.2,1.08-.35,0-.61,0-.72-.44-1.25-5.12-.47-3.12-1.74-8.22a10.57,10.57,0,0,1,.11-5,5.53,5.53,0,0,1,2.45-3.43,28.45,28.45,0,0,0,3.22-2.45,3,3,0,0,0,1.07-3.29,4.16,4.16,0,0,0-1.92-2.73,18.31,18.31,0,0,1-7.19-9.29,13.88,13.88,0,0,1-1-3.63,9.67,9.67,0,0,1,1-5.91,11.49,11.49,0,0,1,1.83-2.39,10.72,10.72,0,0,1,4.36-2.9,10,10,0,0,1,10.15,3.24,12.51,12.51,0,0,1,3.18,8.21c0,.53.1,1.07.11,1.59a16.16,16.16,0,0,1-4.12,11.52,1,1,0,0,0-.24.73,7,7,0,0,0,2.6,4.76c1.36,1,2.81,2,4.25,2.9A2.7,2.7,0,0,1,47.83,44c.73,4.27,1.48,8.54,2.1,12.83ZM33.61,27.25a9.09,9.09,0,0,0-2.27-4.94,8.45,8.45,0,0,0-1.88-1.7,1.81,1.81,0,0,0-3,1.29,7.34,7.34,0,0,0,.25,2.19,7.12,7.12,0,0,0,4.36,5.06C32.55,29.81,33.61,29,33.61,27.25Zm1.86-1.14a10.56,10.56,0,0,0,.15,1.11c.38,1.64,1.79,2.16,3.26,1.22,2.14-1.37,3.43-5.07,2.58-7.36a2.06,2.06,0,0,0-3.71-.7,8.74,8.74,0,0,0-2.26,5.73Z"/><path class="cls-2" d="M20.7,48.5c0-3.81.07-7.62,0-11.43a22.42,22.42,0,0,0-1.3-6.48,12.33,12.33,0,0,0-3.57-5.33,15.18,15.18,0,0,1-4.17-5.33c-1.33-3.19-.88-6.38.17-9.54a10.36,10.36,0,0,1,4.24-5A4.59,4.59,0,0,1,16.84,5h.27c-.18.34-.33.64-.49.93a12.67,12.67,0,0,0-1.28,8.39,12.09,12.09,0,0,0,2.46,5c2.72,3.61,6.09,6.82,7.93,11a17.48,17.48,0,0,1,1.14,5.53c.16,1.93.33,3.88.49,5.81a.74.74,0,0,1-.14.56c-2.2,2.62-2,5.56-1.27,8.56.6,2.51,1.26,5,1.89,7.52a1.31,1.31,0,0,0,.07.43,44.94,44.94,0,0,1-5.19-.36,6.74,6.74,0,0,1-3.35-2.1,19.4,19.4,0,0,1-5.55-11.39c-.41-3.08-.89-6.16-1.29-9.24a13,13,0,0,0-3.7-7.15,6.32,6.32,0,0,1-.63-.74A12.36,12.36,0,0,1,14,31.29a14.38,14.38,0,0,1,3.28,9.23c.13,3,1.67,5.54,3.23,8A.47.47,0,0,0,20.7,48.5Zm-1.26,4.93c0-.79-.49-1.42-1-1.38a.71.71,0,0,0-.67.72c0,.51.59,1.21,1.05,1.11C19.1,53.82,19.32,53.53,19.44,53.43Zm1.44-23.1c0,.71.5,1.37.94,1.37s.6-.29.61-.67c0-.53-.51-1.18-1-1.12-.2.05-.41.32-.55.46Zm3.79.3c0-.76-.41-1.32-.89-1.32s-.62.33-.63.71c0,.54.49,1.16.92,1.06A1.06,1.06,0,0,0,24.67,30.63ZM16.09,41.8c0-.77-.48-1.32-.93-1.3s-.56.31-.56.65c0,.52.49,1.13,1,1.05C15.77,42.17,16,41.88,16.09,41.8ZM25,36.87a.52.52,0,0,0-.61.43.66.66,0,0,0,0,.14c0,.53.44,1.09.87,1.06a.65.65,0,0,0,.6-.74.82.82,0,0,0-.72-.89Zm-4.32,14c0-.71-.54-1.27-1-1.23s-.53.31-.53.66c0,.52.54,1.13,1,1,.23,0,.45-.35.53-.44ZM15.48,21.51c0-.69-.51-1.25-.94-1.23a.55.55,0,0,0-.58.51.41.41,0,0,0,0,.11c0,.5.58,1.12,1,1,.23,0,.42-.32.52-.4Zm-1.19-5.45c0-.64-.39-1.06-.78-1.07a.72.72,0,0,0-.69.75h0c0,.41.46.87.85.78s.48-.38.62-.48Zm7.6,21.25c0,.68.41,1.21.79,1.19s.54-.31.54-.66c0-.51-.39-1.06-.78-1s-.44.37-.55.46ZM21.46,25.2c0-.68-.48-1.23-.86-1.12a1,1,0,0,0-.57.63c-.1.39.46,1,.85.9s.46-.33.58-.42Zm-1.57,1.38c0-.68-.59-1.31-1-1.21a.79.79,0,0,0-.45.57,1,1,0,0,0,.91,1c.26,0,.42-.29.54-.37Zm-2.67-6.21c0-.68-.34-1.15-.73-1.15s-.53.31-.53.64c0,.51.34,1,.75.88C16.93,20.66,17.12,20.37,17.22,20.37ZM15.22,37c0-.68-.41-1.24-.79-1.14a.87.87,0,0,0-.51.58.83.83,0,0,0,.74.91h0a2.43,2.43,0,0,0,.54-.4ZM16,46.65c0-.64-.43-1.24-.81-1.17a.71.71,0,0,0-.45.49,1,1,0,0,0,.78,1A1.81,1.81,0,0,0,16,46.6Zm2.17-.76-.91-.74c-.16.17-.42.34-.44.53,0,.41.39.9.7.79s.35-.35.65-.63Z"/><path class="cls-2" d="M50.45,52.12c-.56-2.83-1.11-5.63-1.68-8.49a4,4,0,0,1,.74-.31,2.42,2.42,0,0,0,1.57-1.26c.43-.72.86-1.44,1.25-2.19a6.74,6.74,0,0,0-.45-7.1c-1-1.61-2.17-3.13-3.26-4.7a20.62,20.62,0,0,1-3.75-8.49,11.1,11.1,0,0,1,1.64-8,.72.72,0,0,1,.2-.29,2.82,2.82,0,0,1,.51-.19c.07.17.23.37.19.51-1,2.69-.38,5.27.77,7.73a34.65,34.65,0,0,0,3,4.91c1.06,1.55,2.4,2.93,3.45,4.49a19.44,19.44,0,0,1,3.53,9.59,12.62,12.62,0,0,1-2.66,8.49,26.58,26.58,0,0,1-2.3,2.56C52.32,50.29,51.39,51.19,50.45,52.12Zm-2.3-29.83a5.53,5.53,0,0,0-.45-1.1.75.75,0,0,0-.61-.26.68.68,0,0,0-.39.51A2.17,2.17,0,0,0,47,22.5a.75.75,0,0,0,.66.35C47.85,22.82,48,22.48,48.15,22.29ZM50.9,28a6.68,6.68,0,0,0-1-1.06.41.41,0,0,0-.58.05.42.42,0,0,0-.09.32,2.73,2.73,0,0,0,.57,1.11c.08.14.42.2.59.16S50.69,28.23,50.9,28Zm4,11.9c0-.43-.15-.78-.64-.83s-.67.44-.66,1,.13.83.63.8S54.82,40.26,54.9,39.86Zm-.82,6.93c-.35-.33-.53-.68-.8-.75s-.8.36-.79.85.16.85.62.77.59-.49,1-.87Zm-1.47-2.72c-.4-.34-.61-.65-.91-.75s-.73.33-.72.78.13.82.59.74S52.18,44.42,52.61,44.07Zm.54-11c0,.67.41,1.24.77,1.23a.58.58,0,0,0,.55-.64c0-.54-.44-1.12-.81-1s-.39.34-.49.42ZM56,32.62c.05-.71-.38-1.36-.74-1.26a.91.91,0,0,0-.53.57c-.1.44.35,1.08.71,1a1.27,1.27,0,0,0,.58-.3Zm-5.53-7c0,.67.41,1.25.75,1.16a.88.88,0,0,0,.54-.57.93.93,0,0,0-.85-.93c-.17.09-.31.31-.42.38ZM57.19,41c-.35-.36-.56-.74-.85-.81s-.57.27-.57.61.09.86.62.85c.22,0,.47-.31.82-.61Z"/><path class="cls-2" d="M33.61,27.25c0,1.77-1.08,2.56-2.52,1.89a7.06,7.06,0,0,1-4.36-5.06,7.34,7.34,0,0,1-.25-2.19,1.81,1.81,0,0,1,1.88-1.74,1.85,1.85,0,0,1,1.12.45,8.45,8.45,0,0,1,1.88,1.7A9.27,9.27,0,0,1,33.61,27.25Z"/><path class="cls-2" d="M35.49,26.11a8.76,8.76,0,0,1,2.28-5.73,2.06,2.06,0,0,1,3.71.7c.85,2.28-.45,6-2.58,7.36a2,2,0,0,1-3.26-1.22A10.87,10.87,0,0,1,35.49,26.11Z"/><path class="cls-2" d="M20.88,30.37c.13-.09.34-.37.6-.41.45-.07,1,.59,1,1.12s-.16.66-.61.66S20.87,31,20.88,30.37Z"/><path class="cls-2" d="M24.68,30.63c-.12.1-.33.39-.59.45-.43.1-.92-.52-.92-1.06,0-.37.13-.71.63-.71S24.7,29.87,24.68,30.63Z"/><path class="cls-2" d="M25,36.87a.82.82,0,0,1,.86.78v.1c0,.38-.12.71-.6.74s-.89-.52-.87-1.06a.52.52,0,0,1,.45-.57Z"/><path class="cls-2" d="M15.48,21.5c-.1.08-.28.34-.51.4-.43.11-1-.53-1-1a.55.55,0,0,1,.47-.62h.11C15,20.26,15.46,20.81,15.48,21.5Z"/><path class="cls-2" d="M14.29,16.05c-.13.1-.34.39-.62.47s-.82-.36-.85-.78a.73.73,0,0,1,.69-.76C13.9,15,14.28,15.37,14.29,16.05Z"/><path class="cls-2" d="M21.89,37.3c.11-.1.3-.38.56-.43s.78.45.78,1c0,.35-.1.64-.54.66S21.88,38,21.89,37.3Z"/><path class="cls-2" d="M21.46,25.19c-.13.09-.32.36-.58.41s-1-.5-.85-.9a1,1,0,0,1,.57-.63C21,24,21.44,24.51,21.46,25.19Z"/><path class="cls-2" d="M19.89,26.57c-.12.08-.31.33-.55.37a1,1,0,0,1-.91-1,.79.79,0,0,1,.45-.57C19.3,25.25,19.89,25.89,19.89,26.57Z"/><path class="cls-2" d="M17.22,20.37c-.09.08-.28.34-.52.37-.41.09-.76-.37-.75-.88,0-.34.09-.64.53-.64S17.22,19.64,17.22,20.37Z"/><path class="cls-2" d="M15.22,37c-.1.08-.3.32-.54.34a.82.82,0,0,1-.76-.87v0a.91.91,0,0,1,.51-.59C14.81,35.75,15.24,36.3,15.22,37Z"/><path class="cls-2" d="M48.15,22.29c-.17.2-.3.53-.52.57a.81.81,0,0,1-.67-.35,2.32,2.32,0,0,1-.27-1.06.65.65,0,0,1,.39-.51.72.72,0,0,1,.61.26A4.76,4.76,0,0,1,48.15,22.29Z"/><path class="cls-2" d="M50.9,28c-.21.27-.31.52-.48.57a.7.7,0,0,1-.59-.16,2.73,2.73,0,0,1-.57-1.11.41.41,0,0,1,.67-.37A6.56,6.56,0,0,1,50.9,28Z"/><path class="cls-2" d="M53.17,33.08c.1-.08.27-.36.51-.43s.81.47.81,1c0,.34-.12.63-.55.64S53.18,33.74,53.17,33.08Z"/><path class="cls-2" d="M56,32.63c-.11.08-.32.32-.56.35s-.81-.6-.71-1a.91.91,0,0,1,.53-.57C55.67,31.28,56.09,31.93,56,32.63Z"/><path class="cls-2" d="M50.5,25.66c.08-.07.26-.31.45-.33a.94.94,0,0,1,.85.93.9.9,0,0,1-.54.57C50.91,26.91,50.52,26.37,50.5,25.66Z"/><path d="M45.34,60.84H25.61c-.34,0-.6,0-.72-.43-1.24-5.21-.47-3.18-1.73-8.4a11,11,0,0,1,.1-5.06,5.56,5.56,0,0,1,2.46-3.5A30.93,30.93,0,0,0,28.93,41,3.12,3.12,0,0,0,30,37.6a4.28,4.28,0,0,0-2-2.84,18.72,18.72,0,0,1-7.19-9.47,14,14,0,0,1-1-3.71,10,10,0,0,1,1-6,11.09,11.09,0,0,1,1.83-2.42,10.43,10.43,0,0,1,4.35-3,9.88,9.88,0,0,1,10.15,3.3,12.89,12.89,0,0,1,3.18,8.37c0,.54.11,1.08.12,1.62A16.76,16.76,0,0,1,36.32,35.2a1.07,1.07,0,0,0-.24.73,7.21,7.21,0,0,0,2.61,4.86c1.36,1.06,2.8,2,4.25,3a2.73,2.73,0,0,1,1.28,1.85c.74,4.35,1.49,8.7,2.11,13.07.41,2.8-1.4-.7-1.12,2.11C45.37,61.14,45.32,60.52,45.34,60.84ZM30.15,28.59a9.19,9.19,0,0,0-2.27-5A8.22,8.22,0,0,0,26,21.84a1.8,1.8,0,0,0-2.54.14A1.83,1.83,0,0,0,23,23.16a7.81,7.81,0,0,0,4.6,7.39C29.07,31.2,30.16,30.37,30.15,28.59ZM32,27.42a7.16,7.16,0,0,0,.14,1.13c.39,1.67,1.79,2.21,3.27,1.24,2.13-1.4,3.43-5.17,2.57-7.5-.67-1.84-2.4-2.18-3.7-.71A9,9,0,0,0,32,27.42Z"/><path d="M17.22,50.25c0-3.89.07-7.77,0-11.66A22.89,22.89,0,0,0,15.91,32a12.47,12.47,0,0,0-3.57-5.43,15.4,15.4,0,0,1-4.16-5.44c-1.33-3.25-.88-6.5.17-9.71a10.49,10.49,0,0,1,4.26-5A5.68,5.68,0,0,1,13.39,6a1.22,1.22,0,0,1,.27,0,9.25,9.25,0,0,0-.49,1,13.2,13.2,0,0,0-1.29,8.55,12.68,12.68,0,0,0,2.46,5.07c2.72,3.69,6.09,7,7.93,11.22a18.15,18.15,0,0,1,1.14,5.64c.16,2,.34,3.95.49,5.93a.85.85,0,0,1-.13.56c-2.21,2.67-2,5.66-1.28,8.72.61,2.56,1.27,5.11,1.9,7.66a1.39,1.39,0,0,0,.07.44,44.94,44.94,0,0,1-5.19-.36,6.57,6.57,0,0,1-3.36-2.15,20.09,20.09,0,0,1-5.55-11.6c-.4-3.14-.89-6.28-1.28-9.42A13.28,13.28,0,0,0,5.37,30a6.51,6.51,0,0,1-.63-.76,12.33,12.33,0,0,1,5.82,3.61,15,15,0,0,1,3.29,9.41c.12,3.1,1.66,5.64,3.22,8.2Zm-1.26,5c0-.82-.49-1.45-1-1.41a.7.7,0,0,0-.67.73h0c0,.51.6,1.22,1.06,1.13.26,0,.49-.34.61-.43Zm1.45-23.56c0,.74.49,1.4.94,1.4s.6-.29.61-.68c0-.55-.52-1.21-1-1.14a3,3,0,0,0-.55.45ZM21.2,32c0-.78-.41-1.34-.88-1.34s-.62.33-.63.73c0,.55.48,1.18.91,1.09.26-.05.47-.35.6-.45ZM12.61,43.42c0-.79-.49-1.34-.94-1.32s-.55.32-.55.66c0,.53.48,1.15.94,1.08C12.29,43.8,12.49,43.5,12.61,43.42Zm8.93-5a.55.55,0,0,0-.62.45V39c0,.54.44,1.11.87,1.08a.67.67,0,0,0,.61-.76.83.83,0,0,0-.7-.94h-.17ZM17.22,52.68c0-.73-.54-1.29-1-1.25s-.53.33-.53.68c0,.53.55,1.15,1,1,.22,0,.4-.36.52-.46ZM12,22.75c0-.71-.51-1.27-.94-1.25a.57.57,0,0,0-.59.55.27.27,0,0,0,0,.09c0,.5.59,1.13,1,1,.23-.05.41-.32.52-.42Zm-1.2-5.55c0-.66-.38-1.09-.78-1.09a.73.73,0,0,0-.69.77h0c0,.42.46.89.86.8a2.5,2.5,0,0,0,.6-.52Zm7.59,21.67c0,.69.41,1.23.8,1.22s.53-.31.53-.67c0-.52-.39-1.09-.77-1s-.45.32-.57.42ZM18,26.53c0-.7-.48-1.26-.85-1.14a1,1,0,0,0-.58.64.91.91,0,0,0,.86.92c.25-.09.45-.37.56-.45Zm-1.57,1.39c0-.68-.58-1.34-1-1.23a.75.75,0,0,0-.45.58c-.08.47.47,1.09.91,1,.22-.05.42-.3.53-.38Zm-2.66-6.36c0-.69-.35-1.17-.74-1.17s-.52.31-.52.66c0,.52.33,1,.74.89.22-.08.38-.34.51-.41Zm-2,17c0-.7-.41-1.26-.8-1.17a.85.85,0,0,0-.5.59c-.09.43.38,1,.75.92s.41-.31.54-.38Zm.75,9.8c0-.65-.44-1.28-.82-1.2a.79.79,0,0,0-.45.51,1,1,0,0,0,.79,1c.18-.07.36-.3.47-.3Zm2.17-.79c-.37-.3-.64-.53-.92-.74-.15.18-.41.34-.43.53-.06.42.38.92.7.82s.33-.35.64-.65Z"/><path d="M47,54c-.56-2.89-1.11-5.74-1.67-8.65A2.83,2.83,0,0,1,46,45a2.53,2.53,0,0,0,1.57-1.29c.43-.74.86-1.46,1.24-2.22a7,7,0,0,0-.45-7.24c-1-1.64-2.16-3.2-3.25-4.79a21.12,21.12,0,0,1-3.76-8.64A11.46,11.46,0,0,1,43,12.6c.07-.1.11-.24.2-.29a2.57,2.57,0,0,1,.52-.21c.06.18.23.39.18.53-1,2.75-.37,5.37.78,7.88a34.66,34.66,0,0,0,3,5c1.07,1.58,2.41,3,3.46,4.58a20.1,20.1,0,0,1,3.52,9.77A13.1,13.1,0,0,1,52,48.52a23.83,23.83,0,0,1-2.3,2.62C48.83,52.07,47.9,53,47,54Zm-2.3-30.41a7.39,7.39,0,0,0-.45-1.13.54.54,0,0,0-1,.26,2.37,2.37,0,0,0,.27,1.08.78.78,0,0,0,.67.35c.2,0,.34-.36.51-.56Zm2.74,5.77a6.41,6.41,0,0,0-1-1.08.41.41,0,0,0-.57,0,.39.39,0,0,0-.1.36,2.56,2.56,0,0,0,.56,1.13.66.66,0,0,0,.6.16c.21-.05.3-.3.51-.58Zm4,12.13c0-.43-.16-.8-.65-.85s-.67.45-.66,1,.14.83.64.81.59-.56.69-1Zm-.83,7.08c-.34-.35-.52-.71-.79-.77s-.81.37-.8.87.17.87.63.79.59-.52,1-.89Zm-1.45-2.79c-.4-.35-.61-.66-.91-.76s-.74.34-.73.79.13.82.59.76.62-.43,1.07-.79Zm.53-11.19c0,.68.42,1.25.77,1.24a.6.6,0,0,0,.56-.66c0-.54-.45-1.14-.82-1s-.38.32-.49.42Zm2.88-.47c0-.72-.39-1.38-.74-1.28a.89.89,0,0,0-.54.58c-.09.44.36,1.09.71,1.05s.47-.27.64-.35ZM47,27c0,.68.41,1.28.76,1.19a.85.85,0,0,0,.53-.58.94.94,0,0,0-.85-.95c-.16,0-.32.28-.42.34ZM53.7,42.68c-.35-.37-.56-.75-.85-.84s-.56.29-.56.63.08.88.62.87c.25,0,.47-.35.81-.66Z"/><path class="cls-2" d="M30.15,28.59c0,1.81-1.08,2.61-2.52,1.93A7.81,7.81,0,0,1,23,23.13a1.8,1.8,0,0,1,3-1.32,8.18,8.18,0,0,1,1.87,1.75A9.33,9.33,0,0,1,30.15,28.59Z"/><path class="cls-2" d="M32,27.42a8.94,8.94,0,0,1,2.28-5.84c1.3-1.47,3-1.13,3.7.71.86,2.34-.45,6.1-2.57,7.5a2,2,0,0,1-2.82-.24,2,2,0,0,1-.45-1C32.07,28.13,32.05,27.68,32,27.42Z"/><path class="cls-2" d="M17.41,31.72c.12-.09.33-.37.59-.41.45-.07,1,.59,1,1.14,0,.38-.17.68-.62.68S17.39,32.45,17.41,31.72Z"/><path class="cls-2" d="M21.2,32c-.13.1-.34.4-.6.47-.43.09-.91-.54-.91-1.09,0-.39.13-.73.63-.73S21.22,31.26,21.2,32Z"/><path class="cls-2" d="M21.53,38.37a.85.85,0,0,1,.87.83v.08c0,.39-.13.73-.61.76s-.89-.54-.87-1.08a.52.52,0,0,1,.43-.59Z"/><path class="cls-2" d="M12,22.73c-.11.09-.28.36-.52.41-.42.11-1-.52-1-1a.57.57,0,0,1,.5-.64h.09C11.49,21.46,12,22,12,22.73Z"/><path class="cls-2" d="M10.81,17.17c-.13.11-.35.4-.62.47s-.83-.36-.86-.8a.75.75,0,0,1,.69-.78C10.43,16.08,10.79,16.51,10.81,17.17Z"/><path class="cls-2" d="M18.4,38.84c.12-.1.31-.39.57-.44s.77.47.77,1c0,.35-.09.66-.53.67S18.39,39.53,18.4,38.84Z"/><path class="cls-2" d="M18,26.5c-.12.09-.31.36-.57.41a.91.91,0,0,1-.86-.92,1,1,0,0,1,.58-.64C17.5,25.24,18,25.8,18,26.5Z"/><path class="cls-2" d="M16.4,27.89c-.11.08-.31.34-.54.38a1,1,0,0,1-.91-1,.75.75,0,0,1,.45-.58C15.82,26.55,16.4,27.2,16.4,27.89Z"/><path class="cls-2" d="M13.74,21.53c-.1.07-.29.34-.53.38-.41.09-.75-.37-.74-.89,0-.35.08-.65.52-.66S13.75,20.84,13.74,21.53Z"/><path class="cls-2" d="M11.74,38.52c-.11.08-.31.32-.55.35a.84.84,0,0,1-.75-.92.89.89,0,0,1,.5-.59C11.33,37.25,11.76,37.82,11.74,38.52Z"/><path class="cls-2" d="M44.67,23.54c-.18.2-.31.52-.53.57a.81.81,0,0,1-.67-.35,2.54,2.54,0,0,1-.27-1.08.66.66,0,0,1,.39-.52.73.73,0,0,1,.62.26A4.56,4.56,0,0,1,44.67,23.54Z"/><path class="cls-2" d="M47.41,29.31c-.21.28-.3.53-.47.59a.72.72,0,0,1-.6-.16,2.86,2.86,0,0,1-.56-1.13.41.41,0,0,1,.67-.37A5.15,5.15,0,0,1,47.41,29.31Z"/><path class="cls-2" d="M49.68,34.54c.1-.1.27-.38.51-.44s.82.48.82,1c0,.36-.13.64-.56.66S49.69,35.22,49.68,34.54Z"/><path class="cls-2" d="M52.55,34.08c-.12.08-.33.31-.57.34s-.8-.61-.71-1.05a.89.89,0,0,1,.54-.58C52.18,32.7,52.61,33.37,52.55,34.08Z"/><path class="cls-2" d="M47,27c.09-.07.26-.31.45-.34a1,1,0,0,1,.85.95.88.88,0,0,1-.53.58C47.43,28.25,47,27.65,47,27Z"/></g></g></svg>