<svg xmlns="http://www.w3.org/2000/svg" viewBox="0 0 64.62 64.64"><defs><style>.cls-1{fill:#010202;}.cls-2{fill:#ffe97a;}.cls-3{fill:#fff;}</style></defs><g id="Capa_2" data-name="Capa 2"><g id="Capa_1-2" data-name="Capa 1"><path class="cls-1" d="M3,10.13,64.62,4V63.17L1.68,64.64Z"/><path class="cls-2" d="M1.68,7.39l57-5.65V58.63l-57,1.47Z"/><path d="M0,61.78V6L60.36,0V60.21ZM3.36,8.86V58.5L57,57.11V3.58Z"/><path class="cls-3" d="M55.11,33.65c.47-.74,0-3.69.39-4.39s.69-1.31.9-1.76a10.53,10.53,0,0,0,.82-2.17c0-.49-.08-.83-.56-.74a2.16,2.16,0,0,0-.87.49c-.6.54-1.84,3.11-2.45,3.65a14.93,14.93,0,0,0,.39-2.3c0-.82.17-2.3.17-3.15s-.26-2-1.08-2.21a.85.85,0,0,0-.73,0,1.27,1.27,0,0,0-.6.65c-.47,1.8.21,4.38-.57,6.1-.6-2-1.12-5.16-2.54-6.76-.43-.45-1.37-1-1.89-.58a1,1,0,0,0-.35.74c-.08,1.06.9,2.37,1.21,3.36s1.21,2.66.78,3.6c-1.77-1.6-4.66-4.79-5.82-4.3s.39,2.86,1.6,3.81,2.76,1.8,3.11,3.24a2.46,2.46,0,0,1-1.86-.2,4.63,4.63,0,0,0-1.81-.54c-.65,0-1.34.45-1.29,1s1.08,1,1.85,1.14a12.56,12.56,0,0,1,3.83,1.93c.78.41,1.42,1.39,2.12,1.64.9,2.91,3.14,10.11,2.93,9.66-2.89-6.26-5.43-9-7.76-10.9-5.38-3.85-9.26-.25-9.26-.25l-.46-3.77c.13-.16.21-.29.34-.45a12.66,12.66,0,0,0,5.29-11,11,11,0,0,0-.86-4c.13-1.72.13-2.86.13-2.86s-.78.16-2.07.36c-2.07-1.67-4.83-1.83-6.42-1.92-1.93,0-6.29-.33-8.87,3.48a13.9,13.9,0,0,1-4.66-.69S17.89,32,26.68,34l-.14,2s-7.23-1.72-9.73,3.31L13,49.6l.39-15.4a12.08,12.08,0,0,1,1.34-1.6,13.27,13.27,0,0,1,3.44-2.46c.73-.25,1.73-.65,1.64-1.39,0-.57-.81-.94-1.46-.82a4.39,4.39,0,0,0-1.68.82,2.55,2.55,0,0,1-1.77.49c.09-1.48,1.47-2.58,2.5-3.69s2.15-3.68.9-4-3.53,3.28-5,5.12c-.6-.9,0-2.53.13-3.68s.91-2.5.6-3.53a1.21,1.21,0,0,0-.47-.7c-.57-.28-1.43.33-1.76.87-1.17,1.76-1.08,5-1.34,7C9.39,25,9.61,22.41,8.83,20.7a1.24,1.24,0,0,0-.69-.54.86.86,0,0,0-.73.09c-.77.36-.82,1.51-.69,2.33s.57,2.25.73,3.08a16.49,16.49,0,0,0,.78,2.17c-.69-.45-2.37-2.79-3.06-3.2a1.83,1.83,0,0,0-.9-.36c-.51,0-.51.36-.43.82a10.22,10.22,0,0,0,1.16,2c.31.41.69.94,1.21,1.6s.6,3.6,1.16,4.26a4,4,0,0,0,.9.74l-2.62,19L8,58.18l6.59-.58s4.57-4.91,4.92-4.71.25,6.6.25,6.6L43.35,57.6s.17-7.33.47-7.5S54.07,59,54.07,59h5.26L62,56.25Z"/><path d="M29.34,11.39c-2.71-.13-10.47-.7-10.9,10.81S24.3,34,24.3,34l-.13,2.58s-7.24-1.72-9.74,3.31L10.69,50.13l.43-17.45H6.21L3.36,53.2l2.38,5.48,6.59-.57s4.56-4.91,4.91-4.71.26,6.6.26,6.6l23.87,1.15s-.14-10.36.17-10.53,10.25,8.85,10.25,8.85h5.26l2.67-2.7L52.72,34l-5.53,1.29s3.57,11.43,3.31,10.85c-2.89-6.26-5.43-9-7.76-10.89C37.27,31.4,33.4,35,33.4,35l-.52-4a12.62,12.62,0,0,0,5.69-11.23C38.26,12,32.06,11.54,29.34,11.39Z"/><path d="M15.81,14.12s2.07.9,8.14.65a113.48,113.48,0,0,0,13.87-1.84S37.91,35,25.59,34.64C15.47,34.39,15.81,14.12,15.81,14.12Z"/><path class="cls-3" d="M27.62,21.85s-.09-1.72,2.45-1.76S32.57,22,32.57,22a7.13,7.13,0,0,0-2.45-.62A6.51,6.51,0,0,0,27.62,21.85Z"/><path class="cls-3" d="M18.19,21.58s-.08-1.73,2.47-1.77,2.5,1.93,2.5,1.93a6,6,0,0,0-2.46-.61A8.29,8.29,0,0,0,18.19,21.58Z"/><path class="cls-3" d="M34.08,23.86s-.69,6.72-6.81,7.41c-7.84,1.15-8.53-6.18-8.53-6.18a18.94,18.94,0,0,0,7.84,1.35A18,18,0,0,0,34.08,23.86Z"/><path d="M15.86,30.7c.73-.25,1.72-.65,1.64-1.39,0-.57-.82-.94-1.47-.82a4.39,4.39,0,0,0-1.68.82,2.51,2.51,0,0,1-1.76.49c.09-1.47,1.47-2.58,2.5-3.69s2.16-3.68.9-4-3.53,3.28-5,5.12c-.6-.9,0-2.53.13-3.68s.91-2.5.6-3.53a1.11,1.11,0,0,0-.47-.69c-.56-.29-1.42.32-1.76.86-1.08,1.8-1,5-1.29,7.08-1.08-1.6-.86-4.22-1.64-5.93a1.24,1.24,0,0,0-.69-.54.88.88,0,0,0-.74.09c-.77.36-.81,1.51-.69,2.33s.57,2.25.73,3.08A16.49,16.49,0,0,0,6,28.47c-.69-.45-2.37-2.79-3.06-3.2a1.83,1.83,0,0,0-.9-.36c-.51,0-.51.36-.43.82a10.79,10.79,0,0,0,1.17,2c.31.41.69.94,1.21,1.6s.6,3.6,1.17,4.26c1.29,1.44,4,1.76,5.17,1.68.81,0,1.33-1.44,2.1-2A12.72,12.72,0,0,1,15.86,30.7Z"/><path d="M41.62,32.87c-.77-.12-1.81-.36-1.85-1.15-.05-.57.65-1,1.29-1a4.8,4.8,0,0,1,1.81.54,2.46,2.46,0,0,0,1.86.2c-.35-1.44-1.9-2.3-3.11-3.24S38.87,24.91,40,24.41s4,2.66,5.82,4.3c.43-1-.43-2.5-.78-3.6s-1.34-2.34-1.21-3.36a1.17,1.17,0,0,1,.35-.74c.52-.36,1.46.13,1.9.58,1.46,1.56,1.93,4.74,2.53,6.76.78-1.73.09-4.3.57-6.1a1.16,1.16,0,0,1,.6-.65.85.85,0,0,1,.73,0c.86.25,1.08,1.39,1.08,2.21s-.17,2.3-.17,3.15a14.93,14.93,0,0,1-.39,2.3c.6-.54,1.85-3.12,2.46-3.65a2.24,2.24,0,0,1,.86-.49c.52-.09.6.25.56.74A8.37,8.37,0,0,1,54.12,28c-.21.45-.52,1.06-.9,1.76s.05,3.65-.39,4.39c-1,1.64-3.62,2.33-4.83,2.46-.82.08-1.55-1.19-2.45-1.72A14.58,14.58,0,0,0,41.62,32.87Z"/></g></g></svg>