<svg xmlns="http://www.w3.org/2000/svg" viewBox="0 0 64.02 64.68"><defs><style>.cls-1{fill:#fff;}.cls-2{fill:#e84566;}</style></defs><g id="Capa_2" data-name="Capa 2"><g id="Capa_1-2" data-name="Capa 1"><path d="M3.46,64.68,3.26,6.53,64,2.76V63.13Zm4-54.11.18,49.7,52-1.34V7.32Z"/><path class="cls-1" d="M0,8.52,57.55,2.81,58.74,59S.56,61.63,1.05,61.44,0,8.52,0,8.52Z"/><path class="cls-2" d="M43.46,59.87H26.82A10.54,10.54,0,0,0,26,58.61a45.83,45.83,0,0,1-7.35-11.53A17.58,17.58,0,0,1,17,42.47,7.24,7.24,0,0,1,20.19,35a36.53,36.53,0,0,1,7.6-4c1.28-.49,1.26-.47,1.15-1.78a1.18,1.18,0,0,0-.58-.95,11.72,11.72,0,0,1-1.74-1.4A12.05,12.05,0,0,1,23.13,15.7a6.85,6.85,0,0,1,1.06-2.86,15.36,15.36,0,0,1,3.08-3,10.15,10.15,0,0,1,5.66-2.28c3.89-.18,7.19,1,9.57,4.06A8.87,8.87,0,0,1,44,14.2a17.45,17.45,0,0,1,1,5.45,11.54,11.54,0,0,1-.24,3.42,19.65,19.65,0,0,1-3,6.42c-.06.1-.11.21-.2.36l.35.28a12.31,12.31,0,0,1,3,3.31.65.65,0,0,0,.45.2c.82,0,1.63-.06,2.45-.1,1.16-.07,1.62.27,1.68,1.38s0,2,0,3a.76.76,0,0,0,.2.56,2.15,2.15,0,0,1,.7,1.44c0,.17,0,.41.12.52.72.67.64,1.58.79,2.41A2.41,2.41,0,0,1,51,44.77a31.7,31.7,0,0,1-4,4.87,3.34,3.34,0,0,0-.76,1.16c-.57,1.61-1.09,3.24-1.59,4.88C44.16,57.06,43.8,58.48,43.46,59.87Zm-4.8-6.54h.11c.08-.17.16-.35.26-.52.88-1.53,1.75-3.06,2.63-4.58a2.86,2.86,0,0,0,.48-1.95c-.2-1.06-.42-2.11-.54-3.17a9.45,9.45,0,0,1,0-4.1,2,2,0,0,0,0-1.14,7.21,7.21,0,0,1-.28-3.45,1.13,1.13,0,0,1,1.25-1h.9v-.1c-.81-.81-1.6-1.63-2.41-2.47-1.31,1.62-3,1.75-4.86,1.6-.09.9-.06,1,.81,1.18l2.56.52a.48.48,0,0,1,.46.49c.11,1.64.28,3.29.38,4.94a11.19,11.19,0,0,0,0,1.92,31.86,31.86,0,0,0,.8,4.23,3.16,3.16,0,0,1-.31,2.68,21.2,21.2,0,0,0-2.07,4.42,3.12,3.12,0,0,0-.19.49Z"/><path class="cls-2" d="M44.46,59.87c.31-1.23.59-2.48.91-3.7.42-1.54.88-3.08,1.35-4.61a4,4,0,0,1,1.56-2.17,1.52,1.52,0,0,0,.31-.31l2.12-2.46a10.09,10.09,0,0,1,.35,1.82,21.65,21.65,0,0,0,1.06,5.09,24.6,24.6,0,0,1,.74,6.34Z"/><path class="cls-2" d="M38.63,53.32c.06-.18.12-.35.17-.53a21.72,21.72,0,0,1,2.07-4.42,3.16,3.16,0,0,0,.31-2.68,35.44,35.44,0,0,1-.8-4.23c-.08-.63.06-1.29,0-1.92-.1-1.64-.27-3.29-.38-4.94a.47.47,0,0,0-.45-.49h0c-.85-.18-1.7-.33-2.56-.52s-.91-.27-.81-1.17c1.83.15,3.56,0,4.86-1.6l2.43,2.5-.07.13h-.8a1.15,1.15,0,0,0-1.33.91s0,.06,0,.09a7.09,7.09,0,0,0,.27,3.45,2,2,0,0,1,0,1.14,9.45,9.45,0,0,0,0,4.1c.12,1.07.34,2.12.54,3.17a2.81,2.81,0,0,1-.48,1.95c-.88,1.52-1.75,3-2.62,4.58-.1.17-.18.35-.27.52Z"/><path d="M39.05,59.87H22.46a10.46,10.46,0,0,0-.82-1.26,45.59,45.59,0,0,1-7.36-11.53,17.55,17.55,0,0,1-1.67-4.61A7.23,7.23,0,0,1,15.83,35a37,37,0,0,1,7.6-4c1.27-.49,1.25-.47,1.15-1.78a1.18,1.18,0,0,0-.59-.95A12.3,12.3,0,0,1,18.76,15.7a6.86,6.86,0,0,1,1.07-2.86,15.31,15.31,0,0,1,3.07-3,10.18,10.18,0,0,1,5.67-2.28c3.89-.18,7.19,1,9.56,4.06a8.89,8.89,0,0,1,1.5,2.58,17.16,17.16,0,0,1,1,5.45,11.54,11.54,0,0,1-.24,3.42,19.85,19.85,0,0,1-3,6.42c-.07.12-.14.24-.2.36l.34.28a12.46,12.46,0,0,1,3,3.31.65.65,0,0,0,.45.2c.81,0,1.63-.06,2.44-.1,1.17-.07,1.63.27,1.69,1.38s0,2,0,3a.73.73,0,0,0,.19.56,2.15,2.15,0,0,1,.7,1.44.81.81,0,0,0,.11.52c.73.67.64,1.58.8,2.41a2.49,2.49,0,0,1-.31,1.92,32.19,32.19,0,0,1-4,4.87,3.23,3.23,0,0,0-.77,1.16c-.56,1.61-1.09,3.23-1.59,4.88C39.78,57.06,39.46,58.48,39.05,59.87Zm-4.79-6.55h.1c.1-.17.16-.35.27-.52l2.62-4.58a2.76,2.76,0,0,0,.48-1.95c-.2-1.06-.42-2.11-.54-3.17a9.77,9.77,0,0,1,0-4.1,2.2,2.2,0,0,0,0-1.14,7,7,0,0,1-.28-3.45,1.13,1.13,0,0,1,1.23-1l.11,0h.8l.07-.13c-.8-.81-1.6-1.63-2.4-2.47-1.31,1.62-3,1.75-4.87,1.6-.09.9-.05,1,.82,1.18l2.55.52a.48.48,0,0,1,.46.49c.12,1.64.28,3.29.39,4.94a10.26,10.26,0,0,0,0,1.92,35.79,35.79,0,0,0,.79,4.23,3.2,3.2,0,0,1-.3,2.68,20.71,20.71,0,0,0-2.07,4.42A3.54,3.54,0,0,0,34.26,53.32Z"/><path d="M40.08,59.87c.3-1.23.58-2.48.91-3.7.42-1.54.88-3.08,1.35-4.61a3.82,3.82,0,0,1,1.56-2.17,1.47,1.47,0,0,0,.3-.31l2.13-2.46a11.22,11.22,0,0,1,.34,1.82,21.67,21.67,0,0,0,1.07,5.09,25,25,0,0,1,.73,6.34Z"/><path d="M.32,62.32.11,6.41,60.65,0l.22,59.76ZM3.15,9l.19,50.3L57.84,57l-.2-53.76Z"/></g></g></svg>