<svg xmlns="http://www.w3.org/2000/svg" viewBox="0 0 64.63 64.64"><defs><style>.cls-1{fill:#010202;}.cls-2{fill:#e84167;}.cls-3{fill:#fff;}</style></defs><g id="Capa_2" data-name="Capa 2"><g id="Capa_1-2" data-name="Capa 1"><path class="cls-1" d="M3,10.13,64.63,4V63.17L1.69,64.64Z"/><path class="cls-2" d="M1.69,7.39l57-5.65V58.63l-57,1.47Z"/><path d="M0,61.78V6L60.36,0V60.21ZM3.36,8.86V58.5L57,57.11V3.58Z"/><path class="cls-3" d="M62,17.54a2.54,2.54,0,0,0-2,.58c.08-.29.34-.58-.09-.61a3.68,3.68,0,0,0-2.11.9c-.78.61-.26.65-.78,1.14-.31-.53-1.42.29-1.86.83a14,14,0,0,0-1.38,2.25c-.43,1.1-1.24,3.36-1.72,4.46a19.53,19.53,0,0,0,1.21-4.17c0-.45-.78-.42-1,.12a58.48,58.48,0,0,0-2.75,7.12,7.36,7.36,0,0,0-.18,3.2,2,2,0,0,0,.86,1.44l-.13.08-2.8,14-2-7.92c-1.34-5.23-8.79-5-8.79-5l.14-.77c10.81-.45,11.15-22.57,11.15-22.57a16.6,16.6,0,0,1-5.29.61,12,12,0,0,0-5.74-2c-1.59-.2-4.31-.57-6.72.65-3.62-.65-6.38-1.31-6.38-1.31s-.51,13.52,4.74,20.48l-.6,1.64s-3-4.14-9.17-1.48c-2.67,1.39-4.31,3.08-8.49,8.44-.34.45,4.92-8,5.86-9.46a1.87,1.87,0,0,0,2.28-1.27,6.85,6.85,0,0,0,.61-3.15,58.08,58.08,0,0,0-1-7.54c-.08-.57-.86-.78-1-.33A20.33,20.33,0,0,0,17,22.24c-.21-1.19-.43-3.52-.6-4.71a11.09,11.09,0,0,0-.82-2.5c-.3-.61-1.21-1.64-1.64-1.19-.38-.57.14-.53-.46-1.31a3.73,3.73,0,0,0-1.86-1.31c-.43,0-.31.29-.26.58a2.8,2.8,0,0,0-1.81-1c-.17,0-.17.25-.12.45.2,1.92.43,3.89.68,5.81-.65-1-1.72-1.51-1.46-.49s.47,2.34.69,3.69a13.82,13.82,0,0,0,1,4.38c.18.37.31.7.47,1.07L3.53,36.52l.34,15.15s12.36-5.93,12.71-5.73-6.12,12.73-6.12,12.73l25.33-.77s3.36-8.24,3.71-8.36,3.66,8.23,3.66,8.23l6.2,1.6,5.09-2.86,2-23.63a22.85,22.85,0,0,0,1.76-2.17,15.45,15.45,0,0,0,2-4c.52-1.32,1-2.47,1.5-3.49s-.72-.65-1.55.16c.69-1.84,1.34-3.68,2-5.52C62.13,17.79,62.2,17.58,62,17.54Z"/><path d="M23.32,17.87A11.63,11.63,0,0,0,26.46,29.5l-1.34,3.69s-3-4.14-9.18-1.47c-2.67,1.38-4.3,3.07-8.48,8.43-.38.49,6-9.71,6-9.71l-5-4.5L.88,37.12l.34,15.16s12.36-5.93,12.71-5.73S7.81,59.28,7.81,59.28l25.33-.77s3.36-8.24,3.71-8.36,3.67,8.23,3.67,8.23l6.2,1.6,5.08-2.86L54,30.86l-6.47,4.39-2.8,14-2-7.86c-1.34-5.24-8.79-5-8.79-5l.39-2.47s6.21.94,8.23-10S36.92,12.05,34.2,11.67,25.3,10.62,23.32,17.87Z"/><path d="M45.2,13.08s-2.28.94-9,.45A116.18,116.18,0,0,1,21,11S20.12,35.65,33.7,35.65C44.77,35.65,45.2,13.08,45.2,13.08Z"/><path class="cls-3" d="M31.85,18.39s.17,1.88-2.67,2-2.85-2-2.85-2a7.69,7.69,0,0,0,2.76.61A7.29,7.29,0,0,0,31.85,18.39Z"/><path class="cls-3" d="M42.28,18.39s.17,1.88-2.68,2-2.84-2-2.84-2A6.57,6.57,0,0,0,42.28,18.39Z"/><path class="cls-3" d="M39.52,30.85s1.42-6.31-5.26-7.28c-8.57-1.56-7.93,5-7.93,5A11.78,11.78,0,0,1,33,27.71,9.8,9.8,0,0,1,39.52,30.85Z"/><path d="M15.6,29.39a6.84,6.84,0,0,0,.6-3.15,56.4,56.4,0,0,0-1-7.54c-.09-.57-.86-.77-1-.32a20.88,20.88,0,0,0,.18,4.33c-.22-1.18-.44-3.52-.61-4.71A10.61,10.61,0,0,0,13,15.5c-.31-.61-1.21-1.63-1.64-1.18-.39-.58.13-.54-.48-1.32A3.54,3.54,0,0,0,9,11.69c-.43,0-.3.29-.25.58a2.87,2.87,0,0,0-1.81-1c-.18,0-.18.25-.14.45.26,2.34.57,4.67.83,7,0-.25.6.2,0-.94S5.75,16,6,17s.47,2.34.69,3.69a13.81,13.81,0,0,0,1,4.39C8.52,27,9.34,29.05,11.54,30S15,31,15.6,29.39Z"/><path d="M46.75,33.68a6.32,6.32,0,0,1,.17-3.2,56.94,56.94,0,0,1,2.76-7.12c.21-.54,1-.58,1-.13a18.81,18.81,0,0,1-1.18,4.16c.47-1.1,1.25-3.36,1.73-4.47a10.38,10.38,0,0,1,1.38-2.25c.47-.53,1.59-1.35,1.85-.82.51-.49,0-.54.77-1.15a3.81,3.81,0,0,1,2.12-.9c.43,0,.21.37.08.61a3,3,0,0,1,2-.57c.18.09.09.29,0,.49C58.66,20.54,57.85,22.75,57,25c0-.25-.6.09.21-.9s2.24-1.35,1.76-.36-1,2.17-1.5,3.48a13.92,13.92,0,0,1-2,4.05C54.25,33,53,34.76,50.63,35.21S47,35.39,46.75,33.68Z"/></g></g></svg>