<svg xmlns="http://www.w3.org/2000/svg" viewBox="0 0 64.59 64.64"><defs><style>.cls-1{fill:#010202;}.cls-2{fill:#fff;}.cls-3{fill:#e84167;}</style></defs><g id="Capa_2" data-name="Capa 2"><g id="Capa_1-2" data-name="Capa 1"><path class="cls-1" d="M3,10.14,64.59,4V63.17L1.65,64.64Z"/><path class="cls-2" d="M1.69,7.39l57-5.66V58.66l-57,1.47Z"/><path d="M10.77,45.39l5.52-2.14S20,48,18.7,49.2s-6.67,1.22-7.88,0-.05-3-.05-3Z"/><path class="cls-3" d="M57.48,59.89l-.89-13.28L46.9,42.8a.4.4,0,0,1-.09-.2V40.23a11.16,11.16,0,0,0-.69-4c-1.9-3.85-9.66-.12-2.93-9.75a10.16,10.16,0,0,0,2-4.92l3.57-.62a11.48,11.48,0,0,1-.52,2.91l2,1a10.62,10.62,0,0,0,2-5.16c.43-3.2-.81-7.71-5.94-11.07C39.66,4.32,27,8.42,27,8.42l1.6,4.63s1.29-.25,3.18-.49v1.6A9.86,9.86,0,0,0,27,18.91c-1.29,2.46.87,9.67,1.08,10.9s4-.2,3.83,1.56A5.36,5.36,0,0,1,30.7,34l-.31-.08c-1.72-.33-2.93,2.7-3.19,4.3-.46.69-.94,1.47-1.46,2.33-.86,1.52-1.12,4.8-1.12,8.11l-4.09-2.33a2.46,2.46,0,0,1,.21-1c.9-2.38,2.45-4.26,2.28-6.8-.08.9-1.64.83-2.33,1.44-.82-1.48-.51-3.2.78-4.92A9.35,9.35,0,0,0,22.68,31c-.69.61-1.55.53-2.46.77.83-1.64.35-2.91,1.81-4S23,25,23.38,23.4c-1,.29-1,.9-2.24,1.44,1.16-3.69.47-5.82.13-8.61a3.23,3.23,0,0,0-.95,2.21,27,27,0,0,1-2.84-7.13l-.69,2L13.56,9a23.41,23.41,0,0,0-1.64,3.65A2.17,2.17,0,0,1,10.77,11a17.75,17.75,0,0,0-1,7.91,4.13,4.13,0,0,1-1.64-2.25,11.17,11.17,0,0,0-.51,3.81,4.91,4.91,0,0,0,1.72,3.24c-.86.45-.09,2.62-2.07,1.18.17,2.09,3,3,3.14,5-1.2.33-1.55-.53-2.15-1.6a7.87,7.87,0,0,0,.34,4.35c.61,1.06,2.24,1.15,2.24,3.32-.91.42-2.37-.08-2.28-1.06a8.82,8.82,0,0,0,2.37,6.68,1.49,1.49,0,0,1-2-.53.59.59,0,0,1,0-.08,2.73,2.73,0,0,0,.73,2.62c.31.29.26.54.34.94s-.56.78-.72,1.11A3.32,3.32,0,0,0,10,49.47a5.91,5.91,0,0,1,1,1,11.72,11.72,0,0,1,.51,1.4c.35.77,1.9,1.22,2.59,1.72,1.2.86,2.58,1.76,4.26.83A4,4,0,0,0,20,52.53a8.91,8.91,0,0,0,.57-2.14l4.22,5.16c.12,1.8.12,2.14.12,2.14l10.86-.2.69,3.72Z"/><path d="M20.42,38.49c-.08.9-1.63.83-2.32,1.44-.82-1.47-.52-3.2.77-4.92A9.09,9.09,0,0,0,20.08,31c-.69.61-1.55.53-2.46.77.82-1.63.34-2.91,1.81-4s1-2.79,1.34-4.35c-1,.29-1.12,1.44-2.41,1.93,1.16-3.69.6-6.31.3-9.14a3.2,3.2,0,0,0-.94,2.22,26.6,26.6,0,0,1-2.85-7.14l-.69,2L11,9a23.41,23.41,0,0,0-1.64,3.65A2.22,2.22,0,0,1,8.14,11a17.75,17.75,0,0,0-1,7.91A4.13,4.13,0,0,1,5.5,16.7,11.43,11.43,0,0,0,5,20.51a4.83,4.83,0,0,0,1.73,3.24c-.87.45-.09,2.62-2.07,1.18.17,2.09,3,3,3.15,5-1.21.33-1.55-.53-2.16-1.6A7.78,7.78,0,0,0,6,32.68c.6,1.06,2.24,1.15,2.24,3.32-.9.41-2.38-.08-2.28-1.06a8.82,8.82,0,0,0,2.37,6.68,1.46,1.46,0,0,1-2-.5L6.25,41A2.73,2.73,0,0,0,7,43.63c.31.29.26.54.35.94s-.57.78-.74,1.11a3.32,3.32,0,0,0,.78,3.81,5.91,5.91,0,0,1,1,1,11.16,11.16,0,0,1,.52,1.4c.34.77,1.89,1.22,2.58,1.72,1.21.86,2.59,1.76,4.27.82a3.9,3.9,0,0,0,1.68-1.88,8.55,8.55,0,0,0,.77-4.43c-.08-1.14-.43-1.79,0-2.87C19.09,42.93,20.59,41,20.42,38.49Z"/><path class="cls-2" d="M8.27,47.39c-.43-.65.61-2.66.61-2.66s7.75-2.63,8.39-1.89-.6,2.34-.6,2.34S8.7,48.13,8.27,47.39Z"/><path class="cls-2" d="M11.89,45.22,8.79,21.65l2.38-9.18,4.77,8.44L14.59,44.23Z"/><path class="cls-2" d="M12.37,46.69s-.47,6.56,2,6.6.35-7.34.35-7.34Z"/><path d="M17.59,46.12l10.77,6.1-4.48,5.41-7.19-8.77"/><path d="M13.59,47.48a3.7,3.7,0,0,1-2.67.82.94.94,0,0,0-.47,0c-.31.13-.21.65-.09,1a6.94,6.94,0,0,0,.9,1.73,2.51,2.51,0,0,0,1.5,1,3.06,3.06,0,0,0,1-.08,2.72,2.72,0,0,0,1.34-.54,3.4,3.4,0,0,0,.82-1.64c.17-.73.57-3-.17-3.61S14.22,47.1,13.59,47.48Z"/><path d="M35.21,14s12.06,2.82,5.34,12.46,1,5.94,2.93,9.75-.95,18.89,2.54,22l-23.48.41s-1.5-14.34.6-18.11a26.61,26.61,0,0,1,4.31-5.86,6.67,6.67,0,0,0,1.86-3.33c.17-1.76-3.45.41-3.67-.82s-2.5-9.18-1.24-11.64S28.49,12.19,35.21,14Z"/><path d="M25.94,13,24.35,8.39s12.71-4.06,19.3.25c5.14,3.36,6.38,7.82,6,11.07a10.89,10.89,0,0,1-2,5.16l-2-1s2.15-6.47-2.16-10S25.94,13,25.94,13Z"/><path d="M29.13,11.78V16L42,21.7l5-.86-1.38-9.26L33.14,9.69Z"/><path d="M24.7,39.07a2.22,2.22,0,0,0,1.72-.45c1-.74,4.22-4.22,1.38-4.75C25.47,33.46,24.18,38.94,24.7,39.07Z"/><path d="M32.28,52.67l12-9.92,10.35,5.5V62.06l-20.47.32Z"/><path class="cls-2" d="M44.3,42.8l-12,9.87,1,4.75-1.77-4.79,10.11-9.51Z"/><path d="M0,61.82V6L60.36,0V60.25Zm3.36-53V58.45L57,57.05V3.57Z"/></g></g></svg>