<svg xmlns="http://www.w3.org/2000/svg" viewBox="0 0 64.7 64.72"><defs><style>.cls-1{fill:#fff;}.cls-2{fill:#e84566;}</style></defs><g id="Capa_2" data-name="Capa 2"><g id="Capa_1-2" data-name="Capa 1"><path class="cls-1" d="M61.24,57.74,4.5,61.28l-.2-50L61,4.28Z"/><path d="M1,64.72.82,8.43,64.48.6l.22,60.15ZM7.82,14.06,8,57.84l49.8-3.11L57.62,7.92Z"/><path class="cls-1" d="M58.48,55.12,1.75,58.66l-.2-50,56.72-7Z"/><path d="M.21,60.18,0,7.35,59.82,0,60,56.45ZM3.09,9.86l.18,47.27,53.66-3.35L56.74,3.26Z"/><path class="cls-2" d="M49.69,26a11.09,11.09,0,0,0-1.58.79,5,5,0,0,1-1.48.67,4.15,4.15,0,0,1-.69.19.57.57,0,0,0-.5.38c-.12.24-.26.46-.41.73h.29c.77,0,1.17.5.88,1.18a3.33,3.33,0,0,1-.53.86c-.38.46-.81.91-1.21,1.36l-.06.12L46,32c.83-.12,1.66-.24,2.49-.31a4.93,4.93,0,0,1,1.08.09.41.41,0,0,1,.35.46.36.36,0,0,1-.07.18c-.46.84-.91,1.68-1.33,2.52s-.76,1.56-1.16,2.38a1.83,1.83,0,0,1,.46.12c1.35.49,2.7,1,4,1.5a4.34,4.34,0,0,1,2,1.86,13.79,13.79,0,0,1,1.56,3.48c.52,1.65,1,3.33,1.42,5,.5,2,.93,3.92,1.37,5.88a11.39,11.39,0,0,1,.17,1.29v.2c.21.66-.13,1.1-.88,1.12l-22.77.52-12.07.26-12.09.27c-.53,0-.64-.16-.46-.62.49-1.31.93-2.65,1.48-4s1.18-2.69,1.86-4,1.5-2.66,2.24-3.95a15.07,15.07,0,0,1-1.76-1,7.09,7.09,0,0,1-1.12-1c-.76-.81-.38-1.84.25-2.64l.21-.21c-.14-.35-.3-.69-.41-1a1,1,0,0,1,.4-1.36l.15-.06a3.15,3.15,0,0,1,1.6-.71,2.77,2.77,0,0,0-.1-.5,1.93,1.93,0,0,1,1.4-2.33,2,2,0,0,1,.54,0,6.9,6.9,0,0,1,4.2.81c.76-.86,1.53-1.72,2.28-2.58l-.43-.48a1.32,1.32,0,0,1-.3-.73,14.44,14.44,0,0,0-.29-1.62c-.18-.94-.37-1.9-.58-2.84-.09-.41-.29-.8-.39-1.21-.13-.58-.54-.77-1.1-.89-.88-.21-1.75-.47-2.62-.71a3.76,3.76,0,0,1-.54-.13l.23-.24c.79-.84,1.61-1.66,2.38-2.52a6.07,6.07,0,0,0,1.39-2.61,5.44,5.44,0,0,1,.86-1.84,19,19,0,0,1,4.82-5.09,14.16,14.16,0,0,1,5.95-2.19l.43-.07c-.13-.19-.25-.37-.35-.55a2.11,2.11,0,0,1-.34-1.47.67.67,0,0,1,.73-.61.66.66,0,0,1,.27.09,2.49,2.49,0,0,1,.88.66,11.78,11.78,0,0,1,.8,1.19c.34-.4.67-.82,1-1.22a1.36,1.36,0,0,1,.38-.3.88.88,0,0,1,1.23.17.77.77,0,0,1,.17.38,1.63,1.63,0,0,1-.3,1.19c-.14.24-.34.48-.52.74.55.22,1.08.47,1.65.66a10.48,10.48,0,0,1,7.06,7.55c.26.9.41,1.81.75,2.68a14.1,14.1,0,0,0,2.88,4.16A1.16,1.16,0,0,1,49.69,26Zm-23,6.41a6,6,0,0,0,8-1.08,5.15,5.15,0,0,0-.41-7.16,6.06,6.06,0,0,0-7.55-.3c-2,1.45-3.4,4.91-1.13,7.59a11.33,11.33,0,0,0-.94.74c-.32.32-.62.66-.94,1s-.31.33.05.62l.17.16.75.85a10.87,10.87,0,0,0,2-2.46ZM24.82,35c-.53.6-1.05,1.21-1.6,1.81-.25.27-.41.51-.18.86a2.29,2.29,0,0,1,.21.72c0,.11,0,.26.11.32.28.25.21.59.23.89.05.59.06,1.17.07,1.77a10.7,10.7,0,0,1,0,1.79.5.5,0,0,0,.29.65h0l3.11,1.48c.42.2.54.27.29.81a1.14,1.14,0,0,1-.1.19A25.38,25.38,0,0,0,25,51.87c-.19.66-.3,1.34-.45,2h.1a1.26,1.26,0,0,0,.13-.26l2.81-6c.25-.55.56-1.08.79-1.62a1,1,0,0,0-.49-1.23c-1-.42-1.92-.84-2.9-1.24-.27-.11-.33-.23-.29-.49a9.59,9.59,0,0,0,.18-1.5,6.85,6.85,0,0,0-.17-2.3.43.43,0,0,1,.11-.25c.21-.17.43-.32.65-.49-.24-.33-.47-.63-.7-.93a.53.53,0,0,1,0-.75l0,0a1,1,0,0,1,.8-.3h1.52C26.36,35.94,25.6,35.49,24.82,35Z"/><path class="cls-2" d="M26.66,32.35a9.66,9.66,0,0,1-2,2.41c-.26-.29-.5-.57-.75-.84a1.37,1.37,0,0,0-.17-.17c-.37-.29-.37-.29,0-.62s.62-.68.94-1a11.56,11.56,0,0,1,.93-.74c-2.27-2.69-.87-6.14,1.13-7.59a6.08,6.08,0,0,1,7.56.3,5.16,5.16,0,0,1,.4,7.16A6,6,0,0,1,26.66,32.35Zm3.42-7.6a3.55,3.55,0,0,0-3.69,3.38v0a3.48,3.48,0,0,0,3.53,3.43H30a3.58,3.58,0,0,0,3.7-3.46h0a3.4,3.4,0,0,0-3.45-3.35h-.17Z"/><path class="cls-2" d="M24.82,35l2.37,1.42H25.67a1.07,1.07,0,0,0-.8.3.55.55,0,0,0-.09.76l0,0,.71.92c-.22.17-.45.32-.65.49a.3.3,0,0,0-.11.25,6.6,6.6,0,0,1,.17,2.3c0,.5-.09,1-.17,1.5a.37.37,0,0,0,.22.47l.06,0c1,.39,1.94.82,2.91,1.25a1,1,0,0,1,.49,1.22c-.25.55-.53,1.08-.79,1.62q-1.41,3-2.81,6a2.1,2.1,0,0,1-.13.26H24.6c.15-.66.27-1.34.45-2a26.09,26.09,0,0,1,2.27-5.56,1.62,1.62,0,0,1,.1-.18c.25-.55.13-.63-.3-.82-1.05-.48-2.08-1-3.11-1.48-.31-.15-.38-.3-.34-.66a8.92,8.92,0,0,0,0-1.79,17.15,17.15,0,0,0-.06-1.76c0-.3.05-.64-.23-.89-.08-.07-.08-.22-.11-.33a2.07,2.07,0,0,0-.22-.72c-.22-.35-.06-.58.18-.86A22,22,0,0,0,24.82,35Z"/><path class="cls-2" d="M30.08,24.79A3.4,3.4,0,0,1,33.69,28a1.28,1.28,0,0,1,0,.19A3.59,3.59,0,0,1,30,31.64a3.49,3.49,0,0,1-3.61-3.37v-.06A3.53,3.53,0,0,1,30,24.79Z"/><path d="M.21,61.84,0,8,59.8.51,60,58.06ZM3.09,10.49l.18,48.28,53.66-3.42-.19-51.6Z"/><path d="M45.06,26.07a10.54,10.54,0,0,0-1.57.8,5.13,5.13,0,0,1-1.49.67,4.12,4.12,0,0,1-.69.18.6.6,0,0,0-.5.38,5.3,5.3,0,0,1-.42.73h.3c.78,0,1.17.51.89,1.19a3.6,3.6,0,0,1-.54.85c-.38.46-.8.91-1.2,1.37l-.06.12c.56-.1,1.08-.22,1.61-.3.82-.13,1.66-.24,2.49-.32a4.35,4.35,0,0,1,1.08.1.41.41,0,0,1,.35.46.36.36,0,0,1-.07.18c-.46.83-.91,1.68-1.33,2.52s-.77,1.56-1.16,2.37a2.42,2.42,0,0,1,.46.13c1.35.49,2.7,1,4,1.49a4.37,4.37,0,0,1,2,1.87,13.65,13.65,0,0,1,1.61,3.49c.53,1.66,1,3.34,1.43,5,.5,2,.93,3.93,1.37,5.89.09.42.11.86.17,1.28a.67.67,0,0,0,0,.2c.21.66-.14,1.1-.89,1.12l-22.76.52c-4,.1-8.06.18-12.08.27L6,58.9c-.53,0-.63-.17-.46-.63C6,57,6.44,55.62,7,54.33s1.18-2.69,1.86-4,1.51-2.66,2.24-4a13.91,13.91,0,0,1-1.76-1,7.09,7.09,0,0,1-1.12-1c-.76-.8-.38-1.84.25-2.63a2.08,2.08,0,0,1,.21-.21c-.14-.36-.3-.69-.41-1a1,1,0,0,1,.41-1.35l.13-.06a3.22,3.22,0,0,1,1.61-.71,4,4,0,0,0-.09-.5,1.91,1.91,0,0,1,1.25-2.39,2,2,0,0,1,.59-.09,6.82,6.82,0,0,1,4.2.8l2.28-2.57-.43-.48a1.2,1.2,0,0,1-.29-.74,14.46,14.46,0,0,0-.3-1.62c-.18-.93-.37-1.89-.57-2.83-.1-.41-.29-.8-.39-1.22a1.4,1.4,0,0,0-1.11-.89c-.88-.21-1.75-.47-2.62-.7L12.4,25l.22-.24c.79-.83,1.6-1.65,2.38-2.52a6,6,0,0,0,1.39-2.6,5.44,5.44,0,0,1,.86-1.84,18.84,18.84,0,0,1,4.82-5.09A14.17,14.17,0,0,1,28,10.51l.43-.06c-.12-.19-.25-.38-.34-.56a2.1,2.1,0,0,1-.34-1.46.68.68,0,0,1,.75-.6.73.73,0,0,1,.25.08,2.52,2.52,0,0,1,.87.65,9.7,9.7,0,0,1,.81,1.2l1-1.23a1.53,1.53,0,0,1,.38-.29.87.87,0,0,1,1.4.54,1.66,1.66,0,0,1-.29,1.2c-.14.24-.33.48-.51.74.54.22,1.08.46,1.63.66a10.47,10.47,0,0,1,7.07,7.55c.27.89.4,1.81.75,2.67a14,14,0,0,0,2.88,4.17A2.13,2.13,0,0,1,45.06,26.07Zm-23,6.42a6,6,0,0,0,8-1.08,5.15,5.15,0,0,0-.4-7.16,6.06,6.06,0,0,0-7.55-.3c-2,1.44-3.4,4.9-1.13,7.58a9.65,9.65,0,0,0-.94.75c-.33.32-.62.66-.94,1s-.32.33,0,.62l.17.16.75.84a9.69,9.69,0,0,0,2-2.41Zm-1.84,2.62c-.54.61-1,1.22-1.6,1.81-.26.27-.4.51-.18.86a3.53,3.53,0,0,1,.22.72c0,.12,0,.26.1.33.28.25.21.58.23.89.05.58.06,1.17.07,1.76a8.92,8.92,0,0,1,0,1.79.49.49,0,0,0,.29.64l0,0c1,.49,2.06,1,3.11,1.49.42.2.53.26.29.81a.61.61,0,0,1-.09.18A25,25,0,0,0,20.44,52c-.18.66-.31,1.34-.45,2h.11c0-.08.09-.16.13-.25l2.8-6c.26-.54.56-1.08.8-1.61a1,1,0,0,0-.5-1.23c-1-.42-1.91-.84-2.9-1.25a.36.36,0,0,1-.3-.43.11.11,0,0,1,0-.05,7.68,7.68,0,0,0,.17-1.51,6.79,6.79,0,0,0-.17-2.29.3.3,0,0,1,.12-.25c.21-.18.43-.33.65-.49l-.71-.93a.53.53,0,0,1,0-.75l.05,0a1,1,0,0,1,.79-.29h1.52c-.84-.57-1.6-1-2.38-1.5Z"/><path class="cls-1" d="M22,32.49a9.8,9.8,0,0,1-2,2.4l-.75-.84-.17-.16c-.37-.29-.37-.29-.05-.62s.61-.68.94-1a11.77,11.77,0,0,1,.93-.75c-2.27-2.69-.87-6.13,1.13-7.58a6,6,0,0,1,7.55.3A5.15,5.15,0,0,1,30,31.4,6,6,0,0,1,22,32.49Zm3.43-7.59a3.55,3.55,0,0,0-3.71,3.36v.06a3.49,3.49,0,0,0,3.56,3.42h.06a3.59,3.59,0,0,0,3.71-3.46,3.41,3.41,0,0,0-3.43-3.39Z"/><path class="cls-1" d="M20.19,35.11l2.36,1.42H21a1.06,1.06,0,0,0-.79.3.53.53,0,0,0-.09.74l0,0c.22.3.46.59.71.93-.22.16-.45.32-.65.49a.3.3,0,0,0-.12.25,6.6,6.6,0,0,1,.17,2.3,9.45,9.45,0,0,1-.18,1.5c0,.27,0,.38.29.49,1,.39,1.93.81,2.9,1.24A1,1,0,0,1,23.8,46c-.25.54-.54,1.08-.8,1.62l-2.8,6-.13.26H20c.14-.66.26-1.34.45-2a25,25,0,0,1,2.28-5.57l.09-.18c.25-.54.14-.62-.28-.81-1.06-.48-2.08-1-3.11-1.49-.31-.14-.39-.29-.34-.66a8.92,8.92,0,0,0,0-1.79A14.8,14.8,0,0,0,19,39.66a1.25,1.25,0,0,0-.23-.89c-.07-.07-.07-.21-.1-.33a3,3,0,0,0-.21-.71c-.22-.36-.07-.59.17-.86C19.14,36.35,19.66,35.71,20.19,35.11Z"/><path d="M25.46,24.9a3.4,3.4,0,0,1,3.61,3.19,1.28,1.28,0,0,1,0,.19,3.58,3.58,0,0,1-3.7,3.46,3.43,3.43,0,0,1-.44-6.85,3,3,0,0,1,.52,0Z"/></g></g></svg>