<svg xmlns="http://www.w3.org/2000/svg" viewBox="0 0 64.59 64.64"><defs><style>.cls-1{fill:#ffe97a;}.cls-2{fill:#fff;}</style></defs><g id="Capa_2" data-name="Capa 2"><g id="Capa_1-2" data-name="Capa 1"><path d="M1.42,64.64,1.2,7.34,64.59,3.59l-.77,58ZM5.66,11.32l.17,48.87,53.55-2.62.69-49.46Z"/><path class="cls-1" d="M59.84,57.5,2.59,59.85,2.4,8.29,59.59,2.41Z"/><path d="M.22,62.24,0,6.41,60.82,0,61,59.67ZM3,9,3.19,59.2,58,57,57.85,3.3Z"/><path class="cls-2" d="M28.66,40.14c.15,1.22.31,2.42.48,3.72l-1.37-.23c.26-1.19.5-2.33.76-3.48Z"/><path class="cls-2" d="M38.83,39.1a4.78,4.78,0,0,1,1.07.07c-.16.57-.32,1.13-.52,1.82a6,6,0,0,1-1-.8.81.81,0,0,1-.15-.69A.89.89,0,0,1,38.83,39.1Z"/><path class="cls-2" d="M2.09,32.89c.25.59.48,1.18.76,1.75a5.59,5.59,0,0,0,.63,1,.5.5,0,0,0,.7.16.4.4,0,0,0,.12-.1c.22-.18.43-.38.66-.54a.47.47,0,0,1,.33,0,5,5,0,0,1,1,.18.46.46,0,0,1,.25.1,2.21,2.21,0,0,1,.44.52,32.33,32.33,0,0,1,1.49,3.22c.6,1.63,1.68,2.9,2.21,4.55.71,2.26,2,3.82,3.1,5.94a2,2,0,0,0,1.5,1.17c1.16.18,2.32-1.26,3.34-2.12a17.75,17.75,0,0,0,2.25-1.8,19.71,19.71,0,0,0-.67,2.27c-.07.8-.17,1.6-.21,2.41a28.43,28.43,0,0,1-1.1,5.4c-.11.43-.14.88-.24,1.4h3.12v.15a2.45,2.45,0,0,0,.93-.15H45.85c.09-1.05.19-2.13.28-3.2h.12c.21,1.07.41,2.14.62,3.26H48c.14.55.25.93.27,1,2.4.09,4.32.39,6.71.5a3.82,3.82,0,0,0-.37-1.52h2.83a.54.54,0,0,0,0-.18c-.54-1-1.1-2.08-1.62-3.13A18.22,18.22,0,0,1,54.88,53c-1-2.87-2-5.77-3-8.63A32.24,32.24,0,0,0,48.8,38.1c-.06-.08-.13-.16-.19-.25L48.34,37c-.34-1-3.63-.75-4.58-1.24-1.13-.59.43-2.15-.79-2.46a18.42,18.42,0,0,1-2.7-.86,13.26,13.26,0,0,0,7.62-7.39c-1.72-.79-3.43-1.57-5.14-2.37a14.58,14.58,0,0,1-4.59-3.25l.35.18c2.65,1.28,4.59,5,7.24,6.27a43.2,43.2,0,0,0,6.48,1.19c1,.13-1.51-3-1.66-4-.12-.66-.28-1.32-.38-2a1.5,1.5,0,0,1,.1-.66,5.54,5.54,0,0,1,.3-.53,1.61,1.61,0,0,1,1.4-1,7.21,7.21,0,0,0,2.19-.61c.7-.33.94-.87.51-1.54a26.9,26.9,0,0,0-4.27-5.52,13.19,13.19,0,0,0-8.93-3.37,55.23,55.23,0,0,0-8.33.52,8.81,8.81,0,0,0-1.92.69.63.63,0,0,0-.37.81h0c.28.94.5,1.9.85,2.81a3.38,3.38,0,0,1,.06,2.7,15.65,15.65,0,0,0-1.22,6c0,1.22.24,2.44.35,3.66a4.68,4.68,0,0,1,0,1.75,5.48,5.48,0,0,1-1.16,1.54c-.07.07-.31,0-.48,0a21.05,21.05,0,0,0-2.48-.42,8.92,8.92,0,0,0-3.87.41,6.73,6.73,0,0,0-3.64,2.93c-.53,1-1,1.93-1.56,2.88a33.08,33.08,0,0,0-2.22,5.24c-.9-1.66-1.84-3.45-2.64-4.81a4.18,4.18,0,0,1-.4-.89c-.26-.86-.49-1.74-.73-2.61a1.14,1.14,0,0,1,.59-1.5l0,0a6.64,6.64,0,0,1,.86-.28c-.11-.48-.18-.52-.73-.42a.39.39,0,0,1-.49-.22.35.35,0,0,1,.16-.48h0c.09-.06,1.4-.44,1.45-.45-.25-.52-1.17-1.46-1.39-2C10.84,22.49,8.92,18,7.52,14.8c0-.12-1.45,0-1.52-.13-.27.13-1.23.47-1.25.73-.06.64.83,1.83,1,2.5a.79.79,0,0,0,.06.22s-.11-.16-.26.32c-.07.27-.48,0-.74.16.88,2.11,1.78,5.06,2.66,7.21-.52-.42-1-.91-1.58-.67s-.54,1-.57,1.59L5,26.66a.61.61,0,0,0-.75.4.77.77,0,0,0,0,.15,1.22,1.22,0,0,1-.55,1.07.71.71,0,0,0-.42.67.45.45,0,0,1-.12.21,1.32,1.32,0,0,0-.34,1.45.85.85,0,0,1-.31,1.15l0,0a.77.77,0,0,0-.38,1ZM45.89,18.6a2.78,2.78,0,0,1,1.3-2.42,1,1,0,0,1,1.39.24.92.92,0,0,1,.17.41,3.34,3.34,0,0,1-1.26,3,.9.9,0,0,1-1.27-.19.85.85,0,0,1-.15-.3c-.07-.24-.13-.49-.18-.74ZM36.34,39.31a2.75,2.75,0,0,1,3-1.8,20.28,20.28,0,0,1,2.18.51.87.87,0,0,1,.71,1,.83.83,0,0,1,0,.15c-.39,1.63-.77,3.28-1.12,4.92-.28,1.37-.51,2.74-.78,4.11-.13.68-.49.87-1.13.58-.29-.13-.56-.3-.85-.41-.57-.21-.64-.34-.51-.93.28-1.29.57-2.59.86-3.92a.42.42,0,0,0-.18-.08,3.32,3.32,0,0,1-2.14-4.15Zm-3-.85-1-.22c-.31-.08-.64-.17-1-.27a.6.6,0,0,1-.48-.62A8.39,8.39,0,0,1,31,36.24c.09-.43.34-.56.77-.44l3,.82c.87.24.92.31.79,1.2a4.46,4.46,0,0,1-.07.51,43.05,43.05,0,0,0-.57,6c0,1.19-.16,2.38-.25,3.57a.51.51,0,0,1-.55.55A4.3,4.3,0,0,1,32.81,48a.76.76,0,0,1-.18-.58c.13-1.36.29-2.72.43-4.08v-.65h-.3c-.73,0-1.06-.27-1.06-1V41c0-.67.31-.89.93-.67.18.07.37.13.58.19.07-.66.11-1.32.17-2Zm-8,8.72c.12-.71.21-1.43.38-2.13.39-1.73.78-3.48,1.22-5.2.34-1.33.73-2.64,1.14-3.93a.77.77,0,0,1,.87-.64h0a.94.94,0,0,1,.74.89c.19,1.29.41,2.58.6,3.88.27,1.84.54,3.7.77,5.55a16.54,16.54,0,0,1,.08,2.11,1,1,0,0,1-.31.66c-.41.28-.82,0-1.2-.19s-.28-.44-.28-.71c0-.73,0-1.46-.06-2.2H27.48L27.16,47a1,1,0,0,1-1,1c-.57.06-.89-.23-.8-.8Z"/><path d="M33,42.15c.16,1.22.32,2.43.48,3.71l-1.37-.23c.26-1.19.51-2.33.77-3.48Z"/><path d="M43.16,41.11a4.91,4.91,0,0,1,1.08.07c-.17.57-.32,1.13-.52,1.83a6,6,0,0,1-1-.81.78.78,0,0,1-.15-.69A1,1,0,0,1,43.16,41.11Z"/><path d="M6.43,34.89c.25.58.48,1.17.77,1.74a5,5,0,0,0,.63,1,.51.51,0,0,0,.71.15.52.52,0,0,0,.11-.1c.22-.18.43-.38.66-.54a.44.44,0,0,1,.32,0,4.88,4.88,0,0,1,1,.18.46.46,0,0,1,.25.1,2.21,2.21,0,0,1,.44.52c.51,1.07,1.09,2.11,1.49,3.22.59,1.62,1.68,2.9,2.2,4.55.72,2.26,2,3.82,3.11,5.95a2,2,0,0,0,1.5,1.16C20.78,53,22,52.27,23,51.4c1-.68,2-2.7,2.69-3.29-.35,2.36-.94,5.47-.58,3.88a22,22,0,0,1-.66,3c-.67,2.44-.79,2.24-1.24,4-.12.43-.14.88-.24,1.4h3.12v.15a2.45,2.45,0,0,0,.93-.15H50.16c.1-1-.4-2.15-.3-3.23,0,0-.28-6.17-.24-6.17.21,1.08,2.47,8.34,2.69,9.46h0c.14.54.25.92.27,1,2.4.1,4.31.39,6.71.5a4,4,0,0,0-.37-1.51h2.83a.61.61,0,0,0,0-.19c-.54-1-1.1-2.07-1.62-3.13-.35-.69-.67-1.39-1-2.11-1-2.88-2-5.78-3-8.64a33.34,33.34,0,0,0-3.08-6.22l-.19-.26c-.09-.29-.18-.57-.28-.85a3.85,3.85,0,0,0-1.84-2.32,16.57,16.57,0,0,0-3.52-1.37,17.29,17.29,0,0,1-2.7-.86,13.19,13.19,0,0,0,7.61-7.39c-1.71-.79-3.42-1.57-5.13-2.37a14.42,14.42,0,0,1-4.59-3.25l.35.18,7.94,3.86a9,9,0,0,0,2.91.86c1,.12,1.36-.28,1.21-1.23-.12-.66-.28-1.32-.38-2a1.37,1.37,0,0,1,.1-.66,5.54,5.54,0,0,1,.3-.53,1.61,1.61,0,0,1,1.4-.95,7.21,7.21,0,0,0,2.19-.61,1,1,0,0,0,.64-1.26,1,1,0,0,0-.14-.28,26.79,26.79,0,0,0-4.26-5.51A13.25,13.25,0,0,0,45.79,10a56.56,56.56,0,0,0-8.33.52,9.24,9.24,0,0,0-1.93.69.64.64,0,0,0-.36.82c.28.94.5,1.9.85,2.81a3.42,3.42,0,0,1,.06,2.7,15.66,15.66,0,0,0-1.23,6c0,1.21.25,2.43.36,3.65a4.73,4.73,0,0,1,0,1.76,5.83,5.83,0,0,1-1.16,1.54c-.07.06-.32,0-.48,0A21.83,21.83,0,0,0,31,30.34a9.48,9.48,0,0,0-3.79.1c-1.53.56-2.5,2.08-3.31,3.55a22.79,22.79,0,0,0-1.47,2.92c-.7,2-1.29,4.89-1.94,6.67-.9-1.66-2.55-5.54-3.35-6.9a4.18,4.18,0,0,1-.4-.89c-.26-.86-.49-1.74-.73-2.61a1.13,1.13,0,0,1,.58-1.49l.06,0a5.44,5.44,0,0,1,.86-.29c-.11-.48-.18-.52-.73-.41a.4.4,0,0,1-.49-.22.38.38,0,0,1,.16-.5h0c.08-.06,1.4-.43,1.45-.45-.25-.52-1.17-1.46-1.39-2-1.4-3.18-3.33-7.69-4.72-10.88,0-.12-1.45,0-1.52-.13-.27.13-1.23.47-1.25.73-.06.64.83,1.83,1,2.5a1.87,1.87,0,0,0,.07.22s-.11-.15-.26.33c-.08.26-.49,0-.74.15.88,2.11,1.78,5.06,2.66,7.21-.52-.41-.95-.91-1.58-.67s-.54,1-.58,1.59l-.35-.07a.61.61,0,0,0-.75.41.77.77,0,0,0,0,.15,1.19,1.19,0,0,1-.55,1.06.71.71,0,0,0-.42.67.35.35,0,0,1-.12.21,1.31,1.31,0,0,0-.34,1.46.83.83,0,0,1-.3,1.13l0,0A.8.8,0,0,0,6.43,34.89Zm43.81-14.3a2.81,2.81,0,0,1,1.29-2.42,1,1,0,0,1,1.39.24.92.92,0,0,1,.17.41,3.31,3.31,0,0,1-1.25,3,.92.92,0,0,1-1.29-.19,1.11,1.11,0,0,1-.14-.29A6.74,6.74,0,0,1,50.24,20.59ZM40.68,41.3a2.76,2.76,0,0,1,3-1.8c.74.12,1.45.33,2.17.51a.88.88,0,0,1,.72,1,.84.84,0,0,1,0,.17c-.38,1.63-.76,3.28-1.11,4.92-.29,1.37-.51,2.75-.78,4.12-.14.68-.49.86-1.13.57-.29-.12-.57-.3-.85-.41-.57-.21-.65-.34-.51-.93.28-1.29.57-2.59.86-3.92l-.18-.08A3.32,3.32,0,0,1,40.68,41.3Zm-3-.86c-.34-.08-.67-.13-1-.22s-.64-.16-1-.27a.59.59,0,0,1-.49-.62,8.42,8.42,0,0,1,.14-1.11c.08-.43.34-.56.76-.44l3,.82c.86.24.92.31.79,1.2a1.29,1.29,0,0,1-.07.51,43.07,43.07,0,0,0-.58,6c0,1.19-.15,2.38-.24,3.57a.52.52,0,0,1-.55.56A4.59,4.59,0,0,1,37.14,50c-.13-.07-.2-.39-.18-.58.12-1.36.28-2.72.43-4.08v-.65h-.3c-.74,0-1.06-.27-1.06-1V43q0-1,.93-.66l.58.18c.05-.68.13-1.33.18-2Zm-8,8.73c.12-.71.21-1.42.37-2.12.4-1.74.79-3.49,1.23-5.21.34-1.32.73-2.64,1.14-3.93a.77.77,0,0,1,.87-.64h0a.94.94,0,0,1,.74.89c.19,1.29.41,2.59.6,3.88.27,1.85.54,3.7.77,5.55a16.54,16.54,0,0,1,.08,2.11,1,1,0,0,1-.3.66c-.42.29-.82,0-1.2-.19s-.28-.43-.28-.71c0-.73,0-1.46-.07-2.19H31.83L31.51,49a1,1,0,0,1-1,1c-.63.1-.92-.19-.81-.76Z"/><path d="M48.22,41,39.9,35.4,27.77,37.7l.49,15.56,17.63.82Z"/><path class="cls-2" d="M29.59,41.14h2.77a1.68,1.68,0,0,1,1.08.34,2.47,2.47,0,0,1,.7.9,4.47,4.47,0,0,1,.34,1.29,7.22,7.22,0,0,1,0,1.47,6.82,6.82,0,0,1-.32,1.49A5.33,5.33,0,0,1,33.59,48a3.62,3.62,0,0,1-.88.91,2,2,0,0,1-1.14.34h-1l-.35,3.32H28.47Zm2.21,5.47a.61.61,0,0,0,.46-.21,1.48,1.48,0,0,0,.31-.53,2.19,2.19,0,0,0,.16-.67,2.51,2.51,0,0,0,0-.67,1.28,1.28,0,0,0-.21-.53.54.54,0,0,0-.42-.21h-1l-.29,2.81h1Z"/><path class="cls-2" d="M36.9,45.88h2.69l-.27,2.66H36.59l-.41,3.91H34.4l1.19-11.32h4.83l-.27,2.72H37.09Z"/><path class="cls-2" d="M45.39,52.42H43.52l-.21-2.27H41.46l-.67,2.27H38.91L42.5,41.09h1.6Zm-2.25-4.81L43,44.3h-.05l-.85,3.31Z"/></g></g></svg>