<svg xmlns="http://www.w3.org/2000/svg" viewBox="0 0 64.15 64.55"><defs><style>.cls-1{fill:#e84566;}.cls-2{fill:#fff;}</style></defs><g id="Capa_2" data-name="Capa 2"><g id="Capa_1-2" data-name="Capa 1"><path d="M1.75,64.55,1.54,7.13,64.15,3.41l-.8,58.09ZM6,11.12l.18,49L59,57.49,59.69,8Z"/><path class="cls-1" d="M58.34,57,1.68,59.39,1.49,7.51,58.13,1.58Z"/><path d="M.21,60.86,0,6.25,59.59,0l.21,58.36ZM3,8.79,3.14,57.9l53.67-2.25-.19-52.5Z"/><path class="cls-2" d="M61.81,57.43,6.81,61a20.87,20.87,0,0,1,.09-2.24c.25-2,.5-4,.83-6,.24-1.45.62-2.86.9-4.29a4.08,4.08,0,0,1,1-2.1c1.44-1.6,2.87-3.23,4.34-4.8a25.68,25.68,0,0,1,2-1.76A2.47,2.47,0,0,0,17,38h-.49a7.2,7.2,0,0,1-5.38-2.18,11.71,11.71,0,0,1-3.42-9.12A8.13,8.13,0,0,1,9.3,22.15a10.66,10.66,0,0,1,8.56-4.36c3.18-.13,5.57,1.53,7.32,4.2a5.13,5.13,0,0,0,.92,1,5.84,5.84,0,0,0,1,.71c.59.32.73.69.44,1.55a1.08,1.08,0,0,0,.11,1,7.57,7.57,0,0,1,.71,1.15,8,8,0,0,1,1,3.69,1.53,1.53,0,0,1-.87,1.49c-.81.39-1.62.81-2.42,1.21a.44.44,0,0,0-.33.45c0,1.28,0,2.55.06,3.83,0,.09.15.23.26.24.9.13,1.81.21,2.71.33,1.15.15,2.36.18,3,1.41h.14a3.49,3.49,0,0,0,.34-1c0-1-.11-2.06-.18-3.09a4,4,0,0,1,.62-2.7,21.61,21.61,0,0,1,2-2.28c1-1.08,2.05-2.13,3.08-3.2a.58.58,0,0,0,.15-.45,8.16,8.16,0,0,0-.44-1.06l-.34.28c-.3.24-.6.5-.91.72-1.63,1.11-3,1.12-4.36-.18-1.56-1.44-3.07-3-4.49-4.55a11.29,11.29,0,0,1-2.47-6.3,8.8,8.8,0,0,1,2.86-7.83,11.58,11.58,0,0,1,5.64-2.72,7.46,7.46,0,0,1,6,1.12,9.55,9.55,0,0,1,4.53,9.48.69.69,0,0,0,.08.4c1,2,2,3.94,2.95,5.92.11.24.26.29.53.23a25.6,25.6,0,0,1,3.37-.5,4,4,0,0,1,3.68,1.82A11.5,11.5,0,0,1,56,26.63a54.68,54.68,0,0,1,2.3,7.19,40,40,0,0,1,1.11,5.93c.13,1.63.24,3.26.41,4.86.34,3,.68,5.93,1.1,8.87C61.15,54.8,61.52,56.1,61.81,57.43ZM33.64,44.29c-.82-1-2.68-2.91-3.68-3.14a5.42,5.42,0,0,0-4.85,1.18,4,4,0,0,0-.87,1.05A5.12,5.12,0,0,0,24,47.72a7.65,7.65,0,0,0,5,4.86,43.93,43.93,0,0,0,4.93,1.25c1.31.28,2.65.46,4,.69a.71.71,0,0,0,.87-.5c.67-1.61,1.4-3.18,2.08-4.78a14.5,14.5,0,0,0,1.19-7,9.31,9.31,0,0,0-.8-3.48A3.57,3.57,0,0,0,37.34,37,5.16,5.16,0,0,0,35,38.26C33.93,39.3,33.88,42.59,33.64,44.29Zm2-22.64a2.09,2.09,0,0,0-.4.19c-.87.62-1.75,1.22-2.59,1.9-.31.24-.88.42-.75.92s.5.66.77,1c0,0,0,0,.08.07a1.43,1.43,0,0,0,2-.26,1.57,1.57,0,0,0,.18-.31A12.89,12.89,0,0,0,35.45,24a3.85,3.85,0,0,0,.17-2.3ZM23.72,30.38c.11.08.13.12.16.13a4.6,4.6,0,0,0,3.95-1,.32.32,0,0,0,.07-.27c-.07-.24-.18-.47-.27-.72a5.08,5.08,0,0,1-3.93,1.86Z"/><path class="cls-2" d="M33.64,44.29c0-1.89.29-5,1.35-6A5.11,5.11,0,0,1,37.35,37a3.57,3.57,0,0,1,3.89,1.81,9.31,9.31,0,0,1,.8,3.48,14.27,14.27,0,0,1-1.19,7c-.68,1.6-1.41,3.17-2.08,4.78a.71.71,0,0,1-.87.5c-1.33-.23-2.67-.42-4-.69A43.93,43.93,0,0,1,29,52.61a7.65,7.65,0,0,1-5-4.86,5.12,5.12,0,0,1,.27-4.34,3.67,3.67,0,0,1,.87-1A5.35,5.35,0,0,1,30,41.18C31,41.38,32.81,43.19,33.64,44.29Z"/><path class="cls-2" d="M35.62,21.65a4,4,0,0,1-.18,2.29,12.89,12.89,0,0,1-.51,1.21,1.44,1.44,0,0,1-1.9.74,1.22,1.22,0,0,1-.29-.17.09.09,0,0,1-.08-.07c-.27-.33-.66-.61-.77-1s.45-.68.75-.92c.83-.68,1.72-1.28,2.59-1.9A2.32,2.32,0,0,1,35.62,21.65Z"/><path class="cls-2" d="M23.7,30.38a5,5,0,0,0,3.91-1.82c.09.25.2.47.27.72a.37.37,0,0,1-.07.27,4.6,4.6,0,0,1-3.95,1A1.29,1.29,0,0,0,23.7,30.38Z"/><path d="M58.46,58.74l-55,3.57a20.87,20.87,0,0,1,.08-2.24c.25-2,.5-4,.84-6,.24-1.45.62-2.86.9-4.29a4.08,4.08,0,0,1,1-2.1c1.44-1.6,2.87-3.23,4.34-4.8a21.31,21.31,0,0,1,2-1.76,2.47,2.47,0,0,0,1-1.79h-.49a7.2,7.2,0,0,1-5.38-2.18A11.75,11.75,0,0,1,4.32,28,8.18,8.18,0,0,1,6,23.47a10.61,10.61,0,0,1,8.56-4.37c3.18-.12,5.57,1.53,7.33,4.2a5.13,5.13,0,0,0,.92,1,5.39,5.39,0,0,0,1,.72c.58.31.73.69.44,1.54a1.08,1.08,0,0,0,.11,1A10.45,10.45,0,0,1,25,28.71a8,8,0,0,1,1,3.69,1.53,1.53,0,0,1-.87,1.49c-.81.39-1.62.81-2.42,1.21a.44.44,0,0,0-.33.45c0,1.28,0,2.55.06,3.83,0,.09.15.23.26.25.9.12,1.81.21,2.7.32,1.15.15,2.36.18,3,1.41h.13a3.51,3.51,0,0,0,.35-1c0-1-.11-2-.18-3.09a4,4,0,0,1,.61-2.7,25.49,25.49,0,0,1,2-2.28c1-1.08,2.05-2.12,3.08-3.2a.58.58,0,0,0,.15-.45c-.13-.36-.28-.71-.44-1.06l-.34.28c-.3.24-.6.5-.92.72-1.62,1.11-2.94,1.12-4.35-.18s-3.07-3-4.49-4.54a11.39,11.39,0,0,1-2.51-6.35,8.75,8.75,0,0,1,2.86-7.82,11.54,11.54,0,0,1,5.64-2.72,7.38,7.38,0,0,1,6,1.11,9.54,9.54,0,0,1,4.53,9.49.59.59,0,0,0,.08.39c1,2,2,3.94,2.95,5.93.11.23.26.28.52.23a27.41,27.41,0,0,1,3.37-.51,4,4,0,0,1,3.69,1.82,11.14,11.14,0,0,1,1.41,2.52,54.82,54.82,0,0,1,2.3,7.2A42.3,42.3,0,0,1,56,41c.13,1.63.24,3.26.41,4.87.33,3,.68,5.92,1.1,8.86C57.81,56.1,58.16,57.41,58.46,58.74ZM30.27,45.59c-.82-1-2.68-2.91-3.68-3.14a5.42,5.42,0,0,0-4.85,1.18,4,4,0,0,0-.87,1A5.12,5.12,0,0,0,20.6,49a7.65,7.65,0,0,0,5,4.86,43.93,43.93,0,0,0,4.93,1.25c1.31.29,2.65.47,4,.69a.72.72,0,0,0,.87-.5c.67-1.61,1.4-3.18,2.08-4.78a14.29,14.29,0,0,0,1.18-6.95,9.31,9.31,0,0,0-.8-3.48A3.58,3.58,0,0,0,34,38.3a5.18,5.18,0,0,0-2.36,1.32C30.56,40.6,30.52,43.9,30.27,45.59Zm2-22.63a1.59,1.59,0,0,0-.4.18c-.87.62-1.75,1.22-2.59,1.9-.3.24-.88.42-.75.92s.5.66.77,1c0,0,0,.05.08.08a1.43,1.43,0,0,0,2.19-.58,12.89,12.89,0,0,0,.51-1.21A3.82,3.82,0,0,0,32.25,23ZM20.36,31.68c.11.09.13.12.16.13a4.6,4.6,0,0,0,3.95-1,.32.32,0,0,0,.07-.28c-.07-.24-.18-.47-.27-.72a5.08,5.08,0,0,1-3.93,1.87Z"/><path class="cls-2" d="M30.27,45.59c0-1.88.29-5,1.35-6A5.13,5.13,0,0,1,34,38.27a3.58,3.58,0,0,1,3.89,1.81,9.31,9.31,0,0,1,.8,3.48,14.29,14.29,0,0,1-1.18,6.95c-.68,1.6-1.41,3.17-2.08,4.78a.71.71,0,0,1-.87.5c-1.33-.23-2.67-.41-4-.69a43.93,43.93,0,0,1-4.93-1.25,7.65,7.65,0,0,1-5-4.86,5.12,5.12,0,0,1,.27-4.34,3.67,3.67,0,0,1,.87-1,5.35,5.35,0,0,1,4.85-1.18C27.59,42.68,29.45,44.53,30.27,45.59Z"/><path class="cls-2" d="M32.26,23a3.87,3.87,0,0,1-.18,2.28,8.65,8.65,0,0,1-.52,1.21,1.43,1.43,0,0,1-1.88.76,1.83,1.83,0,0,1-.3-.18.24.24,0,0,1-.09-.08c-.26-.33-.66-.6-.76-1s.45-.68.75-.92c.83-.68,1.72-1.28,2.59-1.9A1.71,1.71,0,0,1,32.26,23Z"/><path class="cls-2" d="M20.34,31.68a5,5,0,0,0,3.91-1.82c.09.25.2.47.27.72a.4.4,0,0,1-.07.28,4.6,4.6,0,0,1-3.95,1Z"/></g></g></svg>