<svg xmlns="http://www.w3.org/2000/svg" viewBox="0 0 64.5 64.72"><defs><style>.cls-1{fill:#e84167;}.cls-2{fill:#fff;}</style></defs><g id="Capa_2" data-name="Capa 2"><g id="Capa_1-2" data-name="Capa 1"><path d="M1.71,64.72,1.5,7.18l63-3.76-.78,58.24ZM5.93,11.17,6.1,60.26l53.18-2.64L60,8Z"/><path class="cls-1" d="M58.65,57.16l-57,2.36-.18-52,57-5.94Z"/><path d="M.21,61,0,6.28,59.94,0l.21,58.51ZM3,8.8l.17,49.25L57.19,55.8,57,3.18Z"/><path class="cls-2" d="M47.88,17.52c-.26-.11-1.24-.26-.34,0A8.15,8.15,0,0,0,48.1,15c0-.19,0-.43-.17-.54a.89.89,0,0,0-.86.23l-2.33,2c.14-1.08,1.07-1.86.86-3.22a2.35,2.35,0,0,0-1.93.7,5.36,5.36,0,0,0-1.07,1.67c0-.85,0-1.71,0-2.56a1.07,1.07,0,0,0-.39-1c-.43-.23-.94.12-1.24.44a7.73,7.73,0,0,0-1.59,2.36,9.12,9.12,0,0,0-.56-2.36c-.08-.2-.17-.39-.39-.44a.66.66,0,0,0-.55.27c-.91,1.12-.91.89-.69,2.25a7.32,7.32,0,0,1-1.42-.73l-1.16,2s2,.89,2.24,1.05c.6.38-.38.7.26,1.08s.81.43.64,1A12.8,12.8,0,0,0,37.33,21a3.81,3.81,0,0,0,.38,2.48,2.52,2.52,0,0,1,.47,1.66,14.36,14.36,0,0,1-.25,1.78,36.8,36.8,0,0,1-.78,3.61,2.12,2.12,0,0,1-.6.47c-1.38.35-1.94,2.71-3.35,3a10.86,10.86,0,0,1-3.11.27,22,22,0,0,1-3.74-.93.66.66,0,0,1-.21-.23c-.21-.78-.38-1.55-.61-2.33a.36.36,0,0,1,.2-.48.4.4,0,0,1,.15,0L27.34,30a2,2,0,0,0,1.73-1.74c.13-1,.13-1.94.26-2.92A7.84,7.84,0,0,1,30,22.35c.86-1.9,1.42-3.92,2.11-5.85a1,1,0,0,0-.39-1.29,1.1,1.1,0,0,0-1.33.23c-.43.35-.77.78-1.21,1.21a.68.68,0,0,1-.08-.31,10.5,10.5,0,0,0-.52-1.82,14.5,14.5,0,0,0-3.4-4.73,8,8,0,0,0-7-2,6.91,6.91,0,0,0-5.9,5.66c-.38,2.67-.38,3.49.09,4.88-.6-.07-1.93.08-2.28.63s.09,1,.43,1.39a7,7,0,0,0,.83.89c.77.7,1.15,1.12,2,1.82s1.59,1.16,2.24,1.82c1,1.08,1.93,2.25,2.84,3.41a.74.74,0,0,1,.17.59C18.36,30,18,31.24,17.8,32.4a.72.72,0,0,1-.72.72.55.55,0,0,1-.18,0,20,20,0,0,1-2.54-.62,5.23,5.23,0,0,0-3.45,0,5.88,5.88,0,0,0-3,2.71,8.54,8.54,0,0,0-1,3.52c0,2.17,0,4.35-.09,6.51a27.74,27.74,0,0,1-.21,5.31l-.26,7.18,24.79.38.9-4.22-2.8-.2a9,9,0,0,1-2.71-1.24l-3.44-2.52-9.86-7.4,15,10s2,1.05,3.36.66a5.11,5.11,0,0,0,3.26-1.85C36,50,36.68,47,37.16,44.77a1.83,1.83,0,0,0,.12-.46c.56.62,1.3,1.08,1.3,1.81a23.32,23.32,0,0,1-.44,3,3.18,3.18,0,0,1-.43,1.12c-.47.89-1,1.74-1.41,2.67-.14.23,0,.59,0,.85a2.87,2.87,0,0,0,.91-.41,14.21,14.21,0,0,0,2.45-3.77,6.33,6.33,0,0,1,.52-1,1,1,0,0,1,0,.58c-.25,1.24-.51,2.44-.72,3.69-.09.34-.26.73.26,1,.29-.51.64-1,.94-1.44a6.84,6.84,0,0,0,.69-1,7.11,7.11,0,0,0,.39-3.33,1.27,1.27,0,0,1,0-.39.28.28,0,0,0,.18,0A14.86,14.86,0,0,1,42.43,50a27.07,27.07,0,0,1,0,3.37c0,.39,0,.74.56.82.9-1.71,1.55-3.41.77-5.32,1,.85,1,1.94,1.16,3a3.1,3.1,0,0,0,.47,1.7,2.76,2.76,0,0,0,1-2,5.49,5.49,0,0,0-.64-3.18,54.87,54.87,0,0,0-3.14-5.47,15.38,15.38,0,0,0-6.2-4.92c-1.29-.47-1,.74-1.59,1.86-.47.85-1,1.66-1.55,2.51a25.44,25.44,0,0,1-4,4.23c-.09.07-2.2-2.25-4-4.19l4,2.84A9.16,9.16,0,0,0,32.88,41c.87-2.13.65-4,1.56-4.35.68-.23.9-.34,1.55,0,1.07.66,2.83,1.29,3.86,1.86,1.51-1.16,3.79-3.22,5.34-4.38.6-.47.9-.93.55-1.63l-.12-.35a24.66,24.66,0,0,0-1.21-3.64c-.29-1-.86-1.71-1.16-2.71a1.35,1.35,0,0,1-.08-.82c.21-1.16.86-1.51,1.07-2.67,0,0,.38-1.32.81-1.16s7.37,2.63,10.29,3.53a11,11,0,0,0,5.5.38,14.33,14.33,0,0,0,2.59-1.16S53.52,20.17,47.88,17.52Z"/><path d="M11,18.65c.05.08.05.16.09.23C10.92,18.85,11,18.73,11,18.65Z"/><path d="M45.9,18c-.26-.11-.77.16-1,0a16.77,16.77,0,0,0,1-3c0-.19,0-.43-.17-.54a.89.89,0,0,0-.86.23c-.78.66-1.55,1.32-2.28,2,.13-1.08,1.07-1.86.86-3.22a2.32,2.32,0,0,0-1.93.7,6.29,6.29,0,0,0-1.08,1.67V13.27a1.08,1.08,0,0,0-.38-1c-.43-.23-1,.12-1.25.44a7.27,7.27,0,0,0-1.55,2.36,9.11,9.11,0,0,0-.55-2.36c-.09-.2-.18-.39-.4-.44a.61.61,0,0,0-.51.27c-.9,1.12-.9.89-.69,2.25a7.62,7.62,0,0,1-1.42-.73l-1.16,2s2,.89,2.19,1.05c.61.38-.34.7.22,1.08s.81.43.64,1A12.46,12.46,0,0,0,35.11,21a4.08,4.08,0,0,0,.34,2.48,2.52,2.52,0,0,1,.47,1.66c-.05.59-.17,1.16-.26,1.78a34.07,34.07,0,0,1-.77,3.61c0,.16-2.42,3.14-3.78,3.41a9.85,9.85,0,0,1-3.06.27,19.66,19.66,0,0,1-3.7-.93.47.47,0,0,1-.21-.23c-.22-.77-.39-1.55-.61-2.33a.38.38,0,0,1,.22-.48l.13,0,1.46-.35a2,2,0,0,0,1.73-1.74c.13-1,.13-1.93.25-2.91a8,8,0,0,1,.65-3c.78-1.91,1.47-3.87,2.06-5.85a1.06,1.06,0,0,0-.34-1.28,1,1,0,0,0-1.29.23,15.23,15.23,0,0,0-1.21,1.2.53.53,0,0,1-.09-.3,10.47,10.47,0,0,0-.51-1.82,13.77,13.77,0,0,0-3.36-4.73,7.71,7.71,0,0,0-6.89-1.94,7,7,0,0,0-5.85,5.7c-.38,2.67-.38,3.49.09,4.88-.61-.07-1.9.08-2.28.63s.08,1,.38,1.39a6.92,6.92,0,0,0,.82.89c.77.7,1.12,1.12,1.93,1.82s1.59,1.16,2.24,1.82c1,1.08,1.9,2.25,2.83,3.41a.9.9,0,0,1,.18.59c-.21,1.12-.57,2.36-.78,3.52a.72.72,0,0,1-.72.72.55.55,0,0,1-.18,0,20,20,0,0,1-2.54-.62,5.09,5.09,0,0,0-3.4,0,5.64,5.64,0,0,0-3,2.71,8.54,8.54,0,0,0-1,3.52c0,2.17,0,4.35-.08,6.51a27.74,27.74,0,0,1-.21,5.31l-.43,7.61H28.65l1-4.07-2.53-.12a7.33,7.33,0,0,1-2.28-1.2l-3.71-2.88-10-7.28,14.93,9.8a2.35,2.35,0,0,0,2.2.51c1.33-.35,2.53-.47,3.65-1.71a17.74,17.74,0,0,0,3.45-6.43,1.31,1.31,0,0,0,.12-.47c.57.62,1.3,1.08,1.3,1.82a23.3,23.3,0,0,1-.43,3,3.4,3.4,0,0,1-.44,1.12c-.46.89-1,1.74-1.41,2.67-.13.23,0,.58,0,.85a3.64,3.64,0,0,0,.81-.47,13.64,13.64,0,0,0,2.41-3.76,7.29,7.29,0,0,1,.52-1,.89.89,0,0,1,.05.58c-.26,1.25-.52,2.45-.73,3.69-.09.35-.26.74.26,1a11.38,11.38,0,0,1,1-1.43,9.86,9.86,0,0,0,.69-1A7.4,7.4,0,0,0,39.94,48a1,1,0,0,1,.05-.38.25.25,0,0,0,.17,0,16.16,16.16,0,0,1,.52,2.29c.08,1.12,0,2.25,0,3.37,0,.38,0,.74.55.81.86-1.7,1.5-3.41.78-5.31a4.54,4.54,0,0,1,1.16,3,3,3,0,0,0,.46,1.7,2.78,2.78,0,0,0,1-2.06A5.49,5.49,0,0,0,44,48.26a56.47,56.47,0,0,0-3.09-5.47,11.76,11.76,0,0,0-5.34-4.1,2,2,0,0,0-2.67.92.3.3,0,0,0,0,.08c-.47.86-1,1.67-1.5,2.52a24.76,24.76,0,0,1-3.92,4.26c-.08.08-2.15-2.25-3.95-4.18l4,2.83A9.21,9.21,0,0,0,31.05,41c.86-2.14,1.85-3.1,2.76-3.41.64-.23.47-.23,1.12.11,1.47.89.73.43,3.23,1.78,1.46-1.15,3-4.26,4.48-5.42.55-.47.9-.93.55-1.59a3.45,3.45,0,0,1-.17-.63,26.72,26.72,0,0,0-.64-3.18c-.31-1-.77-1.93-1.07-2.94a1.36,1.36,0,0,1-.09-.82c.21-1.16,2.45-1.24,2.67-2.4,0,0,.39-1.32.82-1.16s.38.81.64.89c1,.31,4,1.36,6.88,2.25a38.22,38.22,0,0,0,8.05.85,6,6,0,0,0,2.62-.47S51.5,20.63,45.9,18Zm-23.23-.93c.78-.66,1.59-1.32,2.42-2A4.37,4.37,0,0,1,25.21,19a1,1,0,0,1-1.33.49,1.51,1.51,0,0,1-.26-.18,9,9,0,0,1-1.07-1.82A.47.47,0,0,1,22.67,17.06Zm-8.35.2c0-.59.09-.66.64-.55,1.85.43,3.75.81,5.68,1.25a3.42,3.42,0,0,1-1.55,3,2.61,2.61,0,0,1-3.05-.3A4.66,4.66,0,0,1,14.32,17.26Zm2.23,6c.05-.08.09-.16.14-.23.55.3,1.12.58,1.64.89.34.23.6.27.81-.15a.55.55,0,0,1,.17-.2c.35-.34.6-.89,1-1s.73.34,1.07.62.47.19.64-.15a1.77,1.77,0,0,1,.26-.35c.6-.77.81-.81,1.42,0l.47.55c.55-.7,1.12-1.36,1.63-2-.43,1.94-.9,3.88-1.41,6-.31-.7-.61-1.32-.95-2.06a3.25,3.25,0,0,0-.26.74c-.09.26,0,.58-.13.85s-.18.43-.35.47a.52.52,0,0,1-.47-.27,11,11,0,0,1-.55-1.21,1.94,1.94,0,0,0-.47-.66c-.09.51-.17,1-.31,1.52,0,.23-.17.58-.29.62s-.4-.16-.57-.31A9.92,9.92,0,0,0,19,25.9a12.87,12.87,0,0,1,.34,1.36,3.1,3.1,0,0,1-.13.58c-.13-.07-.35-.07-.38-.19-.73-1.44-1.51-2.91-2.25-4.3Z"/></g></g></svg>